<?xml version="1.0" encoding="UTF-8" standalone="no"?>
<!DOCTYPE svg PUBLIC "-//W3C//DTD SVG 1.1//EN"
 "http://www.w3.org/Graphics/SVG/1.1/DTD/svg11.dtd">
<!-- Generated by graphviz version 2.43.0 (0)
 -->
<!-- Title: %3 Pages: 1 -->
<svg width="345pt" height="363pt"
 viewBox="0.00 0.00 344.90 362.86" xmlns="http://www.w3.org/2000/svg" xmlns:xlink="http://www.w3.org/1999/xlink">
<g id="graph0" class="graph" transform="scale(1 1) rotate(0) translate(4 358.86)">
<title>%3</title>
<polygon fill="white" stroke="transparent" points="-4,4 -4,-358.86 340.9,-358.86 340.9,4 -4,4"/>
<g id="clust1" class="cluster">
<title>clusterfloor_dim (1)</title>
<path fill="none" stroke="black" d="M226.9,-232.91C226.9,-232.91 316.9,-232.91 316.9,-232.91 322.9,-232.91 328.9,-238.91 328.9,-244.91 328.9,-244.91 328.9,-334.86 328.9,-334.86 328.9,-340.86 322.9,-346.86 316.9,-346.86 316.9,-346.86 226.9,-346.86 226.9,-346.86 220.9,-346.86 214.9,-340.86 214.9,-334.86 214.9,-334.86 214.9,-244.91 214.9,-244.91 214.9,-238.91 220.9,-232.91 226.9,-232.91"/>
<text text-anchor="middle" x="275.4" y="-240.71" font-family="Times,serif" font-size="14.00">floor_dim (1)</text>
</g>
<g id="clust2" class="cluster">
<title>cluster__obs__ (919)</title>
<path fill="none" stroke="black" d="M179.9,-8C179.9,-8 293.9,-8 293.9,-8 299.9,-8 305.9,-14 305.9,-20 305.9,-20 305.9,-209.93 305.9,-209.93 305.9,-215.93 299.9,-221.93 293.9,-221.93 293.9,-221.93 179.9,-221.93 179.9,-221.93 173.9,-221.93 167.9,-215.93 167.9,-209.93 167.9,-209.93 167.9,-20 167.9,-20 167.9,-14 173.9,-8 179.9,-8"/>
<text text-anchor="middle" x="250.9" y="-15.8" font-family="Times,serif" font-size="14.00">__obs__ (919)</text>
</g>
<!-- sigma -->
<g id="node1" class="node">
<title>sigma</title>
<ellipse fill="none" stroke="black" cx="79.9" cy="-187.43" rx="79.81" ry="37.45"/>
<text text-anchor="middle" x="79.9" y="-198.73" font-family="Times,serif" font-size="14.00">sigma</text>
<text text-anchor="middle" x="79.9" y="-183.73" font-family="Times,serif" font-size="14.00">~</text>
<text text-anchor="middle" x="79.9" y="-168.73" font-family="Times,serif" font-size="14.00">HalfStudentT</text>
</g>
<!-- log_radon -->
<g id="node5" class="node">
<title>log_radon</title>
<ellipse fill="lightgrey" stroke="black" cx="236.9" cy="-76.48" rx="60.62" ry="37.45"/>
<text text-anchor="middle" x="236.9" y="-87.78" font-family="Times,serif" font-size="14.00">log_radon</text>
<text text-anchor="middle" x="236.9" y="-72.78" font-family="Times,serif" font-size="14.00">~</text>
<text text-anchor="middle" x="236.9" y="-57.78" font-family="Times,serif" font-size="14.00">Normal</text>
</g>
<!-- sigma&#45;&gt;log_radon -->
<g id="edge4" class="edge">
<title>sigma&#45;&gt;log_radon</title>
<path fill="none" stroke="black" d="M124.05,-155.79C144.22,-141.79 168.16,-125.18 188.78,-110.87"/>
<polygon fill="black" stroke="black" points="190.88,-113.67 197.1,-105.1 186.89,-107.92 190.88,-113.67"/>
</g>
<!-- Intercept -->
<g id="node2" class="node">
<title>Intercept</title>
<ellipse fill="none" stroke="black" cx="145.9" cy="-301.38" rx="58.88" ry="37.45"/>
<text text-anchor="middle" x="145.9" y="-312.68" font-family="Times,serif" font-size="14.00">Intercept</text>
<text text-anchor="middle" x="145.9" y="-297.68" font-family="Times,serif" font-size="14.00">~</text>
<text text-anchor="middle" x="145.9" y="-282.68" font-family="Times,serif" font-size="14.00">Normal</text>
</g>
<!-- mu -->
<g id="node4" class="node">
<title>mu</title>
<polygon fill="none" stroke="black" points="293.9,-213.93 179.9,-213.93 179.9,-160.93 293.9,-160.93 293.9,-213.93"/>
<text text-anchor="middle" x="236.9" y="-198.73" font-family="Times,serif" font-size="14.00">mu</text>
<text text-anchor="middle" x="236.9" y="-183.73" font-family="Times,serif" font-size="14.00">~</text>
<text text-anchor="middle" x="236.9" y="-168.73" font-family="Times,serif" font-size="14.00">Deterministic</text>
</g>
<!-- Intercept&#45;&gt;mu -->
<g id="edge2" class="edge">
<title>Intercept&#45;&gt;mu</title>
<path fill="none" stroke="black" d="M172.47,-267.7C184.15,-253.32 197.87,-236.45 209.63,-221.98"/>
<polygon fill="black" stroke="black" points="212.35,-224.18 215.94,-214.22 206.92,-219.77 212.35,-224.18"/>
</g>
<!-- floor -->
<g id="node3" class="node">
<title>floor</title>
<ellipse fill="none" stroke="black" cx="271.9" cy="-301.38" rx="49.49" ry="37.45"/>
<text text-anchor="middle" x="271.9" y="-312.68" font-family="Times,serif" font-size="14.00">floor</text>
<text text-anchor="middle" x="271.9" y="-297.68" font-family="Times,serif" font-size="14.00">~</text>
<text text-anchor="middle" x="271.9" y="-282.68" font-family="Times,serif" font-size="14.00">Normal</text>
</g>
<!-- floor&#45;&gt;mu -->
<g id="edge1" class="edge">
<title>floor&#45;&gt;mu</title>
<path fill="none" stroke="black" d="M260.73,-264.65C256.65,-251.6 252.04,-236.85 247.97,-223.82"/>
<polygon fill="black" stroke="black" points="251.3,-222.75 244.98,-214.25 244.62,-224.84 251.3,-222.75"/>
</g>
<!-- mu&#45;&gt;log_radon -->
<g id="edge3" class="edge">
<title>mu&#45;&gt;log_radon</title>
<path fill="none" stroke="black" d="M236.9,-160.89C236.9,-149.98 236.9,-136.89 236.9,-124.35"/>
<polygon fill="black" stroke="black" points="240.4,-124 236.9,-114 233.4,-124 240.4,-124"/>
</g>
</g>
</svg>