<?xml version="1.0" encoding="UTF-8" standalone="no"?>
<!DOCTYPE svg PUBLIC "-//W3C//DTD SVG 1.1//EN"
 "http://www.w3.org/Graphics/SVG/1.1/DTD/svg11.dtd">
<!-- Generated by graphviz version 2.43.0 (0)
 -->
<!-- Title: %3 Pages: 1 -->
<svg width="650pt" height="363pt"
 viewBox="0.00 0.00 650.00 362.86" xmlns="http://www.w3.org/2000/svg" xmlns:xlink="http://www.w3.org/1999/xlink">
<g id="graph0" class="graph" transform="scale(1 1) rotate(0) translate(4 358.86)">
<title>%3</title>
<polygon fill="white" stroke="transparent" points="-4,4 -4,-358.86 646,-358.86 646,4 -4,4"/>
<g id="clust1" class="cluster">
<title>clusterC(genre, levels=levels)_dim (2)</title>
<path fill="none" stroke="black" d="M20,-232.91C20,-232.91 270,-232.91 270,-232.91 276,-232.91 282,-238.91 282,-244.91 282,-244.91 282,-334.86 282,-334.86 282,-340.86 276,-346.86 270,-346.86 270,-346.86 20,-346.86 20,-346.86 14,-346.86 8,-340.86 8,-334.86 8,-334.86 8,-244.91 8,-244.91 8,-238.91 14,-232.91 20,-232.91"/>
<text text-anchor="middle" x="162" y="-240.71" font-family="Times,serif" font-size="14.00">C(genre, levels=levels)_dim (2)</text>
</g>
<g id="clust2" class="cluster">
<title>clustersigma_C(genre, levels=levels)_dim (2)</title>
<path fill="none" stroke="black" d="M302,-232.91C302,-232.91 622,-232.91 622,-232.91 628,-232.91 634,-238.91 634,-244.91 634,-244.91 634,-334.86 634,-334.86 634,-340.86 628,-346.86 622,-346.86 622,-346.86 302,-346.86 302,-346.86 296,-346.86 290,-340.86 290,-334.86 290,-334.86 290,-244.91 290,-244.91 290,-238.91 296,-232.91 302,-232.91"/>
<text text-anchor="middle" x="489" y="-240.71" font-family="Times,serif" font-size="14.00">sigma_C(genre, levels=levels)_dim (2)</text>
</g>
<g id="clust3" class="cluster">
<title>cluster__obs__ (400)</title>
<path fill="none" stroke="black" d="M184,-8C184,-8 422,-8 422,-8 428,-8 434,-14 434,-20 434,-20 434,-209.93 434,-209.93 434,-215.93 428,-221.93 422,-221.93 422,-221.93 184,-221.93 184,-221.93 178,-221.93 172,-215.93 172,-209.93 172,-209.93 172,-20 172,-20 172,-14 178,-8 184,-8"/>
<text text-anchor="middle" x="379" y="-15.8" font-family="Times,serif" font-size="14.00">__obs__ (400)</text>
</g>
<!-- nu -->
<g id="node1" class="node">
<title>nu</title>
<ellipse fill="none" stroke="black" cx="90" cy="-187.43" rx="72.25" ry="37.45"/>
<text text-anchor="middle" x="90" y="-198.73" font-family="Times,serif" font-size="14.00">nu</text>
<text text-anchor="middle" x="90" y="-183.73" font-family="Times,serif" font-size="14.00">~</text>
<text text-anchor="middle" x="90" y="-168.73" font-family="Times,serif" font-size="14.00">Exponential</text>
</g>
<!-- rating -->
<g id="node4" class="node">
<title>rating</title>
<ellipse fill="lightgrey" stroke="black" cx="239" cy="-76.48" rx="58.88" ry="37.45"/>
<text text-anchor="middle" x="239" y="-87.78" font-family="Times,serif" font-size="14.00">rating</text>
<text text-anchor="middle" x="239" y="-72.78" font-family="Times,serif" font-size="14.00">~</text>
<text text-anchor="middle" x="239" y="-57.78" font-family="Times,serif" font-size="14.00">StudentT</text>
</g>
<!-- nu&#45;&gt;rating -->
<g id="edge3" class="edge">
<title>nu&#45;&gt;rating</title>
<path fill="none" stroke="black" d="M131.11,-156.37C150.25,-142.37 173.11,-125.66 192.84,-111.23"/>
<polygon fill="black" stroke="black" points="195.08,-113.93 201.09,-105.2 190.95,-108.28 195.08,-113.93"/>
</g>
<!-- C(genre, levels=levels) -->
<g id="node2" class="node">
<title>C(genre, levels=levels)</title>
<ellipse fill="none" stroke="black" cx="145" cy="-301.38" rx="128.89" ry="37.45"/>
<text text-anchor="middle" x="145" y="-312.68" font-family="Times,serif" font-size="14.00">C(genre, levels=levels)</text>
<text text-anchor="middle" x="145" y="-297.68" font-family="Times,serif" font-size="14.00">~</text>
<text text-anchor="middle" x="145" y="-282.68" font-family="Times,serif" font-size="14.00">TruncatedNormal</text>
</g>
<!-- mu -->
<g id="node5" class="node">
<title>mu</title>
<polygon fill="none" stroke="black" points="294,-213.93 180,-213.93 180,-160.93 294,-160.93 294,-213.93"/>
<text text-anchor="middle" x="237" y="-198.73" font-family="Times,serif" font-size="14.00">mu</text>
<text text-anchor="middle" x="237" y="-183.73" font-family="Times,serif" font-size="14.00">~</text>
<text text-anchor="middle" x="237" y="-168.73" font-family="Times,serif" font-size="14.00">Deterministic</text>
</g>
<!-- C(genre, levels=levels)&#45;&gt;mu -->
<g id="edge1" class="edge">
<title>C(genre, levels=levels)&#45;&gt;mu</title>
<path fill="none" stroke="black" d="M174.36,-264.65C185.51,-251.09 198.17,-235.69 209.17,-222.3"/>
<polygon fill="black" stroke="black" points="212.13,-224.2 215.78,-214.25 206.72,-219.76 212.13,-224.2"/>
</g>
<!-- sigma_C(genre, levels=levels) -->
<g id="node3" class="node">
<title>sigma_C(genre, levels=levels)</title>
<ellipse fill="none" stroke="black" cx="462" cy="-301.38" rx="164.1" ry="37.45"/>
<text text-anchor="middle" x="462" y="-312.68" font-family="Times,serif" font-size="14.00">sigma_C(genre, levels=levels)</text>
<text text-anchor="middle" x="462" y="-297.68" font-family="Times,serif" font-size="14.00">~</text>
<text text-anchor="middle" x="462" y="-282.68" font-family="Times,serif" font-size="14.00">Cauchy</text>
</g>
<!-- sigma -->
<g id="node6" class="node">
<title>sigma</title>
<polygon fill="none" stroke="black" points="426,-213.93 312,-213.93 312,-160.93 426,-160.93 426,-213.93"/>
<text text-anchor="middle" x="369" y="-198.73" font-family="Times,serif" font-size="14.00">sigma</text>
<text text-anchor="middle" x="369" y="-183.73" font-family="Times,serif" font-size="14.00">~</text>
<text text-anchor="middle" x="369" y="-168.73" font-family="Times,serif" font-size="14.00">Deterministic</text>
</g>
<!-- sigma_C(genre, levels=levels)&#45;&gt;sigma -->
<g id="edge2" class="edge">
<title>sigma_C(genre, levels=levels)&#45;&gt;sigma</title>
<path fill="none" stroke="black" d="M432.06,-264.34C420.81,-250.79 408.06,-235.45 396.99,-222.12"/>
<polygon fill="black" stroke="black" points="399.42,-219.57 390.34,-214.11 394.03,-224.04 399.42,-219.57"/>
</g>
<!-- mu&#45;&gt;rating -->
<g id="edge4" class="edge">
<title>mu&#45;&gt;rating</title>
<path fill="none" stroke="black" d="M237.47,-160.89C237.67,-149.98 237.91,-136.89 238.14,-124.35"/>
<polygon fill="black" stroke="black" points="241.65,-124.06 238.33,-114 234.65,-123.94 241.65,-124.06"/>
</g>
<!-- sigma&#45;&gt;rating -->
<g id="edge5" class="edge">
<title>sigma&#45;&gt;rating</title>
<path fill="none" stroke="black" d="M338.52,-160.89C321.58,-146.69 300.23,-128.79 281.65,-113.22"/>
<polygon fill="black" stroke="black" points="283.79,-110.45 273.88,-106.71 279.3,-115.82 283.79,-110.45"/>
</g>
</g>
</svg>