<?xml version="1.0" encoding="UTF-8" standalone="no"?>
<!DOCTYPE svg PUBLIC "-//W3C//DTD SVG 1.1//EN"
 "http://www.w3.org/Graphics/SVG/1.1/DTD/svg11.dtd">
<!-- Generated by graphviz version 2.43.0 (0)
 -->
<!-- Title: %3 Pages: 1 -->
<svg width="365pt" height="344pt"
 viewBox="0.00 0.00 364.59 343.86" xmlns="http://www.w3.org/2000/svg" xmlns:xlink="http://www.w3.org/1999/xlink">
<g id="graph0" class="graph" transform="scale(1 1) rotate(0) translate(4 339.86)">
<title>%3</title>
<polygon fill="white" stroke="transparent" points="-4,4 -4,-339.86 360.59,-339.86 360.59,4 -4,4"/>
<g id="clust1" class="cluster">
<title>cluster__obs__ (15)</title>
<path fill="none" stroke="black" d="M68.69,-8C68.69,-8 174.69,-8 174.69,-8 180.69,-8 186.69,-14 186.69,-20 186.69,-20 186.69,-209.93 186.69,-209.93 186.69,-215.93 180.69,-221.93 174.69,-221.93 174.69,-221.93 68.69,-221.93 68.69,-221.93 62.69,-221.93 56.69,-215.93 56.69,-209.93 56.69,-209.93 56.69,-20 56.69,-20 56.69,-14 62.69,-8 68.69,-8"/>
<text text-anchor="middle" x="136.19" y="-15.8" font-family="Times,serif" font-size="14.00">__obs__ (15)</text>
</g>
<!-- Intercept -->
<g id="node1" class="node">
<title>Intercept</title>
<ellipse fill="none" stroke="black" cx="58.69" cy="-298.38" rx="58.88" ry="37.45"/>
<text text-anchor="middle" x="58.69" y="-309.68" font-family="Times,serif" font-size="14.00">Intercept</text>
<text text-anchor="middle" x="58.69" y="-294.68" font-family="Times,serif" font-size="14.00">~</text>
<text text-anchor="middle" x="58.69" y="-279.68" font-family="Times,serif" font-size="14.00">Normal</text>
</g>
<!-- mu -->
<g id="node5" class="node">
<title>mu</title>
<polygon fill="none" stroke="black" points="178.69,-213.93 64.69,-213.93 64.69,-160.93 178.69,-160.93 178.69,-213.93"/>
<text text-anchor="middle" x="121.69" y="-198.73" font-family="Times,serif" font-size="14.00">mu</text>
<text text-anchor="middle" x="121.69" y="-183.73" font-family="Times,serif" font-size="14.00">~</text>
<text text-anchor="middle" x="121.69" y="-168.73" font-family="Times,serif" font-size="14.00">Deterministic</text>
</g>
<!-- Intercept&#45;&gt;mu -->
<g id="edge1" class="edge">
<title>Intercept&#45;&gt;mu</title>
<path fill="none" stroke="black" d="M78.62,-262.91C85.99,-250.17 94.34,-235.73 101.71,-222.98"/>
<polygon fill="black" stroke="black" points="104.9,-224.45 106.88,-214.04 98.84,-220.95 104.9,-224.45"/>
</g>
<!-- effort -->
<g id="node2" class="node">
<title>effort</title>
<ellipse fill="none" stroke="black" cx="184.69" cy="-298.38" rx="49.49" ry="37.45"/>
<text text-anchor="middle" x="184.69" y="-309.68" font-family="Times,serif" font-size="14.00">effort</text>
<text text-anchor="middle" x="184.69" y="-294.68" font-family="Times,serif" font-size="14.00">~</text>
<text text-anchor="middle" x="184.69" y="-279.68" font-family="Times,serif" font-size="14.00">Normal</text>
</g>
<!-- effort&#45;&gt;mu -->
<g id="edge2" class="edge">
<title>effort&#45;&gt;mu</title>
<path fill="none" stroke="black" d="M165.27,-263.8C157.75,-250.8 149.15,-235.92 141.59,-222.84"/>
<polygon fill="black" stroke="black" points="144.58,-221.02 136.54,-214.11 138.52,-224.52 144.58,-221.02"/>
</g>
<!-- sigma -->
<g id="node3" class="node">
<title>sigma</title>
<ellipse fill="none" stroke="black" cx="276.69" cy="-187.43" rx="79.81" ry="37.45"/>
<text text-anchor="middle" x="276.69" y="-198.73" font-family="Times,serif" font-size="14.00">sigma</text>
<text text-anchor="middle" x="276.69" y="-183.73" font-family="Times,serif" font-size="14.00">~</text>
<text text-anchor="middle" x="276.69" y="-168.73" font-family="Times,serif" font-size="14.00">HalfStudentT</text>
</g>
<!-- score -->
<g id="node4" class="node">
<title>score</title>
<ellipse fill="lightgrey" stroke="black" cx="125.69" cy="-76.48" rx="49.49" ry="37.45"/>
<text text-anchor="middle" x="125.69" y="-87.78" font-family="Times,serif" font-size="14.00">score</text>
<text text-anchor="middle" x="125.69" y="-72.78" font-family="Times,serif" font-size="14.00">~</text>
<text text-anchor="middle" x="125.69" y="-57.78" font-family="Times,serif" font-size="14.00">Normal</text>
</g>
<!-- sigma&#45;&gt;score -->
<g id="edge4" class="edge">
<title>sigma&#45;&gt;score</title>
<path fill="none" stroke="black" d="M233.82,-155.5C213.59,-140.9 189.49,-123.51 169.18,-108.86"/>
<polygon fill="black" stroke="black" points="171.18,-105.98 161.02,-102.97 167.08,-111.66 171.18,-105.98"/>
</g>
<!-- mu&#45;&gt;score -->
<g id="edge3" class="edge">
<title>mu&#45;&gt;score</title>
<path fill="none" stroke="black" d="M122.63,-160.89C123.03,-149.98 123.51,-136.89 123.97,-124.35"/>
<polygon fill="black" stroke="black" points="127.48,-124.12 124.35,-114 120.48,-123.87 127.48,-124.12"/>
</g>
</g>
</svg>