<?xml version="1.0" encoding="UTF-8" standalone="no"?>
<!DOCTYPE svg PUBLIC "-//W3C//DTD SVG 1.1//EN"
 "http://www.w3.org/Graphics/SVG/1.1/DTD/svg11.dtd">
<!-- Generated by graphviz version 12.1.0 (20240811.2233)
 -->
<!-- Pages: 1 -->
<svg width="186pt" height="341pt"
 viewBox="0.00 0.00 186.00 340.63" xmlns="http://www.w3.org/2000/svg" xmlns:xlink="http://www.w3.org/1999/xlink">
<g id="graph0" class="graph" transform="scale(1 1) rotate(0) translate(4 336.63)">
<polygon fill="white" stroke="none" points="-4,4 -4,-336.63 182,-336.63 182,4 -4,4"/>
<g id="clust1" class="cluster">
<title>cluster__obs__ (30)</title>
<path fill="none" stroke="black" d="M76,-8C76,-8 158,-8 158,-8 164,-8 170,-14 170,-20 170,-20 170,-211.32 170,-211.32 170,-217.32 164,-223.32 158,-223.32 158,-223.32 76,-223.32 76,-223.32 70,-223.32 64,-217.32 64,-211.32 64,-211.32 64,-20 64,-20 64,-14 70,-8 76,-8"/>
<text text-anchor="middle" x="126" y="-15.2" font-family="Times,serif" font-size="14.00">__obs__ (30)</text>
</g>
<!-- sigma -->
<g id="node1" class="node">
<title>sigma</title>
<path fill="lightgrey" stroke="black" d="M42,-215.32C42,-215.32 12,-215.32 12,-215.32 6,-215.32 0,-209.32 0,-203.32 0,-203.32 0,-169.82 0,-169.82 0,-163.82 6,-157.82 12,-157.82 12,-157.82 42,-157.82 42,-157.82 48,-157.82 54,-163.82 54,-169.82 54,-169.82 54,-203.32 54,-203.32 54,-209.32 48,-215.32 42,-215.32"/>
<text text-anchor="middle" x="27" y="-198.02" font-family="Times,serif" font-size="14.00">sigma</text>
<text text-anchor="middle" x="27" y="-181.52" font-family="Times,serif" font-size="14.00">~</text>
<text text-anchor="middle" x="27" y="-165.02" font-family="Times,serif" font-size="14.00">Data</text>
</g>
<!-- iq -->
<g id="node4" class="node">
<title>iq</title>
<ellipse fill="lightgrey" stroke="black" cx="115" cy="-81.16" rx="41.01" ry="40.66"/>
<text text-anchor="middle" x="115" y="-92.61" font-family="Times,serif" font-size="14.00">iq</text>
<text text-anchor="middle" x="115" y="-76.11" font-family="Times,serif" font-size="14.00">~</text>
<text text-anchor="middle" x="115" y="-59.61" font-family="Times,serif" font-size="14.00">Normal</text>
</g>
<!-- sigma&#45;&gt;iq -->
<g id="edge2" class="edge">
<title>sigma&#45;&gt;iq</title>
<path fill="none" stroke="black" d="M50.81,-157.58C60.32,-146.42 71.42,-133.37 81.7,-121.29"/>
<polygon fill="black" stroke="black" points="84.21,-123.74 88.02,-113.86 78.88,-119.21 84.21,-123.74"/>
</g>
<!-- M -->
<g id="node2" class="node">
<title>M</title>
<ellipse fill="none" stroke="black" cx="117" cy="-291.98" rx="41.01" ry="40.66"/>
<text text-anchor="middle" x="117" y="-303.43" font-family="Times,serif" font-size="14.00">M</text>
<text text-anchor="middle" x="117" y="-286.93" font-family="Times,serif" font-size="14.00">~</text>
<text text-anchor="middle" x="117" y="-270.43" font-family="Times,serif" font-size="14.00">Normal</text>
</g>
<!-- mu -->
<g id="node3" class="node">
<title>mu</title>
<polygon fill="none" stroke="black" points="162.12,-215.32 71.88,-215.32 71.88,-157.82 162.12,-157.82 162.12,-215.32"/>
<text text-anchor="middle" x="117" y="-198.02" font-family="Times,serif" font-size="14.00">mu</text>
<text text-anchor="middle" x="117" y="-181.52" font-family="Times,serif" font-size="14.00">~</text>
<text text-anchor="middle" x="117" y="-165.02" font-family="Times,serif" font-size="14.00">Deterministic</text>
</g>
<!-- M&#45;&gt;mu -->
<g id="edge1" class="edge">
<title>M&#45;&gt;mu</title>
<path fill="none" stroke="black" d="M117,-251C117,-243.15 117,-234.91 117,-227.08"/>
<polygon fill="black" stroke="black" points="120.5,-227.11 117,-217.11 113.5,-227.11 120.5,-227.11"/>
</g>
<!-- mu&#45;&gt;iq -->
<g id="edge3" class="edge">
<title>mu&#45;&gt;iq</title>
<path fill="none" stroke="black" d="M116.46,-157.58C116.31,-150.1 116.15,-141.77 115.99,-133.45"/>
<polygon fill="black" stroke="black" points="119.5,-133.64 115.8,-123.71 112.5,-133.78 119.5,-133.64"/>
</g>
</g>
</svg>