<?xml version="1.0" encoding="UTF-8" standalone="no"?>
<!DOCTYPE svg PUBLIC "-//W3C//DTD SVG 1.1//EN"
 "http://www.w3.org/Graphics/SVG/1.1/DTD/svg11.dtd">
<!-- Generated by graphviz version 12.1.0 (20240811.2233)
 -->
<!-- Pages: 1 -->
<svg width="527pt" height="385pt"
 viewBox="0.00 0.00 527.25 384.95" xmlns="http://www.w3.org/2000/svg" xmlns:xlink="http://www.w3.org/1999/xlink">
<g id="graph0" class="graph" transform="scale(1 1) rotate(0) translate(4 380.95)">
<polygon fill="white" stroke="none" points="-4,4 -4,-380.95 523.25,-380.95 523.25,4 -4,4"/>
<g id="clust1" class="cluster">
<title>clustergroup_dim (1)</title>
<path fill="none" stroke="black" d="M277.25,-247.13C277.25,-247.13 351.25,-247.13 351.25,-247.13 357.25,-247.13 363.25,-253.13 363.25,-259.13 363.25,-259.13 363.25,-356.95 363.25,-356.95 363.25,-362.95 357.25,-368.95 351.25,-368.95 351.25,-368.95 277.25,-368.95 277.25,-368.95 271.25,-368.95 265.25,-362.95 265.25,-356.95 265.25,-356.95 265.25,-259.13 265.25,-259.13 265.25,-253.13 271.25,-247.13 277.25,-247.13"/>
<text text-anchor="middle" x="315.5" y="-254.33" font-family="Times,serif" font-size="14.00">group_dim (1)</text>
</g>
<g id="clust2" class="cluster">
<title>clustersigma_group_dim (1)</title>
<path fill="none" stroke="black" d="M383.25,-247.13C383.25,-247.13 499.25,-247.13 499.25,-247.13 505.25,-247.13 511.25,-253.13 511.25,-259.13 511.25,-259.13 511.25,-356.95 511.25,-356.95 511.25,-362.95 505.25,-368.95 499.25,-368.95 499.25,-368.95 383.25,-368.95 383.25,-368.95 377.25,-368.95 371.25,-362.95 371.25,-356.95 371.25,-356.95 371.25,-259.13 371.25,-259.13 371.25,-253.13 377.25,-247.13 383.25,-247.13"/>
<text text-anchor="middle" x="443.63" y="-254.33" font-family="Times,serif" font-size="14.00">sigma_group_dim (1)</text>
</g>
<g id="clust3" class="cluster">
<title>cluster__obs__ (89)</title>
<path fill="none" stroke="black" d="M153.25,-8C153.25,-8 343.25,-8 343.25,-8 349.25,-8 355.25,-14 355.25,-20 355.25,-20 355.25,-223.23 355.25,-223.23 355.25,-229.23 349.25,-235.23 343.25,-235.23 343.25,-235.23 153.25,-235.23 153.25,-235.23 147.25,-235.23 141.25,-229.23 141.25,-223.23 141.25,-223.23 141.25,-20 141.25,-20 141.25,-14 147.25,-8 153.25,-8"/>
<text text-anchor="middle" x="311.25" y="-15.2" font-family="Times,serif" font-size="14.00">__obs__ (89)</text>
</g>
<!-- nu -->
<g id="node1" class="node">
<title>nu</title>
<ellipse fill="none" stroke="black" cx="88.25" cy="-198.48" rx="42.6" ry="40.66"/>
<text text-anchor="middle" x="88.25" y="-209.93" font-family="Times,serif" font-size="14.00">nu</text>
<text text-anchor="middle" x="88.25" y="-193.43" font-family="Times,serif" font-size="14.00">~</text>
<text text-anchor="middle" x="88.25" y="-176.93" font-family="Times,serif" font-size="14.00">Gamma</text>
</g>
<!-- iq -->
<g id="node8" class="node">
<title>iq</title>
<ellipse fill="lightgrey" stroke="black" cx="195.25" cy="-81.16" rx="46.32" ry="40.66"/>
<text text-anchor="middle" x="195.25" y="-92.61" font-family="Times,serif" font-size="14.00">iq</text>
<text text-anchor="middle" x="195.25" y="-76.11" font-family="Times,serif" font-size="14.00">~</text>
<text text-anchor="middle" x="195.25" y="-59.61" font-family="Times,serif" font-size="14.00">StudentT</text>
</g>
<!-- nu&#45;&gt;iq -->
<g id="edge7" class="edge">
<title>nu&#45;&gt;iq</title>
<path fill="none" stroke="black" d="M116.09,-167.48C129.15,-153.4 144.89,-136.44 158.88,-121.36"/>
<polygon fill="black" stroke="black" points="161.18,-124.03 165.41,-114.32 156.04,-119.27 161.18,-124.03"/>
</g>
<!-- Intercept -->
<g id="node2" class="node">
<title>Intercept</title>
<ellipse fill="none" stroke="black" cx="45.25" cy="-320.29" rx="45.25" ry="40.66"/>
<text text-anchor="middle" x="45.25" y="-331.74" font-family="Times,serif" font-size="14.00">Intercept</text>
<text text-anchor="middle" x="45.25" y="-315.24" font-family="Times,serif" font-size="14.00">~</text>
<text text-anchor="middle" x="45.25" y="-298.74" font-family="Times,serif" font-size="14.00">Normal</text>
</g>
<!-- mu -->
<g id="node7" class="node">
<title>mu</title>
<polygon fill="none" stroke="black" points="239.38,-227.23 149.13,-227.23 149.13,-169.73 239.38,-169.73 239.38,-227.23"/>
<text text-anchor="middle" x="194.25" y="-209.93" font-family="Times,serif" font-size="14.00">mu</text>
<text text-anchor="middle" x="194.25" y="-193.43" font-family="Times,serif" font-size="14.00">~</text>
<text text-anchor="middle" x="194.25" y="-176.93" font-family="Times,serif" font-size="14.00">Deterministic</text>
</g>
<!-- Intercept&#45;&gt;mu -->
<g id="edge1" class="edge">
<title>Intercept&#45;&gt;mu</title>
<path fill="none" stroke="black" d="M64.94,-283.49C74.01,-270.14 85.96,-256.07 100.25,-247.13 115.63,-237.53 123.67,-246.45 140.25,-239.13 143.82,-237.56 147.38,-235.72 150.87,-233.71"/>
<polygon fill="black" stroke="black" points="152.6,-236.76 159.2,-228.47 148.87,-230.83 152.6,-236.76"/>
</g>
<!-- sigma_Intercept -->
<g id="node3" class="node">
<title>sigma_Intercept</title>
<ellipse fill="none" stroke="black" cx="182.25" cy="-320.29" rx="73.36" ry="40.66"/>
<text text-anchor="middle" x="182.25" y="-331.74" font-family="Times,serif" font-size="14.00">sigma_Intercept</text>
<text text-anchor="middle" x="182.25" y="-315.24" font-family="Times,serif" font-size="14.00">~</text>
<text text-anchor="middle" x="182.25" y="-298.74" font-family="Times,serif" font-size="14.00">Normal</text>
</g>
<!-- sigma -->
<g id="node6" class="node">
<title>sigma</title>
<polygon fill="none" stroke="black" points="347.38,-227.23 257.13,-227.23 257.13,-169.73 347.38,-169.73 347.38,-227.23"/>
<text text-anchor="middle" x="302.25" y="-209.93" font-family="Times,serif" font-size="14.00">sigma</text>
<text text-anchor="middle" x="302.25" y="-193.43" font-family="Times,serif" font-size="14.00">~</text>
<text text-anchor="middle" x="302.25" y="-176.93" font-family="Times,serif" font-size="14.00">Deterministic</text>
</g>
<!-- sigma_Intercept&#45;&gt;sigma -->
<g id="edge4" class="edge">
<title>sigma_Intercept&#45;&gt;sigma</title>
<path fill="none" stroke="black" d="M217.29,-284.31C232.72,-268.9 250.84,-250.81 266.37,-235.31"/>
<polygon fill="black" stroke="black" points="268.55,-238.07 273.16,-228.53 263.61,-233.12 268.55,-238.07"/>
</g>
<!-- group -->
<g id="node4" class="node">
<title>group</title>
<ellipse fill="none" stroke="black" cx="314.25" cy="-320.29" rx="41.01" ry="40.66"/>
<text text-anchor="middle" x="314.25" y="-331.74" font-family="Times,serif" font-size="14.00">group</text>
<text text-anchor="middle" x="314.25" y="-315.24" font-family="Times,serif" font-size="14.00">~</text>
<text text-anchor="middle" x="314.25" y="-298.74" font-family="Times,serif" font-size="14.00">Normal</text>
</g>
<!-- group&#45;&gt;mu -->
<g id="edge2" class="edge">
<title>group&#45;&gt;mu</title>
<path fill="none" stroke="black" d="M294.97,-284.17C286.73,-271.37 276.23,-257.52 264.25,-247.13 258.25,-241.93 255.04,-243.28 248.25,-239.13 245.65,-237.54 243,-235.86 240.36,-234.12"/>
<polygon fill="black" stroke="black" points="242.35,-231.23 232.11,-228.49 238.4,-237.02 242.35,-231.23"/>
</g>
<!-- sigma_group -->
<g id="node5" class="node">
<title>sigma_group</title>
<ellipse fill="none" stroke="black" cx="441.25" cy="-320.29" rx="61.7" ry="40.66"/>
<text text-anchor="middle" x="441.25" y="-331.74" font-family="Times,serif" font-size="14.00">sigma_group</text>
<text text-anchor="middle" x="441.25" y="-315.24" font-family="Times,serif" font-size="14.00">~</text>
<text text-anchor="middle" x="441.25" y="-298.74" font-family="Times,serif" font-size="14.00">Normal</text>
</g>
<!-- sigma_group&#45;&gt;sigma -->
<g id="edge3" class="edge">
<title>sigma_group&#45;&gt;sigma</title>
<path fill="none" stroke="black" d="M408.67,-285.58C396.09,-273.09 381.36,-259.08 367.25,-247.13 362.26,-242.91 356.92,-238.63 351.53,-234.47"/>
<polygon fill="black" stroke="black" points="353.75,-231.76 343.67,-228.51 349.53,-237.34 353.75,-231.76"/>
</g>
<!-- sigma&#45;&gt;iq -->
<g id="edge5" class="edge">
<title>sigma&#45;&gt;iq</title>
<path fill="none" stroke="black" d="M276.08,-169.27C262.7,-154.84 246.2,-137.06 231.6,-121.33"/>
<polygon fill="black" stroke="black" points="234.57,-119.38 225.2,-114.43 229.44,-124.14 234.57,-119.38"/>
</g>
<!-- mu&#45;&gt;iq -->
<g id="edge6" class="edge">
<title>mu&#45;&gt;iq</title>
<path fill="none" stroke="black" d="M194.5,-169.27C194.59,-158.44 194.7,-145.73 194.81,-133.41"/>
<polygon fill="black" stroke="black" points="198.31,-133.81 194.89,-123.78 191.31,-133.75 198.31,-133.81"/>
</g>
</g>
</svg>