<?xml version="1.0" encoding="UTF-8" standalone="no"?>
<!DOCTYPE svg PUBLIC "-//W3C//DTD SVG 1.1//EN"
 "http://www.w3.org/Graphics/SVG/1.1/DTD/svg11.dtd">
<!-- Generated by graphviz version 2.43.0 (0)
 -->
<!-- Title: %3 Pages: 1 -->
<svg width="156pt" height="322pt"
 viewBox="0.00 0.00 156.00 321.91" xmlns="http://www.w3.org/2000/svg" xmlns:xlink="http://www.w3.org/1999/xlink">
<g id="graph0" class="graph" transform="scale(1 1) rotate(0) translate(4 317.91)">
<title>%3</title>
<polygon fill="white" stroke="transparent" points="-4,4 -4,-317.91 152,-317.91 152,4 -4,4"/>
<g id="clust1" class="cluster">
<title>cluster__obs__ (50)</title>
<path fill="none" stroke="black" d="M20,-8C20,-8 128,-8 128,-8 134,-8 140,-14 140,-20 140,-20 140,-198.95 140,-198.95 140,-204.95 134,-210.95 128,-210.95 128,-210.95 20,-210.95 20,-210.95 14,-210.95 8,-204.95 8,-198.95 8,-198.95 8,-20 8,-20 8,-14 14,-8 20,-8"/>
<text text-anchor="middle" x="89.5" y="-15.8" font-family="Times,serif" font-size="14.00">__obs__ (50)</text>
</g>
<!-- P -->
<g id="node1" class="node">
<title>P</title>
<ellipse fill="none" stroke="black" cx="74" cy="-276.43" rx="53.98" ry="37.45"/>
<text text-anchor="middle" x="74" y="-287.73" font-family="Times,serif" font-size="14.00">P</text>
<text text-anchor="middle" x="74" y="-272.73" font-family="Times,serif" font-size="14.00">~</text>
<text text-anchor="middle" x="74" y="-257.73" font-family="Times,serif" font-size="14.00">Uniform</text>
</g>
<!-- p -->
<g id="node2" class="node">
<title>p</title>
<polygon fill="none" stroke="black" points="131,-202.95 17,-202.95 17,-149.95 131,-149.95 131,-202.95"/>
<text text-anchor="middle" x="74" y="-187.75" font-family="Times,serif" font-size="14.00">p</text>
<text text-anchor="middle" x="74" y="-172.75" font-family="Times,serif" font-size="14.00">~</text>
<text text-anchor="middle" x="74" y="-157.75" font-family="Times,serif" font-size="14.00">Deterministic</text>
</g>
<!-- P&#45;&gt;p -->
<g id="edge1" class="edge">
<title>P&#45;&gt;p</title>
<path fill="none" stroke="black" d="M74,-238.95C74,-230.53 74,-221.59 74,-213.2"/>
<polygon fill="black" stroke="black" points="77.5,-212.96 74,-202.96 70.5,-212.96 77.5,-212.96"/>
</g>
<!-- ctoss -->
<g id="node3" class="node">
<title>ctoss</title>
<ellipse fill="lightgrey" stroke="black" cx="74" cy="-76.48" rx="57.97" ry="37.45"/>
<text text-anchor="middle" x="74" y="-87.78" font-family="Times,serif" font-size="14.00">ctoss</text>
<text text-anchor="middle" x="74" y="-72.78" font-family="Times,serif" font-size="14.00">~</text>
<text text-anchor="middle" x="74" y="-57.78" font-family="Times,serif" font-size="14.00">Bernoulli</text>
</g>
<!-- p&#45;&gt;ctoss -->
<g id="edge2" class="edge">
<title>p&#45;&gt;ctoss</title>
<path fill="none" stroke="black" d="M74,-149.71C74,-141.89 74,-133.03 74,-124.27"/>
<polygon fill="black" stroke="black" points="77.5,-124.1 74,-114.1 70.5,-124.1 77.5,-124.1"/>
</g>
</g>
</svg>