<?xml version="1.0" encoding="UTF-8" standalone="no"?>
<!DOCTYPE svg PUBLIC "-//W3C//DTD SVG 1.1//EN"
 "http://www.w3.org/Graphics/SVG/1.1/DTD/svg11.dtd">
<!-- Generated by graphviz version 2.43.0 (0)
 -->
<!-- Title: %3 Pages: 1 -->
<svg width="803pt" height="485pt"
 viewBox="0.00 0.00 802.69 484.81" xmlns="http://www.w3.org/2000/svg" xmlns:xlink="http://www.w3.org/1999/xlink">
<g id="graph0" class="graph" transform="scale(1 1) rotate(0) translate(4 480.81)">
<title>%3</title>
<polygon fill="white" stroke="transparent" points="-4,4 -4,-480.81 798.69,-480.81 798.69,4 -4,4"/>
<g id="clust1" class="cluster">
<title>clusterfloor_dim (1)</title>
<path fill="none" stroke="black" d="M139.69,-232.91C139.69,-232.91 229.69,-232.91 229.69,-232.91 235.69,-232.91 241.69,-238.91 241.69,-244.91 241.69,-244.91 241.69,-334.86 241.69,-334.86 241.69,-340.86 235.69,-346.86 229.69,-346.86 229.69,-346.86 139.69,-346.86 139.69,-346.86 133.69,-346.86 127.69,-340.86 127.69,-334.86 127.69,-334.86 127.69,-244.91 127.69,-244.91 127.69,-238.91 133.69,-232.91 139.69,-232.91"/>
<text text-anchor="middle" x="188.19" y="-240.71" font-family="Times,serif" font-size="14.00">floor_dim (1)</text>
</g>
<g id="clust2" class="cluster">
<title>clustercounty__factor_dim (85)</title>
<path fill="none" stroke="black" d="M261.69,-232.91C261.69,-232.91 424.69,-232.91 424.69,-232.91 430.69,-232.91 436.69,-238.91 436.69,-244.91 436.69,-244.91 436.69,-334.86 436.69,-334.86 436.69,-340.86 430.69,-346.86 424.69,-346.86 424.69,-346.86 261.69,-346.86 261.69,-346.86 255.69,-346.86 249.69,-340.86 249.69,-334.86 249.69,-334.86 249.69,-244.91 249.69,-244.91 249.69,-238.91 255.69,-232.91 261.69,-232.91"/>
<text text-anchor="middle" x="343.19" y="-240.71" font-family="Times,serif" font-size="14.00">county__factor_dim (85)</text>
</g>
<g id="clust3" class="cluster">
<title>clusterfloor__expr_dim (1)</title>
<path fill="none" stroke="black" d="M423.69,-354.86C423.69,-354.86 629.69,-354.86 629.69,-354.86 635.69,-354.86 641.69,-360.86 641.69,-366.86 641.69,-366.86 641.69,-456.81 641.69,-456.81 641.69,-462.81 635.69,-468.81 629.69,-468.81 629.69,-468.81 423.69,-468.81 423.69,-468.81 417.69,-468.81 411.69,-462.81 411.69,-456.81 411.69,-456.81 411.69,-366.86 411.69,-366.86 411.69,-360.86 417.69,-354.86 423.69,-354.86"/>
<text text-anchor="middle" x="565.69" y="-362.66" font-family="Times,serif" font-size="14.00">floor__expr_dim (1)</text>
</g>
<g id="clust4" class="cluster">
<title>clustercounty__factor_dim (85) x floor__expr_dim (1)</title>
<path fill="none" stroke="black" d="M458.69,-232.91C458.69,-232.91 774.69,-232.91 774.69,-232.91 780.69,-232.91 786.69,-238.91 786.69,-244.91 786.69,-244.91 786.69,-334.86 786.69,-334.86 786.69,-340.86 780.69,-346.86 774.69,-346.86 774.69,-346.86 458.69,-346.86 458.69,-346.86 452.69,-346.86 446.69,-340.86 446.69,-334.86 446.69,-334.86 446.69,-244.91 446.69,-244.91 446.69,-238.91 452.69,-232.91 458.69,-232.91"/>
<text text-anchor="middle" x="616.69" y="-240.71" font-family="Times,serif" font-size="14.00">county__factor_dim (85) x floor__expr_dim (1)</text>
</g>
<g id="clust5" class="cluster">
<title>cluster__obs__ (919)</title>
<path fill="none" stroke="black" d="M133.69,-8C133.69,-8 247.69,-8 247.69,-8 253.69,-8 259.69,-14 259.69,-20 259.69,-20 259.69,-209.93 259.69,-209.93 259.69,-215.93 253.69,-221.93 247.69,-221.93 247.69,-221.93 133.69,-221.93 133.69,-221.93 127.69,-221.93 121.69,-215.93 121.69,-209.93 121.69,-209.93 121.69,-20 121.69,-20 121.69,-14 127.69,-8 133.69,-8"/>
<text text-anchor="middle" x="204.69" y="-15.8" font-family="Times,serif" font-size="14.00">__obs__ (919)</text>
</g>
<!-- Intercept -->
<g id="node1" class="node">
<title>Intercept</title>
<ellipse fill="none" stroke="black" cx="58.69" cy="-301.38" rx="58.88" ry="37.45"/>
<text text-anchor="middle" x="58.69" y="-312.68" font-family="Times,serif" font-size="14.00">Intercept</text>
<text text-anchor="middle" x="58.69" y="-297.68" font-family="Times,serif" font-size="14.00">~</text>
<text text-anchor="middle" x="58.69" y="-282.68" font-family="Times,serif" font-size="14.00">Normal</text>
</g>
<!-- mu -->
<g id="node8" class="node">
<title>mu</title>
<polygon fill="none" stroke="black" points="247.69,-213.93 133.69,-213.93 133.69,-160.93 247.69,-160.93 247.69,-213.93"/>
<text text-anchor="middle" x="190.69" y="-198.73" font-family="Times,serif" font-size="14.00">mu</text>
<text text-anchor="middle" x="190.69" y="-183.73" font-family="Times,serif" font-size="14.00">~</text>
<text text-anchor="middle" x="190.69" y="-168.73" font-family="Times,serif" font-size="14.00">Deterministic</text>
</g>
<!-- Intercept&#45;&gt;mu -->
<g id="edge6" class="edge">
<title>Intercept&#45;&gt;mu</title>
<path fill="none" stroke="black" d="M86.8,-268.38C97.79,-256.66 110.82,-243.64 123.69,-232.91 128.95,-228.52 134.65,-224.18 140.44,-220.04"/>
<polygon fill="black" stroke="black" points="142.73,-222.71 148.93,-214.11 138.72,-216.96 142.73,-222.71"/>
</g>
<!-- sigma -->
<g id="node2" class="node">
<title>sigma</title>
<ellipse fill="none" stroke="black" cx="347.69" cy="-187.43" rx="79.81" ry="37.45"/>
<text text-anchor="middle" x="347.69" y="-198.73" font-family="Times,serif" font-size="14.00">sigma</text>
<text text-anchor="middle" x="347.69" y="-183.73" font-family="Times,serif" font-size="14.00">~</text>
<text text-anchor="middle" x="347.69" y="-168.73" font-family="Times,serif" font-size="14.00">HalfStudentT</text>
</g>
<!-- log_radon -->
<g id="node9" class="node">
<title>log_radon</title>
<ellipse fill="lightgrey" stroke="black" cx="190.69" cy="-76.48" rx="60.62" ry="37.45"/>
<text text-anchor="middle" x="190.69" y="-87.78" font-family="Times,serif" font-size="14.00">log_radon</text>
<text text-anchor="middle" x="190.69" y="-72.78" font-family="Times,serif" font-size="14.00">~</text>
<text text-anchor="middle" x="190.69" y="-57.78" font-family="Times,serif" font-size="14.00">Normal</text>
</g>
<!-- sigma&#45;&gt;log_radon -->
<g id="edge8" class="edge">
<title>sigma&#45;&gt;log_radon</title>
<path fill="none" stroke="black" d="M303.54,-155.79C283.37,-141.79 259.44,-125.18 238.81,-110.87"/>
<polygon fill="black" stroke="black" points="240.7,-107.92 230.49,-105.1 236.71,-113.67 240.7,-107.92"/>
</g>
<!-- 1|county_sigma -->
<g id="node3" class="node">
<title>1|county_sigma</title>
<ellipse fill="none" stroke="black" cx="311.69" cy="-423.34" rx="90.52" ry="37.45"/>
<text text-anchor="middle" x="311.69" y="-434.64" font-family="Times,serif" font-size="14.00">1|county_sigma</text>
<text text-anchor="middle" x="311.69" y="-419.64" font-family="Times,serif" font-size="14.00">~</text>
<text text-anchor="middle" x="311.69" y="-404.64" font-family="Times,serif" font-size="14.00">Exponential</text>
</g>
<!-- 1|county -->
<g id="node5" class="node">
<title>1|county</title>
<ellipse fill="none" stroke="black" cx="312.69" cy="-301.38" rx="55.31" ry="37.45"/>
<text text-anchor="middle" x="312.69" y="-312.68" font-family="Times,serif" font-size="14.00">1|county</text>
<text text-anchor="middle" x="312.69" y="-297.68" font-family="Times,serif" font-size="14.00">~</text>
<text text-anchor="middle" x="312.69" y="-282.68" font-family="Times,serif" font-size="14.00">Normal</text>
</g>
<!-- 1|county_sigma&#45;&gt;1|county -->
<g id="edge1" class="edge">
<title>1|county_sigma&#45;&gt;1|county</title>
<path fill="none" stroke="black" d="M312,-385.69C312.09,-374.29 312.2,-361.55 312.3,-349.54"/>
<polygon fill="black" stroke="black" points="315.8,-349.24 312.38,-339.21 308.8,-349.18 315.8,-349.24"/>
</g>
<!-- floor -->
<g id="node4" class="node">
<title>floor</title>
<ellipse fill="none" stroke="black" cx="184.69" cy="-301.38" rx="49.49" ry="37.45"/>
<text text-anchor="middle" x="184.69" y="-312.68" font-family="Times,serif" font-size="14.00">floor</text>
<text text-anchor="middle" x="184.69" y="-297.68" font-family="Times,serif" font-size="14.00">~</text>
<text text-anchor="middle" x="184.69" y="-282.68" font-family="Times,serif" font-size="14.00">Normal</text>
</g>
<!-- floor&#45;&gt;mu -->
<g id="edge4" class="edge">
<title>floor&#45;&gt;mu</title>
<path fill="none" stroke="black" d="M186.65,-263.73C187.33,-251.07 188.09,-236.92 188.77,-224.32"/>
<polygon fill="black" stroke="black" points="192.27,-224.35 189.31,-214.18 185.28,-223.98 192.27,-224.35"/>
</g>
<!-- 1|county&#45;&gt;mu -->
<g id="edge5" class="edge">
<title>1|county&#45;&gt;mu</title>
<path fill="none" stroke="black" d="M283.36,-269.44C271.88,-257.71 258.43,-244.41 245.69,-232.91 241.08,-228.75 236.15,-224.5 231.21,-220.36"/>
<polygon fill="black" stroke="black" points="233.4,-217.63 223.46,-213.96 228.95,-223.03 233.4,-217.63"/>
</g>
<!-- floor|county_sigma -->
<g id="node6" class="node">
<title>floor|county_sigma</title>
<ellipse fill="none" stroke="black" cx="526.69" cy="-423.34" rx="106.55" ry="37.45"/>
<text text-anchor="middle" x="526.69" y="-434.64" font-family="Times,serif" font-size="14.00">floor|county_sigma</text>
<text text-anchor="middle" x="526.69" y="-419.64" font-family="Times,serif" font-size="14.00">~</text>
<text text-anchor="middle" x="526.69" y="-404.64" font-family="Times,serif" font-size="14.00">Exponential</text>
</g>
<!-- floor|county -->
<g id="node7" class="node">
<title>floor|county</title>
<ellipse fill="none" stroke="black" cx="526.69" cy="-301.38" rx="71.34" ry="37.45"/>
<text text-anchor="middle" x="526.69" y="-312.68" font-family="Times,serif" font-size="14.00">floor|county</text>
<text text-anchor="middle" x="526.69" y="-297.68" font-family="Times,serif" font-size="14.00">~</text>
<text text-anchor="middle" x="526.69" y="-282.68" font-family="Times,serif" font-size="14.00">Normal</text>
</g>
<!-- floor|county_sigma&#45;&gt;floor|county -->
<g id="edge2" class="edge">
<title>floor|county_sigma&#45;&gt;floor|county</title>
<path fill="none" stroke="black" d="M526.69,-385.69C526.69,-374.29 526.69,-361.55 526.69,-349.54"/>
<polygon fill="black" stroke="black" points="530.19,-349.21 526.69,-339.21 523.19,-349.21 530.19,-349.21"/>
</g>
<!-- floor|county&#45;&gt;mu -->
<g id="edge3" class="edge">
<title>floor|county&#45;&gt;mu</title>
<path fill="none" stroke="black" d="M494.99,-267.71C479.91,-254.37 460.8,-240.35 440.69,-232.91 402.73,-218.85 297.73,-235.63 258.69,-224.91 252.67,-223.25 246.59,-220.99 240.67,-218.4"/>
<polygon fill="black" stroke="black" points="242.07,-215.19 231.53,-214.1 239.09,-221.52 242.07,-215.19"/>
</g>
<!-- mu&#45;&gt;log_radon -->
<g id="edge7" class="edge">
<title>mu&#45;&gt;log_radon</title>
<path fill="none" stroke="black" d="M190.69,-160.89C190.69,-149.98 190.69,-136.89 190.69,-124.35"/>
<polygon fill="black" stroke="black" points="194.19,-124 190.69,-114 187.19,-124 194.19,-124"/>
</g>
</g>
</svg>