<?xml version="1.0" encoding="UTF-8" standalone="no"?>
<!DOCTYPE svg PUBLIC "-//W3C//DTD SVG 1.1//EN"
 "http://www.w3.org/Graphics/SVG/1.1/DTD/svg11.dtd">
<!-- Generated by graphviz version 2.43.0 (0)
 -->
<!-- Title: %3 Pages: 1 -->
<svg width="500pt" height="458pt"
 viewBox="0.00 0.00 499.66 457.81" xmlns="http://www.w3.org/2000/svg" xmlns:xlink="http://www.w3.org/1999/xlink">
<g id="graph0" class="graph" transform="scale(1 1) rotate(0) translate(4 453.81)">
<title>%3</title>
<polygon fill="white" stroke="transparent" points="-4,4 -4,-453.81 495.66,-453.81 495.66,4 -4,4"/>
<g id="clust1" class="cluster">
<title>clusterfloor_dim (1)</title>
<path fill="none" stroke="black" d="M344,-232.91C344,-232.91 434,-232.91 434,-232.91 440,-232.91 446,-238.91 446,-244.91 446,-244.91 446,-334.86 446,-334.86 446,-340.86 440,-346.86 434,-346.86 434,-346.86 344,-346.86 344,-346.86 338,-346.86 332,-340.86 332,-334.86 332,-334.86 332,-244.91 332,-244.91 332,-238.91 338,-232.91 344,-232.91"/>
<text text-anchor="middle" x="392.5" y="-240.71" font-family="Times,serif" font-size="14.00">floor_dim (1)</text>
</g>
<g id="clust2" class="cluster">
<title>clustercounty__factor_dim (85)</title>
<path fill="none" stroke="black" d="M20,-232.91C20,-232.91 183,-232.91 183,-232.91 189,-232.91 195,-238.91 195,-244.91 195,-244.91 195,-334.86 195,-334.86 195,-340.86 189,-346.86 183,-346.86 183,-346.86 20,-346.86 20,-346.86 14,-346.86 8,-340.86 8,-334.86 8,-334.86 8,-244.91 8,-244.91 8,-238.91 14,-232.91 20,-232.91"/>
<text text-anchor="middle" x="101.5" y="-240.71" font-family="Times,serif" font-size="14.00">county__factor_dim (85)</text>
</g>
<g id="clust3" class="cluster">
<title>cluster__obs__ (919)</title>
<path fill="none" stroke="black" d="M206,-8C206,-8 320,-8 320,-8 326,-8 332,-14 332,-20 332,-20 332,-209.93 332,-209.93 332,-215.93 326,-221.93 320,-221.93 320,-221.93 206,-221.93 206,-221.93 200,-221.93 194,-215.93 194,-209.93 194,-209.93 194,-20 194,-20 194,-14 200,-8 206,-8"/>
<text text-anchor="middle" x="277" y="-15.8" font-family="Times,serif" font-size="14.00">__obs__ (919)</text>
</g>
<!-- 1|county_sigma -->
<g id="node1" class="node">
<title>1|county_sigma</title>
<ellipse fill="none" stroke="black" cx="131" cy="-412.34" rx="90.52" ry="37.45"/>
<text text-anchor="middle" x="131" y="-423.64" font-family="Times,serif" font-size="14.00">1|county_sigma</text>
<text text-anchor="middle" x="131" y="-408.64" font-family="Times,serif" font-size="14.00">~</text>
<text text-anchor="middle" x="131" y="-393.64" font-family="Times,serif" font-size="14.00">Exponential</text>
</g>
<!-- 1|county -->
<g id="node5" class="node">
<title>1|county</title>
<ellipse fill="none" stroke="black" cx="131" cy="-301.38" rx="55.31" ry="37.45"/>
<text text-anchor="middle" x="131" y="-312.68" font-family="Times,serif" font-size="14.00">1|county</text>
<text text-anchor="middle" x="131" y="-297.68" font-family="Times,serif" font-size="14.00">~</text>
<text text-anchor="middle" x="131" y="-282.68" font-family="Times,serif" font-size="14.00">Normal</text>
</g>
<!-- 1|county_sigma&#45;&gt;1|county -->
<g id="edge1" class="edge">
<title>1|county_sigma&#45;&gt;1|county</title>
<path fill="none" stroke="black" d="M131,-374.75C131,-366.58 131,-357.8 131,-349.27"/>
<polygon fill="black" stroke="black" points="134.5,-349.06 131,-339.06 127.5,-349.06 134.5,-349.06"/>
</g>
<!-- Intercept -->
<g id="node2" class="node">
<title>Intercept</title>
<ellipse fill="none" stroke="black" cx="263" cy="-301.38" rx="58.88" ry="37.45"/>
<text text-anchor="middle" x="263" y="-312.68" font-family="Times,serif" font-size="14.00">Intercept</text>
<text text-anchor="middle" x="263" y="-297.68" font-family="Times,serif" font-size="14.00">~</text>
<text text-anchor="middle" x="263" y="-282.68" font-family="Times,serif" font-size="14.00">Normal</text>
</g>
<!-- mu -->
<g id="node6" class="node">
<title>mu</title>
<polygon fill="none" stroke="black" points="320,-213.93 206,-213.93 206,-160.93 320,-160.93 320,-213.93"/>
<text text-anchor="middle" x="263" y="-198.73" font-family="Times,serif" font-size="14.00">mu</text>
<text text-anchor="middle" x="263" y="-183.73" font-family="Times,serif" font-size="14.00">~</text>
<text text-anchor="middle" x="263" y="-168.73" font-family="Times,serif" font-size="14.00">Deterministic</text>
</g>
<!-- Intercept&#45;&gt;mu -->
<g id="edge2" class="edge">
<title>Intercept&#45;&gt;mu</title>
<path fill="none" stroke="black" d="M263,-263.73C263,-251.07 263,-236.92 263,-224.32"/>
<polygon fill="black" stroke="black" points="266.5,-224.18 263,-214.18 259.5,-224.18 266.5,-224.18"/>
</g>
<!-- sigma -->
<g id="node3" class="node">
<title>sigma</title>
<ellipse fill="none" stroke="black" cx="416" cy="-187.43" rx="75.82" ry="37.45"/>
<text text-anchor="middle" x="416" y="-198.73" font-family="Times,serif" font-size="14.00">sigma</text>
<text text-anchor="middle" x="416" y="-183.73" font-family="Times,serif" font-size="14.00">~</text>
<text text-anchor="middle" x="416" y="-168.73" font-family="Times,serif" font-size="14.00">Halfstudentt</text>
</g>
<!-- log_radon -->
<g id="node7" class="node">
<title>log_radon</title>
<ellipse fill="lightgrey" stroke="black" cx="263" cy="-76.48" rx="60.62" ry="37.45"/>
<text text-anchor="middle" x="263" y="-87.78" font-family="Times,serif" font-size="14.00">log_radon</text>
<text text-anchor="middle" x="263" y="-72.78" font-family="Times,serif" font-size="14.00">~</text>
<text text-anchor="middle" x="263" y="-57.78" font-family="Times,serif" font-size="14.00">Normal</text>
</g>
<!-- sigma&#45;&gt;log_radon -->
<g id="edge6" class="edge">
<title>sigma&#45;&gt;log_radon</title>
<path fill="none" stroke="black" d="M373.38,-156.08C353.81,-142.14 330.52,-125.56 310.4,-111.23"/>
<polygon fill="black" stroke="black" points="312.16,-108.19 301.99,-105.24 308.1,-113.89 312.16,-108.19"/>
</g>
<!-- floor -->
<g id="node4" class="node">
<title>floor</title>
<ellipse fill="none" stroke="black" cx="389" cy="-301.38" rx="49.49" ry="37.45"/>
<text text-anchor="middle" x="389" y="-312.68" font-family="Times,serif" font-size="14.00">floor</text>
<text text-anchor="middle" x="389" y="-297.68" font-family="Times,serif" font-size="14.00">~</text>
<text text-anchor="middle" x="389" y="-282.68" font-family="Times,serif" font-size="14.00">Normal</text>
</g>
<!-- floor&#45;&gt;mu -->
<g id="edge3" class="edge">
<title>floor&#45;&gt;mu</title>
<path fill="none" stroke="black" d="M364.71,-268.47C354.91,-256.62 343.08,-243.5 331,-232.91 325.87,-228.41 320.25,-224.02 314.51,-219.86"/>
<polygon fill="black" stroke="black" points="316.26,-216.81 306.05,-213.95 312.24,-222.55 316.26,-216.81"/>
</g>
<!-- 1|county&#45;&gt;mu -->
<g id="edge4" class="edge">
<title>1|county&#45;&gt;mu</title>
<path fill="none" stroke="black" d="M158.26,-268.65C169.13,-256.82 182.11,-243.67 195,-232.91 200.31,-228.47 206.08,-224.11 211.95,-219.94"/>
<polygon fill="black" stroke="black" points="214.31,-222.56 220.55,-214 210.34,-216.8 214.31,-222.56"/>
</g>
<!-- mu&#45;&gt;log_radon -->
<g id="edge5" class="edge">
<title>mu&#45;&gt;log_radon</title>
<path fill="none" stroke="black" d="M263,-160.89C263,-149.98 263,-136.89 263,-124.35"/>
<polygon fill="black" stroke="black" points="266.5,-124 263,-114 259.5,-124 266.5,-124"/>
</g>
</g>
</svg>