<?xml version="1.0" encoding="UTF-8" standalone="no"?>
<!DOCTYPE svg PUBLIC "-//W3C//DTD SVG 1.1//EN"
 "http://www.w3.org/Graphics/SVG/1.1/DTD/svg11.dtd">
<!-- Generated by graphviz version 2.43.0 (0)
 -->
<!-- Title: %3 Pages: 1 -->
<svg width="463pt" height="363pt"
 viewBox="0.00 0.00 463.20 362.86" xmlns="http://www.w3.org/2000/svg" xmlns:xlink="http://www.w3.org/1999/xlink">
<g id="graph0" class="graph" transform="scale(1 1) rotate(0) translate(4 358.86)">
<title>%3</title>
<polygon fill="white" stroke="transparent" points="-4,4 -4,-358.86 459.2,-358.86 459.2,4 -4,4"/>
<g id="clust1" class="cluster">
<title>clustercurriculum_dim (2)</title>
<path fill="none" stroke="black" d="M79.2,-232.91C79.2,-232.91 207.2,-232.91 207.2,-232.91 213.2,-232.91 219.2,-238.91 219.2,-244.91 219.2,-244.91 219.2,-334.86 219.2,-334.86 219.2,-340.86 213.2,-346.86 207.2,-346.86 207.2,-346.86 79.2,-346.86 79.2,-346.86 73.2,-346.86 67.2,-340.86 67.2,-334.86 67.2,-334.86 67.2,-244.91 67.2,-244.91 67.2,-238.91 73.2,-232.91 79.2,-232.91"/>
<text text-anchor="middle" x="143.2" y="-240.71" font-family="Times,serif" font-size="14.00">curriculum_dim (2)</text>
</g>
<g id="clust2" class="cluster">
<title>clustersigma_curriculum_dim (2)</title>
<path fill="none" stroke="black" d="M239.2,-232.91C239.2,-232.91 435.2,-232.91 435.2,-232.91 441.2,-232.91 447.2,-238.91 447.2,-244.91 447.2,-244.91 447.2,-334.86 447.2,-334.86 447.2,-340.86 441.2,-346.86 435.2,-346.86 435.2,-346.86 239.2,-346.86 239.2,-346.86 233.2,-346.86 227.2,-340.86 227.2,-334.86 227.2,-334.86 227.2,-244.91 227.2,-244.91 227.2,-238.91 233.2,-232.91 239.2,-232.91"/>
<text text-anchor="middle" x="346.2" y="-240.71" font-family="Times,serif" font-size="14.00">sigma_curriculum_dim (2)</text>
</g>
<g id="clust3" class="cluster">
<title>cluster__obs__ (15)</title>
<path fill="none" stroke="black" d="M122.2,-8C122.2,-8 360.2,-8 360.2,-8 366.2,-8 372.2,-14 372.2,-20 372.2,-20 372.2,-209.93 372.2,-209.93 372.2,-215.93 366.2,-221.93 360.2,-221.93 360.2,-221.93 122.2,-221.93 122.2,-221.93 116.2,-221.93 110.2,-215.93 110.2,-209.93 110.2,-209.93 110.2,-20 110.2,-20 110.2,-14 116.2,-8 122.2,-8"/>
<text text-anchor="middle" x="321.7" y="-15.8" font-family="Times,serif" font-size="14.00">__obs__ (15)</text>
</g>
<!-- nu -->
<g id="node1" class="node">
<title>nu</title>
<ellipse fill="none" stroke="black" cx="50.2" cy="-187.43" rx="50.41" ry="37.45"/>
<text text-anchor="middle" x="50.2" y="-198.73" font-family="Times,serif" font-size="14.00">nu</text>
<text text-anchor="middle" x="50.2" y="-183.73" font-family="Times,serif" font-size="14.00">~</text>
<text text-anchor="middle" x="50.2" y="-168.73" font-family="Times,serif" font-size="14.00">Gamma</text>
</g>
<!-- score -->
<g id="node6" class="node">
<title>score</title>
<ellipse fill="lightgrey" stroke="black" cx="177.2" cy="-76.48" rx="58.88" ry="37.45"/>
<text text-anchor="middle" x="177.2" y="-87.78" font-family="Times,serif" font-size="14.00">score</text>
<text text-anchor="middle" x="177.2" y="-72.78" font-family="Times,serif" font-size="14.00">~</text>
<text text-anchor="middle" x="177.2" y="-57.78" font-family="Times,serif" font-size="14.00">StudentT</text>
</g>
<!-- nu&#45;&gt;score -->
<g id="edge5" class="edge">
<title>nu&#45;&gt;score</title>
<path fill="none" stroke="black" d="M82.58,-158.65C98.51,-144.99 117.92,-128.34 135,-113.68"/>
<polygon fill="black" stroke="black" points="137.35,-116.28 142.66,-107.11 132.79,-110.97 137.35,-116.28"/>
</g>
<!-- curriculum -->
<g id="node2" class="node">
<title>curriculum</title>
<ellipse fill="none" stroke="black" cx="144.2" cy="-301.38" rx="67.35" ry="37.45"/>
<text text-anchor="middle" x="144.2" y="-312.68" font-family="Times,serif" font-size="14.00">curriculum</text>
<text text-anchor="middle" x="144.2" y="-297.68" font-family="Times,serif" font-size="14.00">~</text>
<text text-anchor="middle" x="144.2" y="-282.68" font-family="Times,serif" font-size="14.00">Normal</text>
</g>
<!-- mu -->
<g id="node4" class="node">
<title>mu</title>
<polygon fill="none" stroke="black" points="232.2,-213.93 118.2,-213.93 118.2,-160.93 232.2,-160.93 232.2,-213.93"/>
<text text-anchor="middle" x="175.2" y="-198.73" font-family="Times,serif" font-size="14.00">mu</text>
<text text-anchor="middle" x="175.2" y="-183.73" font-family="Times,serif" font-size="14.00">~</text>
<text text-anchor="middle" x="175.2" y="-168.73" font-family="Times,serif" font-size="14.00">Deterministic</text>
</g>
<!-- curriculum&#45;&gt;mu -->
<g id="edge1" class="edge">
<title>curriculum&#45;&gt;mu</title>
<path fill="none" stroke="black" d="M154.27,-264.04C157.84,-251.14 161.85,-236.65 165.4,-223.83"/>
<polygon fill="black" stroke="black" points="168.84,-224.55 168.13,-213.97 162.09,-222.68 168.84,-224.55"/>
</g>
<!-- sigma_curriculum -->
<g id="node3" class="node">
<title>sigma_curriculum</title>
<ellipse fill="none" stroke="black" cx="337.2" cy="-301.38" rx="101.65" ry="37.45"/>
<text text-anchor="middle" x="337.2" y="-312.68" font-family="Times,serif" font-size="14.00">sigma_curriculum</text>
<text text-anchor="middle" x="337.2" y="-297.68" font-family="Times,serif" font-size="14.00">~</text>
<text text-anchor="middle" x="337.2" y="-282.68" font-family="Times,serif" font-size="14.00">Normal</text>
</g>
<!-- sigma -->
<g id="node5" class="node">
<title>sigma</title>
<polygon fill="none" stroke="black" points="364.2,-213.93 250.2,-213.93 250.2,-160.93 364.2,-160.93 364.2,-213.93"/>
<text text-anchor="middle" x="307.2" y="-198.73" font-family="Times,serif" font-size="14.00">sigma</text>
<text text-anchor="middle" x="307.2" y="-183.73" font-family="Times,serif" font-size="14.00">~</text>
<text text-anchor="middle" x="307.2" y="-168.73" font-family="Times,serif" font-size="14.00">Deterministic</text>
</g>
<!-- sigma_curriculum&#45;&gt;sigma -->
<g id="edge2" class="edge">
<title>sigma_curriculum&#45;&gt;sigma</title>
<path fill="none" stroke="black" d="M327.46,-264.04C324.01,-251.14 320.13,-236.65 316.69,-223.83"/>
<polygon fill="black" stroke="black" points="320.02,-222.73 314.05,-213.97 313.26,-224.54 320.02,-222.73"/>
</g>
<!-- mu&#45;&gt;score -->
<g id="edge3" class="edge">
<title>mu&#45;&gt;score</title>
<path fill="none" stroke="black" d="M175.67,-160.89C175.87,-149.98 176.11,-136.89 176.34,-124.35"/>
<polygon fill="black" stroke="black" points="179.85,-124.06 176.53,-114 172.85,-123.94 179.85,-124.06"/>
</g>
<!-- sigma&#45;&gt;score -->
<g id="edge4" class="edge">
<title>sigma&#45;&gt;score</title>
<path fill="none" stroke="black" d="M276.73,-160.89C259.78,-146.69 238.43,-128.79 219.86,-113.22"/>
<polygon fill="black" stroke="black" points="222,-110.45 212.09,-106.71 217.5,-115.82 222,-110.45"/>
</g>
</g>
</svg>