<?xml version="1.0" encoding="UTF-8" standalone="no"?>
<!DOCTYPE svg PUBLIC "-//W3C//DTD SVG 1.1//EN"
 "http://www.w3.org/Graphics/SVG/1.1/DTD/svg11.dtd">
<!-- Generated by graphviz version 2.43.0 (0)
 -->
<!-- Title: %3 Pages: 1 -->
<svg width="637pt" height="455pt"
 viewBox="0.00 0.00 636.56 454.84" xmlns="http://www.w3.org/2000/svg" xmlns:xlink="http://www.w3.org/1999/xlink">
<g id="graph0" class="graph" transform="scale(1 1) rotate(0) translate(4 450.84)">
<title>%3</title>
<polygon fill="white" stroke="transparent" points="-4,4 -4,-450.84 632.56,-450.84 632.56,4 -4,4"/>
<g id="clust1" class="cluster">
<title>clusterpredictors (10)</title>
<path fill="none" stroke="black" d="M181.9,-129.95C181.9,-129.95 449.9,-129.95 449.9,-129.95 455.9,-129.95 461.9,-135.95 461.9,-141.95 461.9,-141.95 461.9,-331.88 461.9,-331.88 461.9,-337.88 455.9,-343.88 449.9,-343.88 449.9,-343.88 181.9,-343.88 181.9,-343.88 175.9,-343.88 169.9,-337.88 169.9,-331.88 169.9,-331.88 169.9,-141.95 169.9,-141.95 169.9,-135.95 175.9,-129.95 181.9,-129.95"/>
<text text-anchor="middle" x="400.4" y="-137.75" font-family="Times,serif" font-size="14.00">predictors (10)</text>
</g>
<g id="clust2" class="cluster">
<title>cluster101</title>
<path fill="none" stroke="black" d="M281.9,-8C281.9,-8 371.9,-8 371.9,-8 377.9,-8 383.9,-14 383.9,-20 383.9,-20 383.9,-109.95 383.9,-109.95 383.9,-115.95 377.9,-121.95 371.9,-121.95 371.9,-121.95 281.9,-121.95 281.9,-121.95 275.9,-121.95 269.9,-115.95 269.9,-109.95 269.9,-109.95 269.9,-20 269.9,-20 269.9,-14 275.9,-8 281.9,-8"/>
<text text-anchor="middle" x="361.9" y="-15.8" font-family="Times,serif" font-size="14.00">101</text>
</g>
<!-- beta0 -->
<g id="node1" class="node">
<title>beta0</title>
<ellipse fill="none" stroke="black" cx="112.9" cy="-187.45" rx="49.49" ry="37.45"/>
<text text-anchor="middle" x="112.9" y="-198.75" font-family="Times,serif" font-size="14.00">beta0</text>
<text text-anchor="middle" x="112.9" y="-183.75" font-family="Times,serif" font-size="14.00">~</text>
<text text-anchor="middle" x="112.9" y="-168.75" font-family="Times,serif" font-size="14.00">Normal</text>
</g>
<!-- scores -->
<g id="node8" class="node">
<title>scores</title>
<ellipse fill="lightgrey" stroke="black" cx="326.9" cy="-76.48" rx="49.49" ry="37.45"/>
<text text-anchor="middle" x="326.9" y="-87.78" font-family="Times,serif" font-size="14.00">scores</text>
<text text-anchor="middle" x="326.9" y="-72.78" font-family="Times,serif" font-size="14.00">~</text>
<text text-anchor="middle" x="326.9" y="-57.78" font-family="Times,serif" font-size="14.00">Normal</text>
</g>
<!-- beta0&#45;&gt;scores -->
<g id="edge8" class="edge">
<title>beta0&#45;&gt;scores</title>
<path fill="none" stroke="black" d="M137.43,-154.77C145.68,-145.75 155.46,-136.59 165.9,-129.95 197.25,-110.03 236.86,-96.99 268.95,-88.89"/>
<polygon fill="black" stroke="black" points="270.19,-92.19 279.09,-86.44 268.54,-85.39 270.19,-92.19"/>
</g>
<!-- tau -->
<g id="node2" class="node">
<title>tau</title>
<ellipse fill="none" stroke="black" cx="79.9" cy="-298.41" rx="79.81" ry="37.45"/>
<text text-anchor="middle" x="79.9" y="-309.71" font-family="Times,serif" font-size="14.00">tau</text>
<text text-anchor="middle" x="79.9" y="-294.71" font-family="Times,serif" font-size="14.00">~</text>
<text text-anchor="middle" x="79.9" y="-279.71" font-family="Times,serif" font-size="14.00">HalfStudentT</text>
</g>
<!-- beta -->
<g id="node6" class="node">
<title>beta</title>
<polygon fill="none" stroke="black" points="383.9,-213.95 269.9,-213.95 269.9,-160.95 383.9,-160.95 383.9,-213.95"/>
<text text-anchor="middle" x="326.9" y="-198.75" font-family="Times,serif" font-size="14.00">beta</text>
<text text-anchor="middle" x="326.9" y="-183.75" font-family="Times,serif" font-size="14.00">~</text>
<text text-anchor="middle" x="326.9" y="-168.75" font-family="Times,serif" font-size="14.00">Deterministic</text>
</g>
<!-- tau&#45;&gt;beta -->
<g id="edge3" class="edge">
<title>tau&#45;&gt;beta</title>
<path fill="none" stroke="black" d="M137.19,-272.14C173.85,-255.97 221.55,-234.93 259.95,-217.99"/>
<polygon fill="black" stroke="black" points="261.76,-221.01 269.5,-213.77 258.94,-214.61 261.76,-221.01"/>
</g>
<!-- sigma -->
<g id="node3" class="node">
<title>sigma</title>
<ellipse fill="none" stroke="black" cx="355.9" cy="-409.36" rx="70.92" ry="37.45"/>
<text text-anchor="middle" x="355.9" y="-420.66" font-family="Times,serif" font-size="14.00">sigma</text>
<text text-anchor="middle" x="355.9" y="-405.66" font-family="Times,serif" font-size="14.00">~</text>
<text text-anchor="middle" x="355.9" y="-390.66" font-family="Times,serif" font-size="14.00">HalfNormal</text>
</g>
<!-- sigma&#45;&gt;tau -->
<g id="edge1" class="edge">
<title>sigma&#45;&gt;tau</title>
<path fill="none" stroke="black" d="M294.71,-390.17C257.03,-378.34 208.05,-361.81 165.9,-343.88 157.5,-340.31 148.79,-336.25 140.27,-332.06"/>
<polygon fill="black" stroke="black" points="141.65,-328.84 131.14,-327.5 138.52,-335.1 141.65,-328.84"/>
</g>
<!-- sigma&#45;&gt;scores -->
<g id="edge7" class="edge">
<title>sigma&#45;&gt;scores</title>
<path fill="none" stroke="black" d="M424.77,-400.67C493.08,-391.46 590.82,-373.45 613.9,-343.88 636.59,-314.82 629.04,-294.55 613.9,-260.93 571.57,-166.95 453.84,-115.9 383,-92.89"/>
<polygon fill="black" stroke="black" points="383.92,-89.51 373.33,-89.83 381.81,-96.18 383.92,-89.51"/>
</g>
<!-- c2 -->
<g id="node4" class="node">
<title>c2</title>
<ellipse fill="none" stroke="black" cx="538.9" cy="-298.41" rx="66.44" ry="37.45"/>
<text text-anchor="middle" x="538.9" y="-309.71" font-family="Times,serif" font-size="14.00">c2</text>
<text text-anchor="middle" x="538.9" y="-294.71" font-family="Times,serif" font-size="14.00">~</text>
<text text-anchor="middle" x="538.9" y="-279.71" font-family="Times,serif" font-size="14.00">InvGamma</text>
</g>
<!-- c2&#45;&gt;beta -->
<g id="edge5" class="edge">
<title>c2&#45;&gt;beta</title>
<path fill="none" stroke="black" d="M490.53,-272.55C459.37,-256.53 418.65,-235.61 385.63,-218.64"/>
<polygon fill="black" stroke="black" points="387.03,-215.42 376.54,-213.96 383.83,-221.65 387.03,-215.42"/>
</g>
<!-- z -->
<g id="node5" class="node">
<title>z</title>
<ellipse fill="none" stroke="black" cx="404.9" cy="-298.41" rx="49.49" ry="37.45"/>
<text text-anchor="middle" x="404.9" y="-309.71" font-family="Times,serif" font-size="14.00">z</text>
<text text-anchor="middle" x="404.9" y="-294.71" font-family="Times,serif" font-size="14.00">~</text>
<text text-anchor="middle" x="404.9" y="-279.71" font-family="Times,serif" font-size="14.00">Normal</text>
</g>
<!-- z&#45;&gt;beta -->
<g id="edge2" class="edge">
<title>z&#45;&gt;beta</title>
<path fill="none" stroke="black" d="M381.71,-265.01C372.04,-251.51 360.81,-235.82 351.05,-222.18"/>
<polygon fill="black" stroke="black" points="353.85,-220.08 345.18,-213.98 348.16,-224.15 353.85,-220.08"/>
</g>
<!-- beta&#45;&gt;scores -->
<g id="edge6" class="edge">
<title>beta&#45;&gt;scores</title>
<path fill="none" stroke="black" d="M326.9,-160.9C326.9,-149.99 326.9,-136.9 326.9,-124.36"/>
<polygon fill="black" stroke="black" points="330.4,-124.01 326.9,-114.01 323.4,-124.01 330.4,-124.01"/>
</g>
<!-- lam -->
<g id="node7" class="node">
<title>lam</title>
<ellipse fill="none" stroke="black" cx="257.9" cy="-298.41" rx="79.81" ry="37.45"/>
<text text-anchor="middle" x="257.9" y="-309.71" font-family="Times,serif" font-size="14.00">lam</text>
<text text-anchor="middle" x="257.9" y="-294.71" font-family="Times,serif" font-size="14.00">~</text>
<text text-anchor="middle" x="257.9" y="-279.71" font-family="Times,serif" font-size="14.00">HalfStudentT</text>
</g>
<!-- lam&#45;&gt;beta -->
<g id="edge4" class="edge">
<title>lam&#45;&gt;beta</title>
<path fill="none" stroke="black" d="M280.11,-262.33C288.1,-249.72 297.1,-235.51 305.06,-222.94"/>
<polygon fill="black" stroke="black" points="308.25,-224.45 310.64,-214.13 302.33,-220.71 308.25,-224.45"/>
</g>
</g>
</svg>