<?xml version="1.0" encoding="UTF-8" standalone="no"?>
<!DOCTYPE svg PUBLIC "-//W3C//DTD SVG 1.1//EN"
 "http://www.w3.org/Graphics/SVG/1.1/DTD/svg11.dtd">
<!-- Generated by graphviz version 12.1.0 (20240811.2233)
 -->
<!-- Pages: 1 -->
<svg width="340pt" height="276pt"
 viewBox="0.00 0.00 339.98 275.63" xmlns="http://www.w3.org/2000/svg" xmlns:xlink="http://www.w3.org/1999/xlink">
<g id="graph0" class="graph" transform="scale(1 1) rotate(0) translate(4 271.63)">
<polygon fill="white" stroke="none" points="-4,4 -4,-271.63 335.98,-271.63 335.98,4 -4,4"/>
<g id="clust1" class="cluster">
<title>cluster2</title>
<path fill="none" stroke="black" d="M237.98,-137.82C237.98,-137.82 311.98,-137.82 311.98,-137.82 317.98,-137.82 323.98,-143.82 323.98,-149.82 323.98,-149.82 323.98,-247.63 323.98,-247.63 323.98,-253.63 317.98,-259.63 311.98,-259.63 311.98,-259.63 237.98,-259.63 237.98,-259.63 231.98,-259.63 225.98,-253.63 225.98,-247.63 225.98,-247.63 225.98,-149.82 225.98,-149.82 225.98,-143.82 231.98,-137.82 237.98,-137.82"/>
<text text-anchor="middle" x="312.61" y="-145.02" font-family="Times,serif" font-size="14.00">2</text>
</g>
<g id="clust2" class="cluster">
<title>cluster100</title>
<path fill="none" stroke="black" d="M137.98,-8C137.98,-8 211.98,-8 211.98,-8 217.98,-8 223.98,-14 223.98,-20 223.98,-20 223.98,-117.82 223.98,-117.82 223.98,-123.82 217.98,-129.82 211.98,-129.82 211.98,-129.82 137.98,-129.82 137.98,-129.82 131.98,-129.82 125.98,-123.82 125.98,-117.82 125.98,-117.82 125.98,-20 125.98,-20 125.98,-14 131.98,-8 137.98,-8"/>
<text text-anchor="middle" x="205.86" y="-15.2" font-family="Times,serif" font-size="14.00">100</text>
</g>
<!-- sigma -->
<g id="node1" class="node">
<title>sigma</title>
<ellipse fill="none" stroke="black" cx="57.98" cy="-210.98" rx="57.98" ry="40.66"/>
<text text-anchor="middle" x="57.98" y="-222.43" font-family="Times,serif" font-size="14.00">sigma</text>
<text text-anchor="middle" x="57.98" y="-205.93" font-family="Times,serif" font-size="14.00">~</text>
<text text-anchor="middle" x="57.98" y="-189.43" font-family="Times,serif" font-size="14.00">HalfNormal</text>
</g>
<!-- Y_obs -->
<g id="node4" class="node">
<title>Y_obs</title>
<ellipse fill="lightgrey" stroke="black" cx="174.98" cy="-81.16" rx="41.01" ry="40.66"/>
<text text-anchor="middle" x="174.98" y="-92.61" font-family="Times,serif" font-size="14.00">Y_obs</text>
<text text-anchor="middle" x="174.98" y="-76.11" font-family="Times,serif" font-size="14.00">~</text>
<text text-anchor="middle" x="174.98" y="-59.61" font-family="Times,serif" font-size="14.00">Normal</text>
</g>
<!-- sigma&#45;&gt;Y_obs -->
<g id="edge1" class="edge">
<title>sigma&#45;&gt;Y_obs</title>
<path fill="none" stroke="black" d="M88.72,-176.39C104.43,-159.23 123.62,-138.27 139.91,-120.48"/>
<polygon fill="black" stroke="black" points="142.45,-122.89 146.62,-113.15 137.28,-118.16 142.45,-122.89"/>
</g>
<!-- beta0 -->
<g id="node2" class="node">
<title>beta0</title>
<ellipse fill="none" stroke="black" cx="174.98" cy="-210.98" rx="41.01" ry="40.66"/>
<text text-anchor="middle" x="174.98" y="-222.43" font-family="Times,serif" font-size="14.00">beta0</text>
<text text-anchor="middle" x="174.98" y="-205.93" font-family="Times,serif" font-size="14.00">~</text>
<text text-anchor="middle" x="174.98" y="-189.43" font-family="Times,serif" font-size="14.00">Normal</text>
</g>
<!-- beta0&#45;&gt;Y_obs -->
<g id="edge2" class="edge">
<title>beta0&#45;&gt;Y_obs</title>
<path fill="none" stroke="black" d="M174.98,-169.88C174.98,-158.34 174.98,-145.6 174.98,-133.48"/>
<polygon fill="black" stroke="black" points="178.48,-133.62 174.98,-123.62 171.48,-133.62 178.48,-133.62"/>
</g>
<!-- betas -->
<g id="node3" class="node">
<title>betas</title>
<ellipse fill="none" stroke="black" cx="274.98" cy="-210.98" rx="41.01" ry="40.66"/>
<text text-anchor="middle" x="274.98" y="-222.43" font-family="Times,serif" font-size="14.00">betas</text>
<text text-anchor="middle" x="274.98" y="-205.93" font-family="Times,serif" font-size="14.00">~</text>
<text text-anchor="middle" x="274.98" y="-189.43" font-family="Times,serif" font-size="14.00">Normal</text>
</g>
<!-- betas&#45;&gt;Y_obs -->
<g id="edge3" class="edge">
<title>betas&#45;&gt;Y_obs</title>
<path fill="none" stroke="black" d="M252.94,-176.29C244.52,-163.95 234.62,-150.01 224.98,-137.82 220.33,-131.93 215.23,-125.86 210.12,-120"/>
<polygon fill="black" stroke="black" points="212.93,-117.9 203.68,-112.73 207.69,-122.54 212.93,-117.9"/>
</g>
</g>
</svg>