<?xml version="1.0" encoding="UTF-8" standalone="no"?>
<!DOCTYPE svg PUBLIC "-//W3C//DTD SVG 1.1//EN"
 "http://www.w3.org/Graphics/SVG/1.1/DTD/svg11.dtd">
<!-- Generated by graphviz version 2.43.0 (0)
 -->
<!-- Title: %3 Pages: 1 -->
<svg width="154pt" height="322pt"
 viewBox="0.00 0.00 154.00 321.91" xmlns="http://www.w3.org/2000/svg" xmlns:xlink="http://www.w3.org/1999/xlink">
<g id="graph0" class="graph" transform="scale(1 1) rotate(0) translate(4 317.91)">
<title>%3</title>
<polygon fill="white" stroke="transparent" points="-4,4 -4,-317.91 150,-317.91 150,4 -4,4"/>
<g id="clust1" class="cluster">
<title>cluster__obs__ (30)</title>
<path fill="none" stroke="black" d="M20,-8C20,-8 126,-8 126,-8 132,-8 138,-14 138,-20 138,-20 138,-198.95 138,-198.95 138,-204.95 132,-210.95 126,-210.95 126,-210.95 20,-210.95 20,-210.95 14,-210.95 8,-204.95 8,-198.95 8,-198.95 8,-20 8,-20 8,-14 14,-8 20,-8"/>
<text text-anchor="middle" x="87.5" y="-15.8" font-family="Times,serif" font-size="14.00">__obs__ (30)</text>
</g>
<!-- M -->
<g id="node1" class="node">
<title>M</title>
<ellipse fill="none" stroke="black" cx="73" cy="-276.43" rx="49.49" ry="37.45"/>
<text text-anchor="middle" x="73" y="-287.73" font-family="Times,serif" font-size="14.00">M</text>
<text text-anchor="middle" x="73" y="-272.73" font-family="Times,serif" font-size="14.00">~</text>
<text text-anchor="middle" x="73" y="-257.73" font-family="Times,serif" font-size="14.00">Normal</text>
</g>
<!-- mu -->
<g id="node3" class="node">
<title>mu</title>
<polygon fill="none" stroke="black" points="130,-202.95 16,-202.95 16,-149.95 130,-149.95 130,-202.95"/>
<text text-anchor="middle" x="73" y="-187.75" font-family="Times,serif" font-size="14.00">mu</text>
<text text-anchor="middle" x="73" y="-172.75" font-family="Times,serif" font-size="14.00">~</text>
<text text-anchor="middle" x="73" y="-157.75" font-family="Times,serif" font-size="14.00">Deterministic</text>
</g>
<!-- M&#45;&gt;mu -->
<g id="edge1" class="edge">
<title>M&#45;&gt;mu</title>
<path fill="none" stroke="black" d="M73,-238.95C73,-230.53 73,-221.59 73,-213.2"/>
<polygon fill="black" stroke="black" points="76.5,-212.96 73,-202.96 69.5,-212.96 76.5,-212.96"/>
</g>
<!-- iq -->
<g id="node2" class="node">
<title>iq</title>
<ellipse fill="lightgrey" stroke="black" cx="73" cy="-76.48" rx="49.49" ry="37.45"/>
<text text-anchor="middle" x="73" y="-87.78" font-family="Times,serif" font-size="14.00">iq</text>
<text text-anchor="middle" x="73" y="-72.78" font-family="Times,serif" font-size="14.00">~</text>
<text text-anchor="middle" x="73" y="-57.78" font-family="Times,serif" font-size="14.00">Normal</text>
</g>
<!-- mu&#45;&gt;iq -->
<g id="edge2" class="edge">
<title>mu&#45;&gt;iq</title>
<path fill="none" stroke="black" d="M73,-149.71C73,-141.89 73,-133.03 73,-124.27"/>
<polygon fill="black" stroke="black" points="76.5,-124.1 73,-114.1 69.5,-124.1 76.5,-124.1"/>
</g>
</g>
</svg>