<?xml version="1.0" encoding="UTF-8" standalone="no"?>
<!DOCTYPE svg PUBLIC "-//W3C//DTD SVG 1.1//EN"
 "http://www.w3.org/Graphics/SVG/1.1/DTD/svg11.dtd">
<!-- Generated by graphviz version 2.43.0 (0)
 -->
<!-- Title: %3 Pages: 1 -->
<svg width="803pt" height="485pt"
 viewBox="0.00 0.00 802.69 484.81" xmlns="http://www.w3.org/2000/svg" xmlns:xlink="http://www.w3.org/1999/xlink">
<g id="graph0" class="graph" transform="scale(1 1) rotate(0) translate(4 480.81)">
<title>%3</title>
<polygon fill="white" stroke="transparent" points="-4,4 -4,-480.81 798.69,-480.81 798.69,4 -4,4"/>
<g id="clust1" class="cluster">
<title>clusterfloor_dim (1)</title>
<path fill="none" stroke="black" d="M139.69,-232.91C139.69,-232.91 229.69,-232.91 229.69,-232.91 235.69,-232.91 241.69,-238.91 241.69,-244.91 241.69,-244.91 241.69,-334.86 241.69,-334.86 241.69,-340.86 235.69,-346.86 229.69,-346.86 229.69,-346.86 139.69,-346.86 139.69,-346.86 133.69,-346.86 127.69,-340.86 127.69,-334.86 127.69,-334.86 127.69,-244.91 127.69,-244.91 127.69,-238.91 133.69,-232.91 139.69,-232.91"/>
<text text-anchor="middle" x="188.19" y="-240.71" font-family="Times,serif" font-size="14.00">floor_dim (1)</text>
</g>
<g id="clust2" class="cluster">
<title>clustercounty__factor_dim (85)</title>
<path fill="none" stroke="black" d="M261.69,-232.91C261.69,-232.91 424.69,-232.91 424.69,-232.91 430.69,-232.91 436.69,-238.91 436.69,-244.91 436.69,-244.91 436.69,-334.86 436.69,-334.86 436.69,-340.86 430.69,-346.86 424.69,-346.86 424.69,-346.86 261.69,-346.86 261.69,-346.86 255.69,-346.86 249.69,-340.86 249.69,-334.86 249.69,-334.86 249.69,-244.91 249.69,-244.91 249.69,-238.91 255.69,-232.91 261.69,-232.91"/>
<text text-anchor="middle" x="343.19" y="-240.71" font-family="Times,serif" font-size="14.00">county__factor_dim (85)</text>
</g>
<g id="clust3" class="cluster">
<title>clusterfloor__expr_dim (1)</title>
<path fill="none" stroke="black" d="M423.69,-354.86C423.69,-354.86 629.69,-354.86 629.69,-354.86 635.69,-354.86 641.69,-360.86 641.69,-366.86 641.69,-366.86 641.69,-456.81 641.69,-456.81 641.69,-462.81 635.69,-468.81 629.69,-468.81 629.69,-468.81 423.69,-468.81 423.69,-468.81 417.69,-468.81 411.69,-462.81 411.69,-456.81 411.69,-456.81 411.69,-366.86 411.69,-366.86 411.69,-360.86 417.69,-354.86 423.69,-354.86"/>
<text text-anchor="middle" x="565.69" y="-362.66" font-family="Times,serif" font-size="14.00">floor__expr_dim (1)</text>
</g>
<g id="clust4" class="cluster">
<title>clustercounty__factor_dim (85) x floor__expr_dim (1)</title>
<path fill="none" stroke="black" d="M458.69,-232.91C458.69,-232.91 774.69,-232.91 774.69,-232.91 780.69,-232.91 786.69,-238.91 786.69,-244.91 786.69,-244.91 786.69,-334.86 786.69,-334.86 786.69,-340.86 780.69,-346.86 774.69,-346.86 774.69,-346.86 458.69,-346.86 458.69,-346.86 452.69,-346.86 446.69,-340.86 446.69,-334.86 446.69,-334.86 446.69,-244.91 446.69,-244.91 446.69,-238.91 452.69,-232.91 458.69,-232.91"/>
<text text-anchor="middle" x="616.69" y="-240.71" font-family="Times,serif" font-size="14.00">county__factor_dim (85) x floor__expr_dim (1)</text>
</g>
<g id="clust5" class="cluster">
<title>cluster__obs__ (919)</title>
<path fill="none" stroke="black" d="M197.69,-8C197.69,-8 311.69,-8 311.69,-8 317.69,-8 323.69,-14 323.69,-20 323.69,-20 323.69,-209.93 323.69,-209.93 323.69,-215.93 317.69,-221.93 311.69,-221.93 311.69,-221.93 197.69,-221.93 197.69,-221.93 191.69,-221.93 185.69,-215.93 185.69,-209.93 185.69,-209.93 185.69,-20 185.69,-20 185.69,-14 191.69,-8 197.69,-8"/>
<text text-anchor="middle" x="268.69" y="-15.8" font-family="Times,serif" font-size="14.00">__obs__ (919)</text>
</g>
<!-- sigma -->
<g id="node1" class="node">
<title>sigma</title>
<ellipse fill="none" stroke="black" cx="97.69" cy="-187.43" rx="79.81" ry="37.45"/>
<text text-anchor="middle" x="97.69" y="-198.73" font-family="Times,serif" font-size="14.00">sigma</text>
<text text-anchor="middle" x="97.69" y="-183.73" font-family="Times,serif" font-size="14.00">~</text>
<text text-anchor="middle" x="97.69" y="-168.73" font-family="Times,serif" font-size="14.00">HalfStudentT</text>
</g>
<!-- log_radon -->
<g id="node9" class="node">
<title>log_radon</title>
<ellipse fill="lightgrey" stroke="black" cx="254.69" cy="-76.48" rx="60.62" ry="37.45"/>
<text text-anchor="middle" x="254.69" y="-87.78" font-family="Times,serif" font-size="14.00">log_radon</text>
<text text-anchor="middle" x="254.69" y="-72.78" font-family="Times,serif" font-size="14.00">~</text>
<text text-anchor="middle" x="254.69" y="-57.78" font-family="Times,serif" font-size="14.00">Normal</text>
</g>
<!-- sigma&#45;&gt;log_radon -->
<g id="edge8" class="edge">
<title>sigma&#45;&gt;log_radon</title>
<path fill="none" stroke="black" d="M141.84,-155.79C162.01,-141.79 185.94,-125.18 206.57,-110.87"/>
<polygon fill="black" stroke="black" points="208.67,-113.67 214.89,-105.1 204.68,-107.92 208.67,-113.67"/>
</g>
<!-- 1|county_sigma -->
<g id="node2" class="node">
<title>1|county_sigma</title>
<ellipse fill="none" stroke="black" cx="311.69" cy="-423.34" rx="90.52" ry="37.45"/>
<text text-anchor="middle" x="311.69" y="-434.64" font-family="Times,serif" font-size="14.00">1|county_sigma</text>
<text text-anchor="middle" x="311.69" y="-419.64" font-family="Times,serif" font-size="14.00">~</text>
<text text-anchor="middle" x="311.69" y="-404.64" font-family="Times,serif" font-size="14.00">Exponential</text>
</g>
<!-- 1|county -->
<g id="node5" class="node">
<title>1|county</title>
<ellipse fill="none" stroke="black" cx="312.69" cy="-301.38" rx="55.31" ry="37.45"/>
<text text-anchor="middle" x="312.69" y="-312.68" font-family="Times,serif" font-size="14.00">1|county</text>
<text text-anchor="middle" x="312.69" y="-297.68" font-family="Times,serif" font-size="14.00">~</text>
<text text-anchor="middle" x="312.69" y="-282.68" font-family="Times,serif" font-size="14.00">Normal</text>
</g>
<!-- 1|county_sigma&#45;&gt;1|county -->
<g id="edge1" class="edge">
<title>1|county_sigma&#45;&gt;1|county</title>
<path fill="none" stroke="black" d="M312,-385.69C312.09,-374.29 312.2,-361.55 312.3,-349.54"/>
<polygon fill="black" stroke="black" points="315.8,-349.24 312.38,-339.21 308.8,-349.18 315.8,-349.24"/>
</g>
<!-- Intercept -->
<g id="node3" class="node">
<title>Intercept</title>
<ellipse fill="none" stroke="black" cx="58.69" cy="-301.38" rx="58.88" ry="37.45"/>
<text text-anchor="middle" x="58.69" y="-312.68" font-family="Times,serif" font-size="14.00">Intercept</text>
<text text-anchor="middle" x="58.69" y="-297.68" font-family="Times,serif" font-size="14.00">~</text>
<text text-anchor="middle" x="58.69" y="-282.68" font-family="Times,serif" font-size="14.00">Normal</text>
</g>
<!-- mu -->
<g id="node8" class="node">
<title>mu</title>
<polygon fill="none" stroke="black" points="311.69,-213.93 197.69,-213.93 197.69,-160.93 311.69,-160.93 311.69,-213.93"/>
<text text-anchor="middle" x="254.69" y="-198.73" font-family="Times,serif" font-size="14.00">mu</text>
<text text-anchor="middle" x="254.69" y="-183.73" font-family="Times,serif" font-size="14.00">~</text>
<text text-anchor="middle" x="254.69" y="-168.73" font-family="Times,serif" font-size="14.00">Deterministic</text>
</g>
<!-- Intercept&#45;&gt;mu -->
<g id="edge6" class="edge">
<title>Intercept&#45;&gt;mu</title>
<path fill="none" stroke="black" d="M82.7,-267.06C93.71,-254.27 107.84,-240.86 123.69,-232.91 148.92,-220.24 159.8,-233.5 186.69,-224.91 192.25,-223.13 197.88,-220.9 203.41,-218.43"/>
<polygon fill="black" stroke="black" points="205.05,-221.52 212.57,-214.07 202.04,-215.2 205.05,-221.52"/>
</g>
<!-- floor -->
<g id="node4" class="node">
<title>floor</title>
<ellipse fill="none" stroke="black" cx="184.69" cy="-301.38" rx="49.49" ry="37.45"/>
<text text-anchor="middle" x="184.69" y="-312.68" font-family="Times,serif" font-size="14.00">floor</text>
<text text-anchor="middle" x="184.69" y="-297.68" font-family="Times,serif" font-size="14.00">~</text>
<text text-anchor="middle" x="184.69" y="-282.68" font-family="Times,serif" font-size="14.00">Normal</text>
</g>
<!-- floor&#45;&gt;mu -->
<g id="edge3" class="edge">
<title>floor&#45;&gt;mu</title>
<path fill="none" stroke="black" d="M205.5,-267.1C214.31,-253.01 224.57,-236.6 233.43,-222.44"/>
<polygon fill="black" stroke="black" points="236.4,-224.28 238.74,-213.94 230.47,-220.57 236.4,-224.28"/>
</g>
<!-- 1|county&#45;&gt;mu -->
<g id="edge4" class="edge">
<title>1|county&#45;&gt;mu</title>
<path fill="none" stroke="black" d="M294.81,-265.88C287.78,-252.31 279.72,-236.75 272.68,-223.16"/>
<polygon fill="black" stroke="black" points="275.7,-221.38 267.99,-214.11 269.49,-224.6 275.7,-221.38"/>
</g>
<!-- floor|county_sigma -->
<g id="node6" class="node">
<title>floor|county_sigma</title>
<ellipse fill="none" stroke="black" cx="526.69" cy="-423.34" rx="106.55" ry="37.45"/>
<text text-anchor="middle" x="526.69" y="-434.64" font-family="Times,serif" font-size="14.00">floor|county_sigma</text>
<text text-anchor="middle" x="526.69" y="-419.64" font-family="Times,serif" font-size="14.00">~</text>
<text text-anchor="middle" x="526.69" y="-404.64" font-family="Times,serif" font-size="14.00">Exponential</text>
</g>
<!-- floor|county -->
<g id="node7" class="node">
<title>floor|county</title>
<ellipse fill="none" stroke="black" cx="526.69" cy="-301.38" rx="71.34" ry="37.45"/>
<text text-anchor="middle" x="526.69" y="-312.68" font-family="Times,serif" font-size="14.00">floor|county</text>
<text text-anchor="middle" x="526.69" y="-297.68" font-family="Times,serif" font-size="14.00">~</text>
<text text-anchor="middle" x="526.69" y="-282.68" font-family="Times,serif" font-size="14.00">Normal</text>
</g>
<!-- floor|county_sigma&#45;&gt;floor|county -->
<g id="edge2" class="edge">
<title>floor|county_sigma&#45;&gt;floor|county</title>
<path fill="none" stroke="black" d="M526.69,-385.69C526.69,-374.29 526.69,-361.55 526.69,-349.54"/>
<polygon fill="black" stroke="black" points="530.19,-349.21 526.69,-339.21 523.19,-349.21 530.19,-349.21"/>
</g>
<!-- floor|county&#45;&gt;mu -->
<g id="edge5" class="edge">
<title>floor|county&#45;&gt;mu</title>
<path fill="none" stroke="black" d="M492.61,-268.09C477.67,-255.47 459.32,-241.9 440.69,-232.91 403.39,-214.89 358.26,-203.87 321.8,-197.31"/>
<polygon fill="black" stroke="black" points="322.21,-193.82 311.76,-195.57 321.02,-200.72 322.21,-193.82"/>
</g>
<!-- mu&#45;&gt;log_radon -->
<g id="edge7" class="edge">
<title>mu&#45;&gt;log_radon</title>
<path fill="none" stroke="black" d="M254.69,-160.89C254.69,-149.98 254.69,-136.89 254.69,-124.35"/>
<polygon fill="black" stroke="black" points="258.19,-124 254.69,-114 251.19,-124 258.19,-124"/>
</g>
</g>
</svg>