<?xml version="1.0" encoding="UTF-8" standalone="no"?>
<!DOCTYPE svg PUBLIC "-//W3C//DTD SVG 1.1//EN"
 "http://www.w3.org/Graphics/SVG/1.1/DTD/svg11.dtd">
<!-- Generated by graphviz version 12.1.0 (20240811.2233)
 -->
<!-- Pages: 1 -->
<svg width="414pt" height="486pt"
 viewBox="0.00 0.00 414.29 486.27" xmlns="http://www.w3.org/2000/svg" xmlns:xlink="http://www.w3.org/1999/xlink">
<g id="graph0" class="graph" transform="scale(1 1) rotate(0) translate(4 482.27)">
<polygon fill="white" stroke="none" points="-4,4 -4,-482.27 410.29,-482.27 410.29,4 -4,4"/>
<g id="clust1" class="cluster">
<title>clusterfloor_dim (1)</title>
<path fill="none" stroke="black" d="M281,-247.13C281,-247.13 355,-247.13 355,-247.13 361,-247.13 367,-253.13 367,-259.13 367,-259.13 367,-356.95 367,-356.95 367,-362.95 361,-368.95 355,-368.95 355,-368.95 281,-368.95 281,-368.95 275,-368.95 269,-362.95 269,-356.95 269,-356.95 269,-259.13 269,-259.13 269,-253.13 275,-247.13 281,-247.13"/>
<text text-anchor="middle" x="321.88" y="-254.33" font-family="Times,serif" font-size="14.00">floor_dim (1)</text>
</g>
<g id="clust2" class="cluster">
<title>clustercounty__factor_dim (85)</title>
<path fill="none" stroke="black" d="M20,-247.13C20,-247.13 148,-247.13 148,-247.13 154,-247.13 160,-253.13 160,-259.13 160,-259.13 160,-356.95 160,-356.95 160,-362.95 154,-368.95 148,-368.95 148,-368.95 20,-368.95 20,-368.95 14,-368.95 8,-362.95 8,-356.95 8,-356.95 8,-259.13 8,-259.13 8,-253.13 14,-247.13 20,-247.13"/>
<text text-anchor="middle" x="83.75" y="-254.33" font-family="Times,serif" font-size="14.00">county__factor_dim (85)</text>
</g>
<g id="clust3" class="cluster">
<title>cluster__obs__ (919)</title>
<path fill="none" stroke="black" d="M168,-8C168,-8 260,-8 260,-8 266,-8 272,-14 272,-20 272,-20 272,-223.23 272,-223.23 272,-229.23 266,-235.23 260,-235.23 260,-235.23 168,-235.23 168,-235.23 162,-235.23 156,-229.23 156,-223.23 156,-223.23 156,-20 156,-20 156,-14 162,-8 168,-8"/>
<text text-anchor="middle" x="224.62" y="-15.2" font-family="Times,serif" font-size="14.00">__obs__ (919)</text>
</g>
<!-- 1|county_sigma -->
<g id="node1" class="node">
<title>1|county_sigma</title>
<ellipse fill="none" stroke="black" cx="107" cy="-437.61" rx="72.3" ry="40.66"/>
<text text-anchor="middle" x="107" y="-449.06" font-family="Times,serif" font-size="14.00">1|county_sigma</text>
<text text-anchor="middle" x="107" y="-432.56" font-family="Times,serif" font-size="14.00">~</text>
<text text-anchor="middle" x="107" y="-416.06" font-family="Times,serif" font-size="14.00">Exponential</text>
</g>
<!-- 1|county -->
<g id="node5" class="node">
<title>1|county</title>
<ellipse fill="none" stroke="black" cx="107" cy="-320.29" rx="44.19" ry="40.66"/>
<text text-anchor="middle" x="107" y="-331.74" font-family="Times,serif" font-size="14.00">1|county</text>
<text text-anchor="middle" x="107" y="-315.24" font-family="Times,serif" font-size="14.00">~</text>
<text text-anchor="middle" x="107" y="-298.74" font-family="Times,serif" font-size="14.00">Normal</text>
</g>
<!-- 1|county_sigma&#45;&gt;1|county -->
<g id="edge1" class="edge">
<title>1|county_sigma&#45;&gt;1|county</title>
<path fill="none" stroke="black" d="M107,-396.6C107,-388.82 107,-380.56 107,-372.48"/>
<polygon fill="black" stroke="black" points="110.5,-372.74 107,-362.74 103.5,-372.74 110.5,-372.74"/>
</g>
<!-- sigma -->
<g id="node2" class="node">
<title>sigma</title>
<ellipse fill="none" stroke="black" cx="343" cy="-198.48" rx="63.29" ry="40.66"/>
<text text-anchor="middle" x="343" y="-209.93" font-family="Times,serif" font-size="14.00">sigma</text>
<text text-anchor="middle" x="343" y="-193.43" font-family="Times,serif" font-size="14.00">~</text>
<text text-anchor="middle" x="343" y="-176.93" font-family="Times,serif" font-size="14.00">HalfStudentT</text>
</g>
<!-- log_radon -->
<g id="node7" class="node">
<title>log_radon</title>
<ellipse fill="lightgrey" stroke="black" cx="214" cy="-81.16" rx="50.03" ry="40.66"/>
<text text-anchor="middle" x="214" y="-92.61" font-family="Times,serif" font-size="14.00">log_radon</text>
<text text-anchor="middle" x="214" y="-76.11" font-family="Times,serif" font-size="14.00">~</text>
<text text-anchor="middle" x="214" y="-59.61" font-family="Times,serif" font-size="14.00">Normal</text>
</g>
<!-- sigma&#45;&gt;log_radon -->
<g id="edge6" class="edge">
<title>sigma&#45;&gt;log_radon</title>
<path fill="none" stroke="black" d="M306.72,-165.05C290.86,-150.86 272.16,-134.15 255.72,-119.45"/>
<polygon fill="black" stroke="black" points="258.27,-117.04 248.48,-112.99 253.61,-122.26 258.27,-117.04"/>
</g>
<!-- Intercept -->
<g id="node3" class="node">
<title>Intercept</title>
<ellipse fill="none" stroke="black" cx="214" cy="-320.29" rx="45.25" ry="40.66"/>
<text text-anchor="middle" x="214" y="-331.74" font-family="Times,serif" font-size="14.00">Intercept</text>
<text text-anchor="middle" x="214" y="-315.24" font-family="Times,serif" font-size="14.00">~</text>
<text text-anchor="middle" x="214" y="-298.74" font-family="Times,serif" font-size="14.00">Normal</text>
</g>
<!-- mu -->
<g id="node6" class="node">
<title>mu</title>
<polygon fill="none" stroke="black" points="259.12,-227.23 168.88,-227.23 168.88,-169.73 259.12,-169.73 259.12,-227.23"/>
<text text-anchor="middle" x="214" y="-209.93" font-family="Times,serif" font-size="14.00">mu</text>
<text text-anchor="middle" x="214" y="-193.43" font-family="Times,serif" font-size="14.00">~</text>
<text text-anchor="middle" x="214" y="-176.93" font-family="Times,serif" font-size="14.00">Deterministic</text>
</g>
<!-- Intercept&#45;&gt;mu -->
<g id="edge2" class="edge">
<title>Intercept&#45;&gt;mu</title>
<path fill="none" stroke="black" d="M214,-279.4C214,-266.37 214,-251.91 214,-238.91"/>
<polygon fill="black" stroke="black" points="217.5,-238.98 214,-228.98 210.5,-238.98 217.5,-238.98"/>
</g>
<!-- floor -->
<g id="node4" class="node">
<title>floor</title>
<ellipse fill="none" stroke="black" cx="318" cy="-320.29" rx="41.01" ry="40.66"/>
<text text-anchor="middle" x="318" y="-331.74" font-family="Times,serif" font-size="14.00">floor</text>
<text text-anchor="middle" x="318" y="-315.24" font-family="Times,serif" font-size="14.00">~</text>
<text text-anchor="middle" x="318" y="-298.74" font-family="Times,serif" font-size="14.00">Normal</text>
</g>
<!-- floor&#45;&gt;mu -->
<g id="edge3" class="edge">
<title>floor&#45;&gt;mu</title>
<path fill="none" stroke="black" d="M296.7,-284.98C288.37,-272.57 278.33,-258.75 268,-247.13 264.45,-243.14 260.58,-239.15 256.59,-235.28"/>
<polygon fill="black" stroke="black" points="259.11,-232.84 249.42,-228.55 254.32,-237.95 259.11,-232.84"/>
</g>
<!-- 1|county&#45;&gt;mu -->
<g id="edge4" class="edge">
<title>1|county&#45;&gt;mu</title>
<path fill="none" stroke="black" d="M129.85,-285.08C138.72,-272.67 149.3,-258.84 160,-247.13 163.61,-243.19 167.51,-239.23 171.52,-235.38"/>
<polygon fill="black" stroke="black" points="173.78,-238.05 178.72,-228.68 169.01,-232.93 173.78,-238.05"/>
</g>
<!-- mu&#45;&gt;log_radon -->
<g id="edge5" class="edge">
<title>mu&#45;&gt;log_radon</title>
<path fill="none" stroke="black" d="M214,-169.27C214,-158.44 214,-145.73 214,-133.41"/>
<polygon fill="black" stroke="black" points="217.5,-133.78 214,-123.78 210.5,-133.78 217.5,-133.78"/>
</g>
</g>
</svg>