<?xml version="1.0" encoding="UTF-8" standalone="no"?>
<!DOCTYPE svg PUBLIC "-//W3C//DTD SVG 1.1//EN"
 "http://www.w3.org/Graphics/SVG/1.1/DTD/svg11.dtd">
<!-- Generated by graphviz version 2.43.0 (0)
 -->
<!-- Title: %3 Pages: 1 -->
<svg width="636pt" height="455pt"
 viewBox="0.00 0.00 635.54 454.84" xmlns="http://www.w3.org/2000/svg" xmlns:xlink="http://www.w3.org/1999/xlink">
<g id="graph0" class="graph" transform="scale(1 1) rotate(0) translate(4 450.84)">
<title>%3</title>
<polygon fill="white" stroke="transparent" points="-4,4 -4,-450.84 631.54,-450.84 631.54,4 -4,4"/>
<g id="clust1" class="cluster">
<title>clusterpredictors (10)</title>
<path fill="none" stroke="black" d="M181.9,-129.95C181.9,-129.95 449.9,-129.95 449.9,-129.95 455.9,-129.95 461.9,-135.95 461.9,-141.95 461.9,-141.95 461.9,-331.88 461.9,-331.88 461.9,-337.88 455.9,-343.88 449.9,-343.88 449.9,-343.88 181.9,-343.88 181.9,-343.88 175.9,-343.88 169.9,-337.88 169.9,-331.88 169.9,-331.88 169.9,-141.95 169.9,-141.95 169.9,-135.95 175.9,-129.95 181.9,-129.95"/>
<text text-anchor="middle" x="400.4" y="-137.75" font-family="Times,serif" font-size="14.00">predictors (10)</text>
</g>
<g id="clust2" class="cluster">
<title>cluster101</title>
<path fill="none" stroke="black" d="M259.9,-8C259.9,-8 349.9,-8 349.9,-8 355.9,-8 361.9,-14 361.9,-20 361.9,-20 361.9,-109.95 361.9,-109.95 361.9,-115.95 355.9,-121.95 349.9,-121.95 349.9,-121.95 259.9,-121.95 259.9,-121.95 253.9,-121.95 247.9,-115.95 247.9,-109.95 247.9,-109.95 247.9,-20 247.9,-20 247.9,-14 253.9,-8 259.9,-8"/>
<text text-anchor="middle" x="339.9" y="-15.8" font-family="Times,serif" font-size="14.00">101</text>
</g>
<!-- beta0 -->
<g id="node1" class="node">
<title>beta0</title>
<ellipse fill="none" stroke="black" cx="112.9" cy="-187.45" rx="49.49" ry="37.45"/>
<text text-anchor="middle" x="112.9" y="-198.75" font-family="Times,serif" font-size="14.00">beta0</text>
<text text-anchor="middle" x="112.9" y="-183.75" font-family="Times,serif" font-size="14.00">~</text>
<text text-anchor="middle" x="112.9" y="-168.75" font-family="Times,serif" font-size="14.00">Normal</text>
</g>
<!-- scores -->
<g id="node8" class="node">
<title>scores</title>
<ellipse fill="lightgrey" stroke="black" cx="304.9" cy="-76.48" rx="49.49" ry="37.45"/>
<text text-anchor="middle" x="304.9" y="-87.78" font-family="Times,serif" font-size="14.00">scores</text>
<text text-anchor="middle" x="304.9" y="-72.78" font-family="Times,serif" font-size="14.00">~</text>
<text text-anchor="middle" x="304.9" y="-57.78" font-family="Times,serif" font-size="14.00">Normal</text>
</g>
<!-- beta0&#45;&gt;scores -->
<g id="edge6" class="edge">
<title>beta0&#45;&gt;scores</title>
<path fill="none" stroke="black" d="M137.89,-154.77C146.09,-145.86 155.73,-136.75 165.9,-129.95 190.91,-113.24 221.97,-100.87 248.39,-92.34"/>
<polygon fill="black" stroke="black" points="249.76,-95.58 258.26,-89.27 247.67,-88.9 249.76,-95.58"/>
</g>
<!-- tau -->
<g id="node2" class="node">
<title>tau</title>
<ellipse fill="none" stroke="black" cx="79.9" cy="-298.41" rx="79.81" ry="37.45"/>
<text text-anchor="middle" x="79.9" y="-309.71" font-family="Times,serif" font-size="14.00">tau</text>
<text text-anchor="middle" x="79.9" y="-294.71" font-family="Times,serif" font-size="14.00">~</text>
<text text-anchor="middle" x="79.9" y="-279.71" font-family="Times,serif" font-size="14.00">HalfStudentT</text>
</g>
<!-- beta -->
<g id="node6" class="node">
<title>beta</title>
<polygon fill="none" stroke="black" points="361.9,-213.95 247.9,-213.95 247.9,-160.95 361.9,-160.95 361.9,-213.95"/>
<text text-anchor="middle" x="304.9" y="-198.75" font-family="Times,serif" font-size="14.00">beta</text>
<text text-anchor="middle" x="304.9" y="-183.75" font-family="Times,serif" font-size="14.00">~</text>
<text text-anchor="middle" x="304.9" y="-168.75" font-family="Times,serif" font-size="14.00">Deterministic</text>
</g>
<!-- tau&#45;&gt;beta -->
<g id="edge3" class="edge">
<title>tau&#45;&gt;beta</title>
<path fill="none" stroke="black" d="M134.66,-270.89C167.35,-255.06 208.98,-234.9 242.89,-218.48"/>
<polygon fill="black" stroke="black" points="244.76,-221.47 252.23,-213.96 241.71,-215.17 244.76,-221.47"/>
</g>
<!-- sigma -->
<g id="node3" class="node">
<title>sigma</title>
<ellipse fill="none" stroke="black" cx="355.9" cy="-409.36" rx="70.92" ry="37.45"/>
<text text-anchor="middle" x="355.9" y="-420.66" font-family="Times,serif" font-size="14.00">sigma</text>
<text text-anchor="middle" x="355.9" y="-405.66" font-family="Times,serif" font-size="14.00">~</text>
<text text-anchor="middle" x="355.9" y="-390.66" font-family="Times,serif" font-size="14.00">HalfNormal</text>
</g>
<!-- sigma&#45;&gt;tau -->
<g id="edge1" class="edge">
<title>sigma&#45;&gt;tau</title>
<path fill="none" stroke="black" d="M294.71,-390.17C257.03,-378.34 208.05,-361.81 165.9,-343.88 157.5,-340.31 148.79,-336.25 140.27,-332.06"/>
<polygon fill="black" stroke="black" points="141.65,-328.84 131.14,-327.5 138.52,-335.1 141.65,-328.84"/>
</g>
<!-- sigma&#45;&gt;scores -->
<g id="edge8" class="edge">
<title>sigma&#45;&gt;scores</title>
<path fill="none" stroke="black" d="M424.82,-400.59C492.86,-391.33 589.95,-373.31 612.9,-343.88 635.58,-314.81 627.99,-294.57 612.9,-260.93 567.88,-160.52 438.13,-111.3 362.16,-90.45"/>
<polygon fill="black" stroke="black" points="362.83,-87.01 352.27,-87.82 361.03,-93.77 362.83,-87.01"/>
</g>
<!-- c2 -->
<g id="node4" class="node">
<title>c2</title>
<ellipse fill="none" stroke="black" cx="537.9" cy="-298.41" rx="66.44" ry="37.45"/>
<text text-anchor="middle" x="537.9" y="-309.71" font-family="Times,serif" font-size="14.00">c2</text>
<text text-anchor="middle" x="537.9" y="-294.71" font-family="Times,serif" font-size="14.00">~</text>
<text text-anchor="middle" x="537.9" y="-279.71" font-family="Times,serif" font-size="14.00">InvGamma</text>
</g>
<!-- c2&#45;&gt;beta -->
<g id="edge5" class="edge">
<title>c2&#45;&gt;beta</title>
<path fill="none" stroke="black" d="M489.64,-272.57C481.74,-268.62 473.61,-264.62 465.9,-260.93 435.08,-246.2 400.59,-230.56 371.46,-217.59"/>
<polygon fill="black" stroke="black" points="372.76,-214.34 362.2,-213.48 369.92,-220.74 372.76,-214.34"/>
</g>
<!-- lam -->
<g id="node5" class="node">
<title>lam</title>
<ellipse fill="none" stroke="black" cx="373.9" cy="-298.41" rx="79.81" ry="37.45"/>
<text text-anchor="middle" x="373.9" y="-309.71" font-family="Times,serif" font-size="14.00">lam</text>
<text text-anchor="middle" x="373.9" y="-294.71" font-family="Times,serif" font-size="14.00">~</text>
<text text-anchor="middle" x="373.9" y="-279.71" font-family="Times,serif" font-size="14.00">HalfStudentT</text>
</g>
<!-- lam&#45;&gt;beta -->
<g id="edge2" class="edge">
<title>lam&#45;&gt;beta</title>
<path fill="none" stroke="black" d="M351.69,-262.33C343.7,-249.72 334.7,-235.51 326.75,-222.94"/>
<polygon fill="black" stroke="black" points="329.47,-220.71 321.17,-214.13 323.56,-224.45 329.47,-220.71"/>
</g>
<!-- beta&#45;&gt;scores -->
<g id="edge7" class="edge">
<title>beta&#45;&gt;scores</title>
<path fill="none" stroke="black" d="M304.9,-160.9C304.9,-149.99 304.9,-136.9 304.9,-124.36"/>
<polygon fill="black" stroke="black" points="308.4,-124.01 304.9,-114.01 301.4,-124.01 308.4,-124.01"/>
</g>
<!-- z -->
<g id="node7" class="node">
<title>z</title>
<ellipse fill="none" stroke="black" cx="226.9" cy="-298.41" rx="49.49" ry="37.45"/>
<text text-anchor="middle" x="226.9" y="-309.71" font-family="Times,serif" font-size="14.00">z</text>
<text text-anchor="middle" x="226.9" y="-294.71" font-family="Times,serif" font-size="14.00">~</text>
<text text-anchor="middle" x="226.9" y="-279.71" font-family="Times,serif" font-size="14.00">Normal</text>
</g>
<!-- z&#45;&gt;beta -->
<g id="edge4" class="edge">
<title>z&#45;&gt;beta</title>
<path fill="none" stroke="black" d="M250.09,-265.01C259.76,-251.51 270.99,-235.82 280.76,-222.18"/>
<polygon fill="black" stroke="black" points="283.65,-224.15 286.63,-213.98 277.96,-220.08 283.65,-224.15"/>
</g>
</g>
</svg>