<?xml version="1.0" encoding="UTF-8" standalone="no"?>
<!DOCTYPE svg PUBLIC "-//W3C//DTD SVG 1.1//EN"
 "http://www.w3.org/Graphics/SVG/1.1/DTD/svg11.dtd">
<!-- Generated by graphviz version 12.1.0 (20240811.2233)
 -->
<!-- Pages: 1 -->
<svg width="296pt" height="385pt"
 viewBox="0.00 0.00 295.54 384.95" xmlns="http://www.w3.org/2000/svg" xmlns:xlink="http://www.w3.org/1999/xlink">
<g id="graph0" class="graph" transform="scale(1 1) rotate(0) translate(4 380.95)">
<polygon fill="white" stroke="none" points="-4,4 -4,-380.95 291.54,-380.95 291.54,4 -4,4"/>
<g id="clust1" class="cluster">
<title>clusterfloor_dim (1)</title>
<path fill="none" stroke="black" d="M112.25,-247.13C112.25,-247.13 186.25,-247.13 186.25,-247.13 192.25,-247.13 198.25,-253.13 198.25,-259.13 198.25,-259.13 198.25,-356.95 198.25,-356.95 198.25,-362.95 192.25,-368.95 186.25,-368.95 186.25,-368.95 112.25,-368.95 112.25,-368.95 106.25,-368.95 100.25,-362.95 100.25,-356.95 100.25,-356.95 100.25,-259.13 100.25,-259.13 100.25,-253.13 106.25,-247.13 112.25,-247.13"/>
<text text-anchor="middle" x="153.13" y="-254.33" font-family="Times,serif" font-size="14.00">floor_dim (1)</text>
</g>
<g id="clust2" class="cluster">
<title>cluster__obs__ (919)</title>
<path fill="none" stroke="black" d="M49.25,-8C49.25,-8 141.25,-8 141.25,-8 147.25,-8 153.25,-14 153.25,-20 153.25,-20 153.25,-223.23 153.25,-223.23 153.25,-229.23 147.25,-235.23 141.25,-235.23 141.25,-235.23 49.25,-235.23 49.25,-235.23 43.25,-235.23 37.25,-229.23 37.25,-223.23 37.25,-223.23 37.25,-20 37.25,-20 37.25,-14 43.25,-8 49.25,-8"/>
<text text-anchor="middle" x="105.88" y="-15.2" font-family="Times,serif" font-size="14.00">__obs__ (919)</text>
</g>
<!-- Intercept -->
<g id="node1" class="node">
<title>Intercept</title>
<ellipse fill="none" stroke="black" cx="45.25" cy="-320.29" rx="45.25" ry="40.66"/>
<text text-anchor="middle" x="45.25" y="-331.74" font-family="Times,serif" font-size="14.00">Intercept</text>
<text text-anchor="middle" x="45.25" y="-315.24" font-family="Times,serif" font-size="14.00">~</text>
<text text-anchor="middle" x="45.25" y="-298.74" font-family="Times,serif" font-size="14.00">Normal</text>
</g>
<!-- mu -->
<g id="node4" class="node">
<title>mu</title>
<polygon fill="none" stroke="black" points="140.38,-227.23 50.13,-227.23 50.13,-169.73 140.38,-169.73 140.38,-227.23"/>
<text text-anchor="middle" x="95.25" y="-209.93" font-family="Times,serif" font-size="14.00">mu</text>
<text text-anchor="middle" x="95.25" y="-193.43" font-family="Times,serif" font-size="14.00">~</text>
<text text-anchor="middle" x="95.25" y="-176.93" font-family="Times,serif" font-size="14.00">Deterministic</text>
</g>
<!-- Intercept&#45;&gt;mu -->
<g id="edge2" class="edge">
<title>Intercept&#45;&gt;mu</title>
<path fill="none" stroke="black" d="M60.94,-281.71C66.78,-267.71 73.42,-251.81 79.28,-237.75"/>
<polygon fill="black" stroke="black" points="82.39,-239.39 83.01,-228.81 75.93,-236.69 82.39,-239.39"/>
</g>
<!-- sigma -->
<g id="node2" class="node">
<title>sigma</title>
<ellipse fill="none" stroke="black" cx="224.25" cy="-198.48" rx="63.29" ry="40.66"/>
<text text-anchor="middle" x="224.25" y="-209.93" font-family="Times,serif" font-size="14.00">sigma</text>
<text text-anchor="middle" x="224.25" y="-193.43" font-family="Times,serif" font-size="14.00">~</text>
<text text-anchor="middle" x="224.25" y="-176.93" font-family="Times,serif" font-size="14.00">HalfStudentT</text>
</g>
<!-- log_radon -->
<g id="node5" class="node">
<title>log_radon</title>
<ellipse fill="lightgrey" stroke="black" cx="95.25" cy="-81.16" rx="50.03" ry="40.66"/>
<text text-anchor="middle" x="95.25" y="-92.61" font-family="Times,serif" font-size="14.00">log_radon</text>
<text text-anchor="middle" x="95.25" y="-76.11" font-family="Times,serif" font-size="14.00">~</text>
<text text-anchor="middle" x="95.25" y="-59.61" font-family="Times,serif" font-size="14.00">Normal</text>
</g>
<!-- sigma&#45;&gt;log_radon -->
<g id="edge4" class="edge">
<title>sigma&#45;&gt;log_radon</title>
<path fill="none" stroke="black" d="M187.98,-165.05C172.11,-150.86 153.41,-134.15 136.97,-119.45"/>
<polygon fill="black" stroke="black" points="139.53,-117.04 129.74,-112.99 134.86,-122.26 139.53,-117.04"/>
</g>
<!-- floor -->
<g id="node3" class="node">
<title>floor</title>
<ellipse fill="none" stroke="black" cx="149.25" cy="-320.29" rx="41.01" ry="40.66"/>
<text text-anchor="middle" x="149.25" y="-331.74" font-family="Times,serif" font-size="14.00">floor</text>
<text text-anchor="middle" x="149.25" y="-315.24" font-family="Times,serif" font-size="14.00">~</text>
<text text-anchor="middle" x="149.25" y="-298.74" font-family="Times,serif" font-size="14.00">Normal</text>
</g>
<!-- floor&#45;&gt;mu -->
<g id="edge1" class="edge">
<title>floor&#45;&gt;mu</title>
<path fill="none" stroke="black" d="M132.76,-282.69C126.32,-268.41 118.94,-252.02 112.43,-237.59"/>
<polygon fill="black" stroke="black" points="115.8,-236.55 108.5,-228.87 109.42,-239.42 115.8,-236.55"/>
</g>
<!-- mu&#45;&gt;log_radon -->
<g id="edge3" class="edge">
<title>mu&#45;&gt;log_radon</title>
<path fill="none" stroke="black" d="M95.25,-169.27C95.25,-158.44 95.25,-145.73 95.25,-133.41"/>
<polygon fill="black" stroke="black" points="98.75,-133.78 95.25,-123.78 91.75,-133.78 98.75,-133.78"/>
</g>
</g>
</svg>