<?xml version="1.0" encoding="UTF-8" standalone="no"?>
<!DOCTYPE svg PUBLIC "-//W3C//DTD SVG 1.1//EN"
 "http://www.w3.org/Graphics/SVG/1.1/DTD/svg11.dtd">
<!-- Generated by graphviz version 2.43.0 (0)
 -->
<!-- Title: %3 Pages: 1 -->
<svg width="337pt" height="363pt"
 viewBox="0.00 0.00 336.66 362.86" xmlns="http://www.w3.org/2000/svg" xmlns:xlink="http://www.w3.org/1999/xlink">
<g id="graph0" class="graph" transform="scale(1 1) rotate(0) translate(4 358.86)">
<title>%3</title>
<polygon fill="white" stroke="transparent" points="-4,4 -4,-358.86 332.66,-358.86 332.66,4 -4,4"/>
<g id="clust1" class="cluster">
<title>clusterfloor_dim (1)</title>
<path fill="none" stroke="black" d="M218.66,-232.91C218.66,-232.91 308.66,-232.91 308.66,-232.91 314.66,-232.91 320.66,-238.91 320.66,-244.91 320.66,-244.91 320.66,-334.86 320.66,-334.86 320.66,-340.86 314.66,-346.86 308.66,-346.86 308.66,-346.86 218.66,-346.86 218.66,-346.86 212.66,-346.86 206.66,-340.86 206.66,-334.86 206.66,-334.86 206.66,-244.91 206.66,-244.91 206.66,-238.91 212.66,-232.91 218.66,-232.91"/>
<text text-anchor="middle" x="267.16" y="-240.71" font-family="Times,serif" font-size="14.00">floor_dim (1)</text>
</g>
<g id="clust2" class="cluster">
<title>cluster__obs__ (919)</title>
<path fill="none" stroke="black" d="M171.66,-8C171.66,-8 285.66,-8 285.66,-8 291.66,-8 297.66,-14 297.66,-20 297.66,-20 297.66,-209.93 297.66,-209.93 297.66,-215.93 291.66,-221.93 285.66,-221.93 285.66,-221.93 171.66,-221.93 171.66,-221.93 165.66,-221.93 159.66,-215.93 159.66,-209.93 159.66,-209.93 159.66,-20 159.66,-20 159.66,-14 165.66,-8 171.66,-8"/>
<text text-anchor="middle" x="242.66" y="-15.8" font-family="Times,serif" font-size="14.00">__obs__ (919)</text>
</g>
<!-- sigma -->
<g id="node1" class="node">
<title>sigma</title>
<ellipse fill="none" stroke="black" cx="75.66" cy="-187.43" rx="75.82" ry="37.45"/>
<text text-anchor="middle" x="75.66" y="-198.73" font-family="Times,serif" font-size="14.00">sigma</text>
<text text-anchor="middle" x="75.66" y="-183.73" font-family="Times,serif" font-size="14.00">~</text>
<text text-anchor="middle" x="75.66" y="-168.73" font-family="Times,serif" font-size="14.00">Halfstudentt</text>
</g>
<!-- log_radon -->
<g id="node5" class="node">
<title>log_radon</title>
<ellipse fill="lightgrey" stroke="black" cx="228.66" cy="-76.48" rx="60.62" ry="37.45"/>
<text text-anchor="middle" x="228.66" y="-87.78" font-family="Times,serif" font-size="14.00">log_radon</text>
<text text-anchor="middle" x="228.66" y="-72.78" font-family="Times,serif" font-size="14.00">~</text>
<text text-anchor="middle" x="228.66" y="-57.78" font-family="Times,serif" font-size="14.00">Normal</text>
</g>
<!-- sigma&#45;&gt;log_radon -->
<g id="edge4" class="edge">
<title>sigma&#45;&gt;log_radon</title>
<path fill="none" stroke="black" d="M118.28,-156.08C137.85,-142.14 161.14,-125.56 181.26,-111.23"/>
<polygon fill="black" stroke="black" points="183.56,-113.89 189.67,-105.24 179.5,-108.19 183.56,-113.89"/>
</g>
<!-- Intercept -->
<g id="node2" class="node">
<title>Intercept</title>
<ellipse fill="none" stroke="black" cx="137.66" cy="-301.38" rx="58.88" ry="37.45"/>
<text text-anchor="middle" x="137.66" y="-312.68" font-family="Times,serif" font-size="14.00">Intercept</text>
<text text-anchor="middle" x="137.66" y="-297.68" font-family="Times,serif" font-size="14.00">~</text>
<text text-anchor="middle" x="137.66" y="-282.68" font-family="Times,serif" font-size="14.00">Normal</text>
</g>
<!-- mu -->
<g id="node4" class="node">
<title>mu</title>
<polygon fill="none" stroke="black" points="285.66,-213.93 171.66,-213.93 171.66,-160.93 285.66,-160.93 285.66,-213.93"/>
<text text-anchor="middle" x="228.66" y="-198.73" font-family="Times,serif" font-size="14.00">mu</text>
<text text-anchor="middle" x="228.66" y="-183.73" font-family="Times,serif" font-size="14.00">~</text>
<text text-anchor="middle" x="228.66" y="-168.73" font-family="Times,serif" font-size="14.00">Deterministic</text>
</g>
<!-- Intercept&#45;&gt;mu -->
<g id="edge1" class="edge">
<title>Intercept&#45;&gt;mu</title>
<path fill="none" stroke="black" d="M164.23,-267.7C175.91,-253.32 189.63,-236.45 201.39,-221.98"/>
<polygon fill="black" stroke="black" points="204.11,-224.18 207.7,-214.22 198.68,-219.77 204.11,-224.18"/>
</g>
<!-- floor -->
<g id="node3" class="node">
<title>floor</title>
<ellipse fill="none" stroke="black" cx="263.66" cy="-301.38" rx="49.49" ry="37.45"/>
<text text-anchor="middle" x="263.66" y="-312.68" font-family="Times,serif" font-size="14.00">floor</text>
<text text-anchor="middle" x="263.66" y="-297.68" font-family="Times,serif" font-size="14.00">~</text>
<text text-anchor="middle" x="263.66" y="-282.68" font-family="Times,serif" font-size="14.00">Normal</text>
</g>
<!-- floor&#45;&gt;mu -->
<g id="edge2" class="edge">
<title>floor&#45;&gt;mu</title>
<path fill="none" stroke="black" d="M252.49,-264.65C248.41,-251.6 243.8,-236.85 239.72,-223.82"/>
<polygon fill="black" stroke="black" points="243.06,-222.75 236.73,-214.25 236.38,-224.84 243.06,-222.75"/>
</g>
<!-- mu&#45;&gt;log_radon -->
<g id="edge3" class="edge">
<title>mu&#45;&gt;log_radon</title>
<path fill="none" stroke="black" d="M228.66,-160.89C228.66,-149.98 228.66,-136.89 228.66,-124.35"/>
<polygon fill="black" stroke="black" points="232.16,-124 228.66,-114 225.16,-124 232.16,-124"/>
</g>
</g>
</svg>