<?xml version="1.0" encoding="UTF-8" standalone="no"?>
<!DOCTYPE svg PUBLIC "-//W3C//DTD SVG 1.1//EN"
 "http://www.w3.org/Graphics/SVG/1.1/DTD/svg11.dtd">
<!-- Generated by graphviz version 2.43.0 (0)
 -->
<!-- Title: %3 Pages: 1 -->
<svg width="487pt" height="344pt"
 viewBox="0.00 0.00 486.59 343.86" xmlns="http://www.w3.org/2000/svg" xmlns:xlink="http://www.w3.org/1999/xlink">
<g id="graph0" class="graph" transform="scale(1 1) rotate(0) translate(4 339.86)">
<title>%3</title>
<polygon fill="white" stroke="transparent" points="-4,4 -4,-339.86 482.59,-339.86 482.59,4 -4,4"/>
<g id="clust1" class="cluster">
<title>cluster__obs__ (156)</title>
<path fill="none" stroke="black" d="M181.9,-8C181.9,-8 287.9,-8 287.9,-8 293.9,-8 299.9,-14 299.9,-20 299.9,-20 299.9,-209.93 299.9,-209.93 299.9,-215.93 293.9,-221.93 287.9,-221.93 287.9,-221.93 181.9,-221.93 181.9,-221.93 175.9,-221.93 169.9,-215.93 169.9,-209.93 169.9,-209.93 169.9,-20 169.9,-20 169.9,-14 175.9,-8 181.9,-8"/>
<text text-anchor="middle" x="244.9" y="-15.8" font-family="Times,serif" font-size="14.00">__obs__ (156)</text>
</g>
<!-- sigma -->
<g id="node1" class="node">
<title>sigma</title>
<ellipse fill="none" stroke="black" cx="79.9" cy="-187.43" rx="79.81" ry="37.45"/>
<text text-anchor="middle" x="79.9" y="-198.73" font-family="Times,serif" font-size="14.00">sigma</text>
<text text-anchor="middle" x="79.9" y="-183.73" font-family="Times,serif" font-size="14.00">~</text>
<text text-anchor="middle" x="79.9" y="-168.73" font-family="Times,serif" font-size="14.00">HalfStudentT</text>
</g>
<!-- score -->
<g id="node6" class="node">
<title>score</title>
<ellipse fill="lightgrey" stroke="black" cx="230.9" cy="-76.48" rx="49.49" ry="37.45"/>
<text text-anchor="middle" x="230.9" y="-87.78" font-family="Times,serif" font-size="14.00">score</text>
<text text-anchor="middle" x="230.9" y="-72.78" font-family="Times,serif" font-size="14.00">~</text>
<text text-anchor="middle" x="230.9" y="-57.78" font-family="Times,serif" font-size="14.00">Normal</text>
</g>
<!-- sigma&#45;&gt;score -->
<g id="edge5" class="edge">
<title>sigma&#45;&gt;score</title>
<path fill="none" stroke="black" d="M122.77,-155.5C143,-140.9 167.1,-123.51 187.41,-108.86"/>
<polygon fill="black" stroke="black" points="189.51,-111.66 195.57,-102.97 185.41,-105.98 189.51,-111.66"/>
</g>
<!-- alc -->
<g id="node2" class="node">
<title>alc</title>
<ellipse fill="none" stroke="black" cx="59.9" cy="-298.38" rx="49.49" ry="37.45"/>
<text text-anchor="middle" x="59.9" y="-309.68" font-family="Times,serif" font-size="14.00">alc</text>
<text text-anchor="middle" x="59.9" y="-294.68" font-family="Times,serif" font-size="14.00">~</text>
<text text-anchor="middle" x="59.9" y="-279.68" font-family="Times,serif" font-size="14.00">Normal</text>
</g>
<!-- mu -->
<g id="node7" class="node">
<title>mu</title>
<polygon fill="none" stroke="black" points="291.9,-213.93 177.9,-213.93 177.9,-160.93 291.9,-160.93 291.9,-213.93"/>
<text text-anchor="middle" x="234.9" y="-198.73" font-family="Times,serif" font-size="14.00">mu</text>
<text text-anchor="middle" x="234.9" y="-183.73" font-family="Times,serif" font-size="14.00">~</text>
<text text-anchor="middle" x="234.9" y="-168.73" font-family="Times,serif" font-size="14.00">Deterministic</text>
</g>
<!-- alc&#45;&gt;mu -->
<g id="edge2" class="edge">
<title>alc&#45;&gt;mu</title>
<path fill="none" stroke="black" d="M97.88,-273.74C123.36,-257.87 157.21,-236.8 184.89,-219.57"/>
<polygon fill="black" stroke="black" points="187,-222.37 193.64,-214.12 183.3,-216.43 187,-222.37"/>
</g>
<!-- weed -->
<g id="node3" class="node">
<title>weed</title>
<ellipse fill="none" stroke="black" cx="176.9" cy="-298.38" rx="49.49" ry="37.45"/>
<text text-anchor="middle" x="176.9" y="-309.68" font-family="Times,serif" font-size="14.00">weed</text>
<text text-anchor="middle" x="176.9" y="-294.68" font-family="Times,serif" font-size="14.00">~</text>
<text text-anchor="middle" x="176.9" y="-279.68" font-family="Times,serif" font-size="14.00">Normal</text>
</g>
<!-- weed&#45;&gt;mu -->
<g id="edge3" class="edge">
<title>weed&#45;&gt;mu</title>
<path fill="none" stroke="black" d="M195.1,-263.21C201.89,-250.45 209.6,-235.96 216.41,-223.16"/>
<polygon fill="black" stroke="black" points="219.58,-224.65 221.19,-214.18 213.41,-221.36 219.58,-224.65"/>
</g>
<!-- exrc -->
<g id="node4" class="node">
<title>exrc</title>
<ellipse fill="none" stroke="black" cx="293.9" cy="-298.38" rx="49.49" ry="37.45"/>
<text text-anchor="middle" x="293.9" y="-309.68" font-family="Times,serif" font-size="14.00">exrc</text>
<text text-anchor="middle" x="293.9" y="-294.68" font-family="Times,serif" font-size="14.00">~</text>
<text text-anchor="middle" x="293.9" y="-279.68" font-family="Times,serif" font-size="14.00">Normal</text>
</g>
<!-- exrc&#45;&gt;mu -->
<g id="edge4" class="edge">
<title>exrc&#45;&gt;mu</title>
<path fill="none" stroke="black" d="M275.56,-263.51C268.59,-250.64 260.65,-235.97 253.64,-223.04"/>
<polygon fill="black" stroke="black" points="256.58,-221.1 248.74,-213.97 250.42,-224.43 256.58,-221.1"/>
</g>
<!-- Intercept -->
<g id="node5" class="node">
<title>Intercept</title>
<ellipse fill="none" stroke="black" cx="419.9" cy="-298.38" rx="58.88" ry="37.45"/>
<text text-anchor="middle" x="419.9" y="-309.68" font-family="Times,serif" font-size="14.00">Intercept</text>
<text text-anchor="middle" x="419.9" y="-294.68" font-family="Times,serif" font-size="14.00">~</text>
<text text-anchor="middle" x="419.9" y="-279.68" font-family="Times,serif" font-size="14.00">Normal</text>
</g>
<!-- Intercept&#45;&gt;mu -->
<g id="edge1" class="edge">
<title>Intercept&#45;&gt;mu</title>
<path fill="none" stroke="black" d="M377.46,-272.39C350.58,-256.56 315.64,-235.98 287.08,-219.16"/>
<polygon fill="black" stroke="black" points="288.83,-216.13 278.43,-214.07 285.27,-222.16 288.83,-216.13"/>
</g>
<!-- mu&#45;&gt;score -->
<g id="edge6" class="edge">
<title>mu&#45;&gt;score</title>
<path fill="none" stroke="black" d="M233.97,-160.89C233.56,-149.98 233.08,-136.89 232.62,-124.35"/>
<polygon fill="black" stroke="black" points="236.11,-123.87 232.24,-114 229.11,-124.12 236.11,-123.87"/>
</g>
</g>
</svg>