<?xml version="1.0" encoding="UTF-8" standalone="no"?>
<!DOCTYPE svg PUBLIC "-//W3C//DTD SVG 1.1//EN"
 "http://www.w3.org/Graphics/SVG/1.1/DTD/svg11.dtd">
<!-- Generated by graphviz version 2.43.0 (0)
 -->
<!-- Title: %3 Pages: 1 -->
<svg width="505pt" height="458pt"
 viewBox="0.00 0.00 504.90 457.81" xmlns="http://www.w3.org/2000/svg" xmlns:xlink="http://www.w3.org/1999/xlink">
<g id="graph0" class="graph" transform="scale(1 1) rotate(0) translate(4 453.81)">
<title>%3</title>
<polygon fill="white" stroke="transparent" points="-4,4 -4,-453.81 500.9,-453.81 500.9,4 -4,4"/>
<g id="clust1" class="cluster">
<title>clusterfloor_dim (1)</title>
<path fill="none" stroke="black" d="M191.9,-232.91C191.9,-232.91 281.9,-232.91 281.9,-232.91 287.9,-232.91 293.9,-238.91 293.9,-244.91 293.9,-244.91 293.9,-334.86 293.9,-334.86 293.9,-340.86 287.9,-346.86 281.9,-346.86 281.9,-346.86 191.9,-346.86 191.9,-346.86 185.9,-346.86 179.9,-340.86 179.9,-334.86 179.9,-334.86 179.9,-244.91 179.9,-244.91 179.9,-238.91 185.9,-232.91 191.9,-232.91"/>
<text text-anchor="middle" x="240.4" y="-240.71" font-family="Times,serif" font-size="14.00">floor_dim (1)</text>
</g>
<g id="clust2" class="cluster">
<title>clustercounty__factor_dim (85)</title>
<path fill="none" stroke="black" d="M313.9,-232.91C313.9,-232.91 476.9,-232.91 476.9,-232.91 482.9,-232.91 488.9,-238.91 488.9,-244.91 488.9,-244.91 488.9,-334.86 488.9,-334.86 488.9,-340.86 482.9,-346.86 476.9,-346.86 476.9,-346.86 313.9,-346.86 313.9,-346.86 307.9,-346.86 301.9,-340.86 301.9,-334.86 301.9,-334.86 301.9,-244.91 301.9,-244.91 301.9,-238.91 307.9,-232.91 313.9,-232.91"/>
<text text-anchor="middle" x="395.4" y="-240.71" font-family="Times,serif" font-size="14.00">county__factor_dim (85)</text>
</g>
<g id="clust3" class="cluster">
<title>cluster__obs__ (919)</title>
<path fill="none" stroke="black" d="M179.9,-8C179.9,-8 293.9,-8 293.9,-8 299.9,-8 305.9,-14 305.9,-20 305.9,-20 305.9,-209.93 305.9,-209.93 305.9,-215.93 299.9,-221.93 293.9,-221.93 293.9,-221.93 179.9,-221.93 179.9,-221.93 173.9,-221.93 167.9,-215.93 167.9,-209.93 167.9,-209.93 167.9,-20 167.9,-20 167.9,-14 173.9,-8 179.9,-8"/>
<text text-anchor="middle" x="250.9" y="-15.8" font-family="Times,serif" font-size="14.00">__obs__ (919)</text>
</g>
<!-- sigma -->
<g id="node1" class="node">
<title>sigma</title>
<ellipse fill="none" stroke="black" cx="79.9" cy="-187.43" rx="79.81" ry="37.45"/>
<text text-anchor="middle" x="79.9" y="-198.73" font-family="Times,serif" font-size="14.00">sigma</text>
<text text-anchor="middle" x="79.9" y="-183.73" font-family="Times,serif" font-size="14.00">~</text>
<text text-anchor="middle" x="79.9" y="-168.73" font-family="Times,serif" font-size="14.00">HalfStudentT</text>
</g>
<!-- log_radon -->
<g id="node7" class="node">
<title>log_radon</title>
<ellipse fill="lightgrey" stroke="black" cx="236.9" cy="-76.48" rx="60.62" ry="37.45"/>
<text text-anchor="middle" x="236.9" y="-87.78" font-family="Times,serif" font-size="14.00">log_radon</text>
<text text-anchor="middle" x="236.9" y="-72.78" font-family="Times,serif" font-size="14.00">~</text>
<text text-anchor="middle" x="236.9" y="-57.78" font-family="Times,serif" font-size="14.00">Normal</text>
</g>
<!-- sigma&#45;&gt;log_radon -->
<g id="edge6" class="edge">
<title>sigma&#45;&gt;log_radon</title>
<path fill="none" stroke="black" d="M124.05,-155.79C144.22,-141.79 168.16,-125.18 188.78,-110.87"/>
<polygon fill="black" stroke="black" points="190.88,-113.67 197.1,-105.1 186.89,-107.92 190.88,-113.67"/>
</g>
<!-- 1|county_sigma -->
<g id="node2" class="node">
<title>1|county_sigma</title>
<ellipse fill="none" stroke="black" cx="364.9" cy="-412.34" rx="90.52" ry="37.45"/>
<text text-anchor="middle" x="364.9" y="-423.64" font-family="Times,serif" font-size="14.00">1|county_sigma</text>
<text text-anchor="middle" x="364.9" y="-408.64" font-family="Times,serif" font-size="14.00">~</text>
<text text-anchor="middle" x="364.9" y="-393.64" font-family="Times,serif" font-size="14.00">Exponential</text>
</g>
<!-- 1|county -->
<g id="node5" class="node">
<title>1|county</title>
<ellipse fill="none" stroke="black" cx="364.9" cy="-301.38" rx="55.31" ry="37.45"/>
<text text-anchor="middle" x="364.9" y="-312.68" font-family="Times,serif" font-size="14.00">1|county</text>
<text text-anchor="middle" x="364.9" y="-297.68" font-family="Times,serif" font-size="14.00">~</text>
<text text-anchor="middle" x="364.9" y="-282.68" font-family="Times,serif" font-size="14.00">Normal</text>
</g>
<!-- 1|county_sigma&#45;&gt;1|county -->
<g id="edge1" class="edge">
<title>1|county_sigma&#45;&gt;1|county</title>
<path fill="none" stroke="black" d="M364.9,-374.75C364.9,-366.58 364.9,-357.8 364.9,-349.27"/>
<polygon fill="black" stroke="black" points="368.4,-349.06 364.9,-339.06 361.4,-349.06 368.4,-349.06"/>
</g>
<!-- Intercept -->
<g id="node3" class="node">
<title>Intercept</title>
<ellipse fill="none" stroke="black" cx="110.9" cy="-301.38" rx="58.88" ry="37.45"/>
<text text-anchor="middle" x="110.9" y="-312.68" font-family="Times,serif" font-size="14.00">Intercept</text>
<text text-anchor="middle" x="110.9" y="-297.68" font-family="Times,serif" font-size="14.00">~</text>
<text text-anchor="middle" x="110.9" y="-282.68" font-family="Times,serif" font-size="14.00">Normal</text>
</g>
<!-- mu -->
<g id="node6" class="node">
<title>mu</title>
<polygon fill="none" stroke="black" points="293.9,-213.93 179.9,-213.93 179.9,-160.93 293.9,-160.93 293.9,-213.93"/>
<text text-anchor="middle" x="236.9" y="-198.73" font-family="Times,serif" font-size="14.00">mu</text>
<text text-anchor="middle" x="236.9" y="-183.73" font-family="Times,serif" font-size="14.00">~</text>
<text text-anchor="middle" x="236.9" y="-168.73" font-family="Times,serif" font-size="14.00">Deterministic</text>
</g>
<!-- Intercept&#45;&gt;mu -->
<g id="edge4" class="edge">
<title>Intercept&#45;&gt;mu</title>
<path fill="none" stroke="black" d="M139.59,-268.34C150.54,-256.74 163.4,-243.81 175.9,-232.91 180.77,-228.67 186.01,-224.41 191.32,-220.31"/>
<polygon fill="black" stroke="black" points="193.79,-222.83 199.65,-214 189.57,-217.24 193.79,-222.83"/>
</g>
<!-- floor -->
<g id="node4" class="node">
<title>floor</title>
<ellipse fill="none" stroke="black" cx="236.9" cy="-301.38" rx="49.49" ry="37.45"/>
<text text-anchor="middle" x="236.9" y="-312.68" font-family="Times,serif" font-size="14.00">floor</text>
<text text-anchor="middle" x="236.9" y="-297.68" font-family="Times,serif" font-size="14.00">~</text>
<text text-anchor="middle" x="236.9" y="-282.68" font-family="Times,serif" font-size="14.00">Normal</text>
</g>
<!-- floor&#45;&gt;mu -->
<g id="edge2" class="edge">
<title>floor&#45;&gt;mu</title>
<path fill="none" stroke="black" d="M236.9,-263.73C236.9,-251.07 236.9,-236.92 236.9,-224.32"/>
<polygon fill="black" stroke="black" points="240.4,-224.18 236.9,-214.18 233.4,-224.18 240.4,-224.18"/>
</g>
<!-- 1|county&#45;&gt;mu -->
<g id="edge3" class="edge">
<title>1|county&#45;&gt;mu</title>
<path fill="none" stroke="black" d="M335.87,-269.1C324.43,-257.32 310.93,-244.09 297.9,-232.91 293.01,-228.7 287.74,-224.47 282.43,-220.38"/>
<polygon fill="black" stroke="black" points="284.17,-217.31 274.08,-214.09 279.96,-222.9 284.17,-217.31"/>
</g>
<!-- mu&#45;&gt;log_radon -->
<g id="edge5" class="edge">
<title>mu&#45;&gt;log_radon</title>
<path fill="none" stroke="black" d="M236.9,-160.89C236.9,-149.98 236.9,-136.89 236.9,-124.35"/>
<polygon fill="black" stroke="black" points="240.4,-124 236.9,-114 233.4,-124 240.4,-124"/>
</g>
</g>
</svg>