<?xml version="1.0" encoding="UTF-8" standalone="no"?>
<!DOCTYPE svg PUBLIC "-//W3C//DTD SVG 1.1//EN"
 "http://www.w3.org/Graphics/SVG/1.1/DTD/svg11.dtd">
<!-- Generated by graphviz version 2.43.0 (0)
 -->
<!-- Title: %3 Pages: 1 -->
<svg width="476pt" height="344pt"
 viewBox="0.00 0.00 475.99 343.86" xmlns="http://www.w3.org/2000/svg" xmlns:xlink="http://www.w3.org/1999/xlink">
<g id="graph0" class="graph" transform="scale(1 1) rotate(0) translate(4 339.86)">
<title>%3</title>
<polygon fill="white" stroke="transparent" points="-4,4 -4,-339.86 471.99,-339.86 471.99,4 -4,4"/>
<g id="clust1" class="cluster">
<title>cluster__obs__ (156)</title>
<path fill="none" stroke="black" d="M176.5,-8C176.5,-8 282.5,-8 282.5,-8 288.5,-8 294.5,-14 294.5,-20 294.5,-20 294.5,-209.93 294.5,-209.93 294.5,-215.93 288.5,-221.93 282.5,-221.93 282.5,-221.93 176.5,-221.93 176.5,-221.93 170.5,-221.93 164.5,-215.93 164.5,-209.93 164.5,-209.93 164.5,-20 164.5,-20 164.5,-14 170.5,-8 176.5,-8"/>
<text text-anchor="middle" x="239.5" y="-15.8" font-family="Times,serif" font-size="14.00">__obs__ (156)</text>
</g>
<!-- sigma -->
<g id="node1" class="node">
<title>sigma</title>
<ellipse fill="none" stroke="black" cx="78.5" cy="-187.43" rx="75.82" ry="37.45"/>
<text text-anchor="middle" x="78.5" y="-198.73" font-family="Times,serif" font-size="14.00">sigma</text>
<text text-anchor="middle" x="78.5" y="-183.73" font-family="Times,serif" font-size="14.00">~</text>
<text text-anchor="middle" x="78.5" y="-168.73" font-family="Times,serif" font-size="14.00">Halfstudentt</text>
</g>
<!-- score -->
<g id="node6" class="node">
<title>score</title>
<ellipse fill="lightgrey" stroke="black" cx="225.5" cy="-76.48" rx="49.49" ry="37.45"/>
<text text-anchor="middle" x="225.5" y="-87.78" font-family="Times,serif" font-size="14.00">score</text>
<text text-anchor="middle" x="225.5" y="-72.78" font-family="Times,serif" font-size="14.00">~</text>
<text text-anchor="middle" x="225.5" y="-57.78" font-family="Times,serif" font-size="14.00">Normal</text>
</g>
<!-- sigma&#45;&gt;score -->
<g id="edge5" class="edge">
<title>sigma&#45;&gt;score</title>
<path fill="none" stroke="black" d="M119.84,-155.79C139.3,-141.36 162.52,-124.15 182.23,-109.55"/>
<polygon fill="black" stroke="black" points="184.49,-112.23 190.44,-103.46 180.32,-106.61 184.49,-112.23"/>
</g>
<!-- alc -->
<g id="node2" class="node">
<title>alc</title>
<ellipse fill="none" stroke="black" cx="49.5" cy="-298.38" rx="49.49" ry="37.45"/>
<text text-anchor="middle" x="49.5" y="-309.68" font-family="Times,serif" font-size="14.00">alc</text>
<text text-anchor="middle" x="49.5" y="-294.68" font-family="Times,serif" font-size="14.00">~</text>
<text text-anchor="middle" x="49.5" y="-279.68" font-family="Times,serif" font-size="14.00">Normal</text>
</g>
<!-- mu -->
<g id="node7" class="node">
<title>mu</title>
<polygon fill="none" stroke="black" points="286.5,-213.93 172.5,-213.93 172.5,-160.93 286.5,-160.93 286.5,-213.93"/>
<text text-anchor="middle" x="229.5" y="-198.73" font-family="Times,serif" font-size="14.00">mu</text>
<text text-anchor="middle" x="229.5" y="-183.73" font-family="Times,serif" font-size="14.00">~</text>
<text text-anchor="middle" x="229.5" y="-168.73" font-family="Times,serif" font-size="14.00">Deterministic</text>
</g>
<!-- alc&#45;&gt;mu -->
<g id="edge4" class="edge">
<title>alc&#45;&gt;mu</title>
<path fill="none" stroke="black" d="M87.22,-273.95C94.28,-269.6 101.6,-265.1 108.5,-260.91 131.2,-247.09 156.41,-231.96 177.91,-219.11"/>
<polygon fill="black" stroke="black" points="179.78,-222.07 186.57,-213.94 176.19,-216.06 179.78,-222.07"/>
</g>
<!-- weed -->
<g id="node3" class="node">
<title>weed</title>
<ellipse fill="none" stroke="black" cx="166.5" cy="-298.38" rx="49.49" ry="37.45"/>
<text text-anchor="middle" x="166.5" y="-309.68" font-family="Times,serif" font-size="14.00">weed</text>
<text text-anchor="middle" x="166.5" y="-294.68" font-family="Times,serif" font-size="14.00">~</text>
<text text-anchor="middle" x="166.5" y="-279.68" font-family="Times,serif" font-size="14.00">Normal</text>
</g>
<!-- weed&#45;&gt;mu -->
<g id="edge1" class="edge">
<title>weed&#45;&gt;mu</title>
<path fill="none" stroke="black" d="M185.91,-263.8C193.43,-250.8 202.04,-235.92 209.6,-222.84"/>
<polygon fill="black" stroke="black" points="212.67,-224.52 214.65,-214.11 206.61,-221.02 212.67,-224.52"/>
</g>
<!-- Intercept -->
<g id="node4" class="node">
<title>Intercept</title>
<ellipse fill="none" stroke="black" cx="292.5" cy="-298.38" rx="58.88" ry="37.45"/>
<text text-anchor="middle" x="292.5" y="-309.68" font-family="Times,serif" font-size="14.00">Intercept</text>
<text text-anchor="middle" x="292.5" y="-294.68" font-family="Times,serif" font-size="14.00">~</text>
<text text-anchor="middle" x="292.5" y="-279.68" font-family="Times,serif" font-size="14.00">Normal</text>
</g>
<!-- Intercept&#45;&gt;mu -->
<g id="edge2" class="edge">
<title>Intercept&#45;&gt;mu</title>
<path fill="none" stroke="black" d="M272.56,-262.91C265.2,-250.17 256.85,-235.73 249.48,-222.98"/>
<polygon fill="black" stroke="black" points="252.34,-220.95 244.31,-214.04 246.28,-224.45 252.34,-220.95"/>
</g>
<!-- exrc -->
<g id="node5" class="node">
<title>exrc</title>
<ellipse fill="none" stroke="black" cx="418.5" cy="-298.38" rx="49.49" ry="37.45"/>
<text text-anchor="middle" x="418.5" y="-309.68" font-family="Times,serif" font-size="14.00">exrc</text>
<text text-anchor="middle" x="418.5" y="-294.68" font-family="Times,serif" font-size="14.00">~</text>
<text text-anchor="middle" x="418.5" y="-279.68" font-family="Times,serif" font-size="14.00">Normal</text>
</g>
<!-- exrc&#45;&gt;mu -->
<g id="edge3" class="edge">
<title>exrc&#45;&gt;mu</title>
<path fill="none" stroke="black" d="M381.25,-273.53C374.39,-269.26 367.26,-264.9 360.5,-260.91 336.39,-246.67 309.38,-231.59 286.18,-218.89"/>
<polygon fill="black" stroke="black" points="287.61,-215.68 277.16,-213.96 284.26,-221.83 287.61,-215.68"/>
</g>
<!-- mu&#45;&gt;score -->
<g id="edge6" class="edge">
<title>mu&#45;&gt;score</title>
<path fill="none" stroke="black" d="M228.56,-160.89C228.16,-149.98 227.68,-136.89 227.22,-124.35"/>
<polygon fill="black" stroke="black" points="230.7,-123.87 226.84,-114 223.71,-124.12 230.7,-123.87"/>
</g>
</g>
</svg>