<?xml version="1.0" encoding="UTF-8" standalone="no"?>
<!DOCTYPE svg PUBLIC "-//W3C//DTD SVG 1.1//EN"
 "http://www.w3.org/Graphics/SVG/1.1/DTD/svg11.dtd">
<!-- Generated by graphviz version 2.43.0 (0)
 -->
<!-- Title: %3 Pages: 1 -->
<svg width="399pt" height="363pt"
 viewBox="0.00 0.00 399.20 362.86" xmlns="http://www.w3.org/2000/svg" xmlns:xlink="http://www.w3.org/1999/xlink">
<g id="graph0" class="graph" transform="scale(1 1) rotate(0) translate(4 358.86)">
<title>%3</title>
<polygon fill="white" stroke="transparent" points="-4,4 -4,-358.86 395.2,-358.86 395.2,4 -4,4"/>
<g id="clust1" class="cluster">
<title>clusterloc_dim (2)</title>
<path fill="none" stroke="black" d="M129.2,-232.91C129.2,-232.91 219.2,-232.91 219.2,-232.91 225.2,-232.91 231.2,-238.91 231.2,-244.91 231.2,-244.91 231.2,-334.86 231.2,-334.86 231.2,-340.86 225.2,-346.86 219.2,-346.86 219.2,-346.86 129.2,-346.86 129.2,-346.86 123.2,-346.86 117.2,-340.86 117.2,-334.86 117.2,-334.86 117.2,-244.91 117.2,-244.91 117.2,-238.91 123.2,-232.91 129.2,-232.91"/>
<text text-anchor="middle" x="183.7" y="-240.71" font-family="Times,serif" font-size="14.00">loc_dim (2)</text>
</g>
<g id="clust2" class="cluster">
<title>clustersigma_loc_dim (2)</title>
<path fill="none" stroke="black" d="M251.2,-232.91C251.2,-232.91 371.2,-232.91 371.2,-232.91 377.2,-232.91 383.2,-238.91 383.2,-244.91 383.2,-244.91 383.2,-334.86 383.2,-334.86 383.2,-340.86 377.2,-346.86 371.2,-346.86 371.2,-346.86 251.2,-346.86 251.2,-346.86 245.2,-346.86 239.2,-340.86 239.2,-334.86 239.2,-334.86 239.2,-244.91 239.2,-244.91 239.2,-238.91 245.2,-232.91 251.2,-232.91"/>
<text text-anchor="middle" x="311.2" y="-240.71" font-family="Times,serif" font-size="14.00">sigma_loc_dim (2)</text>
</g>
<g id="clust3" class="cluster">
<title>cluster__obs__ (18)</title>
<path fill="none" stroke="black" d="M122.2,-8C122.2,-8 360.2,-8 360.2,-8 366.2,-8 372.2,-14 372.2,-20 372.2,-20 372.2,-209.93 372.2,-209.93 372.2,-215.93 366.2,-221.93 360.2,-221.93 360.2,-221.93 122.2,-221.93 122.2,-221.93 116.2,-221.93 110.2,-215.93 110.2,-209.93 110.2,-209.93 110.2,-20 110.2,-20 110.2,-14 116.2,-8 122.2,-8"/>
<text text-anchor="middle" x="321.7" y="-15.8" font-family="Times,serif" font-size="14.00">__obs__ (18)</text>
</g>
<!-- nu -->
<g id="node1" class="node">
<title>nu</title>
<ellipse fill="none" stroke="black" cx="50.2" cy="-187.43" rx="50.41" ry="37.45"/>
<text text-anchor="middle" x="50.2" y="-198.73" font-family="Times,serif" font-size="14.00">nu</text>
<text text-anchor="middle" x="50.2" y="-183.73" font-family="Times,serif" font-size="14.00">~</text>
<text text-anchor="middle" x="50.2" y="-168.73" font-family="Times,serif" font-size="14.00">Gamma</text>
</g>
<!-- price -->
<g id="node6" class="node">
<title>price</title>
<ellipse fill="lightgrey" stroke="black" cx="177.2" cy="-76.48" rx="58.88" ry="37.45"/>
<text text-anchor="middle" x="177.2" y="-87.78" font-family="Times,serif" font-size="14.00">price</text>
<text text-anchor="middle" x="177.2" y="-72.78" font-family="Times,serif" font-size="14.00">~</text>
<text text-anchor="middle" x="177.2" y="-57.78" font-family="Times,serif" font-size="14.00">StudentT</text>
</g>
<!-- nu&#45;&gt;price -->
<g id="edge5" class="edge">
<title>nu&#45;&gt;price</title>
<path fill="none" stroke="black" d="M82.58,-158.65C98.51,-144.99 117.92,-128.34 135,-113.68"/>
<polygon fill="black" stroke="black" points="137.35,-116.28 142.66,-107.11 132.79,-110.97 137.35,-116.28"/>
</g>
<!-- loc -->
<g id="node2" class="node">
<title>loc</title>
<ellipse fill="none" stroke="black" cx="174.2" cy="-301.38" rx="49.49" ry="37.45"/>
<text text-anchor="middle" x="174.2" y="-312.68" font-family="Times,serif" font-size="14.00">loc</text>
<text text-anchor="middle" x="174.2" y="-297.68" font-family="Times,serif" font-size="14.00">~</text>
<text text-anchor="middle" x="174.2" y="-282.68" font-family="Times,serif" font-size="14.00">Normal</text>
</g>
<!-- mu -->
<g id="node4" class="node">
<title>mu</title>
<polygon fill="none" stroke="black" points="232.2,-213.93 118.2,-213.93 118.2,-160.93 232.2,-160.93 232.2,-213.93"/>
<text text-anchor="middle" x="175.2" y="-198.73" font-family="Times,serif" font-size="14.00">mu</text>
<text text-anchor="middle" x="175.2" y="-183.73" font-family="Times,serif" font-size="14.00">~</text>
<text text-anchor="middle" x="175.2" y="-168.73" font-family="Times,serif" font-size="14.00">Deterministic</text>
</g>
<!-- loc&#45;&gt;mu -->
<g id="edge1" class="edge">
<title>loc&#45;&gt;mu</title>
<path fill="none" stroke="black" d="M174.53,-263.73C174.65,-251.07 174.77,-236.92 174.88,-224.32"/>
<polygon fill="black" stroke="black" points="178.39,-224.21 174.97,-214.18 171.39,-224.15 178.39,-224.21"/>
</g>
<!-- sigma_loc -->
<g id="node3" class="node">
<title>sigma_loc</title>
<ellipse fill="none" stroke="black" cx="308.2" cy="-301.38" rx="60.62" ry="37.45"/>
<text text-anchor="middle" x="308.2" y="-312.68" font-family="Times,serif" font-size="14.00">sigma_loc</text>
<text text-anchor="middle" x="308.2" y="-297.68" font-family="Times,serif" font-size="14.00">~</text>
<text text-anchor="middle" x="308.2" y="-282.68" font-family="Times,serif" font-size="14.00">Normal</text>
</g>
<!-- sigma -->
<g id="node5" class="node">
<title>sigma</title>
<polygon fill="none" stroke="black" points="364.2,-213.93 250.2,-213.93 250.2,-160.93 364.2,-160.93 364.2,-213.93"/>
<text text-anchor="middle" x="307.2" y="-198.73" font-family="Times,serif" font-size="14.00">sigma</text>
<text text-anchor="middle" x="307.2" y="-183.73" font-family="Times,serif" font-size="14.00">~</text>
<text text-anchor="middle" x="307.2" y="-168.73" font-family="Times,serif" font-size="14.00">Deterministic</text>
</g>
<!-- sigma_loc&#45;&gt;sigma -->
<g id="edge2" class="edge">
<title>sigma_loc&#45;&gt;sigma</title>
<path fill="none" stroke="black" d="M307.88,-263.73C307.76,-251.07 307.64,-236.92 307.53,-224.32"/>
<polygon fill="black" stroke="black" points="311.02,-224.15 307.43,-214.18 304.02,-224.21 311.02,-224.15"/>
</g>
<!-- mu&#45;&gt;price -->
<g id="edge3" class="edge">
<title>mu&#45;&gt;price</title>
<path fill="none" stroke="black" d="M175.67,-160.89C175.87,-149.98 176.11,-136.89 176.34,-124.35"/>
<polygon fill="black" stroke="black" points="179.85,-124.06 176.53,-114 172.85,-123.94 179.85,-124.06"/>
</g>
<!-- sigma&#45;&gt;price -->
<g id="edge4" class="edge">
<title>sigma&#45;&gt;price</title>
<path fill="none" stroke="black" d="M276.73,-160.89C259.78,-146.69 238.43,-128.79 219.86,-113.22"/>
<polygon fill="black" stroke="black" points="222,-110.45 212.09,-106.71 217.5,-115.82 222,-110.45"/>
</g>
</g>
</svg>