<?xml version="1.0" encoding="UTF-8" standalone="no"?>
<!DOCTYPE svg PUBLIC "-//W3C//DTD SVG 1.1//EN"
 "http://www.w3.org/Graphics/SVG/1.1/DTD/svg11.dtd">
<!-- Generated by graphviz version 2.43.0 (0)
 -->
<!-- Title: %3 Pages: 1 -->
<svg width="347pt" height="344pt"
 viewBox="0.00 0.00 347.16 343.86" xmlns="http://www.w3.org/2000/svg" xmlns:xlink="http://www.w3.org/1999/xlink">
<g id="graph0" class="graph" transform="scale(1 1) rotate(0) translate(4 339.86)">
<title>%3</title>
<polygon fill="white" stroke="transparent" points="-4,4 -4,-339.86 343.16,-339.86 343.16,4 -4,4"/>
<g id="clust1" class="cluster">
<title>cluster__obs__ (15)</title>
<path fill="none" stroke="black" d="M173.66,-8C173.66,-8 279.66,-8 279.66,-8 285.66,-8 291.66,-14 291.66,-20 291.66,-20 291.66,-209.93 291.66,-209.93 291.66,-215.93 285.66,-221.93 279.66,-221.93 279.66,-221.93 173.66,-221.93 173.66,-221.93 167.66,-221.93 161.66,-215.93 161.66,-209.93 161.66,-209.93 161.66,-20 161.66,-20 161.66,-14 167.66,-8 173.66,-8"/>
<text text-anchor="middle" x="241.16" y="-15.8" font-family="Times,serif" font-size="14.00">__obs__ (15)</text>
</g>
<!-- sigma -->
<g id="node1" class="node">
<title>sigma</title>
<ellipse fill="none" stroke="black" cx="75.66" cy="-187.43" rx="75.82" ry="37.45"/>
<text text-anchor="middle" x="75.66" y="-198.73" font-family="Times,serif" font-size="14.00">sigma</text>
<text text-anchor="middle" x="75.66" y="-183.73" font-family="Times,serif" font-size="14.00">~</text>
<text text-anchor="middle" x="75.66" y="-168.73" font-family="Times,serif" font-size="14.00">Halfstudentt</text>
</g>
<!-- score -->
<g id="node5" class="node">
<title>score</title>
<ellipse fill="lightgrey" stroke="black" cx="222.66" cy="-76.48" rx="49.49" ry="37.45"/>
<text text-anchor="middle" x="222.66" y="-87.78" font-family="Times,serif" font-size="14.00">score</text>
<text text-anchor="middle" x="222.66" y="-72.78" font-family="Times,serif" font-size="14.00">~</text>
<text text-anchor="middle" x="222.66" y="-57.78" font-family="Times,serif" font-size="14.00">Normal</text>
</g>
<!-- sigma&#45;&gt;score -->
<g id="edge3" class="edge">
<title>sigma&#45;&gt;score</title>
<path fill="none" stroke="black" d="M117,-155.79C136.47,-141.36 159.68,-124.15 179.39,-109.55"/>
<polygon fill="black" stroke="black" points="181.65,-112.23 187.6,-103.46 177.48,-106.61 181.65,-112.23"/>
</g>
<!-- Intercept -->
<g id="node2" class="node">
<title>Intercept</title>
<ellipse fill="none" stroke="black" cx="163.66" cy="-298.38" rx="58.88" ry="37.45"/>
<text text-anchor="middle" x="163.66" y="-309.68" font-family="Times,serif" font-size="14.00">Intercept</text>
<text text-anchor="middle" x="163.66" y="-294.68" font-family="Times,serif" font-size="14.00">~</text>
<text text-anchor="middle" x="163.66" y="-279.68" font-family="Times,serif" font-size="14.00">Normal</text>
</g>
<!-- mu -->
<g id="node4" class="node">
<title>mu</title>
<polygon fill="none" stroke="black" points="283.66,-213.93 169.66,-213.93 169.66,-160.93 283.66,-160.93 283.66,-213.93"/>
<text text-anchor="middle" x="226.66" y="-198.73" font-family="Times,serif" font-size="14.00">mu</text>
<text text-anchor="middle" x="226.66" y="-183.73" font-family="Times,serif" font-size="14.00">~</text>
<text text-anchor="middle" x="226.66" y="-168.73" font-family="Times,serif" font-size="14.00">Deterministic</text>
</g>
<!-- Intercept&#45;&gt;mu -->
<g id="edge1" class="edge">
<title>Intercept&#45;&gt;mu</title>
<path fill="none" stroke="black" d="M183.59,-262.91C190.96,-250.17 199.31,-235.73 206.68,-222.98"/>
<polygon fill="black" stroke="black" points="209.87,-224.45 211.85,-214.04 203.81,-220.95 209.87,-224.45"/>
</g>
<!-- effort -->
<g id="node3" class="node">
<title>effort</title>
<ellipse fill="none" stroke="black" cx="289.66" cy="-298.38" rx="49.49" ry="37.45"/>
<text text-anchor="middle" x="289.66" y="-309.68" font-family="Times,serif" font-size="14.00">effort</text>
<text text-anchor="middle" x="289.66" y="-294.68" font-family="Times,serif" font-size="14.00">~</text>
<text text-anchor="middle" x="289.66" y="-279.68" font-family="Times,serif" font-size="14.00">Normal</text>
</g>
<!-- effort&#45;&gt;mu -->
<g id="edge2" class="edge">
<title>effort&#45;&gt;mu</title>
<path fill="none" stroke="black" d="M270.24,-263.8C262.72,-250.8 254.12,-235.92 246.56,-222.84"/>
<polygon fill="black" stroke="black" points="249.55,-221.02 241.51,-214.11 243.49,-224.52 249.55,-221.02"/>
</g>
<!-- mu&#45;&gt;score -->
<g id="edge4" class="edge">
<title>mu&#45;&gt;score</title>
<path fill="none" stroke="black" d="M225.72,-160.89C225.32,-149.98 224.84,-136.89 224.38,-124.35"/>
<polygon fill="black" stroke="black" points="227.87,-123.87 224,-114 220.87,-124.12 227.87,-123.87"/>
</g>
</g>
</svg>