<?xml version="1.0" encoding="UTF-8" standalone="no"?>
<!DOCTYPE svg PUBLIC "-//W3C//DTD SVG 1.1//EN"
 "http://www.w3.org/Graphics/SVG/1.1/DTD/svg11.dtd">
<!-- Generated by graphviz version 2.43.0 (0)
 -->
<!-- Title: %3 Pages: 1 -->
<svg width="767pt" height="455pt"
 viewBox="0.00 0.00 767.40 454.84" xmlns="http://www.w3.org/2000/svg" xmlns:xlink="http://www.w3.org/1999/xlink">
<g id="graph0" class="graph" transform="scale(1 1) rotate(0) translate(4 450.84)">
<title>%3</title>
<polygon fill="white" stroke="transparent" points="-4,4 -4,-450.84 763.4,-450.84 763.4,4 -4,4"/>
<g id="clust1" class="cluster">
<title>clusterpredictors (10)</title>
<path fill="none" stroke="black" d="M181.9,-129.95C181.9,-129.95 449.9,-129.95 449.9,-129.95 455.9,-129.95 461.9,-135.95 461.9,-141.95 461.9,-141.95 461.9,-331.88 461.9,-331.88 461.9,-337.88 455.9,-343.88 449.9,-343.88 449.9,-343.88 181.9,-343.88 181.9,-343.88 175.9,-343.88 169.9,-337.88 169.9,-331.88 169.9,-331.88 169.9,-141.95 169.9,-141.95 169.9,-135.95 175.9,-129.95 181.9,-129.95"/>
<text text-anchor="middle" x="400.4" y="-137.75" font-family="Times,serif" font-size="14.00">predictors (10)</text>
</g>
<g id="clust2" class="cluster">
<title>cluster101</title>
<path fill="none" stroke="black" d="M587.9,-8C587.9,-8 677.9,-8 677.9,-8 683.9,-8 689.9,-14 689.9,-20 689.9,-20 689.9,-109.95 689.9,-109.95 689.9,-115.95 683.9,-121.95 677.9,-121.95 677.9,-121.95 587.9,-121.95 587.9,-121.95 581.9,-121.95 575.9,-115.95 575.9,-109.95 575.9,-109.95 575.9,-20 575.9,-20 575.9,-14 581.9,-8 587.9,-8"/>
<text text-anchor="middle" x="667.9" y="-15.8" font-family="Times,serif" font-size="14.00">101</text>
</g>
<!-- sigma -->
<g id="node1" class="node">
<title>sigma</title>
<ellipse fill="none" stroke="black" cx="355.9" cy="-409.36" rx="70.92" ry="37.45"/>
<text text-anchor="middle" x="355.9" y="-420.66" font-family="Times,serif" font-size="14.00">sigma</text>
<text text-anchor="middle" x="355.9" y="-405.66" font-family="Times,serif" font-size="14.00">~</text>
<text text-anchor="middle" x="355.9" y="-390.66" font-family="Times,serif" font-size="14.00">HalfNormal</text>
</g>
<!-- tau -->
<g id="node4" class="node">
<title>tau</title>
<ellipse fill="none" stroke="black" cx="79.9" cy="-298.41" rx="79.81" ry="37.45"/>
<text text-anchor="middle" x="79.9" y="-309.71" font-family="Times,serif" font-size="14.00">tau</text>
<text text-anchor="middle" x="79.9" y="-294.71" font-family="Times,serif" font-size="14.00">~</text>
<text text-anchor="middle" x="79.9" y="-279.71" font-family="Times,serif" font-size="14.00">HalfStudentT</text>
</g>
<!-- sigma&#45;&gt;tau -->
<g id="edge1" class="edge">
<title>sigma&#45;&gt;tau</title>
<path fill="none" stroke="black" d="M294.71,-390.17C257.03,-378.34 208.05,-361.81 165.9,-343.88 157.5,-340.31 148.79,-336.25 140.27,-332.06"/>
<polygon fill="black" stroke="black" points="141.65,-328.84 131.14,-327.5 138.52,-335.1 141.65,-328.84"/>
</g>
<!-- scores -->
<g id="node8" class="node">
<title>scores</title>
<ellipse fill="lightgrey" stroke="black" cx="632.9" cy="-76.48" rx="49.49" ry="37.45"/>
<text text-anchor="middle" x="632.9" y="-87.78" font-family="Times,serif" font-size="14.00">scores</text>
<text text-anchor="middle" x="632.9" y="-72.78" font-family="Times,serif" font-size="14.00">~</text>
<text text-anchor="middle" x="632.9" y="-57.78" font-family="Times,serif" font-size="14.00">Normal</text>
</g>
<!-- sigma&#45;&gt;scores -->
<g id="edge6" class="edge">
<title>sigma&#45;&gt;scores</title>
<path fill="none" stroke="black" d="M424.67,-400.29C492.63,-390.79 589.82,-372.57 613.9,-343.88 640.9,-311.74 639.21,-191.8 635.91,-124.33"/>
<polygon fill="black" stroke="black" points="639.39,-123.78 635.37,-113.98 632.4,-124.14 639.39,-123.78"/>
</g>
<!-- c2 -->
<g id="node2" class="node">
<title>c2</title>
<ellipse fill="none" stroke="black" cx="538.9" cy="-298.41" rx="66.44" ry="37.45"/>
<text text-anchor="middle" x="538.9" y="-309.71" font-family="Times,serif" font-size="14.00">c2</text>
<text text-anchor="middle" x="538.9" y="-294.71" font-family="Times,serif" font-size="14.00">~</text>
<text text-anchor="middle" x="538.9" y="-279.71" font-family="Times,serif" font-size="14.00">InvGamma</text>
</g>
<!-- beta -->
<g id="node6" class="node">
<title>beta</title>
<polygon fill="none" stroke="black" points="453.9,-213.95 339.9,-213.95 339.9,-160.95 453.9,-160.95 453.9,-213.95"/>
<text text-anchor="middle" x="396.9" y="-198.75" font-family="Times,serif" font-size="14.00">beta</text>
<text text-anchor="middle" x="396.9" y="-183.75" font-family="Times,serif" font-size="14.00">~</text>
<text text-anchor="middle" x="396.9" y="-168.75" font-family="Times,serif" font-size="14.00">Deterministic</text>
</g>
<!-- c2&#45;&gt;beta -->
<g id="edge4" class="edge">
<title>c2&#45;&gt;beta</title>
<path fill="none" stroke="black" d="M500.1,-267.63C480.99,-252.97 457.93,-235.28 438.46,-220.34"/>
<polygon fill="black" stroke="black" points="440.42,-217.43 430.35,-214.12 436.16,-222.98 440.42,-217.43"/>
</g>
<!-- beta0 -->
<g id="node3" class="node">
<title>beta0</title>
<ellipse fill="none" stroke="black" cx="709.9" cy="-187.45" rx="49.49" ry="37.45"/>
<text text-anchor="middle" x="709.9" y="-198.75" font-family="Times,serif" font-size="14.00">beta0</text>
<text text-anchor="middle" x="709.9" y="-183.75" font-family="Times,serif" font-size="14.00">~</text>
<text text-anchor="middle" x="709.9" y="-168.75" font-family="Times,serif" font-size="14.00">Normal</text>
</g>
<!-- beta0&#45;&gt;scores -->
<g id="edge8" class="edge">
<title>beta0&#45;&gt;scores</title>
<path fill="none" stroke="black" d="M687.01,-154.05C679.09,-142.84 670.11,-130.13 661.77,-118.34"/>
<polygon fill="black" stroke="black" points="664.47,-116.09 655.84,-109.94 658.75,-120.13 664.47,-116.09"/>
</g>
<!-- tau&#45;&gt;beta -->
<g id="edge2" class="edge">
<title>tau&#45;&gt;beta</title>
<path fill="none" stroke="black" d="M137.42,-272.1C146.88,-268.21 156.62,-264.35 165.9,-260.93 220.59,-240.81 283.79,-221.22 330.25,-207.5"/>
<polygon fill="black" stroke="black" points="331.29,-210.84 339.9,-204.66 329.32,-204.12 331.29,-210.84"/>
</g>
<!-- z -->
<g id="node5" class="node">
<title>z</title>
<ellipse fill="none" stroke="black" cx="404.9" cy="-298.41" rx="49.49" ry="37.45"/>
<text text-anchor="middle" x="404.9" y="-309.71" font-family="Times,serif" font-size="14.00">z</text>
<text text-anchor="middle" x="404.9" y="-294.71" font-family="Times,serif" font-size="14.00">~</text>
<text text-anchor="middle" x="404.9" y="-279.71" font-family="Times,serif" font-size="14.00">Normal</text>
</g>
<!-- z&#45;&gt;beta -->
<g id="edge3" class="edge">
<title>z&#45;&gt;beta</title>
<path fill="none" stroke="black" d="M402.22,-260.82C401.36,-249.09 400.4,-236.1 399.54,-224.41"/>
<polygon fill="black" stroke="black" points="403.01,-223.82 398.79,-214.11 396.03,-224.34 403.01,-223.82"/>
</g>
<!-- beta&#45;&gt;scores -->
<g id="edge7" class="edge">
<title>beta&#45;&gt;scores</title>
<path fill="none" stroke="black" d="M452.23,-160.9C491.42,-142.81 543.6,-118.72 581.8,-101.07"/>
<polygon fill="black" stroke="black" points="583.58,-104.11 591.19,-96.74 580.65,-97.75 583.58,-104.11"/>
</g>
<!-- lam -->
<g id="node7" class="node">
<title>lam</title>
<ellipse fill="none" stroke="black" cx="257.9" cy="-298.41" rx="79.81" ry="37.45"/>
<text text-anchor="middle" x="257.9" y="-309.71" font-family="Times,serif" font-size="14.00">lam</text>
<text text-anchor="middle" x="257.9" y="-294.71" font-family="Times,serif" font-size="14.00">~</text>
<text text-anchor="middle" x="257.9" y="-279.71" font-family="Times,serif" font-size="14.00">HalfStudentT</text>
</g>
<!-- lam&#45;&gt;beta -->
<g id="edge5" class="edge">
<title>lam&#45;&gt;beta</title>
<path fill="none" stroke="black" d="M298.11,-265.89C316.32,-251.61 337.83,-234.76 356.12,-220.42"/>
<polygon fill="black" stroke="black" points="358.56,-222.96 364.27,-214.03 354.24,-217.45 358.56,-222.96"/>
</g>
</g>
</svg>