<?xml version="1.0" encoding="UTF-8" standalone="no"?>
<!DOCTYPE svg PUBLIC "-//W3C//DTD SVG 1.1//EN"
 "http://www.w3.org/Graphics/SVG/1.1/DTD/svg11.dtd">
<!-- Generated by graphviz version 2.43.0 (0)
 -->
<!-- Title: %3 Pages: 1 -->
<svg width="500pt" height="363pt"
 viewBox="0.00 0.00 499.89 362.86" xmlns="http://www.w3.org/2000/svg" xmlns:xlink="http://www.w3.org/1999/xlink">
<g id="graph0" class="graph" transform="scale(1 1) rotate(0) translate(4 358.86)">
<title>%3</title>
<polygon fill="white" stroke="transparent" points="-4,4 -4,-358.86 495.89,-358.86 495.89,4 -4,4"/>
<g id="clust1" class="cluster">
<title>clustergroup_dim (1)</title>
<path fill="none" stroke="black" d="M137.69,-232.91C137.69,-232.91 229.69,-232.91 229.69,-232.91 235.69,-232.91 241.69,-238.91 241.69,-244.91 241.69,-244.91 241.69,-334.86 241.69,-334.86 241.69,-340.86 235.69,-346.86 229.69,-346.86 229.69,-346.86 137.69,-346.86 137.69,-346.86 131.69,-346.86 125.69,-340.86 125.69,-334.86 125.69,-334.86 125.69,-244.91 125.69,-244.91 125.69,-238.91 131.69,-232.91 137.69,-232.91"/>
<text text-anchor="middle" x="183.69" y="-240.71" font-family="Times,serif" font-size="14.00">group_dim (1)</text>
</g>
<g id="clust2" class="cluster">
<title>clustersigma_group_dim (2)</title>
<path fill="none" stroke="black" d="M261.69,-232.91C261.69,-232.91 405.69,-232.91 405.69,-232.91 411.69,-232.91 417.69,-238.91 417.69,-244.91 417.69,-244.91 417.69,-334.86 417.69,-334.86 417.69,-340.86 411.69,-346.86 405.69,-346.86 405.69,-346.86 261.69,-346.86 261.69,-346.86 255.69,-346.86 249.69,-340.86 249.69,-334.86 249.69,-334.86 249.69,-244.91 249.69,-244.91 249.69,-238.91 255.69,-232.91 261.69,-232.91"/>
<text text-anchor="middle" x="334.69" y="-240.71" font-family="Times,serif" font-size="14.00">sigma_group_dim (2)</text>
</g>
<g id="clust3" class="cluster">
<title>cluster__obs__ (89)</title>
<path fill="none" stroke="black" d="M131.69,-8C131.69,-8 369.69,-8 369.69,-8 375.69,-8 381.69,-14 381.69,-20 381.69,-20 381.69,-209.93 381.69,-209.93 381.69,-215.93 375.69,-221.93 369.69,-221.93 369.69,-221.93 131.69,-221.93 131.69,-221.93 125.69,-221.93 119.69,-215.93 119.69,-209.93 119.69,-209.93 119.69,-20 119.69,-20 119.69,-14 125.69,-8 131.69,-8"/>
<text text-anchor="middle" x="331.19" y="-15.8" font-family="Times,serif" font-size="14.00">__obs__ (89)</text>
</g>
<!-- Intercept -->
<g id="node1" class="node">
<title>Intercept</title>
<ellipse fill="none" stroke="black" cx="58.69" cy="-301.38" rx="58.88" ry="37.45"/>
<text text-anchor="middle" x="58.69" y="-312.68" font-family="Times,serif" font-size="14.00">Intercept</text>
<text text-anchor="middle" x="58.69" y="-297.68" font-family="Times,serif" font-size="14.00">~</text>
<text text-anchor="middle" x="58.69" y="-282.68" font-family="Times,serif" font-size="14.00">Normal</text>
</g>
<!-- mu -->
<g id="node6" class="node">
<title>mu</title>
<polygon fill="none" stroke="black" points="241.69,-213.93 127.69,-213.93 127.69,-160.93 241.69,-160.93 241.69,-213.93"/>
<text text-anchor="middle" x="184.69" y="-198.73" font-family="Times,serif" font-size="14.00">mu</text>
<text text-anchor="middle" x="184.69" y="-183.73" font-family="Times,serif" font-size="14.00">~</text>
<text text-anchor="middle" x="184.69" y="-168.73" font-family="Times,serif" font-size="14.00">Deterministic</text>
</g>
<!-- Intercept&#45;&gt;mu -->
<g id="edge2" class="edge">
<title>Intercept&#45;&gt;mu</title>
<path fill="none" stroke="black" d="M86.28,-268.17C96.87,-256.55 109.37,-243.65 121.69,-232.91 126.71,-228.53 132.15,-224.18 137.67,-220"/>
<polygon fill="black" stroke="black" points="139.79,-222.79 145.76,-214.03 135.64,-217.15 139.79,-222.79"/>
</g>
<!-- nu -->
<g id="node2" class="node">
<title>nu</title>
<ellipse fill="none" stroke="black" cx="441.69" cy="-187.43" rx="50.41" ry="37.45"/>
<text text-anchor="middle" x="441.69" y="-198.73" font-family="Times,serif" font-size="14.00">nu</text>
<text text-anchor="middle" x="441.69" y="-183.73" font-family="Times,serif" font-size="14.00">~</text>
<text text-anchor="middle" x="441.69" y="-168.73" font-family="Times,serif" font-size="14.00">Gamma</text>
</g>
<!-- iq -->
<g id="node7" class="node">
<title>iq</title>
<ellipse fill="lightgrey" stroke="black" cx="314.69" cy="-76.48" rx="58.88" ry="37.45"/>
<text text-anchor="middle" x="314.69" y="-87.78" font-family="Times,serif" font-size="14.00">iq</text>
<text text-anchor="middle" x="314.69" y="-72.78" font-family="Times,serif" font-size="14.00">~</text>
<text text-anchor="middle" x="314.69" y="-57.78" font-family="Times,serif" font-size="14.00">StudentT</text>
</g>
<!-- nu&#45;&gt;iq -->
<g id="edge6" class="edge">
<title>nu&#45;&gt;iq</title>
<path fill="none" stroke="black" d="M409.31,-158.65C393.38,-144.99 373.98,-128.34 356.9,-113.68"/>
<polygon fill="black" stroke="black" points="359.1,-110.97 349.23,-107.11 354.54,-116.28 359.1,-110.97"/>
</g>
<!-- group -->
<g id="node3" class="node">
<title>group</title>
<ellipse fill="none" stroke="black" cx="184.69" cy="-301.38" rx="49.49" ry="37.45"/>
<text text-anchor="middle" x="184.69" y="-312.68" font-family="Times,serif" font-size="14.00">group</text>
<text text-anchor="middle" x="184.69" y="-297.68" font-family="Times,serif" font-size="14.00">~</text>
<text text-anchor="middle" x="184.69" y="-282.68" font-family="Times,serif" font-size="14.00">Normal</text>
</g>
<!-- group&#45;&gt;mu -->
<g id="edge1" class="edge">
<title>group&#45;&gt;mu</title>
<path fill="none" stroke="black" d="M184.69,-263.73C184.69,-251.07 184.69,-236.92 184.69,-224.32"/>
<polygon fill="black" stroke="black" points="188.19,-224.18 184.69,-214.18 181.19,-224.18 188.19,-224.18"/>
</g>
<!-- sigma_group -->
<g id="node4" class="node">
<title>sigma_group</title>
<ellipse fill="none" stroke="black" cx="333.69" cy="-301.38" rx="76.24" ry="37.45"/>
<text text-anchor="middle" x="333.69" y="-312.68" font-family="Times,serif" font-size="14.00">sigma_group</text>
<text text-anchor="middle" x="333.69" y="-297.68" font-family="Times,serif" font-size="14.00">~</text>
<text text-anchor="middle" x="333.69" y="-282.68" font-family="Times,serif" font-size="14.00">Normal</text>
</g>
<!-- sigma -->
<g id="node5" class="node">
<title>sigma</title>
<polygon fill="none" stroke="black" points="373.69,-213.93 259.69,-213.93 259.69,-160.93 373.69,-160.93 373.69,-213.93"/>
<text text-anchor="middle" x="316.69" y="-198.73" font-family="Times,serif" font-size="14.00">sigma</text>
<text text-anchor="middle" x="316.69" y="-183.73" font-family="Times,serif" font-size="14.00">~</text>
<text text-anchor="middle" x="316.69" y="-168.73" font-family="Times,serif" font-size="14.00">Deterministic</text>
</g>
<!-- sigma_group&#45;&gt;sigma -->
<g id="edge3" class="edge">
<title>sigma_group&#45;&gt;sigma</title>
<path fill="none" stroke="black" d="M328.12,-263.73C326.2,-251.07 324.05,-236.92 322.14,-224.32"/>
<polygon fill="black" stroke="black" points="325.56,-223.54 320.6,-214.18 318.64,-224.59 325.56,-223.54"/>
</g>
<!-- sigma&#45;&gt;iq -->
<g id="edge4" class="edge">
<title>sigma&#45;&gt;iq</title>
<path fill="none" stroke="black" d="M316.22,-160.89C316.02,-149.98 315.78,-136.89 315.55,-124.35"/>
<polygon fill="black" stroke="black" points="319.04,-123.94 315.36,-114 312.04,-124.06 319.04,-123.94"/>
</g>
<!-- mu&#45;&gt;iq -->
<g id="edge5" class="edge">
<title>mu&#45;&gt;iq</title>
<path fill="none" stroke="black" d="M215.17,-160.89C232.11,-146.69 253.46,-128.79 272.04,-113.22"/>
<polygon fill="black" stroke="black" points="274.39,-115.82 279.81,-106.71 269.9,-110.45 274.39,-115.82"/>
</g>
</g>
</svg>