<?xml version="1.0" encoding="UTF-8" standalone="no"?>
<!DOCTYPE svg PUBLIC "-//W3C//DTD SVG 1.1//EN"
 "http://www.w3.org/Graphics/SVG/1.1/DTD/svg11.dtd">
<!-- Generated by graphviz version 2.43.0 (0)
 -->
<!-- Title: %3 Pages: 1 -->
<svg width="242pt" height="322pt"
 viewBox="0.00 0.00 242.19 321.91" xmlns="http://www.w3.org/2000/svg" xmlns:xlink="http://www.w3.org/1999/xlink">
<g id="graph0" class="graph" transform="scale(1 1) rotate(0) translate(4 317.91)">
<title>%3</title>
<polygon fill="white" stroke="transparent" points="-4,4 -4,-317.91 238.19,-317.91 238.19,4 -4,4"/>
<g id="clust1" class="cluster">
<title>cluster__obs__ (100)</title>
<path fill="none" stroke="black" d="M67.69,-8C67.69,-8 175.69,-8 175.69,-8 181.69,-8 187.69,-14 187.69,-20 187.69,-20 187.69,-198.95 187.69,-198.95 187.69,-204.95 181.69,-210.95 175.69,-210.95 175.69,-210.95 67.69,-210.95 67.69,-210.95 61.69,-210.95 55.69,-204.95 55.69,-198.95 55.69,-198.95 55.69,-20 55.69,-20 55.69,-14 61.69,-8 67.69,-8"/>
<text text-anchor="middle" x="132.69" y="-15.8" font-family="Times,serif" font-size="14.00">__obs__ (100)</text>
</g>
<!-- Intercept -->
<g id="node1" class="node">
<title>Intercept</title>
<ellipse fill="none" stroke="black" cx="58.69" cy="-276.43" rx="58.88" ry="37.45"/>
<text text-anchor="middle" x="58.69" y="-287.73" font-family="Times,serif" font-size="14.00">Intercept</text>
<text text-anchor="middle" x="58.69" y="-272.73" font-family="Times,serif" font-size="14.00">~</text>
<text text-anchor="middle" x="58.69" y="-257.73" font-family="Times,serif" font-size="14.00">Normal</text>
</g>
<!-- p -->
<g id="node4" class="node">
<title>p</title>
<polygon fill="none" stroke="black" points="178.69,-202.95 64.69,-202.95 64.69,-149.95 178.69,-149.95 178.69,-202.95"/>
<text text-anchor="middle" x="121.69" y="-187.75" font-family="Times,serif" font-size="14.00">p</text>
<text text-anchor="middle" x="121.69" y="-172.75" font-family="Times,serif" font-size="14.00">~</text>
<text text-anchor="middle" x="121.69" y="-157.75" font-family="Times,serif" font-size="14.00">Deterministic</text>
</g>
<!-- Intercept&#45;&gt;p -->
<g id="edge1" class="edge">
<title>Intercept&#45;&gt;p</title>
<path fill="none" stroke="black" d="M80.55,-241.44C86.75,-231.79 93.51,-221.28 99.72,-211.62"/>
<polygon fill="black" stroke="black" points="102.77,-213.35 105.24,-203.04 96.88,-209.56 102.77,-213.35"/>
</g>
<!-- work -->
<g id="node2" class="node">
<title>work</title>
<ellipse fill="none" stroke="black" cx="184.69" cy="-276.43" rx="49.49" ry="37.45"/>
<text text-anchor="middle" x="184.69" y="-287.73" font-family="Times,serif" font-size="14.00">work</text>
<text text-anchor="middle" x="184.69" y="-272.73" font-family="Times,serif" font-size="14.00">~</text>
<text text-anchor="middle" x="184.69" y="-257.73" font-family="Times,serif" font-size="14.00">Normal</text>
</g>
<!-- work&#45;&gt;p -->
<g id="edge2" class="edge">
<title>work&#45;&gt;p</title>
<path fill="none" stroke="black" d="M163.54,-242.53C157.12,-232.56 150.06,-221.58 143.6,-211.53"/>
<polygon fill="black" stroke="black" points="146.46,-209.5 138.11,-202.98 140.57,-213.29 146.46,-209.5"/>
</g>
<!-- hired -->
<g id="node3" class="node">
<title>hired</title>
<ellipse fill="lightgrey" stroke="black" cx="121.69" cy="-76.48" rx="57.97" ry="37.45"/>
<text text-anchor="middle" x="121.69" y="-87.78" font-family="Times,serif" font-size="14.00">hired</text>
<text text-anchor="middle" x="121.69" y="-72.78" font-family="Times,serif" font-size="14.00">~</text>
<text text-anchor="middle" x="121.69" y="-57.78" font-family="Times,serif" font-size="14.00">Bernoulli</text>
</g>
<!-- p&#45;&gt;hired -->
<g id="edge3" class="edge">
<title>p&#45;&gt;hired</title>
<path fill="none" stroke="black" d="M121.69,-149.71C121.69,-141.89 121.69,-133.03 121.69,-124.27"/>
<polygon fill="black" stroke="black" points="125.19,-124.1 121.69,-114.1 118.19,-124.1 125.19,-124.1"/>
</g>
</g>
</svg>