<?xml version="1.0" encoding="UTF-8" standalone="no"?>
<!DOCTYPE svg PUBLIC "-//W3C//DTD SVG 1.1//EN"
 "http://www.w3.org/Graphics/SVG/1.1/DTD/svg11.dtd">
<!-- Generated by graphviz version 12.1.0 (20240811.2233)
 -->
<!-- Pages: 1 -->
<svg width="661pt" height="515pt"
 viewBox="0.00 0.00 661.25 514.77" xmlns="http://www.w3.org/2000/svg" xmlns:xlink="http://www.w3.org/1999/xlink">
<g id="graph0" class="graph" transform="scale(1 1) rotate(0) translate(4 510.77)">
<polygon fill="white" stroke="none" points="-4,4 -4,-510.77 657.25,-510.77 657.25,4 -4,4"/>
<g id="clust1" class="cluster">
<title>clusterfloor_dim (1)</title>
<path fill="none" stroke="black" d="M112.25,-247.13C112.25,-247.13 186.25,-247.13 186.25,-247.13 192.25,-247.13 198.25,-253.13 198.25,-259.13 198.25,-259.13 198.25,-356.95 198.25,-356.95 198.25,-362.95 192.25,-368.95 186.25,-368.95 186.25,-368.95 112.25,-368.95 112.25,-368.95 106.25,-368.95 100.25,-362.95 100.25,-356.95 100.25,-356.95 100.25,-259.13 100.25,-259.13 100.25,-253.13 106.25,-247.13 112.25,-247.13"/>
<text text-anchor="middle" x="153.13" y="-254.33" font-family="Times,serif" font-size="14.00">floor_dim (1)</text>
</g>
<g id="clust2" class="cluster">
<title>clustercounty__factor_dim (85)</title>
<path fill="none" stroke="black" d="M218.25,-247.13C218.25,-247.13 346.25,-247.13 346.25,-247.13 352.25,-247.13 358.25,-253.13 358.25,-259.13 358.25,-259.13 358.25,-356.95 358.25,-356.95 358.25,-362.95 352.25,-368.95 346.25,-368.95 346.25,-368.95 218.25,-368.95 218.25,-368.95 212.25,-368.95 206.25,-362.95 206.25,-356.95 206.25,-356.95 206.25,-259.13 206.25,-259.13 206.25,-253.13 212.25,-247.13 218.25,-247.13"/>
<text text-anchor="middle" x="282" y="-254.33" font-family="Times,serif" font-size="14.00">county__factor_dim (85)</text>
</g>
<g id="clust3" class="cluster">
<title>clusterfloor__expr_dim (1)</title>
<path fill="none" stroke="black" d="M351.25,-376.95C351.25,-376.95 515.25,-376.95 515.25,-376.95 521.25,-376.95 527.25,-382.95 527.25,-388.95 527.25,-388.95 527.25,-486.77 527.25,-486.77 527.25,-492.77 521.25,-498.77 515.25,-498.77 515.25,-498.77 351.25,-498.77 351.25,-498.77 345.25,-498.77 339.25,-492.77 339.25,-486.77 339.25,-486.77 339.25,-388.95 339.25,-388.95 339.25,-382.95 345.25,-376.95 351.25,-376.95"/>
<text text-anchor="middle" x="463.38" y="-384.15" font-family="Times,serif" font-size="14.00">floor__expr_dim (1)</text>
</g>
<g id="clust4" class="cluster">
<title>clustercounty__factor_dim (85) x floor__expr_dim (1)</title>
<path fill="none" stroke="black" d="M379.25,-247.13C379.25,-247.13 633.25,-247.13 633.25,-247.13 639.25,-247.13 645.25,-253.13 645.25,-259.13 645.25,-259.13 645.25,-356.95 645.25,-356.95 645.25,-362.95 639.25,-368.95 633.25,-368.95 633.25,-368.95 379.25,-368.95 379.25,-368.95 373.25,-368.95 367.25,-362.95 367.25,-356.95 367.25,-356.95 367.25,-259.13 367.25,-259.13 367.25,-253.13 373.25,-247.13 379.25,-247.13"/>
<text text-anchor="middle" x="506" y="-254.33" font-family="Times,serif" font-size="14.00">county__factor_dim (85) x floor__expr_dim (1)</text>
</g>
<g id="clust5" class="cluster">
<title>cluster__obs__ (919)</title>
<path fill="none" stroke="black" d="M133.25,-8C133.25,-8 225.25,-8 225.25,-8 231.25,-8 237.25,-14 237.25,-20 237.25,-20 237.25,-223.23 237.25,-223.23 237.25,-229.23 231.25,-235.23 225.25,-235.23 225.25,-235.23 133.25,-235.23 133.25,-235.23 127.25,-235.23 121.25,-229.23 121.25,-223.23 121.25,-223.23 121.25,-20 121.25,-20 121.25,-14 127.25,-8 133.25,-8"/>
<text text-anchor="middle" x="189.88" y="-15.2" font-family="Times,serif" font-size="14.00">__obs__ (919)</text>
</g>
<!-- Intercept -->
<g id="node1" class="node">
<title>Intercept</title>
<ellipse fill="none" stroke="black" cx="45.25" cy="-320.29" rx="45.25" ry="40.66"/>
<text text-anchor="middle" x="45.25" y="-331.74" font-family="Times,serif" font-size="14.00">Intercept</text>
<text text-anchor="middle" x="45.25" y="-315.24" font-family="Times,serif" font-size="14.00">~</text>
<text text-anchor="middle" x="45.25" y="-298.74" font-family="Times,serif" font-size="14.00">Normal</text>
</g>
<!-- mu -->
<g id="node8" class="node">
<title>mu</title>
<polygon fill="none" stroke="black" points="224.38,-227.23 134.13,-227.23 134.13,-169.73 224.38,-169.73 224.38,-227.23"/>
<text text-anchor="middle" x="179.25" y="-209.93" font-family="Times,serif" font-size="14.00">mu</text>
<text text-anchor="middle" x="179.25" y="-193.43" font-family="Times,serif" font-size="14.00">~</text>
<text text-anchor="middle" x="179.25" y="-176.93" font-family="Times,serif" font-size="14.00">Deterministic</text>
</g>
<!-- Intercept&#45;&gt;mu -->
<g id="edge3" class="edge">
<title>Intercept&#45;&gt;mu</title>
<path fill="none" stroke="black" d="M65.85,-283.81C74.24,-271.26 84.68,-257.67 96.25,-247.13 104.55,-239.59 114.24,-232.7 124.01,-226.66"/>
<polygon fill="black" stroke="black" points="125.63,-229.77 132.46,-221.68 122.07,-223.74 125.63,-229.77"/>
</g>
<!-- sigma -->
<g id="node2" class="node">
<title>sigma</title>
<ellipse fill="none" stroke="black" cx="308.25" cy="-198.48" rx="63.29" ry="40.66"/>
<text text-anchor="middle" x="308.25" y="-209.93" font-family="Times,serif" font-size="14.00">sigma</text>
<text text-anchor="middle" x="308.25" y="-193.43" font-family="Times,serif" font-size="14.00">~</text>
<text text-anchor="middle" x="308.25" y="-176.93" font-family="Times,serif" font-size="14.00">HalfStudentT</text>
</g>
<!-- log_radon -->
<g id="node9" class="node">
<title>log_radon</title>
<ellipse fill="lightgrey" stroke="black" cx="179.25" cy="-81.16" rx="50.03" ry="40.66"/>
<text text-anchor="middle" x="179.25" y="-92.61" font-family="Times,serif" font-size="14.00">log_radon</text>
<text text-anchor="middle" x="179.25" y="-76.11" font-family="Times,serif" font-size="14.00">~</text>
<text text-anchor="middle" x="179.25" y="-59.61" font-family="Times,serif" font-size="14.00">Normal</text>
</g>
<!-- sigma&#45;&gt;log_radon -->
<g id="edge8" class="edge">
<title>sigma&#45;&gt;log_radon</title>
<path fill="none" stroke="black" d="M271.98,-165.05C256.11,-150.86 237.41,-134.15 220.97,-119.45"/>
<polygon fill="black" stroke="black" points="223.53,-117.04 213.74,-112.99 218.86,-122.26 223.53,-117.04"/>
</g>
<!-- 1|county_sigma -->
<g id="node3" class="node">
<title>1|county_sigma</title>
<ellipse fill="none" stroke="black" cx="257.25" cy="-450.11" rx="72.3" ry="40.66"/>
<text text-anchor="middle" x="257.25" y="-461.56" font-family="Times,serif" font-size="14.00">1|county_sigma</text>
<text text-anchor="middle" x="257.25" y="-445.06" font-family="Times,serif" font-size="14.00">~</text>
<text text-anchor="middle" x="257.25" y="-428.56" font-family="Times,serif" font-size="14.00">Exponential</text>
</g>
<!-- 1|county -->
<g id="node5" class="node">
<title>1|county</title>
<ellipse fill="none" stroke="black" cx="258.25" cy="-320.29" rx="44.19" ry="40.66"/>
<text text-anchor="middle" x="258.25" y="-331.74" font-family="Times,serif" font-size="14.00">1|county</text>
<text text-anchor="middle" x="258.25" y="-315.24" font-family="Times,serif" font-size="14.00">~</text>
<text text-anchor="middle" x="258.25" y="-298.74" font-family="Times,serif" font-size="14.00">Normal</text>
</g>
<!-- 1|county_sigma&#45;&gt;1|county -->
<g id="edge1" class="edge">
<title>1|county_sigma&#45;&gt;1|county</title>
<path fill="none" stroke="black" d="M257.57,-409.02C257.66,-397.48 257.76,-384.73 257.85,-372.61"/>
<polygon fill="black" stroke="black" points="261.35,-372.78 257.93,-362.76 254.35,-372.73 261.35,-372.78"/>
</g>
<!-- floor -->
<g id="node4" class="node">
<title>floor</title>
<ellipse fill="none" stroke="black" cx="149.25" cy="-320.29" rx="41.01" ry="40.66"/>
<text text-anchor="middle" x="149.25" y="-331.74" font-family="Times,serif" font-size="14.00">floor</text>
<text text-anchor="middle" x="149.25" y="-315.24" font-family="Times,serif" font-size="14.00">~</text>
<text text-anchor="middle" x="149.25" y="-298.74" font-family="Times,serif" font-size="14.00">Normal</text>
</g>
<!-- floor&#45;&gt;mu -->
<g id="edge5" class="edge">
<title>floor&#45;&gt;mu</title>
<path fill="none" stroke="black" d="M158.99,-280.39C162.36,-266.94 166.14,-251.87 169.51,-238.41"/>
<polygon fill="black" stroke="black" points="172.82,-239.58 171.86,-229.03 166.03,-237.88 172.82,-239.58"/>
</g>
<!-- 1|county&#45;&gt;mu -->
<g id="edge6" class="edge">
<title>1|county&#45;&gt;mu</title>
<path fill="none" stroke="black" d="M235.62,-284.96C225.65,-269.84 213.92,-252.05 203.74,-236.62"/>
<polygon fill="black" stroke="black" points="206.9,-235.05 198.48,-228.63 201.06,-238.9 206.9,-235.05"/>
</g>
<!-- floor|county_sigma -->
<g id="node6" class="node">
<title>floor|county_sigma</title>
<ellipse fill="none" stroke="black" cx="433.25" cy="-450.11" rx="86.09" ry="40.66"/>
<text text-anchor="middle" x="433.25" y="-461.56" font-family="Times,serif" font-size="14.00">floor|county_sigma</text>
<text text-anchor="middle" x="433.25" y="-445.06" font-family="Times,serif" font-size="14.00">~</text>
<text text-anchor="middle" x="433.25" y="-428.56" font-family="Times,serif" font-size="14.00">Exponential</text>
</g>
<!-- floor|county -->
<g id="node7" class="node">
<title>floor|county</title>
<ellipse fill="none" stroke="black" cx="433.25" cy="-320.29" rx="57.98" ry="40.66"/>
<text text-anchor="middle" x="433.25" y="-331.74" font-family="Times,serif" font-size="14.00">floor|county</text>
<text text-anchor="middle" x="433.25" y="-315.24" font-family="Times,serif" font-size="14.00">~</text>
<text text-anchor="middle" x="433.25" y="-298.74" font-family="Times,serif" font-size="14.00">Normal</text>
</g>
<!-- floor|county_sigma&#45;&gt;floor|county -->
<g id="edge2" class="edge">
<title>floor|county_sigma&#45;&gt;floor|county</title>
<path fill="none" stroke="black" d="M433.25,-409.02C433.25,-397.48 433.25,-384.73 433.25,-372.61"/>
<polygon fill="black" stroke="black" points="436.75,-372.76 433.25,-362.76 429.75,-372.76 436.75,-372.76"/>
</g>
<!-- floor|county&#45;&gt;mu -->
<g id="edge4" class="edge">
<title>floor|county&#45;&gt;mu</title>
<path fill="none" stroke="black" d="M407.47,-283.49C395.42,-269.62 379.84,-255.17 362.25,-247.13 336.73,-235.48 262.75,-248.38 236.25,-239.13 231.84,-237.59 227.45,-235.61 223.18,-233.35"/>
<polygon fill="black" stroke="black" points="225.19,-230.47 214.8,-228.42 221.65,-236.51 225.19,-230.47"/>
</g>
<!-- mu&#45;&gt;log_radon -->
<g id="edge7" class="edge">
<title>mu&#45;&gt;log_radon</title>
<path fill="none" stroke="black" d="M179.25,-169.27C179.25,-158.44 179.25,-145.73 179.25,-133.41"/>
<polygon fill="black" stroke="black" points="182.75,-133.78 179.25,-123.78 175.75,-133.78 182.75,-133.78"/>
</g>
</g>
</svg>