<?xml version="1.0" encoding="UTF-8" standalone="no"?>
<!DOCTYPE svg PUBLIC "-//W3C//DTD SVG 1.1//EN"
 "http://www.w3.org/Graphics/SVG/1.1/DTD/svg11.dtd">
<!-- Generated by graphviz version 12.1.0 (20240811.2233)
 -->
<!-- Pages: 1 -->
<svg width="354pt" height="369pt"
 viewBox="0.00 0.00 354.12 369.13" xmlns="http://www.w3.org/2000/svg" xmlns:xlink="http://www.w3.org/1999/xlink">
<g id="graph0" class="graph" transform="scale(1 1) rotate(0) translate(4 365.13)">
<polygon fill="white" stroke="none" points="-4,4 -4,-365.13 350.12,-365.13 350.12,4 -4,4"/>
<g id="clust1" class="cluster">
<title>clustergroup_dim (2)</title>
<path fill="none" stroke="black" d="M104.12,-231.32C104.12,-231.32 178.12,-231.32 178.12,-231.32 184.12,-231.32 190.12,-237.32 190.12,-243.32 190.12,-243.32 190.12,-341.13 190.12,-341.13 190.12,-347.13 184.12,-353.13 178.12,-353.13 178.12,-353.13 104.12,-353.13 104.12,-353.13 98.12,-353.13 92.12,-347.13 92.12,-341.13 92.12,-341.13 92.12,-243.32 92.12,-243.32 92.12,-237.32 98.12,-231.32 104.12,-231.32"/>
<text text-anchor="middle" x="142.38" y="-238.52" font-family="Times,serif" font-size="14.00">group_dim (2)</text>
</g>
<g id="clust2" class="cluster">
<title>clustersigma_group_dim (2)</title>
<path fill="none" stroke="black" d="M210.12,-231.32C210.12,-231.32 326.12,-231.32 326.12,-231.32 332.12,-231.32 338.12,-237.32 338.12,-243.32 338.12,-243.32 338.12,-341.13 338.12,-341.13 338.12,-347.13 332.12,-353.13 326.12,-353.13 326.12,-353.13 210.12,-353.13 210.12,-353.13 204.12,-353.13 198.12,-347.13 198.12,-341.13 198.12,-341.13 198.12,-243.32 198.12,-243.32 198.12,-237.32 204.12,-231.32 210.12,-231.32"/>
<text text-anchor="middle" x="270.5" y="-238.52" font-family="Times,serif" font-size="14.00">sigma_group_dim (2)</text>
</g>
<g id="clust3" class="cluster">
<title>cluster__obs__ (89)</title>
<path fill="none" stroke="black" d="M112.12,-8C112.12,-8 302.12,-8 302.12,-8 308.12,-8 314.12,-14 314.12,-20 314.12,-20 314.12,-211.32 314.12,-211.32 314.12,-217.32 308.12,-223.32 302.12,-223.32 302.12,-223.32 112.12,-223.32 112.12,-223.32 106.12,-223.32 100.12,-217.32 100.12,-211.32 100.12,-211.32 100.12,-20 100.12,-20 100.12,-14 106.12,-8 112.12,-8"/>
<text text-anchor="middle" x="270.12" y="-15.2" font-family="Times,serif" font-size="14.00">__obs__ (89)</text>
</g>
<!-- nu -->
<g id="node1" class="node">
<title>nu</title>
<polygon fill="none" stroke="black" points="90.25,-215.32 0,-215.32 0,-157.82 90.25,-157.82 90.25,-215.32"/>
<text text-anchor="middle" x="45.12" y="-198.02" font-family="Times,serif" font-size="14.00">nu</text>
<text text-anchor="middle" x="45.12" y="-181.52" font-family="Times,serif" font-size="14.00">~</text>
<text text-anchor="middle" x="45.12" y="-165.02" font-family="Times,serif" font-size="14.00">Deterministic</text>
</g>
<!-- iq -->
<g id="node5" class="node">
<title>iq</title>
<ellipse fill="lightgrey" stroke="black" cx="154.12" cy="-81.16" rx="46.32" ry="40.66"/>
<text text-anchor="middle" x="154.12" y="-92.61" font-family="Times,serif" font-size="14.00">iq</text>
<text text-anchor="middle" x="154.12" y="-76.11" font-family="Times,serif" font-size="14.00">~</text>
<text text-anchor="middle" x="154.12" y="-59.61" font-family="Times,serif" font-size="14.00">StudentT</text>
</g>
<!-- nu&#45;&gt;iq -->
<g id="edge5" class="edge">
<title>nu&#45;&gt;iq</title>
<path fill="none" stroke="black" d="M74.62,-157.58C87.05,-145.79 101.69,-131.9 115,-119.28"/>
<polygon fill="black" stroke="black" points="117.14,-122.07 121.98,-112.65 112.32,-117 117.14,-122.07"/>
</g>
<!-- group -->
<g id="node2" class="node">
<title>group</title>
<ellipse fill="none" stroke="black" cx="141.12" cy="-304.48" rx="41.01" ry="40.66"/>
<text text-anchor="middle" x="141.12" y="-315.93" font-family="Times,serif" font-size="14.00">group</text>
<text text-anchor="middle" x="141.12" y="-299.43" font-family="Times,serif" font-size="14.00">~</text>
<text text-anchor="middle" x="141.12" y="-282.93" font-family="Times,serif" font-size="14.00">Normal</text>
</g>
<!-- mu -->
<g id="node6" class="node">
<title>mu</title>
<polygon fill="none" stroke="black" points="198.25,-215.32 108,-215.32 108,-157.82 198.25,-157.82 198.25,-215.32"/>
<text text-anchor="middle" x="153.12" y="-198.02" font-family="Times,serif" font-size="14.00">mu</text>
<text text-anchor="middle" x="153.12" y="-181.52" font-family="Times,serif" font-size="14.00">~</text>
<text text-anchor="middle" x="153.12" y="-165.02" font-family="Times,serif" font-size="14.00">Deterministic</text>
</g>
<!-- group&#45;&gt;mu -->
<g id="edge1" class="edge">
<title>group&#45;&gt;mu</title>
<path fill="none" stroke="black" d="M145.25,-263.59C146.49,-251.7 147.83,-238.69 149.06,-226.84"/>
<polygon fill="black" stroke="black" points="152.53,-227.28 150.08,-216.98 145.57,-226.56 152.53,-227.28"/>
</g>
<!-- sigma_group -->
<g id="node3" class="node">
<title>sigma_group</title>
<ellipse fill="none" stroke="black" cx="268.12" cy="-304.48" rx="61.7" ry="40.66"/>
<text text-anchor="middle" x="268.12" y="-315.93" font-family="Times,serif" font-size="14.00">sigma_group</text>
<text text-anchor="middle" x="268.12" y="-299.43" font-family="Times,serif" font-size="14.00">~</text>
<text text-anchor="middle" x="268.12" y="-282.93" font-family="Times,serif" font-size="14.00">Uniform</text>
</g>
<!-- sigma -->
<g id="node4" class="node">
<title>sigma</title>
<polygon fill="none" stroke="black" points="306.25,-215.32 216,-215.32 216,-157.82 306.25,-157.82 306.25,-215.32"/>
<text text-anchor="middle" x="261.12" y="-198.02" font-family="Times,serif" font-size="14.00">sigma</text>
<text text-anchor="middle" x="261.12" y="-181.52" font-family="Times,serif" font-size="14.00">~</text>
<text text-anchor="middle" x="261.12" y="-165.02" font-family="Times,serif" font-size="14.00">Deterministic</text>
</g>
<!-- sigma_group&#45;&gt;sigma -->
<g id="edge2" class="edge">
<title>sigma_group&#45;&gt;sigma</title>
<path fill="none" stroke="black" d="M265.72,-263.59C265,-251.7 264.21,-238.69 263.5,-226.84"/>
<polygon fill="black" stroke="black" points="267,-226.75 262.9,-216.98 260.01,-227.17 267,-226.75"/>
</g>
<!-- sigma&#45;&gt;iq -->
<g id="edge3" class="edge">
<title>sigma&#45;&gt;iq</title>
<path fill="none" stroke="black" d="M232.17,-157.58C220.19,-146 206.11,-132.4 193.23,-119.95"/>
<polygon fill="black" stroke="black" points="195.69,-117.46 186.07,-113.03 190.82,-122.49 195.69,-117.46"/>
</g>
<!-- mu&#45;&gt;iq -->
<g id="edge4" class="edge">
<title>mu&#45;&gt;iq</title>
<path fill="none" stroke="black" d="M153.4,-157.58C153.47,-150.1 153.55,-141.77 153.63,-133.45"/>
<polygon fill="black" stroke="black" points="157.13,-133.75 153.72,-123.71 150.13,-133.68 157.13,-133.75"/>
</g>
</g>
</svg>