<?xml version="1.0" encoding="UTF-8" standalone="no"?>
<!DOCTYPE svg PUBLIC "-//W3C//DTD SVG 1.1//EN"
 "http://www.w3.org/Graphics/SVG/1.1/DTD/svg11.dtd">
<!-- Generated by graphviz version 2.43.0 (0)
 -->
<!-- Title: %3 Pages: 1 -->
<svg width="398pt" height="260pt"
 viewBox="0.00 0.00 398.50 259.91" xmlns="http://www.w3.org/2000/svg" xmlns:xlink="http://www.w3.org/1999/xlink">
<g id="graph0" class="graph" transform="scale(1 1) rotate(0) translate(4 255.91)">
<title>%3</title>
<polygon fill="white" stroke="transparent" points="-4,4 -4,-255.91 394.5,-255.91 394.5,4 -4,4"/>
<g id="clust1" class="cluster">
<title>cluster2</title>
<path fill="none" stroke="black" d="M280.5,-129.95C280.5,-129.95 370.5,-129.95 370.5,-129.95 376.5,-129.95 382.5,-135.95 382.5,-141.95 382.5,-141.95 382.5,-231.91 382.5,-231.91 382.5,-237.91 376.5,-243.91 370.5,-243.91 370.5,-243.91 280.5,-243.91 280.5,-243.91 274.5,-243.91 268.5,-237.91 268.5,-231.91 268.5,-231.91 268.5,-141.95 268.5,-141.95 268.5,-135.95 274.5,-129.95 280.5,-129.95"/>
<text text-anchor="middle" x="369.5" y="-137.75" font-family="Times,serif" font-size="14.00">2</text>
</g>
<g id="clust2" class="cluster">
<title>cluster100</title>
<path fill="none" stroke="black" d="M142.5,-8C142.5,-8 232.5,-8 232.5,-8 238.5,-8 244.5,-14 244.5,-20 244.5,-20 244.5,-109.95 244.5,-109.95 244.5,-115.95 238.5,-121.95 232.5,-121.95 232.5,-121.95 142.5,-121.95 142.5,-121.95 136.5,-121.95 130.5,-115.95 130.5,-109.95 130.5,-109.95 130.5,-20 130.5,-20 130.5,-14 136.5,-8 142.5,-8"/>
<text text-anchor="middle" x="222.5" y="-15.8" font-family="Times,serif" font-size="14.00">100</text>
</g>
<!-- beta0 -->
<g id="node1" class="node">
<title>beta0</title>
<ellipse fill="none" stroke="black" cx="49.5" cy="-198.43" rx="49.49" ry="37.45"/>
<text text-anchor="middle" x="49.5" y="-209.73" font-family="Times,serif" font-size="14.00">beta0</text>
<text text-anchor="middle" x="49.5" y="-194.73" font-family="Times,serif" font-size="14.00">~</text>
<text text-anchor="middle" x="49.5" y="-179.73" font-family="Times,serif" font-size="14.00">Normal</text>
</g>
<!-- Y_obs -->
<g id="node4" class="node">
<title>Y_obs</title>
<ellipse fill="lightgrey" stroke="black" cx="187.5" cy="-76.48" rx="49.49" ry="37.45"/>
<text text-anchor="middle" x="187.5" y="-87.78" font-family="Times,serif" font-size="14.00">Y_obs</text>
<text text-anchor="middle" x="187.5" y="-72.78" font-family="Times,serif" font-size="14.00">~</text>
<text text-anchor="middle" x="187.5" y="-57.78" font-family="Times,serif" font-size="14.00">Normal</text>
</g>
<!-- beta0&#45;&gt;Y_obs -->
<g id="edge1" class="edge">
<title>beta0&#45;&gt;Y_obs</title>
<path fill="none" stroke="black" d="M73.79,-165.53C83.59,-153.68 95.43,-140.55 107.5,-129.95 117.44,-121.22 128.95,-112.84 140.08,-105.44"/>
<polygon fill="black" stroke="black" points="142,-108.36 148.49,-99.98 138.19,-102.49 142,-108.36"/>
</g>
<!-- sigma -->
<g id="node2" class="node">
<title>sigma</title>
<ellipse fill="none" stroke="black" cx="187.5" cy="-198.43" rx="70.92" ry="37.45"/>
<text text-anchor="middle" x="187.5" y="-209.73" font-family="Times,serif" font-size="14.00">sigma</text>
<text text-anchor="middle" x="187.5" y="-194.73" font-family="Times,serif" font-size="14.00">~</text>
<text text-anchor="middle" x="187.5" y="-179.73" font-family="Times,serif" font-size="14.00">HalfNormal</text>
</g>
<!-- sigma&#45;&gt;Y_obs -->
<g id="edge2" class="edge">
<title>sigma&#45;&gt;Y_obs</title>
<path fill="none" stroke="black" d="M187.5,-160.79C187.5,-149.38 187.5,-136.65 187.5,-124.63"/>
<polygon fill="black" stroke="black" points="191,-124.31 187.5,-114.31 184,-124.31 191,-124.31"/>
</g>
<!-- betas -->
<g id="node3" class="node">
<title>betas</title>
<ellipse fill="none" stroke="black" cx="325.5" cy="-198.43" rx="49.49" ry="37.45"/>
<text text-anchor="middle" x="325.5" y="-209.73" font-family="Times,serif" font-size="14.00">betas</text>
<text text-anchor="middle" x="325.5" y="-194.73" font-family="Times,serif" font-size="14.00">~</text>
<text text-anchor="middle" x="325.5" y="-179.73" font-family="Times,serif" font-size="14.00">Normal</text>
</g>
<!-- betas&#45;&gt;Y_obs -->
<g id="edge3" class="edge">
<title>betas&#45;&gt;Y_obs</title>
<path fill="none" stroke="black" d="M301.2,-165.53C291.4,-153.68 279.57,-140.55 267.5,-129.95 257.55,-121.22 246.05,-112.84 234.92,-105.44"/>
<polygon fill="black" stroke="black" points="236.8,-102.49 226.51,-99.98 232.99,-108.36 236.8,-102.49"/>
</g>
</g>
</svg>