<?xml version="1.0" encoding="UTF-8" standalone="no"?>
<!DOCTYPE svg PUBLIC "-//W3C//DTD SVG 1.1//EN"
 "http://www.w3.org/Graphics/SVG/1.1/DTD/svg11.dtd">
<!-- Generated by graphviz version 2.43.0 (0)
 -->
<!-- Title: %3 Pages: 1 -->
<svg width="766pt" height="455pt"
 viewBox="0.00 0.00 766.40 454.84" xmlns="http://www.w3.org/2000/svg" xmlns:xlink="http://www.w3.org/1999/xlink">
<g id="graph0" class="graph" transform="scale(1 1) rotate(0) translate(4 450.84)">
<title>%3</title>
<polygon fill="white" stroke="transparent" points="-4,4 -4,-450.84 762.4,-450.84 762.4,4 -4,4"/>
<g id="clust1" class="cluster">
<title>clusterpredictors (10)</title>
<path fill="none" stroke="black" d="M181.9,-129.95C181.9,-129.95 449.9,-129.95 449.9,-129.95 455.9,-129.95 461.9,-135.95 461.9,-141.95 461.9,-141.95 461.9,-331.88 461.9,-331.88 461.9,-337.88 455.9,-343.88 449.9,-343.88 449.9,-343.88 181.9,-343.88 181.9,-343.88 175.9,-343.88 169.9,-337.88 169.9,-331.88 169.9,-331.88 169.9,-141.95 169.9,-141.95 169.9,-135.95 175.9,-129.95 181.9,-129.95"/>
<text text-anchor="middle" x="400.4" y="-137.75" font-family="Times,serif" font-size="14.00">predictors (10)</text>
</g>
<g id="clust2" class="cluster">
<title>cluster101</title>
<path fill="none" stroke="black" d="M586.9,-8C586.9,-8 676.9,-8 676.9,-8 682.9,-8 688.9,-14 688.9,-20 688.9,-20 688.9,-109.95 688.9,-109.95 688.9,-115.95 682.9,-121.95 676.9,-121.95 676.9,-121.95 586.9,-121.95 586.9,-121.95 580.9,-121.95 574.9,-115.95 574.9,-109.95 574.9,-109.95 574.9,-20 574.9,-20 574.9,-14 580.9,-8 586.9,-8"/>
<text text-anchor="middle" x="666.9" y="-15.8" font-family="Times,serif" font-size="14.00">101</text>
</g>
<!-- sigma -->
<g id="node1" class="node">
<title>sigma</title>
<ellipse fill="none" stroke="black" cx="355.9" cy="-409.36" rx="70.92" ry="37.45"/>
<text text-anchor="middle" x="355.9" y="-420.66" font-family="Times,serif" font-size="14.00">sigma</text>
<text text-anchor="middle" x="355.9" y="-405.66" font-family="Times,serif" font-size="14.00">~</text>
<text text-anchor="middle" x="355.9" y="-390.66" font-family="Times,serif" font-size="14.00">HalfNormal</text>
</g>
<!-- tau -->
<g id="node2" class="node">
<title>tau</title>
<ellipse fill="none" stroke="black" cx="79.9" cy="-298.41" rx="79.81" ry="37.45"/>
<text text-anchor="middle" x="79.9" y="-309.71" font-family="Times,serif" font-size="14.00">tau</text>
<text text-anchor="middle" x="79.9" y="-294.71" font-family="Times,serif" font-size="14.00">~</text>
<text text-anchor="middle" x="79.9" y="-279.71" font-family="Times,serif" font-size="14.00">HalfStudentT</text>
</g>
<!-- sigma&#45;&gt;tau -->
<g id="edge1" class="edge">
<title>sigma&#45;&gt;tau</title>
<path fill="none" stroke="black" d="M294.71,-390.17C257.03,-378.34 208.05,-361.81 165.9,-343.88 157.5,-340.31 148.79,-336.25 140.27,-332.06"/>
<polygon fill="black" stroke="black" points="141.65,-328.84 131.14,-327.5 138.52,-335.1 141.65,-328.84"/>
</g>
<!-- scores -->
<g id="node8" class="node">
<title>scores</title>
<ellipse fill="lightgrey" stroke="black" cx="631.9" cy="-76.48" rx="49.49" ry="37.45"/>
<text text-anchor="middle" x="631.9" y="-87.78" font-family="Times,serif" font-size="14.00">scores</text>
<text text-anchor="middle" x="631.9" y="-72.78" font-family="Times,serif" font-size="14.00">~</text>
<text text-anchor="middle" x="631.9" y="-57.78" font-family="Times,serif" font-size="14.00">Normal</text>
</g>
<!-- sigma&#45;&gt;scores -->
<g id="edge6" class="edge">
<title>sigma&#45;&gt;scores</title>
<path fill="none" stroke="black" d="M424.72,-400.21C492.4,-390.67 588.95,-372.43 612.9,-343.88 639.88,-311.72 638.2,-191.79 634.91,-124.33"/>
<polygon fill="black" stroke="black" points="638.38,-123.78 634.37,-113.97 631.39,-124.14 638.38,-123.78"/>
</g>
<!-- beta -->
<g id="node6" class="node">
<title>beta</title>
<polygon fill="none" stroke="black" points="430.9,-213.95 316.9,-213.95 316.9,-160.95 430.9,-160.95 430.9,-213.95"/>
<text text-anchor="middle" x="373.9" y="-198.75" font-family="Times,serif" font-size="14.00">beta</text>
<text text-anchor="middle" x="373.9" y="-183.75" font-family="Times,serif" font-size="14.00">~</text>
<text text-anchor="middle" x="373.9" y="-168.75" font-family="Times,serif" font-size="14.00">Deterministic</text>
</g>
<!-- tau&#45;&gt;beta -->
<g id="edge3" class="edge">
<title>tau&#45;&gt;beta</title>
<path fill="none" stroke="black" d="M137.52,-272.35C146.96,-268.43 156.67,-264.49 165.9,-260.93 212.64,-242.9 266.01,-224.34 306.99,-210.52"/>
<polygon fill="black" stroke="black" points="308.23,-213.8 316.59,-207.29 306,-207.16 308.23,-213.8"/>
</g>
<!-- beta0 -->
<g id="node3" class="node">
<title>beta0</title>
<ellipse fill="none" stroke="black" cx="708.9" cy="-187.45" rx="49.49" ry="37.45"/>
<text text-anchor="middle" x="708.9" y="-198.75" font-family="Times,serif" font-size="14.00">beta0</text>
<text text-anchor="middle" x="708.9" y="-183.75" font-family="Times,serif" font-size="14.00">~</text>
<text text-anchor="middle" x="708.9" y="-168.75" font-family="Times,serif" font-size="14.00">Normal</text>
</g>
<!-- beta0&#45;&gt;scores -->
<g id="edge7" class="edge">
<title>beta0&#45;&gt;scores</title>
<path fill="none" stroke="black" d="M686.01,-154.05C678.09,-142.84 669.11,-130.13 660.77,-118.34"/>
<polygon fill="black" stroke="black" points="663.47,-116.09 654.84,-109.94 657.75,-120.13 663.47,-116.09"/>
</g>
<!-- c2 -->
<g id="node4" class="node">
<title>c2</title>
<ellipse fill="none" stroke="black" cx="537.9" cy="-298.41" rx="66.44" ry="37.45"/>
<text text-anchor="middle" x="537.9" y="-309.71" font-family="Times,serif" font-size="14.00">c2</text>
<text text-anchor="middle" x="537.9" y="-294.71" font-family="Times,serif" font-size="14.00">~</text>
<text text-anchor="middle" x="537.9" y="-279.71" font-family="Times,serif" font-size="14.00">InvGamma</text>
</g>
<!-- c2&#45;&gt;beta -->
<g id="edge4" class="edge">
<title>c2&#45;&gt;beta</title>
<path fill="none" stroke="black" d="M495.67,-269.35C472.76,-254.13 444.39,-235.28 420.8,-219.61"/>
<polygon fill="black" stroke="black" points="422.61,-216.61 412.35,-213.99 418.74,-222.44 422.61,-216.61"/>
</g>
<!-- lam -->
<g id="node5" class="node">
<title>lam</title>
<ellipse fill="none" stroke="black" cx="373.9" cy="-298.41" rx="79.81" ry="37.45"/>
<text text-anchor="middle" x="373.9" y="-309.71" font-family="Times,serif" font-size="14.00">lam</text>
<text text-anchor="middle" x="373.9" y="-294.71" font-family="Times,serif" font-size="14.00">~</text>
<text text-anchor="middle" x="373.9" y="-279.71" font-family="Times,serif" font-size="14.00">HalfStudentT</text>
</g>
<!-- lam&#45;&gt;beta -->
<g id="edge2" class="edge">
<title>lam&#45;&gt;beta</title>
<path fill="none" stroke="black" d="M373.9,-260.82C373.9,-249.09 373.9,-236.1 373.9,-224.41"/>
<polygon fill="black" stroke="black" points="377.4,-224.11 373.9,-214.11 370.4,-224.11 377.4,-224.11"/>
</g>
<!-- beta&#45;&gt;scores -->
<g id="edge8" class="edge">
<title>beta&#45;&gt;scores</title>
<path fill="none" stroke="black" d="M431.16,-162.27C475.6,-143.5 536.7,-117.69 579.79,-99.49"/>
<polygon fill="black" stroke="black" points="581.39,-102.61 589.24,-95.5 578.66,-96.17 581.39,-102.61"/>
</g>
<!-- z -->
<g id="node7" class="node">
<title>z</title>
<ellipse fill="none" stroke="black" cx="226.9" cy="-298.41" rx="49.49" ry="37.45"/>
<text text-anchor="middle" x="226.9" y="-309.71" font-family="Times,serif" font-size="14.00">z</text>
<text text-anchor="middle" x="226.9" y="-294.71" font-family="Times,serif" font-size="14.00">~</text>
<text text-anchor="middle" x="226.9" y="-279.71" font-family="Times,serif" font-size="14.00">Normal</text>
</g>
<!-- z&#45;&gt;beta -->
<g id="edge5" class="edge">
<title>z&#45;&gt;beta</title>
<path fill="none" stroke="black" d="M261.74,-271.59C282.52,-256.19 309.06,-236.51 331.11,-220.17"/>
<polygon fill="black" stroke="black" points="333.37,-222.85 339.32,-214.09 329.2,-217.23 333.37,-222.85"/>
</g>
</g>
</svg>