<?xml version="1.0" encoding="UTF-8" standalone="no"?>
<!DOCTYPE svg PUBLIC "-//W3C//DTD SVG 1.1//EN"
 "http://www.w3.org/Graphics/SVG/1.1/DTD/svg11.dtd">
<!-- Generated by graphviz version 12.1.0 (20240811.2233)
 -->
<!-- Pages: 1 -->
<svg width="417pt" height="486pt"
 viewBox="0.00 0.00 417.29 486.27" xmlns="http://www.w3.org/2000/svg" xmlns:xlink="http://www.w3.org/1999/xlink">
<g id="graph0" class="graph" transform="scale(1 1) rotate(0) translate(4 482.27)">
<polygon fill="white" stroke="none" points="-4,4 -4,-482.27 413.29,-482.27 413.29,4 -4,4"/>
<g id="clust1" class="cluster">
<title>clusterfloor_dim (1)</title>
<path fill="none" stroke="black" d="M155.29,-247.13C155.29,-247.13 229.29,-247.13 229.29,-247.13 235.29,-247.13 241.29,-253.13 241.29,-259.13 241.29,-259.13 241.29,-356.95 241.29,-356.95 241.29,-362.95 235.29,-368.95 229.29,-368.95 229.29,-368.95 155.29,-368.95 155.29,-368.95 149.29,-368.95 143.29,-362.95 143.29,-356.95 143.29,-356.95 143.29,-259.13 143.29,-259.13 143.29,-253.13 149.29,-247.13 155.29,-247.13"/>
<text text-anchor="middle" x="196.16" y="-254.33" font-family="Times,serif" font-size="14.00">floor_dim (1)</text>
</g>
<g id="clust2" class="cluster">
<title>clustercounty__factor_dim (85)</title>
<path fill="none" stroke="black" d="M261.29,-247.13C261.29,-247.13 389.29,-247.13 389.29,-247.13 395.29,-247.13 401.29,-253.13 401.29,-259.13 401.29,-259.13 401.29,-356.95 401.29,-356.95 401.29,-362.95 395.29,-368.95 389.29,-368.95 389.29,-368.95 261.29,-368.95 261.29,-368.95 255.29,-368.95 249.29,-362.95 249.29,-356.95 249.29,-356.95 249.29,-259.13 249.29,-259.13 249.29,-253.13 255.29,-247.13 261.29,-247.13"/>
<text text-anchor="middle" x="325.04" y="-254.33" font-family="Times,serif" font-size="14.00">county__factor_dim (85)</text>
</g>
<g id="clust3" class="cluster">
<title>cluster__obs__ (919)</title>
<path fill="none" stroke="black" d="M146.29,-8C146.29,-8 238.29,-8 238.29,-8 244.29,-8 250.29,-14 250.29,-20 250.29,-20 250.29,-223.23 250.29,-223.23 250.29,-229.23 244.29,-235.23 238.29,-235.23 238.29,-235.23 146.29,-235.23 146.29,-235.23 140.29,-235.23 134.29,-229.23 134.29,-223.23 134.29,-223.23 134.29,-20 134.29,-20 134.29,-14 140.29,-8 146.29,-8"/>
<text text-anchor="middle" x="202.91" y="-15.2" font-family="Times,serif" font-size="14.00">__obs__ (919)</text>
</g>
<!-- sigma -->
<g id="node1" class="node">
<title>sigma</title>
<ellipse fill="none" stroke="black" cx="63.29" cy="-198.48" rx="63.29" ry="40.66"/>
<text text-anchor="middle" x="63.29" y="-209.93" font-family="Times,serif" font-size="14.00">sigma</text>
<text text-anchor="middle" x="63.29" y="-193.43" font-family="Times,serif" font-size="14.00">~</text>
<text text-anchor="middle" x="63.29" y="-176.93" font-family="Times,serif" font-size="14.00">HalfStudentT</text>
</g>
<!-- log_radon -->
<g id="node6" class="node">
<title>log_radon</title>
<ellipse fill="lightgrey" stroke="black" cx="192.29" cy="-81.16" rx="50.03" ry="40.66"/>
<text text-anchor="middle" x="192.29" y="-92.61" font-family="Times,serif" font-size="14.00">log_radon</text>
<text text-anchor="middle" x="192.29" y="-76.11" font-family="Times,serif" font-size="14.00">~</text>
<text text-anchor="middle" x="192.29" y="-59.61" font-family="Times,serif" font-size="14.00">Normal</text>
</g>
<!-- sigma&#45;&gt;log_radon -->
<g id="edge5" class="edge">
<title>sigma&#45;&gt;log_radon</title>
<path fill="none" stroke="black" d="M99.56,-165.05C115.43,-150.86 134.13,-134.15 150.57,-119.45"/>
<polygon fill="black" stroke="black" points="152.68,-122.26 157.8,-112.99 148.01,-117.04 152.68,-122.26"/>
</g>
<!-- 1|county_sigma -->
<g id="node2" class="node">
<title>1|county_sigma</title>
<ellipse fill="none" stroke="black" cx="301.29" cy="-437.61" rx="72.3" ry="40.66"/>
<text text-anchor="middle" x="301.29" y="-449.06" font-family="Times,serif" font-size="14.00">1|county_sigma</text>
<text text-anchor="middle" x="301.29" y="-432.56" font-family="Times,serif" font-size="14.00">~</text>
<text text-anchor="middle" x="301.29" y="-416.06" font-family="Times,serif" font-size="14.00">Exponential</text>
</g>
<!-- 1|county -->
<g id="node5" class="node">
<title>1|county</title>
<ellipse fill="none" stroke="black" cx="301.29" cy="-320.29" rx="44.19" ry="40.66"/>
<text text-anchor="middle" x="301.29" y="-331.74" font-family="Times,serif" font-size="14.00">1|county</text>
<text text-anchor="middle" x="301.29" y="-315.24" font-family="Times,serif" font-size="14.00">~</text>
<text text-anchor="middle" x="301.29" y="-298.74" font-family="Times,serif" font-size="14.00">Normal</text>
</g>
<!-- 1|county_sigma&#45;&gt;1|county -->
<g id="edge1" class="edge">
<title>1|county_sigma&#45;&gt;1|county</title>
<path fill="none" stroke="black" d="M301.29,-396.6C301.29,-388.82 301.29,-380.56 301.29,-372.48"/>
<polygon fill="black" stroke="black" points="304.79,-372.74 301.29,-362.74 297.79,-372.74 304.79,-372.74"/>
</g>
<!-- Intercept -->
<g id="node3" class="node">
<title>Intercept</title>
<ellipse fill="none" stroke="black" cx="88.29" cy="-320.29" rx="45.25" ry="40.66"/>
<text text-anchor="middle" x="88.29" y="-331.74" font-family="Times,serif" font-size="14.00">Intercept</text>
<text text-anchor="middle" x="88.29" y="-315.24" font-family="Times,serif" font-size="14.00">~</text>
<text text-anchor="middle" x="88.29" y="-298.74" font-family="Times,serif" font-size="14.00">Normal</text>
</g>
<!-- mu -->
<g id="node7" class="node">
<title>mu</title>
<polygon fill="none" stroke="black" points="237.41,-227.23 147.16,-227.23 147.16,-169.73 237.41,-169.73 237.41,-227.23"/>
<text text-anchor="middle" x="192.29" y="-209.93" font-family="Times,serif" font-size="14.00">mu</text>
<text text-anchor="middle" x="192.29" y="-193.43" font-family="Times,serif" font-size="14.00">~</text>
<text text-anchor="middle" x="192.29" y="-176.93" font-family="Times,serif" font-size="14.00">Deterministic</text>
</g>
<!-- Intercept&#45;&gt;mu -->
<g id="edge3" class="edge">
<title>Intercept&#45;&gt;mu</title>
<path fill="none" stroke="black" d="M110.41,-284.7C118.88,-272.39 128.99,-258.71 139.29,-247.13 142.8,-243.18 146.62,-239.22 150.54,-235.36"/>
<polygon fill="black" stroke="black" points="152.75,-238.1 157.58,-228.67 147.92,-233.02 152.75,-238.1"/>
</g>
<!-- floor -->
<g id="node4" class="node">
<title>floor</title>
<ellipse fill="none" stroke="black" cx="192.29" cy="-320.29" rx="41.01" ry="40.66"/>
<text text-anchor="middle" x="192.29" y="-331.74" font-family="Times,serif" font-size="14.00">floor</text>
<text text-anchor="middle" x="192.29" y="-315.24" font-family="Times,serif" font-size="14.00">~</text>
<text text-anchor="middle" x="192.29" y="-298.74" font-family="Times,serif" font-size="14.00">Normal</text>
</g>
<!-- floor&#45;&gt;mu -->
<g id="edge4" class="edge">
<title>floor&#45;&gt;mu</title>
<path fill="none" stroke="black" d="M192.29,-279.4C192.29,-266.37 192.29,-251.91 192.29,-238.91"/>
<polygon fill="black" stroke="black" points="195.79,-238.98 192.29,-228.98 188.79,-238.98 195.79,-238.98"/>
</g>
<!-- 1|county&#45;&gt;mu -->
<g id="edge2" class="edge">
<title>1|county&#45;&gt;mu</title>
<path fill="none" stroke="black" d="M277.38,-285.96C267.87,-273.38 256.52,-259.21 245.29,-247.13 241.63,-243.21 237.7,-239.24 233.68,-235.37"/>
<polygon fill="black" stroke="black" points="236.17,-232.91 226.49,-228.61 231.38,-238.01 236.17,-232.91"/>
</g>
<!-- mu&#45;&gt;log_radon -->
<g id="edge6" class="edge">
<title>mu&#45;&gt;log_radon</title>
<path fill="none" stroke="black" d="M192.29,-169.27C192.29,-158.44 192.29,-145.73 192.29,-133.41"/>
<polygon fill="black" stroke="black" points="195.79,-133.78 192.29,-123.78 188.79,-133.78 195.79,-133.78"/>
</g>
</g>
</svg>