<?xml version="1.0" encoding="UTF-8" standalone="no"?>
<!DOCTYPE svg PUBLIC "-//W3C//DTD SVG 1.1//EN"
 "http://www.w3.org/Graphics/SVG/1.1/DTD/svg11.dtd">
<!-- Generated by graphviz version 2.43.0 (0)
 -->
<!-- Title: %3 Pages: 1 -->
<svg width="476pt" height="344pt"
 viewBox="0.00 0.00 476.19 343.86" xmlns="http://www.w3.org/2000/svg" xmlns:xlink="http://www.w3.org/1999/xlink">
<g id="graph0" class="graph" transform="scale(1 1) rotate(0) translate(4 339.86)">
<title>%3</title>
<polygon fill="white" stroke="transparent" points="-4,4 -4,-339.86 472.19,-339.86 472.19,4 -4,4"/>
<g id="clust1" class="cluster">
<title>cluster__obs__ (156)</title>
<path fill="none" stroke="black" d="M189.69,-8C189.69,-8 295.69,-8 295.69,-8 301.69,-8 307.69,-14 307.69,-20 307.69,-20 307.69,-209.93 307.69,-209.93 307.69,-215.93 301.69,-221.93 295.69,-221.93 295.69,-221.93 189.69,-221.93 189.69,-221.93 183.69,-221.93 177.69,-215.93 177.69,-209.93 177.69,-209.93 177.69,-20 177.69,-20 177.69,-14 183.69,-8 189.69,-8"/>
<text text-anchor="middle" x="252.69" y="-15.8" font-family="Times,serif" font-size="14.00">__obs__ (156)</text>
</g>
<!-- sigma -->
<g id="node1" class="node">
<title>sigma</title>
<ellipse fill="none" stroke="black" cx="87.69" cy="-187.43" rx="79.81" ry="37.45"/>
<text text-anchor="middle" x="87.69" y="-198.73" font-family="Times,serif" font-size="14.00">sigma</text>
<text text-anchor="middle" x="87.69" y="-183.73" font-family="Times,serif" font-size="14.00">~</text>
<text text-anchor="middle" x="87.69" y="-168.73" font-family="Times,serif" font-size="14.00">HalfStudentT</text>
</g>
<!-- score -->
<g id="node7" class="node">
<title>score</title>
<ellipse fill="lightgrey" stroke="black" cx="238.69" cy="-76.48" rx="49.49" ry="37.45"/>
<text text-anchor="middle" x="238.69" y="-87.78" font-family="Times,serif" font-size="14.00">score</text>
<text text-anchor="middle" x="238.69" y="-72.78" font-family="Times,serif" font-size="14.00">~</text>
<text text-anchor="middle" x="238.69" y="-57.78" font-family="Times,serif" font-size="14.00">Normal</text>
</g>
<!-- sigma&#45;&gt;score -->
<g id="edge6" class="edge">
<title>sigma&#45;&gt;score</title>
<path fill="none" stroke="black" d="M130.56,-155.5C150.79,-140.9 174.89,-123.51 195.2,-108.86"/>
<polygon fill="black" stroke="black" points="197.3,-111.66 203.36,-102.97 193.2,-105.98 197.3,-111.66"/>
</g>
<!-- Intercept -->
<g id="node2" class="node">
<title>Intercept</title>
<ellipse fill="none" stroke="black" cx="58.69" cy="-298.38" rx="58.88" ry="37.45"/>
<text text-anchor="middle" x="58.69" y="-309.68" font-family="Times,serif" font-size="14.00">Intercept</text>
<text text-anchor="middle" x="58.69" y="-294.68" font-family="Times,serif" font-size="14.00">~</text>
<text text-anchor="middle" x="58.69" y="-279.68" font-family="Times,serif" font-size="14.00">Normal</text>
</g>
<!-- mu -->
<g id="node6" class="node">
<title>mu</title>
<polygon fill="none" stroke="black" points="299.69,-213.93 185.69,-213.93 185.69,-160.93 299.69,-160.93 299.69,-213.93"/>
<text text-anchor="middle" x="242.69" y="-198.73" font-family="Times,serif" font-size="14.00">mu</text>
<text text-anchor="middle" x="242.69" y="-183.73" font-family="Times,serif" font-size="14.00">~</text>
<text text-anchor="middle" x="242.69" y="-168.73" font-family="Times,serif" font-size="14.00">Deterministic</text>
</g>
<!-- Intercept&#45;&gt;mu -->
<g id="edge1" class="edge">
<title>Intercept&#45;&gt;mu</title>
<path fill="none" stroke="black" d="M101.37,-272.11C128,-256.34 162.46,-235.94 190.68,-219.23"/>
<polygon fill="black" stroke="black" points="192.79,-222.05 199.61,-213.94 189.22,-216.02 192.79,-222.05"/>
</g>
<!-- weed -->
<g id="node3" class="node">
<title>weed</title>
<ellipse fill="none" stroke="black" cx="184.69" cy="-298.38" rx="49.49" ry="37.45"/>
<text text-anchor="middle" x="184.69" y="-309.68" font-family="Times,serif" font-size="14.00">weed</text>
<text text-anchor="middle" x="184.69" y="-294.68" font-family="Times,serif" font-size="14.00">~</text>
<text text-anchor="middle" x="184.69" y="-279.68" font-family="Times,serif" font-size="14.00">Normal</text>
</g>
<!-- weed&#45;&gt;mu -->
<g id="edge4" class="edge">
<title>weed&#45;&gt;mu</title>
<path fill="none" stroke="black" d="M202.88,-263.21C209.67,-250.45 217.39,-235.96 224.2,-223.16"/>
<polygon fill="black" stroke="black" points="227.37,-224.65 228.98,-214.18 221.19,-221.36 227.37,-224.65"/>
</g>
<!-- alc -->
<g id="node4" class="node">
<title>alc</title>
<ellipse fill="none" stroke="black" cx="301.69" cy="-298.38" rx="49.49" ry="37.45"/>
<text text-anchor="middle" x="301.69" y="-309.68" font-family="Times,serif" font-size="14.00">alc</text>
<text text-anchor="middle" x="301.69" y="-294.68" font-family="Times,serif" font-size="14.00">~</text>
<text text-anchor="middle" x="301.69" y="-279.68" font-family="Times,serif" font-size="14.00">Normal</text>
</g>
<!-- alc&#45;&gt;mu -->
<g id="edge2" class="edge">
<title>alc&#45;&gt;mu</title>
<path fill="none" stroke="black" d="M283.35,-263.51C276.38,-250.64 268.43,-235.97 261.43,-223.04"/>
<polygon fill="black" stroke="black" points="264.36,-221.1 256.52,-213.97 258.21,-224.43 264.36,-221.1"/>
</g>
<!-- exrc -->
<g id="node5" class="node">
<title>exrc</title>
<ellipse fill="none" stroke="black" cx="418.69" cy="-298.38" rx="49.49" ry="37.45"/>
<text text-anchor="middle" x="418.69" y="-309.68" font-family="Times,serif" font-size="14.00">exrc</text>
<text text-anchor="middle" x="418.69" y="-294.68" font-family="Times,serif" font-size="14.00">~</text>
<text text-anchor="middle" x="418.69" y="-279.68" font-family="Times,serif" font-size="14.00">Normal</text>
</g>
<!-- exrc&#45;&gt;mu -->
<g id="edge3" class="edge">
<title>exrc&#45;&gt;mu</title>
<path fill="none" stroke="black" d="M380.93,-274.01C355.23,-258.1 320.93,-236.87 292.93,-219.53"/>
<polygon fill="black" stroke="black" points="294.42,-216.34 284.07,-214.05 290.73,-222.29 294.42,-216.34"/>
</g>
<!-- mu&#45;&gt;score -->
<g id="edge5" class="edge">
<title>mu&#45;&gt;score</title>
<path fill="none" stroke="black" d="M241.75,-160.89C241.35,-149.98 240.87,-136.89 240.41,-124.35"/>
<polygon fill="black" stroke="black" points="243.9,-123.87 240.03,-114 236.9,-124.12 243.9,-123.87"/>
</g>
</g>
</svg>