<?xml version="1.0" encoding="UTF-8" standalone="no"?>
<!DOCTYPE svg PUBLIC "-//W3C//DTD SVG 1.1//EN"
 "http://www.w3.org/Graphics/SVG/1.1/DTD/svg11.dtd">
<!-- Generated by graphviz version 12.1.0 (20240811.2233)
 -->
<!-- Pages: 1 -->
<svg width="266pt" height="385pt"
 viewBox="0.00 0.00 266.29 384.95" xmlns="http://www.w3.org/2000/svg" xmlns:xlink="http://www.w3.org/1999/xlink">
<g id="graph0" class="graph" transform="scale(1 1) rotate(0) translate(4 380.95)">
<polygon fill="white" stroke="none" points="-4,4 -4,-380.95 262.29,-380.95 262.29,4 -4,4"/>
<g id="clust1" class="cluster">
<title>clusterfloor_dim (1)</title>
<path fill="none" stroke="black" d="M159.29,-247.13C159.29,-247.13 233.29,-247.13 233.29,-247.13 239.29,-247.13 245.29,-253.13 245.29,-259.13 245.29,-259.13 245.29,-356.95 245.29,-356.95 245.29,-362.95 239.29,-368.95 233.29,-368.95 233.29,-368.95 159.29,-368.95 159.29,-368.95 153.29,-368.95 147.29,-362.95 147.29,-356.95 147.29,-356.95 147.29,-259.13 147.29,-259.13 147.29,-253.13 153.29,-247.13 159.29,-247.13"/>
<text text-anchor="middle" x="200.16" y="-254.33" font-family="Times,serif" font-size="14.00">floor_dim (1)</text>
</g>
<g id="clust2" class="cluster">
<title>cluster__obs__ (919)</title>
<path fill="none" stroke="black" d="M146.29,-8C146.29,-8 238.29,-8 238.29,-8 244.29,-8 250.29,-14 250.29,-20 250.29,-20 250.29,-223.23 250.29,-223.23 250.29,-229.23 244.29,-235.23 238.29,-235.23 238.29,-235.23 146.29,-235.23 146.29,-235.23 140.29,-235.23 134.29,-229.23 134.29,-223.23 134.29,-223.23 134.29,-20 134.29,-20 134.29,-14 140.29,-8 146.29,-8"/>
<text text-anchor="middle" x="202.91" y="-15.2" font-family="Times,serif" font-size="14.00">__obs__ (919)</text>
</g>
<!-- sigma -->
<g id="node1" class="node">
<title>sigma</title>
<ellipse fill="none" stroke="black" cx="63.29" cy="-198.48" rx="63.29" ry="40.66"/>
<text text-anchor="middle" x="63.29" y="-209.93" font-family="Times,serif" font-size="14.00">sigma</text>
<text text-anchor="middle" x="63.29" y="-193.43" font-family="Times,serif" font-size="14.00">~</text>
<text text-anchor="middle" x="63.29" y="-176.93" font-family="Times,serif" font-size="14.00">HalfStudentT</text>
</g>
<!-- log_radon -->
<g id="node5" class="node">
<title>log_radon</title>
<ellipse fill="lightgrey" stroke="black" cx="192.29" cy="-81.16" rx="50.03" ry="40.66"/>
<text text-anchor="middle" x="192.29" y="-92.61" font-family="Times,serif" font-size="14.00">log_radon</text>
<text text-anchor="middle" x="192.29" y="-76.11" font-family="Times,serif" font-size="14.00">~</text>
<text text-anchor="middle" x="192.29" y="-59.61" font-family="Times,serif" font-size="14.00">Normal</text>
</g>
<!-- sigma&#45;&gt;log_radon -->
<g id="edge4" class="edge">
<title>sigma&#45;&gt;log_radon</title>
<path fill="none" stroke="black" d="M99.56,-165.05C115.43,-150.86 134.13,-134.15 150.57,-119.45"/>
<polygon fill="black" stroke="black" points="152.68,-122.26 157.8,-112.99 148.01,-117.04 152.68,-122.26"/>
</g>
<!-- Intercept -->
<g id="node2" class="node">
<title>Intercept</title>
<ellipse fill="none" stroke="black" cx="92.29" cy="-320.29" rx="45.25" ry="40.66"/>
<text text-anchor="middle" x="92.29" y="-331.74" font-family="Times,serif" font-size="14.00">Intercept</text>
<text text-anchor="middle" x="92.29" y="-315.24" font-family="Times,serif" font-size="14.00">~</text>
<text text-anchor="middle" x="92.29" y="-298.74" font-family="Times,serif" font-size="14.00">Normal</text>
</g>
<!-- mu -->
<g id="node4" class="node">
<title>mu</title>
<polygon fill="none" stroke="black" points="237.41,-227.23 147.16,-227.23 147.16,-169.73 237.41,-169.73 237.41,-227.23"/>
<text text-anchor="middle" x="192.29" y="-209.93" font-family="Times,serif" font-size="14.00">mu</text>
<text text-anchor="middle" x="192.29" y="-193.43" font-family="Times,serif" font-size="14.00">~</text>
<text text-anchor="middle" x="192.29" y="-176.93" font-family="Times,serif" font-size="14.00">Deterministic</text>
</g>
<!-- Intercept&#45;&gt;mu -->
<g id="edge2" class="edge">
<title>Intercept&#45;&gt;mu</title>
<path fill="none" stroke="black" d="M114.92,-284.55C123.36,-272.36 133.32,-258.8 143.29,-247.13 146.54,-243.33 150.05,-239.48 153.65,-235.71"/>
<polygon fill="black" stroke="black" points="156.02,-238.29 160.54,-228.7 151.03,-233.38 156.02,-238.29"/>
</g>
<!-- floor -->
<g id="node3" class="node">
<title>floor</title>
<ellipse fill="none" stroke="black" cx="196.29" cy="-320.29" rx="41.01" ry="40.66"/>
<text text-anchor="middle" x="196.29" y="-331.74" font-family="Times,serif" font-size="14.00">floor</text>
<text text-anchor="middle" x="196.29" y="-315.24" font-family="Times,serif" font-size="14.00">~</text>
<text text-anchor="middle" x="196.29" y="-298.74" font-family="Times,serif" font-size="14.00">Normal</text>
</g>
<!-- floor&#45;&gt;mu -->
<g id="edge1" class="edge">
<title>floor&#45;&gt;mu</title>
<path fill="none" stroke="black" d="M194.95,-279.4C194.52,-266.37 194.04,-251.91 193.6,-238.91"/>
<polygon fill="black" stroke="black" points="197.1,-238.86 193.27,-228.98 190.11,-239.09 197.1,-238.86"/>
</g>
<!-- mu&#45;&gt;log_radon -->
<g id="edge3" class="edge">
<title>mu&#45;&gt;log_radon</title>
<path fill="none" stroke="black" d="M192.29,-169.27C192.29,-158.44 192.29,-145.73 192.29,-133.41"/>
<polygon fill="black" stroke="black" points="195.79,-133.78 192.29,-123.78 188.79,-133.78 195.79,-133.78"/>
</g>
</g>
</svg>