<?xml version="1.0" encoding="UTF-8" standalone="no"?>
<!DOCTYPE svg PUBLIC "-//W3C//DTD SVG 1.1//EN"
 "http://www.w3.org/Graphics/SVG/1.1/DTD/svg11.dtd">
<!-- Generated by graphviz version 2.43.0 (0)
 -->
<!-- Title: %3 Pages: 1 -->
<svg width="374pt" height="363pt"
 viewBox="0.00 0.00 373.90 362.86" xmlns="http://www.w3.org/2000/svg" xmlns:xlink="http://www.w3.org/1999/xlink">
<g id="graph0" class="graph" transform="scale(1 1) rotate(0) translate(4 358.86)">
<title>%3</title>
<polygon fill="white" stroke="transparent" points="-4,4 -4,-358.86 369.9,-358.86 369.9,4 -4,4"/>
<g id="clust1" class="cluster">
<title>clustercounty_dim (85)</title>
<path fill="none" stroke="black" d="M116.9,-232.91C116.9,-232.91 223.9,-232.91 223.9,-232.91 229.9,-232.91 235.9,-238.91 235.9,-244.91 235.9,-244.91 235.9,-334.86 235.9,-334.86 235.9,-340.86 229.9,-346.86 223.9,-346.86 223.9,-346.86 116.9,-346.86 116.9,-346.86 110.9,-346.86 104.9,-340.86 104.9,-334.86 104.9,-334.86 104.9,-244.91 104.9,-244.91 104.9,-238.91 110.9,-232.91 116.9,-232.91"/>
<text text-anchor="middle" x="170.4" y="-240.71" font-family="Times,serif" font-size="14.00">county_dim (85)</text>
</g>
<g id="clust2" class="cluster">
<title>clusterfloor_dim (1)</title>
<path fill="none" stroke="black" d="M255.9,-232.91C255.9,-232.91 345.9,-232.91 345.9,-232.91 351.9,-232.91 357.9,-238.91 357.9,-244.91 357.9,-244.91 357.9,-334.86 357.9,-334.86 357.9,-340.86 351.9,-346.86 345.9,-346.86 345.9,-346.86 255.9,-346.86 255.9,-346.86 249.9,-346.86 243.9,-340.86 243.9,-334.86 243.9,-334.86 243.9,-244.91 243.9,-244.91 243.9,-238.91 249.9,-232.91 255.9,-232.91"/>
<text text-anchor="middle" x="304.4" y="-240.71" font-family="Times,serif" font-size="14.00">floor_dim (1)</text>
</g>
<g id="clust3" class="cluster">
<title>cluster__obs__ (919)</title>
<path fill="none" stroke="black" d="M179.9,-8C179.9,-8 293.9,-8 293.9,-8 299.9,-8 305.9,-14 305.9,-20 305.9,-20 305.9,-209.93 305.9,-209.93 305.9,-215.93 299.9,-221.93 293.9,-221.93 293.9,-221.93 179.9,-221.93 179.9,-221.93 173.9,-221.93 167.9,-215.93 167.9,-209.93 167.9,-209.93 167.9,-20 167.9,-20 167.9,-14 173.9,-8 179.9,-8"/>
<text text-anchor="middle" x="250.9" y="-15.8" font-family="Times,serif" font-size="14.00">__obs__ (919)</text>
</g>
<!-- sigma -->
<g id="node1" class="node">
<title>sigma</title>
<ellipse fill="none" stroke="black" cx="79.9" cy="-187.43" rx="79.81" ry="37.45"/>
<text text-anchor="middle" x="79.9" y="-198.73" font-family="Times,serif" font-size="14.00">sigma</text>
<text text-anchor="middle" x="79.9" y="-183.73" font-family="Times,serif" font-size="14.00">~</text>
<text text-anchor="middle" x="79.9" y="-168.73" font-family="Times,serif" font-size="14.00">HalfStudentT</text>
</g>
<!-- log_radon -->
<g id="node5" class="node">
<title>log_radon</title>
<ellipse fill="lightgrey" stroke="black" cx="236.9" cy="-76.48" rx="60.62" ry="37.45"/>
<text text-anchor="middle" x="236.9" y="-87.78" font-family="Times,serif" font-size="14.00">log_radon</text>
<text text-anchor="middle" x="236.9" y="-72.78" font-family="Times,serif" font-size="14.00">~</text>
<text text-anchor="middle" x="236.9" y="-57.78" font-family="Times,serif" font-size="14.00">Normal</text>
</g>
<!-- sigma&#45;&gt;log_radon -->
<g id="edge4" class="edge">
<title>sigma&#45;&gt;log_radon</title>
<path fill="none" stroke="black" d="M124.05,-155.79C144.22,-141.79 168.16,-125.18 188.78,-110.87"/>
<polygon fill="black" stroke="black" points="190.88,-113.67 197.1,-105.1 186.89,-107.92 190.88,-113.67"/>
</g>
<!-- county -->
<g id="node2" class="node">
<title>county</title>
<ellipse fill="none" stroke="black" cx="178.9" cy="-301.38" rx="49.49" ry="37.45"/>
<text text-anchor="middle" x="178.9" y="-312.68" font-family="Times,serif" font-size="14.00">county</text>
<text text-anchor="middle" x="178.9" y="-297.68" font-family="Times,serif" font-size="14.00">~</text>
<text text-anchor="middle" x="178.9" y="-282.68" font-family="Times,serif" font-size="14.00">Normal</text>
</g>
<!-- mu -->
<g id="node4" class="node">
<title>mu</title>
<polygon fill="none" stroke="black" points="293.9,-213.93 179.9,-213.93 179.9,-160.93 293.9,-160.93 293.9,-213.93"/>
<text text-anchor="middle" x="236.9" y="-198.73" font-family="Times,serif" font-size="14.00">mu</text>
<text text-anchor="middle" x="236.9" y="-183.73" font-family="Times,serif" font-size="14.00">~</text>
<text text-anchor="middle" x="236.9" y="-168.73" font-family="Times,serif" font-size="14.00">Deterministic</text>
</g>
<!-- county&#45;&gt;mu -->
<g id="edge2" class="edge">
<title>county&#45;&gt;mu</title>
<path fill="none" stroke="black" d="M196.62,-266.19C203.66,-252.6 211.75,-236.99 218.82,-223.34"/>
<polygon fill="black" stroke="black" points="222.04,-224.74 223.53,-214.25 215.82,-221.52 222.04,-224.74"/>
</g>
<!-- floor -->
<g id="node3" class="node">
<title>floor</title>
<ellipse fill="none" stroke="black" cx="300.9" cy="-301.38" rx="49.49" ry="37.45"/>
<text text-anchor="middle" x="300.9" y="-312.68" font-family="Times,serif" font-size="14.00">floor</text>
<text text-anchor="middle" x="300.9" y="-297.68" font-family="Times,serif" font-size="14.00">~</text>
<text text-anchor="middle" x="300.9" y="-282.68" font-family="Times,serif" font-size="14.00">Normal</text>
</g>
<!-- floor&#45;&gt;mu -->
<g id="edge1" class="edge">
<title>floor&#45;&gt;mu</title>
<path fill="none" stroke="black" d="M281.7,-266.79C273.79,-252.95 264.62,-236.92 256.65,-222.98"/>
<polygon fill="black" stroke="black" points="259.62,-221.11 251.61,-214.16 253.54,-224.58 259.62,-221.11"/>
</g>
<!-- mu&#45;&gt;log_radon -->
<g id="edge3" class="edge">
<title>mu&#45;&gt;log_radon</title>
<path fill="none" stroke="black" d="M236.9,-160.89C236.9,-149.98 236.9,-136.89 236.9,-124.35"/>
<polygon fill="black" stroke="black" points="240.4,-124 236.9,-114 233.4,-124 240.4,-124"/>
</g>
</g>
</svg>