<?xml version="1.0" encoding="UTF-8" standalone="no"?>
<!DOCTYPE svg PUBLIC "-//W3C//DTD SVG 1.1//EN"
 "http://www.w3.org/Graphics/SVG/1.1/DTD/svg11.dtd">
<!-- Generated by graphviz version 12.1.0 (20240811.2233)
 -->
<!-- Pages: 1 -->
<svg width="134pt" height="341pt"
 viewBox="0.00 0.00 134.00 340.63" xmlns="http://www.w3.org/2000/svg" xmlns:xlink="http://www.w3.org/1999/xlink">
<g id="graph0" class="graph" transform="scale(1 1) rotate(0) translate(4 336.63)">
<polygon fill="white" stroke="none" points="-4,4 -4,-336.63 130,-336.63 130,4 -4,4"/>
<g id="clust1" class="cluster">
<title>cluster__obs__ (50)</title>
<path fill="none" stroke="black" d="M20,-8C20,-8 106,-8 106,-8 112,-8 118,-14 118,-20 118,-20 118,-211.32 118,-211.32 118,-217.32 112,-223.32 106,-223.32 106,-223.32 20,-223.32 20,-223.32 14,-223.32 8,-217.32 8,-211.32 8,-211.32 8,-20 8,-20 8,-14 14,-8 20,-8"/>
<text text-anchor="middle" x="74" y="-15.2" font-family="Times,serif" font-size="14.00">__obs__ (50)</text>
</g>
<!-- p prior -->
<g id="node1" class="node">
<title>p prior</title>
<ellipse fill="none" stroke="black" cx="63" cy="-291.98" rx="44.72" ry="40.66"/>
<text text-anchor="middle" x="63" y="-303.43" font-family="Times,serif" font-size="14.00">p prior</text>
<text text-anchor="middle" x="63" y="-286.93" font-family="Times,serif" font-size="14.00">~</text>
<text text-anchor="middle" x="63" y="-270.43" font-family="Times,serif" font-size="14.00">Uniform</text>
</g>
<!-- p -->
<g id="node3" class="node">
<title>p</title>
<polygon fill="none" stroke="black" points="108.12,-215.32 17.88,-215.32 17.88,-157.82 108.12,-157.82 108.12,-215.32"/>
<text text-anchor="middle" x="63" y="-198.02" font-family="Times,serif" font-size="14.00">p</text>
<text text-anchor="middle" x="63" y="-181.52" font-family="Times,serif" font-size="14.00">~</text>
<text text-anchor="middle" x="63" y="-165.02" font-family="Times,serif" font-size="14.00">Deterministic</text>
</g>
<!-- p prior&#45;&gt;p -->
<g id="edge1" class="edge">
<title>p prior&#45;&gt;p</title>
<path fill="none" stroke="black" d="M63,-251C63,-243.15 63,-234.91 63,-227.08"/>
<polygon fill="black" stroke="black" points="66.5,-227.11 63,-217.11 59.5,-227.11 66.5,-227.11"/>
</g>
<!-- heads -->
<g id="node2" class="node">
<title>heads</title>
<ellipse fill="lightgrey" stroke="black" cx="63" cy="-81.16" rx="47.38" ry="40.66"/>
<text text-anchor="middle" x="63" y="-92.61" font-family="Times,serif" font-size="14.00">heads</text>
<text text-anchor="middle" x="63" y="-76.11" font-family="Times,serif" font-size="14.00">~</text>
<text text-anchor="middle" x="63" y="-59.61" font-family="Times,serif" font-size="14.00">Bernoulli</text>
</g>
<!-- p&#45;&gt;heads -->
<g id="edge2" class="edge">
<title>p&#45;&gt;heads</title>
<path fill="none" stroke="black" d="M63,-157.58C63,-150.1 63,-141.77 63,-133.45"/>
<polygon fill="black" stroke="black" points="66.5,-133.71 63,-123.71 59.5,-133.71 66.5,-133.71"/>
</g>
</g>
</svg>