<?xml version="1.0" encoding="UTF-8" standalone="no"?>
<!DOCTYPE svg PUBLIC "-//W3C//DTD SVG 1.1//EN"
 "http://www.w3.org/Graphics/SVG/1.1/DTD/svg11.dtd">
<!-- Generated by graphviz version 12.1.0 (20240811.2233)
 -->
<!-- Pages: 1 -->
<svg width="379pt" height="385pt"
 viewBox="0.00 0.00 379.45 384.95" xmlns="http://www.w3.org/2000/svg" xmlns:xlink="http://www.w3.org/1999/xlink">
<g id="graph0" class="graph" transform="scale(1 1) rotate(0) translate(4 380.95)">
<polygon fill="white" stroke="none" points="-4,4 -4,-380.95 375.45,-380.95 375.45,4 -4,4"/>
<g id="clust1" class="cluster">
<title>clustergroup_dim (2)</title>
<path fill="none" stroke="black" d="M129.45,-247.13C129.45,-247.13 203.45,-247.13 203.45,-247.13 209.45,-247.13 215.45,-253.13 215.45,-259.13 215.45,-259.13 215.45,-356.95 215.45,-356.95 215.45,-362.95 209.45,-368.95 203.45,-368.95 203.45,-368.95 129.45,-368.95 129.45,-368.95 123.45,-368.95 117.45,-362.95 117.45,-356.95 117.45,-356.95 117.45,-259.13 117.45,-259.13 117.45,-253.13 123.45,-247.13 129.45,-247.13"/>
<text text-anchor="middle" x="167.7" y="-254.33" font-family="Times,serif" font-size="14.00">group_dim (2)</text>
</g>
<g id="clust2" class="cluster">
<title>clustersigma_group_dim (2)</title>
<path fill="none" stroke="black" d="M235.45,-247.13C235.45,-247.13 351.45,-247.13 351.45,-247.13 357.45,-247.13 363.45,-253.13 363.45,-259.13 363.45,-259.13 363.45,-356.95 363.45,-356.95 363.45,-362.95 357.45,-368.95 351.45,-368.95 351.45,-368.95 235.45,-368.95 235.45,-368.95 229.45,-368.95 223.45,-362.95 223.45,-356.95 223.45,-356.95 223.45,-259.13 223.45,-259.13 223.45,-253.13 229.45,-247.13 235.45,-247.13"/>
<text text-anchor="middle" x="295.83" y="-254.33" font-family="Times,serif" font-size="14.00">sigma_group_dim (2)</text>
</g>
<g id="clust3" class="cluster">
<title>cluster__obs__ (89)</title>
<path fill="none" stroke="black" d="M137.45,-8C137.45,-8 327.45,-8 327.45,-8 333.45,-8 339.45,-14 339.45,-20 339.45,-20 339.45,-223.23 339.45,-223.23 339.45,-229.23 333.45,-235.23 327.45,-235.23 327.45,-235.23 137.45,-235.23 137.45,-235.23 131.45,-235.23 125.45,-229.23 125.45,-223.23 125.45,-223.23 125.45,-20 125.45,-20 125.45,-14 131.45,-8 137.45,-8"/>
<text text-anchor="middle" x="295.45" y="-15.2" font-family="Times,serif" font-size="14.00">__obs__ (89)</text>
</g>
<!-- nu -->
<g id="node1" class="node">
<title>nu</title>
<ellipse fill="none" stroke="black" cx="57.45" cy="-198.48" rx="57.45" ry="40.66"/>
<text text-anchor="middle" x="57.45" y="-209.93" font-family="Times,serif" font-size="14.00">nu</text>
<text text-anchor="middle" x="57.45" y="-193.43" font-family="Times,serif" font-size="14.00">~</text>
<text text-anchor="middle" x="57.45" y="-176.93" font-family="Times,serif" font-size="14.00">Exponential</text>
</g>
<!-- iq -->
<g id="node6" class="node">
<title>iq</title>
<ellipse fill="lightgrey" stroke="black" cx="179.45" cy="-81.16" rx="46.32" ry="40.66"/>
<text text-anchor="middle" x="179.45" y="-92.61" font-family="Times,serif" font-size="14.00">iq</text>
<text text-anchor="middle" x="179.45" y="-76.11" font-family="Times,serif" font-size="14.00">~</text>
<text text-anchor="middle" x="179.45" y="-59.61" font-family="Times,serif" font-size="14.00">StudentT</text>
</g>
<!-- nu&#45;&gt;iq -->
<g id="edge5" class="edge">
<title>nu&#45;&gt;iq</title>
<path fill="none" stroke="black" d="M91.44,-165.35C106.57,-151.05 124.48,-134.12 140.18,-119.28"/>
<polygon fill="black" stroke="black" points="142.2,-122.19 147.06,-112.78 137.39,-117.1 142.2,-122.19"/>
</g>
<!-- group -->
<g id="node2" class="node">
<title>group</title>
<ellipse fill="none" stroke="black" cx="166.45" cy="-320.29" rx="41.01" ry="40.66"/>
<text text-anchor="middle" x="166.45" y="-331.74" font-family="Times,serif" font-size="14.00">group</text>
<text text-anchor="middle" x="166.45" y="-315.24" font-family="Times,serif" font-size="14.00">~</text>
<text text-anchor="middle" x="166.45" y="-298.74" font-family="Times,serif" font-size="14.00">Normal</text>
</g>
<!-- mu -->
<g id="node5" class="node">
<title>mu</title>
<polygon fill="none" stroke="black" points="223.58,-227.23 133.33,-227.23 133.33,-169.73 223.58,-169.73 223.58,-227.23"/>
<text text-anchor="middle" x="178.45" y="-209.93" font-family="Times,serif" font-size="14.00">mu</text>
<text text-anchor="middle" x="178.45" y="-193.43" font-family="Times,serif" font-size="14.00">~</text>
<text text-anchor="middle" x="178.45" y="-176.93" font-family="Times,serif" font-size="14.00">Deterministic</text>
</g>
<!-- group&#45;&gt;mu -->
<g id="edge1" class="edge">
<title>group&#45;&gt;mu</title>
<path fill="none" stroke="black" d="M170.45,-279.4C171.75,-266.37 173.2,-251.91 174.5,-238.91"/>
<polygon fill="black" stroke="black" points="177.98,-239.28 175.5,-228.98 171.02,-238.58 177.98,-239.28"/>
</g>
<!-- sigma_group -->
<g id="node3" class="node">
<title>sigma_group</title>
<ellipse fill="none" stroke="black" cx="293.45" cy="-320.29" rx="61.7" ry="40.66"/>
<text text-anchor="middle" x="293.45" y="-331.74" font-family="Times,serif" font-size="14.00">sigma_group</text>
<text text-anchor="middle" x="293.45" y="-315.24" font-family="Times,serif" font-size="14.00">~</text>
<text text-anchor="middle" x="293.45" y="-298.74" font-family="Times,serif" font-size="14.00">Uniform</text>
</g>
<!-- sigma -->
<g id="node4" class="node">
<title>sigma</title>
<polygon fill="none" stroke="black" points="331.58,-227.23 241.33,-227.23 241.33,-169.73 331.58,-169.73 331.58,-227.23"/>
<text text-anchor="middle" x="286.45" y="-209.93" font-family="Times,serif" font-size="14.00">sigma</text>
<text text-anchor="middle" x="286.45" y="-193.43" font-family="Times,serif" font-size="14.00">~</text>
<text text-anchor="middle" x="286.45" y="-176.93" font-family="Times,serif" font-size="14.00">Deterministic</text>
</g>
<!-- sigma_group&#45;&gt;sigma -->
<g id="edge2" class="edge">
<title>sigma_group&#45;&gt;sigma</title>
<path fill="none" stroke="black" d="M291.12,-279.4C290.36,-266.37 289.52,-251.91 288.76,-238.91"/>
<polygon fill="black" stroke="black" points="292.25,-238.76 288.18,-228.98 285.27,-239.17 292.25,-238.76"/>
</g>
<!-- sigma&#45;&gt;iq -->
<g id="edge3" class="edge">
<title>sigma&#45;&gt;iq</title>
<path fill="none" stroke="black" d="M260.28,-169.27C246.9,-154.84 230.39,-137.06 215.8,-121.33"/>
<polygon fill="black" stroke="black" points="218.76,-119.38 209.4,-114.43 213.63,-124.14 218.76,-119.38"/>
</g>
<!-- mu&#45;&gt;iq -->
<g id="edge4" class="edge">
<title>mu&#45;&gt;iq</title>
<path fill="none" stroke="black" d="M178.7,-169.27C178.79,-158.44 178.9,-145.73 179.01,-133.41"/>
<polygon fill="black" stroke="black" points="182.5,-133.81 179.09,-123.78 175.5,-133.75 182.5,-133.81"/>
</g>
</g>
</svg>