<?xml version="1.0" encoding="UTF-8" standalone="no"?>
<!DOCTYPE svg PUBLIC "-//W3C//DTD SVG 1.1//EN"
 "http://www.w3.org/Graphics/SVG/1.1/DTD/svg11.dtd">
<!-- Generated by graphviz version 12.1.0 (20240811.2233)
 -->
<!-- Pages: 1 -->
<svg width="266pt" height="385pt"
 viewBox="0.00 0.00 266.29 384.95" xmlns="http://www.w3.org/2000/svg" xmlns:xlink="http://www.w3.org/1999/xlink">
<g id="graph0" class="graph" transform="scale(1 1) rotate(0) translate(4 380.95)">
<polygon fill="white" stroke="none" points="-4,4 -4,-380.95 262.29,-380.95 262.29,4 -4,4"/>
<g id="clust1" class="cluster">
<title>clusterC(floor)_dim (1)</title>
<path fill="none" stroke="black" d="M153.29,-247.13C153.29,-247.13 237.29,-247.13 237.29,-247.13 243.29,-247.13 249.29,-253.13 249.29,-259.13 249.29,-259.13 249.29,-356.95 249.29,-356.95 249.29,-362.95 243.29,-368.95 237.29,-368.95 237.29,-368.95 153.29,-368.95 153.29,-368.95 147.29,-368.95 141.29,-362.95 141.29,-356.95 141.29,-356.95 141.29,-259.13 141.29,-259.13 141.29,-253.13 147.29,-247.13 153.29,-247.13"/>
<text text-anchor="middle" x="195.16" y="-254.33" font-family="Times,serif" font-size="14.00">C(floor)_dim (1)</text>
</g>
<g id="clust2" class="cluster">
<title>cluster__obs__ (919)</title>
<path fill="none" stroke="black" d="M146.29,-8C146.29,-8 238.29,-8 238.29,-8 244.29,-8 250.29,-14 250.29,-20 250.29,-20 250.29,-223.23 250.29,-223.23 250.29,-229.23 244.29,-235.23 238.29,-235.23 238.29,-235.23 146.29,-235.23 146.29,-235.23 140.29,-235.23 134.29,-229.23 134.29,-223.23 134.29,-223.23 134.29,-20 134.29,-20 134.29,-14 140.29,-8 146.29,-8"/>
<text text-anchor="middle" x="202.91" y="-15.2" font-family="Times,serif" font-size="14.00">__obs__ (919)</text>
</g>
<!-- sigma -->
<g id="node1" class="node">
<title>sigma</title>
<ellipse fill="none" stroke="black" cx="63.29" cy="-198.48" rx="63.29" ry="40.66"/>
<text text-anchor="middle" x="63.29" y="-209.93" font-family="Times,serif" font-size="14.00">sigma</text>
<text text-anchor="middle" x="63.29" y="-193.43" font-family="Times,serif" font-size="14.00">~</text>
<text text-anchor="middle" x="63.29" y="-176.93" font-family="Times,serif" font-size="14.00">HalfStudentT</text>
</g>
<!-- log_radon -->
<g id="node5" class="node">
<title>log_radon</title>
<ellipse fill="lightgrey" stroke="black" cx="192.29" cy="-81.16" rx="50.03" ry="40.66"/>
<text text-anchor="middle" x="192.29" y="-92.61" font-family="Times,serif" font-size="14.00">log_radon</text>
<text text-anchor="middle" x="192.29" y="-76.11" font-family="Times,serif" font-size="14.00">~</text>
<text text-anchor="middle" x="192.29" y="-59.61" font-family="Times,serif" font-size="14.00">Normal</text>
</g>
<!-- sigma&#45;&gt;log_radon -->
<g id="edge3" class="edge">
<title>sigma&#45;&gt;log_radon</title>
<path fill="none" stroke="black" d="M99.56,-165.05C115.43,-150.86 134.13,-134.15 150.57,-119.45"/>
<polygon fill="black" stroke="black" points="152.68,-122.26 157.8,-112.99 148.01,-117.04 152.68,-122.26"/>
</g>
<!-- Intercept -->
<g id="node2" class="node">
<title>Intercept</title>
<ellipse fill="none" stroke="black" cx="87.29" cy="-320.29" rx="45.25" ry="40.66"/>
<text text-anchor="middle" x="87.29" y="-331.74" font-family="Times,serif" font-size="14.00">Intercept</text>
<text text-anchor="middle" x="87.29" y="-315.24" font-family="Times,serif" font-size="14.00">~</text>
<text text-anchor="middle" x="87.29" y="-298.74" font-family="Times,serif" font-size="14.00">Normal</text>
</g>
<!-- mu -->
<g id="node4" class="node">
<title>mu</title>
<polygon fill="none" stroke="black" points="237.41,-227.23 147.16,-227.23 147.16,-169.73 237.41,-169.73 237.41,-227.23"/>
<text text-anchor="middle" x="192.29" y="-209.93" font-family="Times,serif" font-size="14.00">mu</text>
<text text-anchor="middle" x="192.29" y="-193.43" font-family="Times,serif" font-size="14.00">~</text>
<text text-anchor="middle" x="192.29" y="-176.93" font-family="Times,serif" font-size="14.00">Deterministic</text>
</g>
<!-- Intercept&#45;&gt;mu -->
<g id="edge2" class="edge">
<title>Intercept&#45;&gt;mu</title>
<path fill="none" stroke="black" d="M109.02,-284.2C117.25,-271.97 127.11,-258.48 137.29,-247.13 140.84,-243.17 144.72,-239.22 148.72,-235.38"/>
<polygon fill="black" stroke="black" points="150.94,-238.1 155.91,-228.74 146.19,-232.96 150.94,-238.1"/>
</g>
<!-- C(floor) -->
<g id="node3" class="node">
<title>C(floor)</title>
<ellipse fill="none" stroke="black" cx="193.29" cy="-320.29" rx="42.6" ry="40.66"/>
<text text-anchor="middle" x="193.29" y="-331.74" font-family="Times,serif" font-size="14.00">C(floor)</text>
<text text-anchor="middle" x="193.29" y="-315.24" font-family="Times,serif" font-size="14.00">~</text>
<text text-anchor="middle" x="193.29" y="-298.74" font-family="Times,serif" font-size="14.00">Normal</text>
</g>
<!-- C(floor)&#45;&gt;mu -->
<g id="edge1" class="edge">
<title>C(floor)&#45;&gt;mu</title>
<path fill="none" stroke="black" d="M192.95,-279.4C192.84,-266.37 192.72,-251.91 192.62,-238.91"/>
<polygon fill="black" stroke="black" points="196.12,-238.95 192.53,-228.98 189.12,-239.01 196.12,-238.95"/>
</g>
<!-- mu&#45;&gt;log_radon -->
<g id="edge4" class="edge">
<title>mu&#45;&gt;log_radon</title>
<path fill="none" stroke="black" d="M192.29,-169.27C192.29,-158.44 192.29,-145.73 192.29,-133.41"/>
<polygon fill="black" stroke="black" points="195.79,-133.78 192.29,-123.78 188.79,-133.78 195.79,-133.78"/>
</g>
</g>
</svg>