<?xml version="1.0" encoding="UTF-8" standalone="no"?>
<!DOCTYPE svg PUBLIC "-//W3C//DTD SVG 1.1//EN"
 "http://www.w3.org/Graphics/SVG/1.1/DTD/svg11.dtd">
<!-- Generated by graphviz version 12.1.0 (20240811.2233)
 -->
<!-- Pages: 1 -->
<svg width="364pt" height="385pt"
 viewBox="0.00 0.00 364.03 384.95" xmlns="http://www.w3.org/2000/svg" xmlns:xlink="http://www.w3.org/1999/xlink">
<g id="graph0" class="graph" transform="scale(1 1) rotate(0) translate(4 380.95)">
<polygon fill="white" stroke="none" points="-4,4 -4,-380.95 360.03,-380.95 360.03,4 -4,4"/>
<g id="clust1" class="cluster">
<title>clustergroup_dim (2)</title>
<path fill="none" stroke="black" d="M114.03,-247.13C114.03,-247.13 188.03,-247.13 188.03,-247.13 194.03,-247.13 200.03,-253.13 200.03,-259.13 200.03,-259.13 200.03,-356.95 200.03,-356.95 200.03,-362.95 194.03,-368.95 188.03,-368.95 188.03,-368.95 114.03,-368.95 114.03,-368.95 108.03,-368.95 102.03,-362.95 102.03,-356.95 102.03,-356.95 102.03,-259.13 102.03,-259.13 102.03,-253.13 108.03,-247.13 114.03,-247.13"/>
<text text-anchor="middle" x="152.28" y="-254.33" font-family="Times,serif" font-size="14.00">group_dim (2)</text>
</g>
<g id="clust2" class="cluster">
<title>clustersigma_group_dim (2)</title>
<path fill="none" stroke="black" d="M220.03,-247.13C220.03,-247.13 336.03,-247.13 336.03,-247.13 342.03,-247.13 348.03,-253.13 348.03,-259.13 348.03,-259.13 348.03,-356.95 348.03,-356.95 348.03,-362.95 342.03,-368.95 336.03,-368.95 336.03,-368.95 220.03,-368.95 220.03,-368.95 214.03,-368.95 208.03,-362.95 208.03,-356.95 208.03,-356.95 208.03,-259.13 208.03,-259.13 208.03,-253.13 214.03,-247.13 220.03,-247.13"/>
<text text-anchor="middle" x="280.4" y="-254.33" font-family="Times,serif" font-size="14.00">sigma_group_dim (2)</text>
</g>
<g id="clust3" class="cluster">
<title>cluster__obs__ (89)</title>
<path fill="none" stroke="black" d="M122.03,-8C122.03,-8 312.03,-8 312.03,-8 318.03,-8 324.03,-14 324.03,-20 324.03,-20 324.03,-223.23 324.03,-223.23 324.03,-229.23 318.03,-235.23 312.03,-235.23 312.03,-235.23 122.03,-235.23 122.03,-235.23 116.03,-235.23 110.03,-229.23 110.03,-223.23 110.03,-223.23 110.03,-20 110.03,-20 110.03,-14 116.03,-8 122.03,-8"/>
<text text-anchor="middle" x="280.03" y="-15.2" font-family="Times,serif" font-size="14.00">__obs__ (89)</text>
</g>
<!-- nu -->
<g id="node1" class="node">
<title>nu</title>
<ellipse fill="none" stroke="black" cx="50.03" cy="-198.48" rx="50.03" ry="40.66"/>
<text text-anchor="middle" x="50.03" y="-209.93" font-family="Times,serif" font-size="14.00">nu</text>
<text text-anchor="middle" x="50.03" y="-193.43" font-family="Times,serif" font-size="14.00">~</text>
<text text-anchor="middle" x="50.03" y="-176.93" font-family="Times,serif" font-size="14.00">Truncated</text>
</g>
<!-- iq -->
<g id="node6" class="node">
<title>iq</title>
<ellipse fill="lightgrey" stroke="black" cx="164.03" cy="-81.16" rx="46.32" ry="40.66"/>
<text text-anchor="middle" x="164.03" y="-92.61" font-family="Times,serif" font-size="14.00">iq</text>
<text text-anchor="middle" x="164.03" y="-76.11" font-family="Times,serif" font-size="14.00">~</text>
<text text-anchor="middle" x="164.03" y="-59.61" font-family="Times,serif" font-size="14.00">StudentT</text>
</g>
<!-- nu&#45;&gt;iq -->
<g id="edge5" class="edge">
<title>nu&#45;&gt;iq</title>
<path fill="none" stroke="black" d="M80.88,-166.27C94.79,-152.2 111.35,-135.45 126.02,-120.61"/>
<polygon fill="black" stroke="black" points="128.34,-123.24 132.88,-113.67 123.36,-118.32 128.34,-123.24"/>
</g>
<!-- group -->
<g id="node2" class="node">
<title>group</title>
<ellipse fill="none" stroke="black" cx="151.03" cy="-320.29" rx="41.01" ry="40.66"/>
<text text-anchor="middle" x="151.03" y="-331.74" font-family="Times,serif" font-size="14.00">group</text>
<text text-anchor="middle" x="151.03" y="-315.24" font-family="Times,serif" font-size="14.00">~</text>
<text text-anchor="middle" x="151.03" y="-298.74" font-family="Times,serif" font-size="14.00">Normal</text>
</g>
<!-- mu -->
<g id="node5" class="node">
<title>mu</title>
<polygon fill="none" stroke="black" points="208.15,-227.23 117.9,-227.23 117.9,-169.73 208.15,-169.73 208.15,-227.23"/>
<text text-anchor="middle" x="163.03" y="-209.93" font-family="Times,serif" font-size="14.00">mu</text>
<text text-anchor="middle" x="163.03" y="-193.43" font-family="Times,serif" font-size="14.00">~</text>
<text text-anchor="middle" x="163.03" y="-176.93" font-family="Times,serif" font-size="14.00">Deterministic</text>
</g>
<!-- group&#45;&gt;mu -->
<g id="edge1" class="edge">
<title>group&#45;&gt;mu</title>
<path fill="none" stroke="black" d="M155.02,-279.4C156.33,-266.37 157.78,-251.91 159.08,-238.91"/>
<polygon fill="black" stroke="black" points="162.56,-239.28 160.07,-228.98 155.59,-238.58 162.56,-239.28"/>
</g>
<!-- sigma_group -->
<g id="node3" class="node">
<title>sigma_group</title>
<ellipse fill="none" stroke="black" cx="278.03" cy="-320.29" rx="61.7" ry="40.66"/>
<text text-anchor="middle" x="278.03" y="-331.74" font-family="Times,serif" font-size="14.00">sigma_group</text>
<text text-anchor="middle" x="278.03" y="-315.24" font-family="Times,serif" font-size="14.00">~</text>
<text text-anchor="middle" x="278.03" y="-298.74" font-family="Times,serif" font-size="14.00">Uniform</text>
</g>
<!-- sigma -->
<g id="node4" class="node">
<title>sigma</title>
<polygon fill="none" stroke="black" points="316.15,-227.23 225.9,-227.23 225.9,-169.73 316.15,-169.73 316.15,-227.23"/>
<text text-anchor="middle" x="271.03" y="-209.93" font-family="Times,serif" font-size="14.00">sigma</text>
<text text-anchor="middle" x="271.03" y="-193.43" font-family="Times,serif" font-size="14.00">~</text>
<text text-anchor="middle" x="271.03" y="-176.93" font-family="Times,serif" font-size="14.00">Deterministic</text>
</g>
<!-- sigma_group&#45;&gt;sigma -->
<g id="edge2" class="edge">
<title>sigma_group&#45;&gt;sigma</title>
<path fill="none" stroke="black" d="M275.7,-279.4C274.94,-266.37 274.09,-251.91 273.33,-238.91"/>
<polygon fill="black" stroke="black" points="276.83,-238.76 272.75,-228.98 269.84,-239.17 276.83,-238.76"/>
</g>
<!-- sigma&#45;&gt;iq -->
<g id="edge3" class="edge">
<title>sigma&#45;&gt;iq</title>
<path fill="none" stroke="black" d="M244.85,-169.27C231.47,-154.84 214.97,-137.06 200.37,-121.33"/>
<polygon fill="black" stroke="black" points="203.34,-119.38 193.97,-114.43 198.21,-124.14 203.34,-119.38"/>
</g>
<!-- mu&#45;&gt;iq -->
<g id="edge4" class="edge">
<title>mu&#45;&gt;iq</title>
<path fill="none" stroke="black" d="M163.27,-169.27C163.37,-158.44 163.48,-145.73 163.58,-133.41"/>
<polygon fill="black" stroke="black" points="167.08,-133.81 163.67,-123.78 160.08,-133.75 167.08,-133.81"/>
</g>
</g>
</svg>