<?xml version="1.0" encoding="UTF-8" standalone="no"?>
<!DOCTYPE svg PUBLIC "-//W3C//DTD SVG 1.1//EN"
 "http://www.w3.org/Graphics/SVG/1.1/DTD/svg11.dtd">
<!-- Generated by graphviz version 12.1.0 (20240811.2233)
 -->
<!-- Pages: 1 -->
<svg width="299pt" height="385pt"
 viewBox="0.00 0.00 298.54 384.95" xmlns="http://www.w3.org/2000/svg" xmlns:xlink="http://www.w3.org/1999/xlink">
<g id="graph0" class="graph" transform="scale(1 1) rotate(0) translate(4 380.95)">
<polygon fill="white" stroke="none" points="-4,4 -4,-380.95 294.54,-380.95 294.54,4 -4,4"/>
<g id="clust1" class="cluster">
<title>clusterC(floor)_dim (1)</title>
<path fill="none" stroke="black" d="M111.25,-247.13C111.25,-247.13 195.25,-247.13 195.25,-247.13 201.25,-247.13 207.25,-253.13 207.25,-259.13 207.25,-259.13 207.25,-356.95 207.25,-356.95 207.25,-362.95 201.25,-368.95 195.25,-368.95 195.25,-368.95 111.25,-368.95 111.25,-368.95 105.25,-368.95 99.25,-362.95 99.25,-356.95 99.25,-356.95 99.25,-259.13 99.25,-259.13 99.25,-253.13 105.25,-247.13 111.25,-247.13"/>
<text text-anchor="middle" x="153.13" y="-254.33" font-family="Times,serif" font-size="14.00">C(floor)_dim (1)</text>
</g>
<g id="clust2" class="cluster">
<title>cluster__obs__ (919)</title>
<path fill="none" stroke="black" d="M52.25,-8C52.25,-8 144.25,-8 144.25,-8 150.25,-8 156.25,-14 156.25,-20 156.25,-20 156.25,-223.23 156.25,-223.23 156.25,-229.23 150.25,-235.23 144.25,-235.23 144.25,-235.23 52.25,-235.23 52.25,-235.23 46.25,-235.23 40.25,-229.23 40.25,-223.23 40.25,-223.23 40.25,-20 40.25,-20 40.25,-14 46.25,-8 52.25,-8"/>
<text text-anchor="middle" x="108.88" y="-15.2" font-family="Times,serif" font-size="14.00">__obs__ (919)</text>
</g>
<!-- Intercept -->
<g id="node1" class="node">
<title>Intercept</title>
<ellipse fill="none" stroke="black" cx="45.25" cy="-320.29" rx="45.25" ry="40.66"/>
<text text-anchor="middle" x="45.25" y="-331.74" font-family="Times,serif" font-size="14.00">Intercept</text>
<text text-anchor="middle" x="45.25" y="-315.24" font-family="Times,serif" font-size="14.00">~</text>
<text text-anchor="middle" x="45.25" y="-298.74" font-family="Times,serif" font-size="14.00">Normal</text>
</g>
<!-- mu -->
<g id="node4" class="node">
<title>mu</title>
<polygon fill="none" stroke="black" points="143.38,-227.23 53.13,-227.23 53.13,-169.73 143.38,-169.73 143.38,-227.23"/>
<text text-anchor="middle" x="98.25" y="-209.93" font-family="Times,serif" font-size="14.00">mu</text>
<text text-anchor="middle" x="98.25" y="-193.43" font-family="Times,serif" font-size="14.00">~</text>
<text text-anchor="middle" x="98.25" y="-176.93" font-family="Times,serif" font-size="14.00">Deterministic</text>
</g>
<!-- Intercept&#45;&gt;mu -->
<g id="edge1" class="edge">
<title>Intercept&#45;&gt;mu</title>
<path fill="none" stroke="black" d="M61.73,-282.04C67.93,-268.02 74.99,-252.07 81.24,-237.95"/>
<polygon fill="black" stroke="black" points="84.37,-239.51 85.22,-228.95 77.97,-236.68 84.37,-239.51"/>
</g>
<!-- sigma -->
<g id="node2" class="node">
<title>sigma</title>
<ellipse fill="none" stroke="black" cx="227.25" cy="-198.48" rx="63.29" ry="40.66"/>
<text text-anchor="middle" x="227.25" y="-209.93" font-family="Times,serif" font-size="14.00">sigma</text>
<text text-anchor="middle" x="227.25" y="-193.43" font-family="Times,serif" font-size="14.00">~</text>
<text text-anchor="middle" x="227.25" y="-176.93" font-family="Times,serif" font-size="14.00">HalfStudentT</text>
</g>
<!-- log_radon -->
<g id="node5" class="node">
<title>log_radon</title>
<ellipse fill="lightgrey" stroke="black" cx="98.25" cy="-81.16" rx="50.03" ry="40.66"/>
<text text-anchor="middle" x="98.25" y="-92.61" font-family="Times,serif" font-size="14.00">log_radon</text>
<text text-anchor="middle" x="98.25" y="-76.11" font-family="Times,serif" font-size="14.00">~</text>
<text text-anchor="middle" x="98.25" y="-59.61" font-family="Times,serif" font-size="14.00">Normal</text>
</g>
<!-- sigma&#45;&gt;log_radon -->
<g id="edge4" class="edge">
<title>sigma&#45;&gt;log_radon</title>
<path fill="none" stroke="black" d="M190.98,-165.05C175.11,-150.86 156.41,-134.15 139.97,-119.45"/>
<polygon fill="black" stroke="black" points="142.53,-117.04 132.74,-112.99 137.86,-122.26 142.53,-117.04"/>
</g>
<!-- C(floor) -->
<g id="node3" class="node">
<title>C(floor)</title>
<ellipse fill="none" stroke="black" cx="151.25" cy="-320.29" rx="42.6" ry="40.66"/>
<text text-anchor="middle" x="151.25" y="-331.74" font-family="Times,serif" font-size="14.00">C(floor)</text>
<text text-anchor="middle" x="151.25" y="-315.24" font-family="Times,serif" font-size="14.00">~</text>
<text text-anchor="middle" x="151.25" y="-298.74" font-family="Times,serif" font-size="14.00">Normal</text>
</g>
<!-- C(floor)&#45;&gt;mu -->
<g id="edge2" class="edge">
<title>C(floor)&#45;&gt;mu</title>
<path fill="none" stroke="black" d="M134.92,-282.37C128.72,-268.34 121.63,-252.33 115.36,-238.15"/>
<polygon fill="black" stroke="black" points="118.61,-236.83 111.36,-229.1 112.2,-239.66 118.61,-236.83"/>
</g>
<!-- mu&#45;&gt;log_radon -->
<g id="edge3" class="edge">
<title>mu&#45;&gt;log_radon</title>
<path fill="none" stroke="black" d="M98.25,-169.27C98.25,-158.44 98.25,-145.73 98.25,-133.41"/>
<polygon fill="black" stroke="black" points="101.75,-133.78 98.25,-123.78 94.75,-133.78 101.75,-133.78"/>
</g>
</g>
</svg>