<?xml version="1.0" encoding="UTF-8" standalone="no"?>
<!DOCTYPE svg PUBLIC "-//W3C//DTD SVG 1.1//EN"
 "http://www.w3.org/Graphics/SVG/1.1/DTD/svg11.dtd">
<!-- Generated by graphviz version 2.43.0 (0)
 -->
<!-- Title: %3 Pages: 1 -->
<svg width="456pt" height="363pt"
 viewBox="0.00 0.00 456.12 362.86" xmlns="http://www.w3.org/2000/svg" xmlns:xlink="http://www.w3.org/1999/xlink">
<g id="graph0" class="graph" transform="scale(1 1) rotate(0) translate(4 358.86)">
<title>%3</title>
<polygon fill="white" stroke="transparent" points="-4,4 -4,-358.86 452.12,-358.86 452.12,4 -4,4"/>
<g id="clust1" class="cluster">
<title>clustergroup_dim (2)</title>
<path fill="none" stroke="black" d="M160.12,-232.91C160.12,-232.91 252.12,-232.91 252.12,-232.91 258.12,-232.91 264.12,-238.91 264.12,-244.91 264.12,-244.91 264.12,-334.86 264.12,-334.86 264.12,-340.86 258.12,-346.86 252.12,-346.86 252.12,-346.86 160.12,-346.86 160.12,-346.86 154.12,-346.86 148.12,-340.86 148.12,-334.86 148.12,-334.86 148.12,-244.91 148.12,-244.91 148.12,-238.91 154.12,-232.91 160.12,-232.91"/>
<text text-anchor="middle" x="206.12" y="-240.71" font-family="Times,serif" font-size="14.00">group_dim (2)</text>
</g>
<g id="clust2" class="cluster">
<title>clustersigma_group_dim (2)</title>
<path fill="none" stroke="black" d="M284.12,-232.91C284.12,-232.91 428.12,-232.91 428.12,-232.91 434.12,-232.91 440.12,-238.91 440.12,-244.91 440.12,-244.91 440.12,-334.86 440.12,-334.86 440.12,-340.86 434.12,-346.86 428.12,-346.86 428.12,-346.86 284.12,-346.86 284.12,-346.86 278.12,-346.86 272.12,-340.86 272.12,-334.86 272.12,-334.86 272.12,-244.91 272.12,-244.91 272.12,-238.91 278.12,-232.91 284.12,-232.91"/>
<text text-anchor="middle" x="357.12" y="-240.71" font-family="Times,serif" font-size="14.00">sigma_group_dim (2)</text>
</g>
<g id="clust3" class="cluster">
<title>cluster__obs__ (89)</title>
<path fill="none" stroke="black" d="M166.12,-8C166.12,-8 404.12,-8 404.12,-8 410.12,-8 416.12,-14 416.12,-20 416.12,-20 416.12,-209.93 416.12,-209.93 416.12,-215.93 410.12,-221.93 404.12,-221.93 404.12,-221.93 166.12,-221.93 166.12,-221.93 160.12,-221.93 154.12,-215.93 154.12,-209.93 154.12,-209.93 154.12,-20 154.12,-20 154.12,-14 160.12,-8 166.12,-8"/>
<text text-anchor="middle" x="365.62" y="-15.8" font-family="Times,serif" font-size="14.00">__obs__ (89)</text>
</g>
<!-- nu -->
<g id="node1" class="node">
<title>nu</title>
<ellipse fill="none" stroke="black" cx="72.12" cy="-187.43" rx="72.25" ry="37.45"/>
<text text-anchor="middle" x="72.12" y="-198.73" font-family="Times,serif" font-size="14.00">nu</text>
<text text-anchor="middle" x="72.12" y="-183.73" font-family="Times,serif" font-size="14.00">~</text>
<text text-anchor="middle" x="72.12" y="-168.73" font-family="Times,serif" font-size="14.00">Exponential</text>
</g>
<!-- iq -->
<g id="node5" class="node">
<title>iq</title>
<ellipse fill="lightgrey" stroke="black" cx="221.12" cy="-76.48" rx="58.88" ry="37.45"/>
<text text-anchor="middle" x="221.12" y="-87.78" font-family="Times,serif" font-size="14.00">iq</text>
<text text-anchor="middle" x="221.12" y="-72.78" font-family="Times,serif" font-size="14.00">~</text>
<text text-anchor="middle" x="221.12" y="-57.78" font-family="Times,serif" font-size="14.00">StudentT</text>
</g>
<!-- nu&#45;&gt;iq -->
<g id="edge4" class="edge">
<title>nu&#45;&gt;iq</title>
<path fill="none" stroke="black" d="M113.23,-156.37C132.38,-142.37 155.23,-125.66 174.97,-111.23"/>
<polygon fill="black" stroke="black" points="177.21,-113.93 183.21,-105.2 173.08,-108.28 177.21,-113.93"/>
</g>
<!-- group -->
<g id="node2" class="node">
<title>group</title>
<ellipse fill="none" stroke="black" cx="207.12" cy="-301.38" rx="49.49" ry="37.45"/>
<text text-anchor="middle" x="207.12" y="-312.68" font-family="Times,serif" font-size="14.00">group</text>
<text text-anchor="middle" x="207.12" y="-297.68" font-family="Times,serif" font-size="14.00">~</text>
<text text-anchor="middle" x="207.12" y="-282.68" font-family="Times,serif" font-size="14.00">Normal</text>
</g>
<!-- mu -->
<g id="node4" class="node">
<title>mu</title>
<polygon fill="none" stroke="black" points="276.12,-213.93 162.12,-213.93 162.12,-160.93 276.12,-160.93 276.12,-213.93"/>
<text text-anchor="middle" x="219.12" y="-198.73" font-family="Times,serif" font-size="14.00">mu</text>
<text text-anchor="middle" x="219.12" y="-183.73" font-family="Times,serif" font-size="14.00">~</text>
<text text-anchor="middle" x="219.12" y="-168.73" font-family="Times,serif" font-size="14.00">Deterministic</text>
</g>
<!-- group&#45;&gt;mu -->
<g id="edge1" class="edge">
<title>group&#45;&gt;mu</title>
<path fill="none" stroke="black" d="M211.05,-263.73C212.41,-251.07 213.93,-236.92 215.28,-224.32"/>
<polygon fill="black" stroke="black" points="218.78,-224.5 216.36,-214.18 211.82,-223.75 218.78,-224.5"/>
</g>
<!-- sigma_group -->
<g id="node3" class="node">
<title>sigma_group</title>
<ellipse fill="none" stroke="black" cx="356.12" cy="-301.38" rx="76.24" ry="37.45"/>
<text text-anchor="middle" x="356.12" y="-312.68" font-family="Times,serif" font-size="14.00">sigma_group</text>
<text text-anchor="middle" x="356.12" y="-297.68" font-family="Times,serif" font-size="14.00">~</text>
<text text-anchor="middle" x="356.12" y="-282.68" font-family="Times,serif" font-size="14.00">Uniform</text>
</g>
<!-- sigma -->
<g id="node6" class="node">
<title>sigma</title>
<polygon fill="none" stroke="black" points="408.12,-213.93 294.12,-213.93 294.12,-160.93 408.12,-160.93 408.12,-213.93"/>
<text text-anchor="middle" x="351.12" y="-198.73" font-family="Times,serif" font-size="14.00">sigma</text>
<text text-anchor="middle" x="351.12" y="-183.73" font-family="Times,serif" font-size="14.00">~</text>
<text text-anchor="middle" x="351.12" y="-168.73" font-family="Times,serif" font-size="14.00">Deterministic</text>
</g>
<!-- sigma_group&#45;&gt;sigma -->
<g id="edge2" class="edge">
<title>sigma_group&#45;&gt;sigma</title>
<path fill="none" stroke="black" d="M354.49,-263.73C353.92,-251.07 353.29,-236.92 352.73,-224.32"/>
<polygon fill="black" stroke="black" points="356.22,-224.01 352.27,-214.18 349.22,-224.33 356.22,-224.01"/>
</g>
<!-- mu&#45;&gt;iq -->
<g id="edge3" class="edge">
<title>mu&#45;&gt;iq</title>
<path fill="none" stroke="black" d="M219.59,-160.89C219.79,-149.98 220.03,-136.89 220.26,-124.35"/>
<polygon fill="black" stroke="black" points="223.77,-124.06 220.45,-114 216.77,-123.94 223.77,-124.06"/>
</g>
<!-- sigma&#45;&gt;iq -->
<g id="edge5" class="edge">
<title>sigma&#45;&gt;iq</title>
<path fill="none" stroke="black" d="M320.65,-160.89C303.7,-146.69 282.35,-128.79 263.78,-113.22"/>
<polygon fill="black" stroke="black" points="265.92,-110.45 256.01,-106.71 261.42,-115.82 265.92,-110.45"/>
</g>
</g>
</svg>