<?xml version="1.0" encoding="UTF-8" standalone="no"?>
<!DOCTYPE svg PUBLIC "-//W3C//DTD SVG 1.1//EN"
 "http://www.w3.org/Graphics/SVG/1.1/DTD/svg11.dtd">
<!-- Generated by graphviz version 2.43.0 (0)
 -->
<!-- Title: %3 Pages: 1 -->
<svg width="810pt" height="485pt"
 viewBox="0.00 0.00 810.00 484.81" xmlns="http://www.w3.org/2000/svg" xmlns:xlink="http://www.w3.org/1999/xlink">
<g id="graph0" class="graph" transform="scale(1 1) rotate(0) translate(4 480.81)">
<title>%3</title>
<polygon fill="white" stroke="transparent" points="-4,4 -4,-480.81 806,-480.81 806,4 -4,4"/>
<g id="clust1" class="cluster">
<title>clusterfloor_dim (1)</title>
<path fill="none" stroke="black" d="M344,-232.91C344,-232.91 434,-232.91 434,-232.91 440,-232.91 446,-238.91 446,-244.91 446,-244.91 446,-334.86 446,-334.86 446,-340.86 440,-346.86 434,-346.86 434,-346.86 344,-346.86 344,-346.86 338,-346.86 332,-340.86 332,-334.86 332,-334.86 332,-244.91 332,-244.91 332,-238.91 338,-232.91 344,-232.91"/>
<text text-anchor="middle" x="392.5" y="-240.71" font-family="Times,serif" font-size="14.00">floor_dim (1)</text>
</g>
<g id="clust2" class="cluster">
<title>clustercounty__factor_dim (85)</title>
<path fill="none" stroke="black" d="M20,-232.91C20,-232.91 183,-232.91 183,-232.91 189,-232.91 195,-238.91 195,-244.91 195,-244.91 195,-334.86 195,-334.86 195,-340.86 189,-346.86 183,-346.86 183,-346.86 20,-346.86 20,-346.86 14,-346.86 8,-340.86 8,-334.86 8,-334.86 8,-244.91 8,-244.91 8,-238.91 14,-232.91 20,-232.91"/>
<text text-anchor="middle" x="101.5" y="-240.71" font-family="Times,serif" font-size="14.00">county__factor_dim (85)</text>
</g>
<g id="clust3" class="cluster">
<title>clusterfloor__expr_dim (1)</title>
<path fill="none" stroke="black" d="M430,-354.86C430,-354.86 636,-354.86 636,-354.86 642,-354.86 648,-360.86 648,-366.86 648,-366.86 648,-456.81 648,-456.81 648,-462.81 642,-468.81 636,-468.81 636,-468.81 430,-468.81 430,-468.81 424,-468.81 418,-462.81 418,-456.81 418,-456.81 418,-366.86 418,-366.86 418,-360.86 424,-354.86 430,-354.86"/>
<text text-anchor="middle" x="572" y="-362.66" font-family="Times,serif" font-size="14.00">floor__expr_dim (1)</text>
</g>
<g id="clust4" class="cluster">
<title>clustercounty__factor_dim (85) x floor__expr_dim (1)</title>
<path fill="none" stroke="black" d="M466,-232.91C466,-232.91 782,-232.91 782,-232.91 788,-232.91 794,-238.91 794,-244.91 794,-244.91 794,-334.86 794,-334.86 794,-340.86 788,-346.86 782,-346.86 782,-346.86 466,-346.86 466,-346.86 460,-346.86 454,-340.86 454,-334.86 454,-334.86 454,-244.91 454,-244.91 454,-238.91 460,-232.91 466,-232.91"/>
<text text-anchor="middle" x="624" y="-240.71" font-family="Times,serif" font-size="14.00">county__factor_dim (85) x floor__expr_dim (1)</text>
</g>
<g id="clust5" class="cluster">
<title>cluster__obs__ (919)</title>
<path fill="none" stroke="black" d="M269,-8C269,-8 383,-8 383,-8 389,-8 395,-14 395,-20 395,-20 395,-209.93 395,-209.93 395,-215.93 389,-221.93 383,-221.93 383,-221.93 269,-221.93 269,-221.93 263,-221.93 257,-215.93 257,-209.93 257,-209.93 257,-20 257,-20 257,-14 263,-8 269,-8"/>
<text text-anchor="middle" x="340" y="-15.8" font-family="Times,serif" font-size="14.00">__obs__ (919)</text>
</g>
<!-- 1|county_sigma -->
<g id="node1" class="node">
<title>1|county_sigma</title>
<ellipse fill="none" stroke="black" cx="131" cy="-423.34" rx="90.52" ry="37.45"/>
<text text-anchor="middle" x="131" y="-434.64" font-family="Times,serif" font-size="14.00">1|county_sigma</text>
<text text-anchor="middle" x="131" y="-419.64" font-family="Times,serif" font-size="14.00">~</text>
<text text-anchor="middle" x="131" y="-404.64" font-family="Times,serif" font-size="14.00">Exponential</text>
</g>
<!-- 1|county -->
<g id="node5" class="node">
<title>1|county</title>
<ellipse fill="none" stroke="black" cx="131" cy="-301.38" rx="55.31" ry="37.45"/>
<text text-anchor="middle" x="131" y="-312.68" font-family="Times,serif" font-size="14.00">1|county</text>
<text text-anchor="middle" x="131" y="-297.68" font-family="Times,serif" font-size="14.00">~</text>
<text text-anchor="middle" x="131" y="-282.68" font-family="Times,serif" font-size="14.00">Normal</text>
</g>
<!-- 1|county_sigma&#45;&gt;1|county -->
<g id="edge1" class="edge">
<title>1|county_sigma&#45;&gt;1|county</title>
<path fill="none" stroke="black" d="M131,-385.69C131,-374.29 131,-361.55 131,-349.54"/>
<polygon fill="black" stroke="black" points="134.5,-349.21 131,-339.21 127.5,-349.21 134.5,-349.21"/>
</g>
<!-- Intercept -->
<g id="node2" class="node">
<title>Intercept</title>
<ellipse fill="none" stroke="black" cx="263" cy="-301.38" rx="58.88" ry="37.45"/>
<text text-anchor="middle" x="263" y="-312.68" font-family="Times,serif" font-size="14.00">Intercept</text>
<text text-anchor="middle" x="263" y="-297.68" font-family="Times,serif" font-size="14.00">~</text>
<text text-anchor="middle" x="263" y="-282.68" font-family="Times,serif" font-size="14.00">Normal</text>
</g>
<!-- mu -->
<g id="node9" class="node">
<title>mu</title>
<polygon fill="none" stroke="black" points="383,-213.93 269,-213.93 269,-160.93 383,-160.93 383,-213.93"/>
<text text-anchor="middle" x="326" y="-198.73" font-family="Times,serif" font-size="14.00">mu</text>
<text text-anchor="middle" x="326" y="-183.73" font-family="Times,serif" font-size="14.00">~</text>
<text text-anchor="middle" x="326" y="-168.73" font-family="Times,serif" font-size="14.00">Deterministic</text>
</g>
<!-- Intercept&#45;&gt;mu -->
<g id="edge6" class="edge">
<title>Intercept&#45;&gt;mu</title>
<path fill="none" stroke="black" d="M282.42,-265.88C290.05,-252.31 298.81,-236.75 306.46,-223.16"/>
<polygon fill="black" stroke="black" points="309.7,-224.54 311.55,-214.11 303.6,-221.11 309.7,-224.54"/>
</g>
<!-- sigma -->
<g id="node3" class="node">
<title>sigma</title>
<ellipse fill="none" stroke="black" cx="483" cy="-187.43" rx="79.81" ry="37.45"/>
<text text-anchor="middle" x="483" y="-198.73" font-family="Times,serif" font-size="14.00">sigma</text>
<text text-anchor="middle" x="483" y="-183.73" font-family="Times,serif" font-size="14.00">~</text>
<text text-anchor="middle" x="483" y="-168.73" font-family="Times,serif" font-size="14.00">HalfStudentT</text>
</g>
<!-- log_radon -->
<g id="node8" class="node">
<title>log_radon</title>
<ellipse fill="lightgrey" stroke="black" cx="326" cy="-76.48" rx="60.62" ry="37.45"/>
<text text-anchor="middle" x="326" y="-87.78" font-family="Times,serif" font-size="14.00">log_radon</text>
<text text-anchor="middle" x="326" y="-72.78" font-family="Times,serif" font-size="14.00">~</text>
<text text-anchor="middle" x="326" y="-57.78" font-family="Times,serif" font-size="14.00">Normal</text>
</g>
<!-- sigma&#45;&gt;log_radon -->
<g id="edge8" class="edge">
<title>sigma&#45;&gt;log_radon</title>
<path fill="none" stroke="black" d="M438.85,-155.79C418.68,-141.79 394.75,-125.18 374.12,-110.87"/>
<polygon fill="black" stroke="black" points="376.01,-107.92 365.8,-105.1 372.02,-113.67 376.01,-107.92"/>
</g>
<!-- floor -->
<g id="node4" class="node">
<title>floor</title>
<ellipse fill="none" stroke="black" cx="389" cy="-301.38" rx="49.49" ry="37.45"/>
<text text-anchor="middle" x="389" y="-312.68" font-family="Times,serif" font-size="14.00">floor</text>
<text text-anchor="middle" x="389" y="-297.68" font-family="Times,serif" font-size="14.00">~</text>
<text text-anchor="middle" x="389" y="-282.68" font-family="Times,serif" font-size="14.00">Normal</text>
</g>
<!-- floor&#45;&gt;mu -->
<g id="edge3" class="edge">
<title>floor&#45;&gt;mu</title>
<path fill="none" stroke="black" d="M369.93,-266.49C362.14,-252.66 353.15,-236.68 345.34,-222.8"/>
<polygon fill="black" stroke="black" points="348.36,-221.03 340.4,-214.03 342.26,-224.46 348.36,-221.03"/>
</g>
<!-- 1|county&#45;&gt;mu -->
<g id="edge4" class="edge">
<title>1|county&#45;&gt;mu</title>
<path fill="none" stroke="black" d="M156.02,-267.88C166.88,-255.54 180.45,-242.22 195,-232.91 214.38,-220.5 237.61,-211.14 259.09,-204.3"/>
<polygon fill="black" stroke="black" points="260.27,-207.6 268.81,-201.33 258.22,-200.9 260.27,-207.6"/>
</g>
<!-- floor|county_sigma -->
<g id="node6" class="node">
<title>floor|county_sigma</title>
<ellipse fill="none" stroke="black" cx="533" cy="-423.34" rx="106.55" ry="37.45"/>
<text text-anchor="middle" x="533" y="-434.64" font-family="Times,serif" font-size="14.00">floor|county_sigma</text>
<text text-anchor="middle" x="533" y="-419.64" font-family="Times,serif" font-size="14.00">~</text>
<text text-anchor="middle" x="533" y="-404.64" font-family="Times,serif" font-size="14.00">Exponential</text>
</g>
<!-- floor|county -->
<g id="node7" class="node">
<title>floor|county</title>
<ellipse fill="none" stroke="black" cx="533" cy="-301.38" rx="71.34" ry="37.45"/>
<text text-anchor="middle" x="533" y="-312.68" font-family="Times,serif" font-size="14.00">floor|county</text>
<text text-anchor="middle" x="533" y="-297.68" font-family="Times,serif" font-size="14.00">~</text>
<text text-anchor="middle" x="533" y="-282.68" font-family="Times,serif" font-size="14.00">Normal</text>
</g>
<!-- floor|county_sigma&#45;&gt;floor|county -->
<g id="edge2" class="edge">
<title>floor|county_sigma&#45;&gt;floor|county</title>
<path fill="none" stroke="black" d="M533,-385.69C533,-374.29 533,-361.55 533,-349.54"/>
<polygon fill="black" stroke="black" points="536.5,-349.21 533,-339.21 529.5,-349.21 536.5,-349.21"/>
</g>
<!-- floor|county&#45;&gt;mu -->
<g id="edge5" class="edge">
<title>floor|county&#45;&gt;mu</title>
<path fill="none" stroke="black" d="M501.07,-267.56C486.67,-254.7 468.72,-241.09 450,-232.91 426.96,-222.83 417.89,-232.75 394,-224.91 388.46,-223.09 382.83,-220.83 377.31,-218.34"/>
<polygon fill="black" stroke="black" points="378.68,-215.12 368.15,-213.96 375.66,-221.43 378.68,-215.12"/>
</g>
<!-- mu&#45;&gt;log_radon -->
<g id="edge7" class="edge">
<title>mu&#45;&gt;log_radon</title>
<path fill="none" stroke="black" d="M326,-160.89C326,-149.98 326,-136.89 326,-124.35"/>
<polygon fill="black" stroke="black" points="329.5,-124 326,-114 322.5,-124 329.5,-124"/>
</g>
</g>
</svg>