<?xml version="1.0" encoding="UTF-8" standalone="no"?>
<!DOCTYPE svg PUBLIC "-//W3C//DTD SVG 1.1//EN"
 "http://www.w3.org/Graphics/SVG/1.1/DTD/svg11.dtd">
<!-- Generated by graphviz version 2.43.0 (0)
 -->
<!-- Title: %3 Pages: 1 -->
<svg width="453pt" height="458pt"
 viewBox="0.00 0.00 452.69 457.81" xmlns="http://www.w3.org/2000/svg" xmlns:xlink="http://www.w3.org/1999/xlink">
<g id="graph0" class="graph" transform="scale(1 1) rotate(0) translate(4 453.81)">
<title>%3</title>
<polygon fill="white" stroke="transparent" points="-4,4 -4,-453.81 448.69,-453.81 448.69,4 -4,4"/>
<g id="clust1" class="cluster">
<title>clusterfloor_dim (1)</title>
<path fill="none" stroke="black" d="M139.69,-232.91C139.69,-232.91 229.69,-232.91 229.69,-232.91 235.69,-232.91 241.69,-238.91 241.69,-244.91 241.69,-244.91 241.69,-334.86 241.69,-334.86 241.69,-340.86 235.69,-346.86 229.69,-346.86 229.69,-346.86 139.69,-346.86 139.69,-346.86 133.69,-346.86 127.69,-340.86 127.69,-334.86 127.69,-334.86 127.69,-244.91 127.69,-244.91 127.69,-238.91 133.69,-232.91 139.69,-232.91"/>
<text text-anchor="middle" x="188.19" y="-240.71" font-family="Times,serif" font-size="14.00">floor_dim (1)</text>
</g>
<g id="clust2" class="cluster">
<title>clustercounty__factor_dim (85)</title>
<path fill="none" stroke="black" d="M261.69,-232.91C261.69,-232.91 424.69,-232.91 424.69,-232.91 430.69,-232.91 436.69,-238.91 436.69,-244.91 436.69,-244.91 436.69,-334.86 436.69,-334.86 436.69,-340.86 430.69,-346.86 424.69,-346.86 424.69,-346.86 261.69,-346.86 261.69,-346.86 255.69,-346.86 249.69,-340.86 249.69,-334.86 249.69,-334.86 249.69,-244.91 249.69,-244.91 249.69,-238.91 255.69,-232.91 261.69,-232.91"/>
<text text-anchor="middle" x="343.19" y="-240.71" font-family="Times,serif" font-size="14.00">county__factor_dim (85)</text>
</g>
<g id="clust3" class="cluster">
<title>cluster__obs__ (919)</title>
<path fill="none" stroke="black" d="M127.69,-8C127.69,-8 241.69,-8 241.69,-8 247.69,-8 253.69,-14 253.69,-20 253.69,-20 253.69,-209.93 253.69,-209.93 253.69,-215.93 247.69,-221.93 241.69,-221.93 241.69,-221.93 127.69,-221.93 127.69,-221.93 121.69,-221.93 115.69,-215.93 115.69,-209.93 115.69,-209.93 115.69,-20 115.69,-20 115.69,-14 121.69,-8 127.69,-8"/>
<text text-anchor="middle" x="198.69" y="-15.8" font-family="Times,serif" font-size="14.00">__obs__ (919)</text>
</g>
<!-- Intercept -->
<g id="node1" class="node">
<title>Intercept</title>
<ellipse fill="none" stroke="black" cx="58.69" cy="-301.38" rx="58.88" ry="37.45"/>
<text text-anchor="middle" x="58.69" y="-312.68" font-family="Times,serif" font-size="14.00">Intercept</text>
<text text-anchor="middle" x="58.69" y="-297.68" font-family="Times,serif" font-size="14.00">~</text>
<text text-anchor="middle" x="58.69" y="-282.68" font-family="Times,serif" font-size="14.00">Normal</text>
</g>
<!-- mu -->
<g id="node6" class="node">
<title>mu</title>
<polygon fill="none" stroke="black" points="241.69,-213.93 127.69,-213.93 127.69,-160.93 241.69,-160.93 241.69,-213.93"/>
<text text-anchor="middle" x="184.69" y="-198.73" font-family="Times,serif" font-size="14.00">mu</text>
<text text-anchor="middle" x="184.69" y="-183.73" font-family="Times,serif" font-size="14.00">~</text>
<text text-anchor="middle" x="184.69" y="-168.73" font-family="Times,serif" font-size="14.00">Deterministic</text>
</g>
<!-- Intercept&#45;&gt;mu -->
<g id="edge2" class="edge">
<title>Intercept&#45;&gt;mu</title>
<path fill="none" stroke="black" d="M87.38,-268.34C98.33,-256.74 111.18,-243.81 123.69,-232.91 128.55,-228.67 133.8,-224.41 139.1,-220.31"/>
<polygon fill="black" stroke="black" points="141.58,-222.83 147.44,-214 137.35,-217.24 141.58,-222.83"/>
</g>
<!-- sigma -->
<g id="node2" class="node">
<title>sigma</title>
<ellipse fill="none" stroke="black" cx="341.69" cy="-187.43" rx="79.81" ry="37.45"/>
<text text-anchor="middle" x="341.69" y="-198.73" font-family="Times,serif" font-size="14.00">sigma</text>
<text text-anchor="middle" x="341.69" y="-183.73" font-family="Times,serif" font-size="14.00">~</text>
<text text-anchor="middle" x="341.69" y="-168.73" font-family="Times,serif" font-size="14.00">HalfStudentT</text>
</g>
<!-- log_radon -->
<g id="node7" class="node">
<title>log_radon</title>
<ellipse fill="lightgrey" stroke="black" cx="184.69" cy="-76.48" rx="60.62" ry="37.45"/>
<text text-anchor="middle" x="184.69" y="-87.78" font-family="Times,serif" font-size="14.00">log_radon</text>
<text text-anchor="middle" x="184.69" y="-72.78" font-family="Times,serif" font-size="14.00">~</text>
<text text-anchor="middle" x="184.69" y="-57.78" font-family="Times,serif" font-size="14.00">Normal</text>
</g>
<!-- sigma&#45;&gt;log_radon -->
<g id="edge6" class="edge">
<title>sigma&#45;&gt;log_radon</title>
<path fill="none" stroke="black" d="M297.54,-155.79C277.37,-141.79 253.44,-125.18 232.81,-110.87"/>
<polygon fill="black" stroke="black" points="234.7,-107.92 224.49,-105.1 230.71,-113.67 234.7,-107.92"/>
</g>
<!-- 1|county_sigma -->
<g id="node3" class="node">
<title>1|county_sigma</title>
<ellipse fill="none" stroke="black" cx="312.69" cy="-412.34" rx="90.52" ry="37.45"/>
<text text-anchor="middle" x="312.69" y="-423.64" font-family="Times,serif" font-size="14.00">1|county_sigma</text>
<text text-anchor="middle" x="312.69" y="-408.64" font-family="Times,serif" font-size="14.00">~</text>
<text text-anchor="middle" x="312.69" y="-393.64" font-family="Times,serif" font-size="14.00">Exponential</text>
</g>
<!-- 1|county -->
<g id="node5" class="node">
<title>1|county</title>
<ellipse fill="none" stroke="black" cx="312.69" cy="-301.38" rx="55.31" ry="37.45"/>
<text text-anchor="middle" x="312.69" y="-312.68" font-family="Times,serif" font-size="14.00">1|county</text>
<text text-anchor="middle" x="312.69" y="-297.68" font-family="Times,serif" font-size="14.00">~</text>
<text text-anchor="middle" x="312.69" y="-282.68" font-family="Times,serif" font-size="14.00">Normal</text>
</g>
<!-- 1|county_sigma&#45;&gt;1|county -->
<g id="edge1" class="edge">
<title>1|county_sigma&#45;&gt;1|county</title>
<path fill="none" stroke="black" d="M312.69,-374.75C312.69,-366.58 312.69,-357.8 312.69,-349.27"/>
<polygon fill="black" stroke="black" points="316.19,-349.06 312.69,-339.06 309.19,-349.06 316.19,-349.06"/>
</g>
<!-- floor -->
<g id="node4" class="node">
<title>floor</title>
<ellipse fill="none" stroke="black" cx="184.69" cy="-301.38" rx="49.49" ry="37.45"/>
<text text-anchor="middle" x="184.69" y="-312.68" font-family="Times,serif" font-size="14.00">floor</text>
<text text-anchor="middle" x="184.69" y="-297.68" font-family="Times,serif" font-size="14.00">~</text>
<text text-anchor="middle" x="184.69" y="-282.68" font-family="Times,serif" font-size="14.00">Normal</text>
</g>
<!-- floor&#45;&gt;mu -->
<g id="edge3" class="edge">
<title>floor&#45;&gt;mu</title>
<path fill="none" stroke="black" d="M184.69,-263.73C184.69,-251.07 184.69,-236.92 184.69,-224.32"/>
<polygon fill="black" stroke="black" points="188.19,-224.18 184.69,-214.18 181.19,-224.18 188.19,-224.18"/>
</g>
<!-- 1|county&#45;&gt;mu -->
<g id="edge4" class="edge">
<title>1|county&#45;&gt;mu</title>
<path fill="none" stroke="black" d="M283.66,-269.1C272.22,-257.32 258.72,-244.09 245.69,-232.91 240.8,-228.7 235.53,-224.47 230.21,-220.38"/>
<polygon fill="black" stroke="black" points="231.96,-217.31 221.87,-214.09 227.74,-222.9 231.96,-217.31"/>
</g>
<!-- mu&#45;&gt;log_radon -->
<g id="edge5" class="edge">
<title>mu&#45;&gt;log_radon</title>
<path fill="none" stroke="black" d="M184.69,-160.89C184.69,-149.98 184.69,-136.89 184.69,-124.35"/>
<polygon fill="black" stroke="black" points="188.19,-124 184.69,-114 181.19,-124 188.19,-124"/>
</g>
</g>
</svg>