<?xml version="1.0" encoding="UTF-8" standalone="no"?>
<!DOCTYPE svg PUBLIC "-//W3C//DTD SVG 1.1//EN"
 "http://www.w3.org/Graphics/SVG/1.1/DTD/svg11.dtd">
<!-- Generated by graphviz version 2.43.0 (0)
 -->
<!-- Title: %3 Pages: 1 -->
<svg width="476pt" height="344pt"
 viewBox="0.00 0.00 476.19 343.86" xmlns="http://www.w3.org/2000/svg" xmlns:xlink="http://www.w3.org/1999/xlink">
<g id="graph0" class="graph" transform="scale(1 1) rotate(0) translate(4 339.86)">
<title>%3</title>
<polygon fill="white" stroke="transparent" points="-4,4 -4,-339.86 472.19,-339.86 472.19,4 -4,4"/>
<g id="clust1" class="cluster">
<title>cluster__obs__ (156)</title>
<path fill="none" stroke="black" d="M171.5,-8C171.5,-8 277.5,-8 277.5,-8 283.5,-8 289.5,-14 289.5,-20 289.5,-20 289.5,-209.93 289.5,-209.93 289.5,-215.93 283.5,-221.93 277.5,-221.93 277.5,-221.93 171.5,-221.93 171.5,-221.93 165.5,-221.93 159.5,-215.93 159.5,-209.93 159.5,-209.93 159.5,-20 159.5,-20 159.5,-14 165.5,-8 171.5,-8"/>
<text text-anchor="middle" x="234.5" y="-15.8" font-family="Times,serif" font-size="14.00">__obs__ (156)</text>
</g>
<!-- alc -->
<g id="node1" class="node">
<title>alc</title>
<ellipse fill="none" stroke="black" cx="49.5" cy="-298.38" rx="49.49" ry="37.45"/>
<text text-anchor="middle" x="49.5" y="-309.68" font-family="Times,serif" font-size="14.00">alc</text>
<text text-anchor="middle" x="49.5" y="-294.68" font-family="Times,serif" font-size="14.00">~</text>
<text text-anchor="middle" x="49.5" y="-279.68" font-family="Times,serif" font-size="14.00">Normal</text>
</g>
<!-- mu -->
<g id="node6" class="node">
<title>mu</title>
<polygon fill="none" stroke="black" points="281.5,-213.93 167.5,-213.93 167.5,-160.93 281.5,-160.93 281.5,-213.93"/>
<text text-anchor="middle" x="224.5" y="-198.73" font-family="Times,serif" font-size="14.00">mu</text>
<text text-anchor="middle" x="224.5" y="-183.73" font-family="Times,serif" font-size="14.00">~</text>
<text text-anchor="middle" x="224.5" y="-168.73" font-family="Times,serif" font-size="14.00">Deterministic</text>
</g>
<!-- alc&#45;&gt;mu -->
<g id="edge4" class="edge">
<title>alc&#45;&gt;mu</title>
<path fill="none" stroke="black" d="M87.47,-273.74C112.96,-257.87 146.81,-236.8 174.49,-219.57"/>
<polygon fill="black" stroke="black" points="176.6,-222.37 183.24,-214.12 172.9,-216.43 176.6,-222.37"/>
</g>
<!-- weed -->
<g id="node2" class="node">
<title>weed</title>
<ellipse fill="none" stroke="black" cx="166.5" cy="-298.38" rx="49.49" ry="37.45"/>
<text text-anchor="middle" x="166.5" y="-309.68" font-family="Times,serif" font-size="14.00">weed</text>
<text text-anchor="middle" x="166.5" y="-294.68" font-family="Times,serif" font-size="14.00">~</text>
<text text-anchor="middle" x="166.5" y="-279.68" font-family="Times,serif" font-size="14.00">Normal</text>
</g>
<!-- weed&#45;&gt;mu -->
<g id="edge3" class="edge">
<title>weed&#45;&gt;mu</title>
<path fill="none" stroke="black" d="M184.69,-263.21C191.48,-250.45 199.19,-235.96 206.01,-223.16"/>
<polygon fill="black" stroke="black" points="209.18,-224.65 210.79,-214.18 203,-221.36 209.18,-224.65"/>
</g>
<!-- sigma -->
<g id="node3" class="node">
<title>sigma</title>
<ellipse fill="none" stroke="black" cx="375.5" cy="-187.43" rx="75.82" ry="37.45"/>
<text text-anchor="middle" x="375.5" y="-198.73" font-family="Times,serif" font-size="14.00">sigma</text>
<text text-anchor="middle" x="375.5" y="-183.73" font-family="Times,serif" font-size="14.00">~</text>
<text text-anchor="middle" x="375.5" y="-168.73" font-family="Times,serif" font-size="14.00">Halfstudentt</text>
</g>
<!-- score -->
<g id="node7" class="node">
<title>score</title>
<ellipse fill="lightgrey" stroke="black" cx="228.5" cy="-76.48" rx="49.49" ry="37.45"/>
<text text-anchor="middle" x="228.5" y="-87.78" font-family="Times,serif" font-size="14.00">score</text>
<text text-anchor="middle" x="228.5" y="-72.78" font-family="Times,serif" font-size="14.00">~</text>
<text text-anchor="middle" x="228.5" y="-57.78" font-family="Times,serif" font-size="14.00">Normal</text>
</g>
<!-- sigma&#45;&gt;score -->
<g id="edge6" class="edge">
<title>sigma&#45;&gt;score</title>
<path fill="none" stroke="black" d="M334.16,-155.79C314.69,-141.36 291.47,-124.15 271.77,-109.55"/>
<polygon fill="black" stroke="black" points="273.68,-106.61 263.56,-103.46 269.51,-112.23 273.68,-106.61"/>
</g>
<!-- exrc -->
<g id="node4" class="node">
<title>exrc</title>
<ellipse fill="none" stroke="black" cx="283.5" cy="-298.38" rx="49.49" ry="37.45"/>
<text text-anchor="middle" x="283.5" y="-309.68" font-family="Times,serif" font-size="14.00">exrc</text>
<text text-anchor="middle" x="283.5" y="-294.68" font-family="Times,serif" font-size="14.00">~</text>
<text text-anchor="middle" x="283.5" y="-279.68" font-family="Times,serif" font-size="14.00">Normal</text>
</g>
<!-- exrc&#45;&gt;mu -->
<g id="edge2" class="edge">
<title>exrc&#45;&gt;mu</title>
<path fill="none" stroke="black" d="M265.15,-263.51C258.18,-250.64 250.24,-235.97 243.24,-223.04"/>
<polygon fill="black" stroke="black" points="246.17,-221.1 238.33,-213.97 240.01,-224.43 246.17,-221.1"/>
</g>
<!-- Intercept -->
<g id="node5" class="node">
<title>Intercept</title>
<ellipse fill="none" stroke="black" cx="409.5" cy="-298.38" rx="58.88" ry="37.45"/>
<text text-anchor="middle" x="409.5" y="-309.68" font-family="Times,serif" font-size="14.00">Intercept</text>
<text text-anchor="middle" x="409.5" y="-294.68" font-family="Times,serif" font-size="14.00">~</text>
<text text-anchor="middle" x="409.5" y="-279.68" font-family="Times,serif" font-size="14.00">Normal</text>
</g>
<!-- Intercept&#45;&gt;mu -->
<g id="edge1" class="edge">
<title>Intercept&#45;&gt;mu</title>
<path fill="none" stroke="black" d="M367.05,-272.39C340.18,-256.56 305.24,-235.98 276.67,-219.16"/>
<polygon fill="black" stroke="black" points="278.42,-216.13 268.03,-214.07 274.87,-222.16 278.42,-216.13"/>
</g>
<!-- mu&#45;&gt;score -->
<g id="edge5" class="edge">
<title>mu&#45;&gt;score</title>
<path fill="none" stroke="black" d="M225.44,-160.89C225.84,-149.98 226.32,-136.89 226.78,-124.35"/>
<polygon fill="black" stroke="black" points="230.29,-124.12 227.16,-114 223.29,-123.87 230.29,-124.12"/>
</g>
</g>
</svg>