<?xml version="1.0" encoding="UTF-8" standalone="no"?>
<!DOCTYPE svg PUBLIC "-//W3C//DTD SVG 1.1//EN"
 "http://www.w3.org/Graphics/SVG/1.1/DTD/svg11.dtd">
<!-- Generated by graphviz version 2.43.0 (0)
 -->
<!-- Title: %3 Pages: 1 -->
<svg width="748pt" height="455pt"
 viewBox="0.00 0.00 748.16 454.84" xmlns="http://www.w3.org/2000/svg" xmlns:xlink="http://www.w3.org/1999/xlink">
<g id="graph0" class="graph" transform="scale(1 1) rotate(0) translate(4 450.84)">
<title>%3</title>
<polygon fill="white" stroke="transparent" points="-4,4 -4,-450.84 744.16,-450.84 744.16,4 -4,4"/>
<g id="clust1" class="cluster">
<title>clusterpredictors (10)</title>
<path fill="none" stroke="black" d="M172.66,-129.95C172.66,-129.95 432.66,-129.95 432.66,-129.95 438.66,-129.95 444.66,-135.95 444.66,-141.95 444.66,-141.95 444.66,-331.88 444.66,-331.88 444.66,-337.88 438.66,-343.88 432.66,-343.88 432.66,-343.88 172.66,-343.88 172.66,-343.88 166.66,-343.88 160.66,-337.88 160.66,-331.88 160.66,-331.88 160.66,-141.95 160.66,-141.95 160.66,-135.95 166.66,-129.95 172.66,-129.95"/>
<text text-anchor="middle" x="383.16" y="-137.75" font-family="Times,serif" font-size="14.00">predictors (10)</text>
</g>
<g id="clust2" class="cluster">
<title>cluster101</title>
<path fill="none" stroke="black" d="M568.66,-8C568.66,-8 658.66,-8 658.66,-8 664.66,-8 670.66,-14 670.66,-20 670.66,-20 670.66,-109.95 670.66,-109.95 670.66,-115.95 664.66,-121.95 658.66,-121.95 658.66,-121.95 568.66,-121.95 568.66,-121.95 562.66,-121.95 556.66,-115.95 556.66,-109.95 556.66,-109.95 556.66,-20 556.66,-20 556.66,-14 562.66,-8 568.66,-8"/>
<text text-anchor="middle" x="648.66" y="-15.8" font-family="Times,serif" font-size="14.00">101</text>
</g>
<!-- tau -->
<g id="node1" class="node">
<title>tau</title>
<ellipse fill="none" stroke="black" cx="75.66" cy="-298.41" rx="75.82" ry="37.45"/>
<text text-anchor="middle" x="75.66" y="-309.71" font-family="Times,serif" font-size="14.00">tau</text>
<text text-anchor="middle" x="75.66" y="-294.71" font-family="Times,serif" font-size="14.00">~</text>
<text text-anchor="middle" x="75.66" y="-279.71" font-family="Times,serif" font-size="14.00">Halfstudentt</text>
</g>
<!-- beta -->
<g id="node5" class="node">
<title>beta</title>
<polygon fill="none" stroke="black" points="436.66,-213.95 322.66,-213.95 322.66,-160.95 436.66,-160.95 436.66,-213.95"/>
<text text-anchor="middle" x="379.66" y="-198.75" font-family="Times,serif" font-size="14.00">beta</text>
<text text-anchor="middle" x="379.66" y="-183.75" font-family="Times,serif" font-size="14.00">~</text>
<text text-anchor="middle" x="379.66" y="-168.75" font-family="Times,serif" font-size="14.00">Deterministic</text>
</g>
<!-- tau&#45;&gt;beta -->
<g id="edge2" class="edge">
<title>tau&#45;&gt;beta</title>
<path fill="none" stroke="black" d="M129.78,-272.06C138.69,-268.17 147.88,-264.32 156.66,-260.93 208.31,-240.97 268.03,-221.76 312.66,-208.14"/>
<polygon fill="black" stroke="black" points="313.68,-211.49 322.23,-205.23 311.65,-204.79 313.68,-211.49"/>
</g>
<!-- sigma -->
<g id="node2" class="node">
<title>sigma</title>
<ellipse fill="none" stroke="black" cx="344.66" cy="-409.36" rx="68.68" ry="37.45"/>
<text text-anchor="middle" x="344.66" y="-420.66" font-family="Times,serif" font-size="14.00">sigma</text>
<text text-anchor="middle" x="344.66" y="-405.66" font-family="Times,serif" font-size="14.00">~</text>
<text text-anchor="middle" x="344.66" y="-390.66" font-family="Times,serif" font-size="14.00">Halfnormal</text>
</g>
<!-- sigma&#45;&gt;tau -->
<g id="edge1" class="edge">
<title>sigma&#45;&gt;tau</title>
<path fill="none" stroke="black" d="M284.81,-390.73C247.37,-378.99 198.48,-362.37 156.66,-343.88 148.77,-340.4 140.62,-336.41 132.67,-332.29"/>
<polygon fill="black" stroke="black" points="134.28,-329.18 123.8,-327.6 131.01,-335.37 134.28,-329.18"/>
</g>
<!-- scores -->
<g id="node8" class="node">
<title>scores</title>
<ellipse fill="lightgrey" stroke="black" cx="613.66" cy="-76.48" rx="49.49" ry="37.45"/>
<text text-anchor="middle" x="613.66" y="-87.78" font-family="Times,serif" font-size="14.00">scores</text>
<text text-anchor="middle" x="613.66" y="-72.78" font-family="Times,serif" font-size="14.00">~</text>
<text text-anchor="middle" x="613.66" y="-57.78" font-family="Times,serif" font-size="14.00">Normal</text>
</g>
<!-- sigma&#45;&gt;scores -->
<g id="edge7" class="edge">
<title>sigma&#45;&gt;scores</title>
<path fill="none" stroke="black" d="M411.32,-399.99C477.19,-390.24 571.38,-371.82 594.66,-343.88 621.54,-311.64 619.9,-191.74 616.64,-124.3"/>
<polygon fill="black" stroke="black" points="620.11,-123.76 616.1,-113.95 613.12,-124.12 620.11,-123.76"/>
</g>
<!-- c2 -->
<g id="node3" class="node">
<title>c2</title>
<ellipse fill="none" stroke="black" cx="520.66" cy="-298.41" rx="65.11" ry="37.45"/>
<text text-anchor="middle" x="520.66" y="-309.71" font-family="Times,serif" font-size="14.00">c2</text>
<text text-anchor="middle" x="520.66" y="-294.71" font-family="Times,serif" font-size="14.00">~</text>
<text text-anchor="middle" x="520.66" y="-279.71" font-family="Times,serif" font-size="14.00">Invgamma</text>
</g>
<!-- c2&#45;&gt;beta -->
<g id="edge4" class="edge">
<title>c2&#45;&gt;beta</title>
<path fill="none" stroke="black" d="M482.5,-267.92C463.52,-253.25 440.54,-235.5 421.13,-220.5"/>
<polygon fill="black" stroke="black" points="423.1,-217.6 413.05,-214.25 418.82,-223.14 423.1,-217.6"/>
</g>
<!-- beta0 -->
<g id="node4" class="node">
<title>beta0</title>
<ellipse fill="none" stroke="black" cx="690.66" cy="-187.45" rx="49.49" ry="37.45"/>
<text text-anchor="middle" x="690.66" y="-198.75" font-family="Times,serif" font-size="14.00">beta0</text>
<text text-anchor="middle" x="690.66" y="-183.75" font-family="Times,serif" font-size="14.00">~</text>
<text text-anchor="middle" x="690.66" y="-168.75" font-family="Times,serif" font-size="14.00">Normal</text>
</g>
<!-- beta0&#45;&gt;scores -->
<g id="edge8" class="edge">
<title>beta0&#45;&gt;scores</title>
<path fill="none" stroke="black" d="M667.77,-154.05C659.85,-142.84 650.87,-130.13 642.53,-118.34"/>
<polygon fill="black" stroke="black" points="645.23,-116.09 636.6,-109.94 639.51,-120.13 645.23,-116.09"/>
</g>
<!-- beta&#45;&gt;scores -->
<g id="edge6" class="edge">
<title>beta&#45;&gt;scores</title>
<path fill="none" stroke="black" d="M434.52,-160.9C473.25,-142.87 524.78,-118.87 562.63,-101.24"/>
<polygon fill="black" stroke="black" points="564.35,-104.3 571.94,-96.91 561.39,-97.96 564.35,-104.3"/>
</g>
<!-- z -->
<g id="node6" class="node">
<title>z</title>
<ellipse fill="none" stroke="black" cx="387.66" cy="-298.41" rx="49.49" ry="37.45"/>
<text text-anchor="middle" x="387.66" y="-309.71" font-family="Times,serif" font-size="14.00">z</text>
<text text-anchor="middle" x="387.66" y="-294.71" font-family="Times,serif" font-size="14.00">~</text>
<text text-anchor="middle" x="387.66" y="-279.71" font-family="Times,serif" font-size="14.00">Normal</text>
</g>
<!-- z&#45;&gt;beta -->
<g id="edge3" class="edge">
<title>z&#45;&gt;beta</title>
<path fill="none" stroke="black" d="M384.97,-260.82C384.11,-249.09 383.16,-236.1 382.3,-224.41"/>
<polygon fill="black" stroke="black" points="385.77,-223.82 381.54,-214.11 378.79,-224.34 385.77,-223.82"/>
</g>
<!-- lam -->
<g id="node7" class="node">
<title>lam</title>
<ellipse fill="none" stroke="black" cx="244.66" cy="-298.41" rx="75.82" ry="37.45"/>
<text text-anchor="middle" x="244.66" y="-309.71" font-family="Times,serif" font-size="14.00">lam</text>
<text text-anchor="middle" x="244.66" y="-294.71" font-family="Times,serif" font-size="14.00">~</text>
<text text-anchor="middle" x="244.66" y="-279.71" font-family="Times,serif" font-size="14.00">Halfstudentt</text>
</g>
<!-- lam&#45;&gt;beta -->
<g id="edge5" class="edge">
<title>lam&#45;&gt;beta</title>
<path fill="none" stroke="black" d="M283.35,-266.18C301.05,-251.9 322.01,-234.98 339.84,-220.59"/>
<polygon fill="black" stroke="black" points="342.21,-223.17 347.8,-214.17 337.82,-217.73 342.21,-223.17"/>
</g>
</g>
</svg>