<?xml version="1.0" encoding="UTF-8" standalone="no"?>
<!DOCTYPE svg PUBLIC "-//W3C//DTD SVG 1.1//EN"
 "http://www.w3.org/Graphics/SVG/1.1/DTD/svg11.dtd">
<!-- Generated by graphviz version 2.43.0 (0)
 -->
<!-- Title: %3 Pages: 1 -->
<svg width="364pt" height="363pt"
 viewBox="0.00 0.00 363.59 362.86" xmlns="http://www.w3.org/2000/svg" xmlns:xlink="http://www.w3.org/1999/xlink">
<g id="graph0" class="graph" transform="scale(1 1) rotate(0) translate(4 358.86)">
<title>%3</title>
<polygon fill="white" stroke="transparent" points="-4,4 -4,-358.86 359.59,-358.86 359.59,4 -4,4"/>
<g id="clust1" class="cluster">
<title>clusterfloor_dim (1)</title>
<path fill="none" stroke="black" d="M139.69,-232.91C139.69,-232.91 229.69,-232.91 229.69,-232.91 235.69,-232.91 241.69,-238.91 241.69,-244.91 241.69,-244.91 241.69,-334.86 241.69,-334.86 241.69,-340.86 235.69,-346.86 229.69,-346.86 229.69,-346.86 139.69,-346.86 139.69,-346.86 133.69,-346.86 127.69,-340.86 127.69,-334.86 127.69,-334.86 127.69,-244.91 127.69,-244.91 127.69,-238.91 133.69,-232.91 139.69,-232.91"/>
<text text-anchor="middle" x="188.19" y="-240.71" font-family="Times,serif" font-size="14.00">floor_dim (1)</text>
</g>
<g id="clust2" class="cluster">
<title>cluster__obs__ (919)</title>
<path fill="none" stroke="black" d="M61.69,-8C61.69,-8 175.69,-8 175.69,-8 181.69,-8 187.69,-14 187.69,-20 187.69,-20 187.69,-209.93 187.69,-209.93 187.69,-215.93 181.69,-221.93 175.69,-221.93 175.69,-221.93 61.69,-221.93 61.69,-221.93 55.69,-221.93 49.69,-215.93 49.69,-209.93 49.69,-209.93 49.69,-20 49.69,-20 49.69,-14 55.69,-8 61.69,-8"/>
<text text-anchor="middle" x="132.69" y="-15.8" font-family="Times,serif" font-size="14.00">__obs__ (919)</text>
</g>
<!-- Intercept -->
<g id="node1" class="node">
<title>Intercept</title>
<ellipse fill="none" stroke="black" cx="58.69" cy="-301.38" rx="58.88" ry="37.45"/>
<text text-anchor="middle" x="58.69" y="-312.68" font-family="Times,serif" font-size="14.00">Intercept</text>
<text text-anchor="middle" x="58.69" y="-297.68" font-family="Times,serif" font-size="14.00">~</text>
<text text-anchor="middle" x="58.69" y="-282.68" font-family="Times,serif" font-size="14.00">Normal</text>
</g>
<!-- mu -->
<g id="node4" class="node">
<title>mu</title>
<polygon fill="none" stroke="black" points="175.69,-213.93 61.69,-213.93 61.69,-160.93 175.69,-160.93 175.69,-213.93"/>
<text text-anchor="middle" x="118.69" y="-198.73" font-family="Times,serif" font-size="14.00">mu</text>
<text text-anchor="middle" x="118.69" y="-183.73" font-family="Times,serif" font-size="14.00">~</text>
<text text-anchor="middle" x="118.69" y="-168.73" font-family="Times,serif" font-size="14.00">Deterministic</text>
</g>
<!-- Intercept&#45;&gt;mu -->
<g id="edge1" class="edge">
<title>Intercept&#45;&gt;mu</title>
<path fill="none" stroke="black" d="M77.35,-265.57C84.61,-252.01 92.92,-236.51 100.17,-222.98"/>
<polygon fill="black" stroke="black" points="103.36,-224.44 105,-213.97 97.19,-221.13 103.36,-224.44"/>
</g>
<!-- sigma -->
<g id="node2" class="node">
<title>sigma</title>
<ellipse fill="none" stroke="black" cx="275.69" cy="-187.43" rx="79.81" ry="37.45"/>
<text text-anchor="middle" x="275.69" y="-198.73" font-family="Times,serif" font-size="14.00">sigma</text>
<text text-anchor="middle" x="275.69" y="-183.73" font-family="Times,serif" font-size="14.00">~</text>
<text text-anchor="middle" x="275.69" y="-168.73" font-family="Times,serif" font-size="14.00">HalfStudentT</text>
</g>
<!-- log_radon -->
<g id="node5" class="node">
<title>log_radon</title>
<ellipse fill="lightgrey" stroke="black" cx="118.69" cy="-76.48" rx="60.62" ry="37.45"/>
<text text-anchor="middle" x="118.69" y="-87.78" font-family="Times,serif" font-size="14.00">log_radon</text>
<text text-anchor="middle" x="118.69" y="-72.78" font-family="Times,serif" font-size="14.00">~</text>
<text text-anchor="middle" x="118.69" y="-57.78" font-family="Times,serif" font-size="14.00">Normal</text>
</g>
<!-- sigma&#45;&gt;log_radon -->
<g id="edge4" class="edge">
<title>sigma&#45;&gt;log_radon</title>
<path fill="none" stroke="black" d="M231.54,-155.79C211.37,-141.79 187.44,-125.18 166.81,-110.87"/>
<polygon fill="black" stroke="black" points="168.7,-107.92 158.49,-105.1 164.71,-113.67 168.7,-107.92"/>
</g>
<!-- floor -->
<g id="node3" class="node">
<title>floor</title>
<ellipse fill="none" stroke="black" cx="184.69" cy="-301.38" rx="49.49" ry="37.45"/>
<text text-anchor="middle" x="184.69" y="-312.68" font-family="Times,serif" font-size="14.00">floor</text>
<text text-anchor="middle" x="184.69" y="-297.68" font-family="Times,serif" font-size="14.00">~</text>
<text text-anchor="middle" x="184.69" y="-282.68" font-family="Times,serif" font-size="14.00">Normal</text>
</g>
<!-- floor&#45;&gt;mu -->
<g id="edge2" class="edge">
<title>floor&#45;&gt;mu</title>
<path fill="none" stroke="black" d="M164.89,-266.79C156.73,-252.95 147.28,-236.92 139.06,-222.98"/>
<polygon fill="black" stroke="black" points="141.95,-221 133.86,-214.16 135.92,-224.56 141.95,-221"/>
</g>
<!-- mu&#45;&gt;log_radon -->
<g id="edge3" class="edge">
<title>mu&#45;&gt;log_radon</title>
<path fill="none" stroke="black" d="M118.69,-160.89C118.69,-149.98 118.69,-136.89 118.69,-124.35"/>
<polygon fill="black" stroke="black" points="122.19,-124 118.69,-114 115.19,-124 122.19,-124"/>
</g>
</g>
</svg>