<?xml version="1.0" encoding="UTF-8" standalone="no"?>
<!DOCTYPE svg PUBLIC "-//W3C//DTD SVG 1.1//EN"
 "http://www.w3.org/Graphics/SVG/1.1/DTD/svg11.dtd">
<!-- Generated by graphviz version 2.43.0 (0)
 -->
<!-- Title: %3 Pages: 1 -->
<svg width="366pt" height="363pt"
 viewBox="0.00 0.00 365.66 362.86" xmlns="http://www.w3.org/2000/svg" xmlns:xlink="http://www.w3.org/1999/xlink">
<g id="graph0" class="graph" transform="scale(1 1) rotate(0) translate(4 358.86)">
<title>%3</title>
<polygon fill="white" stroke="transparent" points="-4,4 -4,-358.86 361.66,-358.86 361.66,4 -4,4"/>
<g id="clust1" class="cluster">
<title>clustercounty_dim (85)</title>
<path fill="none" stroke="black" d="M108.66,-232.91C108.66,-232.91 215.66,-232.91 215.66,-232.91 221.66,-232.91 227.66,-238.91 227.66,-244.91 227.66,-244.91 227.66,-334.86 227.66,-334.86 227.66,-340.86 221.66,-346.86 215.66,-346.86 215.66,-346.86 108.66,-346.86 108.66,-346.86 102.66,-346.86 96.66,-340.86 96.66,-334.86 96.66,-334.86 96.66,-244.91 96.66,-244.91 96.66,-238.91 102.66,-232.91 108.66,-232.91"/>
<text text-anchor="middle" x="162.16" y="-240.71" font-family="Times,serif" font-size="14.00">county_dim (85)</text>
</g>
<g id="clust2" class="cluster">
<title>clusterfloor_dim (1)</title>
<path fill="none" stroke="black" d="M247.66,-232.91C247.66,-232.91 337.66,-232.91 337.66,-232.91 343.66,-232.91 349.66,-238.91 349.66,-244.91 349.66,-244.91 349.66,-334.86 349.66,-334.86 349.66,-340.86 343.66,-346.86 337.66,-346.86 337.66,-346.86 247.66,-346.86 247.66,-346.86 241.66,-346.86 235.66,-340.86 235.66,-334.86 235.66,-334.86 235.66,-244.91 235.66,-244.91 235.66,-238.91 241.66,-232.91 247.66,-232.91"/>
<text text-anchor="middle" x="296.16" y="-240.71" font-family="Times,serif" font-size="14.00">floor_dim (1)</text>
</g>
<g id="clust3" class="cluster">
<title>cluster__obs__ (919)</title>
<path fill="none" stroke="black" d="M171.66,-8C171.66,-8 285.66,-8 285.66,-8 291.66,-8 297.66,-14 297.66,-20 297.66,-20 297.66,-209.93 297.66,-209.93 297.66,-215.93 291.66,-221.93 285.66,-221.93 285.66,-221.93 171.66,-221.93 171.66,-221.93 165.66,-221.93 159.66,-215.93 159.66,-209.93 159.66,-209.93 159.66,-20 159.66,-20 159.66,-14 165.66,-8 171.66,-8"/>
<text text-anchor="middle" x="242.66" y="-15.8" font-family="Times,serif" font-size="14.00">__obs__ (919)</text>
</g>
<!-- sigma -->
<g id="node1" class="node">
<title>sigma</title>
<ellipse fill="none" stroke="black" cx="75.66" cy="-187.43" rx="75.82" ry="37.45"/>
<text text-anchor="middle" x="75.66" y="-198.73" font-family="Times,serif" font-size="14.00">sigma</text>
<text text-anchor="middle" x="75.66" y="-183.73" font-family="Times,serif" font-size="14.00">~</text>
<text text-anchor="middle" x="75.66" y="-168.73" font-family="Times,serif" font-size="14.00">Halfstudentt</text>
</g>
<!-- log_radon -->
<g id="node5" class="node">
<title>log_radon</title>
<ellipse fill="lightgrey" stroke="black" cx="228.66" cy="-76.48" rx="60.62" ry="37.45"/>
<text text-anchor="middle" x="228.66" y="-87.78" font-family="Times,serif" font-size="14.00">log_radon</text>
<text text-anchor="middle" x="228.66" y="-72.78" font-family="Times,serif" font-size="14.00">~</text>
<text text-anchor="middle" x="228.66" y="-57.78" font-family="Times,serif" font-size="14.00">Normal</text>
</g>
<!-- sigma&#45;&gt;log_radon -->
<g id="edge3" class="edge">
<title>sigma&#45;&gt;log_radon</title>
<path fill="none" stroke="black" d="M118.28,-156.08C137.85,-142.14 161.14,-125.56 181.26,-111.23"/>
<polygon fill="black" stroke="black" points="183.56,-113.89 189.67,-105.24 179.5,-108.19 183.56,-113.89"/>
</g>
<!-- county -->
<g id="node2" class="node">
<title>county</title>
<ellipse fill="none" stroke="black" cx="170.66" cy="-301.38" rx="49.49" ry="37.45"/>
<text text-anchor="middle" x="170.66" y="-312.68" font-family="Times,serif" font-size="14.00">county</text>
<text text-anchor="middle" x="170.66" y="-297.68" font-family="Times,serif" font-size="14.00">~</text>
<text text-anchor="middle" x="170.66" y="-282.68" font-family="Times,serif" font-size="14.00">Normal</text>
</g>
<!-- mu -->
<g id="node4" class="node">
<title>mu</title>
<polygon fill="none" stroke="black" points="285.66,-213.93 171.66,-213.93 171.66,-160.93 285.66,-160.93 285.66,-213.93"/>
<text text-anchor="middle" x="228.66" y="-198.73" font-family="Times,serif" font-size="14.00">mu</text>
<text text-anchor="middle" x="228.66" y="-183.73" font-family="Times,serif" font-size="14.00">~</text>
<text text-anchor="middle" x="228.66" y="-168.73" font-family="Times,serif" font-size="14.00">Deterministic</text>
</g>
<!-- county&#45;&gt;mu -->
<g id="edge1" class="edge">
<title>county&#45;&gt;mu</title>
<path fill="none" stroke="black" d="M188.38,-266.19C195.42,-252.6 203.5,-236.99 210.58,-223.34"/>
<polygon fill="black" stroke="black" points="213.79,-224.74 215.29,-214.25 207.58,-221.52 213.79,-224.74"/>
</g>
<!-- floor -->
<g id="node3" class="node">
<title>floor</title>
<ellipse fill="none" stroke="black" cx="292.66" cy="-301.38" rx="49.49" ry="37.45"/>
<text text-anchor="middle" x="292.66" y="-312.68" font-family="Times,serif" font-size="14.00">floor</text>
<text text-anchor="middle" x="292.66" y="-297.68" font-family="Times,serif" font-size="14.00">~</text>
<text text-anchor="middle" x="292.66" y="-282.68" font-family="Times,serif" font-size="14.00">Normal</text>
</g>
<!-- floor&#45;&gt;mu -->
<g id="edge2" class="edge">
<title>floor&#45;&gt;mu</title>
<path fill="none" stroke="black" d="M273.46,-266.79C265.54,-252.95 256.38,-236.92 248.41,-222.98"/>
<polygon fill="black" stroke="black" points="251.37,-221.11 243.37,-214.16 245.3,-224.58 251.37,-221.11"/>
</g>
<!-- mu&#45;&gt;log_radon -->
<g id="edge4" class="edge">
<title>mu&#45;&gt;log_radon</title>
<path fill="none" stroke="black" d="M228.66,-160.89C228.66,-149.98 228.66,-136.89 228.66,-124.35"/>
<polygon fill="black" stroke="black" points="232.16,-124 228.66,-114 225.16,-124 232.16,-124"/>
</g>
</g>
</svg>