<?xml version="1.0" encoding="UTF-8" standalone="no"?>
<!DOCTYPE svg PUBLIC "-//W3C//DTD SVG 1.1//EN"
 "http://www.w3.org/Graphics/SVG/1.1/DTD/svg11.dtd">
<!-- Generated by graphviz version 12.1.0 (20240811.2233)
 -->
<!-- Pages: 1 -->
<svg width="186pt" height="341pt"
 viewBox="0.00 0.00 186.00 340.63" xmlns="http://www.w3.org/2000/svg" xmlns:xlink="http://www.w3.org/1999/xlink">
<g id="graph0" class="graph" transform="scale(1 1) rotate(0) translate(4 336.63)">
<polygon fill="white" stroke="none" points="-4,4 -4,-336.63 182,-336.63 182,4 -4,4"/>
<g id="clust1" class="cluster">
<title>cluster__obs__ (30)</title>
<path fill="none" stroke="black" d="M20,-8C20,-8 102,-8 102,-8 108,-8 114,-14 114,-20 114,-20 114,-211.32 114,-211.32 114,-217.32 108,-223.32 102,-223.32 102,-223.32 20,-223.32 20,-223.32 14,-223.32 8,-217.32 8,-211.32 8,-211.32 8,-20 8,-20 8,-14 14,-8 20,-8"/>
<text text-anchor="middle" x="70" y="-15.2" font-family="Times,serif" font-size="14.00">__obs__ (30)</text>
</g>
<!-- M -->
<g id="node1" class="node">
<title>M</title>
<ellipse fill="none" stroke="black" cx="61" cy="-291.98" rx="41.01" ry="40.66"/>
<text text-anchor="middle" x="61" y="-303.43" font-family="Times,serif" font-size="14.00">M</text>
<text text-anchor="middle" x="61" y="-286.93" font-family="Times,serif" font-size="14.00">~</text>
<text text-anchor="middle" x="61" y="-270.43" font-family="Times,serif" font-size="14.00">Normal</text>
</g>
<!-- mu -->
<g id="node4" class="node">
<title>mu</title>
<polygon fill="none" stroke="black" points="106.12,-215.32 15.88,-215.32 15.88,-157.82 106.12,-157.82 106.12,-215.32"/>
<text text-anchor="middle" x="61" y="-198.02" font-family="Times,serif" font-size="14.00">mu</text>
<text text-anchor="middle" x="61" y="-181.52" font-family="Times,serif" font-size="14.00">~</text>
<text text-anchor="middle" x="61" y="-165.02" font-family="Times,serif" font-size="14.00">Deterministic</text>
</g>
<!-- M&#45;&gt;mu -->
<g id="edge1" class="edge">
<title>M&#45;&gt;mu</title>
<path fill="none" stroke="black" d="M61,-251C61,-243.15 61,-234.91 61,-227.08"/>
<polygon fill="black" stroke="black" points="64.5,-227.11 61,-217.11 57.5,-227.11 64.5,-227.11"/>
</g>
<!-- sigma -->
<g id="node2" class="node">
<title>sigma</title>
<path fill="lightgrey" stroke="black" d="M166,-215.32C166,-215.32 136,-215.32 136,-215.32 130,-215.32 124,-209.32 124,-203.32 124,-203.32 124,-169.82 124,-169.82 124,-163.82 130,-157.82 136,-157.82 136,-157.82 166,-157.82 166,-157.82 172,-157.82 178,-163.82 178,-169.82 178,-169.82 178,-203.32 178,-203.32 178,-209.32 172,-215.32 166,-215.32"/>
<text text-anchor="middle" x="151" y="-198.02" font-family="Times,serif" font-size="14.00">sigma</text>
<text text-anchor="middle" x="151" y="-181.52" font-family="Times,serif" font-size="14.00">~</text>
<text text-anchor="middle" x="151" y="-165.02" font-family="Times,serif" font-size="14.00">Data</text>
</g>
<!-- iq -->
<g id="node3" class="node">
<title>iq</title>
<ellipse fill="lightgrey" stroke="black" cx="63" cy="-81.16" rx="41.01" ry="40.66"/>
<text text-anchor="middle" x="63" y="-92.61" font-family="Times,serif" font-size="14.00">iq</text>
<text text-anchor="middle" x="63" y="-76.11" font-family="Times,serif" font-size="14.00">~</text>
<text text-anchor="middle" x="63" y="-59.61" font-family="Times,serif" font-size="14.00">Normal</text>
</g>
<!-- sigma&#45;&gt;iq -->
<g id="edge2" class="edge">
<title>sigma&#45;&gt;iq</title>
<path fill="none" stroke="black" d="M127.19,-157.58C117.68,-146.42 106.58,-133.37 96.3,-121.29"/>
<polygon fill="black" stroke="black" points="99.12,-119.21 89.98,-113.86 93.79,-123.74 99.12,-119.21"/>
</g>
<!-- mu&#45;&gt;iq -->
<g id="edge3" class="edge">
<title>mu&#45;&gt;iq</title>
<path fill="none" stroke="black" d="M61.54,-157.58C61.69,-150.1 61.85,-141.77 62.01,-133.45"/>
<polygon fill="black" stroke="black" points="65.5,-133.78 62.2,-123.71 58.5,-133.64 65.5,-133.78"/>
</g>
</g>
</svg>