<?xml version="1.0" encoding="UTF-8" standalone="no"?>
<!DOCTYPE svg PUBLIC "-//W3C//DTD SVG 1.1//EN"
 "http://www.w3.org/Graphics/SVG/1.1/DTD/svg11.dtd">
<!-- Generated by graphviz version 12.1.0 (20240811.2233)
 -->
<!-- Pages: 1 -->
<svg width="669pt" height="515pt"
 viewBox="0.00 0.00 669.00 514.77" xmlns="http://www.w3.org/2000/svg" xmlns:xlink="http://www.w3.org/1999/xlink">
<g id="graph0" class="graph" transform="scale(1 1) rotate(0) translate(4 510.77)">
<polygon fill="white" stroke="none" points="-4,4 -4,-510.77 665,-510.77 665,4 -4,4"/>
<g id="clust1" class="cluster">
<title>clusterfloor_dim (1)</title>
<path fill="none" stroke="black" d="M281,-247.13C281,-247.13 355,-247.13 355,-247.13 361,-247.13 367,-253.13 367,-259.13 367,-259.13 367,-356.95 367,-356.95 367,-362.95 361,-368.95 355,-368.95 355,-368.95 281,-368.95 281,-368.95 275,-368.95 269,-362.95 269,-356.95 269,-356.95 269,-259.13 269,-259.13 269,-253.13 275,-247.13 281,-247.13"/>
<text text-anchor="middle" x="321.88" y="-254.33" font-family="Times,serif" font-size="14.00">floor_dim (1)</text>
</g>
<g id="clust2" class="cluster">
<title>clustercounty__factor_dim (85)</title>
<path fill="none" stroke="black" d="M20,-247.13C20,-247.13 148,-247.13 148,-247.13 154,-247.13 160,-253.13 160,-259.13 160,-259.13 160,-356.95 160,-356.95 160,-362.95 154,-368.95 148,-368.95 148,-368.95 20,-368.95 20,-368.95 14,-368.95 8,-362.95 8,-356.95 8,-356.95 8,-259.13 8,-259.13 8,-253.13 14,-247.13 20,-247.13"/>
<text text-anchor="middle" x="83.75" y="-254.33" font-family="Times,serif" font-size="14.00">county__factor_dim (85)</text>
</g>
<g id="clust3" class="cluster">
<title>clusterfloor__expr_dim (1)</title>
<path fill="none" stroke="black" d="M359,-376.95C359,-376.95 523,-376.95 523,-376.95 529,-376.95 535,-382.95 535,-388.95 535,-388.95 535,-486.77 535,-486.77 535,-492.77 529,-498.77 523,-498.77 523,-498.77 359,-498.77 359,-498.77 353,-498.77 347,-492.77 347,-486.77 347,-486.77 347,-388.95 347,-388.95 347,-382.95 353,-376.95 359,-376.95"/>
<text text-anchor="middle" x="471.12" y="-384.15" font-family="Times,serif" font-size="14.00">floor__expr_dim (1)</text>
</g>
<g id="clust4" class="cluster">
<title>clustercounty__factor_dim (85) x floor__expr_dim (1)</title>
<path fill="none" stroke="black" d="M387,-247.13C387,-247.13 641,-247.13 641,-247.13 647,-247.13 653,-253.13 653,-259.13 653,-259.13 653,-356.95 653,-356.95 653,-362.95 647,-368.95 641,-368.95 641,-368.95 387,-368.95 387,-368.95 381,-368.95 375,-362.95 375,-356.95 375,-356.95 375,-259.13 375,-259.13 375,-253.13 381,-247.13 387,-247.13"/>
<text text-anchor="middle" x="513.75" y="-254.33" font-family="Times,serif" font-size="14.00">county__factor_dim (85) x floor__expr_dim (1)</text>
</g>
<g id="clust5" class="cluster">
<title>cluster__obs__ (919)</title>
<path fill="none" stroke="black" d="M220,-8C220,-8 312,-8 312,-8 318,-8 324,-14 324,-20 324,-20 324,-223.23 324,-223.23 324,-229.23 318,-235.23 312,-235.23 312,-235.23 220,-235.23 220,-235.23 214,-235.23 208,-229.23 208,-223.23 208,-223.23 208,-20 208,-20 208,-14 214,-8 220,-8"/>
<text text-anchor="middle" x="276.62" y="-15.2" font-family="Times,serif" font-size="14.00">__obs__ (919)</text>
</g>
<!-- 1|county_sigma -->
<g id="node1" class="node">
<title>1|county_sigma</title>
<ellipse fill="none" stroke="black" cx="107" cy="-450.11" rx="72.3" ry="40.66"/>
<text text-anchor="middle" x="107" y="-461.56" font-family="Times,serif" font-size="14.00">1|county_sigma</text>
<text text-anchor="middle" x="107" y="-445.06" font-family="Times,serif" font-size="14.00">~</text>
<text text-anchor="middle" x="107" y="-428.56" font-family="Times,serif" font-size="14.00">Exponential</text>
</g>
<!-- 1|county -->
<g id="node5" class="node">
<title>1|county</title>
<ellipse fill="none" stroke="black" cx="107" cy="-320.29" rx="44.19" ry="40.66"/>
<text text-anchor="middle" x="107" y="-331.74" font-family="Times,serif" font-size="14.00">1|county</text>
<text text-anchor="middle" x="107" y="-315.24" font-family="Times,serif" font-size="14.00">~</text>
<text text-anchor="middle" x="107" y="-298.74" font-family="Times,serif" font-size="14.00">Normal</text>
</g>
<!-- 1|county_sigma&#45;&gt;1|county -->
<g id="edge1" class="edge">
<title>1|county_sigma&#45;&gt;1|county</title>
<path fill="none" stroke="black" d="M107,-409.02C107,-397.48 107,-384.73 107,-372.61"/>
<polygon fill="black" stroke="black" points="110.5,-372.76 107,-362.76 103.5,-372.76 110.5,-372.76"/>
</g>
<!-- Intercept -->
<g id="node2" class="node">
<title>Intercept</title>
<ellipse fill="none" stroke="black" cx="214" cy="-320.29" rx="45.25" ry="40.66"/>
<text text-anchor="middle" x="214" y="-331.74" font-family="Times,serif" font-size="14.00">Intercept</text>
<text text-anchor="middle" x="214" y="-315.24" font-family="Times,serif" font-size="14.00">~</text>
<text text-anchor="middle" x="214" y="-298.74" font-family="Times,serif" font-size="14.00">Normal</text>
</g>
<!-- mu -->
<g id="node8" class="node">
<title>mu</title>
<polygon fill="none" stroke="black" points="311.12,-227.23 220.88,-227.23 220.88,-169.73 311.12,-169.73 311.12,-227.23"/>
<text text-anchor="middle" x="266" y="-209.93" font-family="Times,serif" font-size="14.00">mu</text>
<text text-anchor="middle" x="266" y="-193.43" font-family="Times,serif" font-size="14.00">~</text>
<text text-anchor="middle" x="266" y="-176.93" font-family="Times,serif" font-size="14.00">Deterministic</text>
</g>
<!-- Intercept&#45;&gt;mu -->
<g id="edge5" class="edge">
<title>Intercept&#45;&gt;mu</title>
<path fill="none" stroke="black" d="M230.17,-282.04C236.25,-268.02 243.17,-252.07 249.3,-237.95"/>
<polygon fill="black" stroke="black" points="252.44,-239.52 253.21,-228.96 246.01,-236.74 252.44,-239.52"/>
</g>
<!-- sigma -->
<g id="node3" class="node">
<title>sigma</title>
<ellipse fill="none" stroke="black" cx="395" cy="-198.48" rx="63.29" ry="40.66"/>
<text text-anchor="middle" x="395" y="-209.93" font-family="Times,serif" font-size="14.00">sigma</text>
<text text-anchor="middle" x="395" y="-193.43" font-family="Times,serif" font-size="14.00">~</text>
<text text-anchor="middle" x="395" y="-176.93" font-family="Times,serif" font-size="14.00">HalfStudentT</text>
</g>
<!-- log_radon -->
<g id="node9" class="node">
<title>log_radon</title>
<ellipse fill="lightgrey" stroke="black" cx="266" cy="-81.16" rx="50.03" ry="40.66"/>
<text text-anchor="middle" x="266" y="-92.61" font-family="Times,serif" font-size="14.00">log_radon</text>
<text text-anchor="middle" x="266" y="-76.11" font-family="Times,serif" font-size="14.00">~</text>
<text text-anchor="middle" x="266" y="-59.61" font-family="Times,serif" font-size="14.00">Normal</text>
</g>
<!-- sigma&#45;&gt;log_radon -->
<g id="edge8" class="edge">
<title>sigma&#45;&gt;log_radon</title>
<path fill="none" stroke="black" d="M358.72,-165.05C342.86,-150.86 324.16,-134.15 307.72,-119.45"/>
<polygon fill="black" stroke="black" points="310.27,-117.04 300.48,-112.99 305.61,-122.26 310.27,-117.04"/>
</g>
<!-- floor -->
<g id="node4" class="node">
<title>floor</title>
<ellipse fill="none" stroke="black" cx="318" cy="-320.29" rx="41.01" ry="40.66"/>
<text text-anchor="middle" x="318" y="-331.74" font-family="Times,serif" font-size="14.00">floor</text>
<text text-anchor="middle" x="318" y="-315.24" font-family="Times,serif" font-size="14.00">~</text>
<text text-anchor="middle" x="318" y="-298.74" font-family="Times,serif" font-size="14.00">Normal</text>
</g>
<!-- floor&#45;&gt;mu -->
<g id="edge3" class="edge">
<title>floor&#45;&gt;mu</title>
<path fill="none" stroke="black" d="M301.97,-282.37C295.89,-268.34 288.94,-252.33 282.78,-238.15"/>
<polygon fill="black" stroke="black" points="286.05,-236.89 278.86,-229.11 279.63,-239.67 286.05,-236.89"/>
</g>
<!-- 1|county&#45;&gt;mu -->
<g id="edge4" class="edge">
<title>1|county&#45;&gt;mu</title>
<path fill="none" stroke="black" d="M127.57,-283.93C136.33,-271.11 147.43,-257.3 160,-247.13 174.75,-235.21 192.96,-225.62 210.09,-218.25"/>
<polygon fill="black" stroke="black" points="211.26,-221.56 219.19,-214.53 208.61,-215.08 211.26,-221.56"/>
</g>
<!-- floor|county_sigma -->
<g id="node6" class="node">
<title>floor|county_sigma</title>
<ellipse fill="none" stroke="black" cx="441" cy="-450.11" rx="86.09" ry="40.66"/>
<text text-anchor="middle" x="441" y="-461.56" font-family="Times,serif" font-size="14.00">floor|county_sigma</text>
<text text-anchor="middle" x="441" y="-445.06" font-family="Times,serif" font-size="14.00">~</text>
<text text-anchor="middle" x="441" y="-428.56" font-family="Times,serif" font-size="14.00">Exponential</text>
</g>
<!-- floor|county -->
<g id="node7" class="node">
<title>floor|county</title>
<ellipse fill="none" stroke="black" cx="441" cy="-320.29" rx="57.98" ry="40.66"/>
<text text-anchor="middle" x="441" y="-331.74" font-family="Times,serif" font-size="14.00">floor|county</text>
<text text-anchor="middle" x="441" y="-315.24" font-family="Times,serif" font-size="14.00">~</text>
<text text-anchor="middle" x="441" y="-298.74" font-family="Times,serif" font-size="14.00">Normal</text>
</g>
<!-- floor|county_sigma&#45;&gt;floor|county -->
<g id="edge2" class="edge">
<title>floor|county_sigma&#45;&gt;floor|county</title>
<path fill="none" stroke="black" d="M441,-409.02C441,-397.48 441,-384.73 441,-372.61"/>
<polygon fill="black" stroke="black" points="444.5,-372.76 441,-362.76 437.5,-372.76 444.5,-372.76"/>
</g>
<!-- floor|county&#45;&gt;mu -->
<g id="edge6" class="edge">
<title>floor|county&#45;&gt;mu</title>
<path fill="none" stroke="black" d="M414.6,-283.6C402.76,-270.1 387.69,-255.89 371,-247.13 351.85,-237.09 343.03,-247.29 323,-239.13 318.97,-237.49 314.94,-235.53 311,-233.36"/>
<polygon fill="black" stroke="black" points="313.09,-230.53 302.71,-228.41 309.5,-236.54 313.09,-230.53"/>
</g>
<!-- mu&#45;&gt;log_radon -->
<g id="edge7" class="edge">
<title>mu&#45;&gt;log_radon</title>
<path fill="none" stroke="black" d="M266,-169.27C266,-158.44 266,-145.73 266,-133.41"/>
<polygon fill="black" stroke="black" points="269.5,-133.78 266,-123.78 262.5,-133.78 269.5,-133.78"/>
</g>
</g>
</svg>