<?xml version="1.0" encoding="UTF-8" standalone="no"?>
<!DOCTYPE svg PUBLIC "-//W3C//DTD SVG 1.1//EN"
 "http://www.w3.org/Graphics/SVG/1.1/DTD/svg11.dtd">
<!-- Generated by graphviz version 2.43.0 (0)
 -->
<!-- Title: %3 Pages: 1 -->
<svg width="617pt" height="455pt"
 viewBox="0.00 0.00 617.24 454.84" xmlns="http://www.w3.org/2000/svg" xmlns:xlink="http://www.w3.org/1999/xlink">
<g id="graph0" class="graph" transform="scale(1 1) rotate(0) translate(4 450.84)">
<title>%3</title>
<polygon fill="white" stroke="transparent" points="-4,4 -4,-450.84 613.24,-450.84 613.24,4 -4,4"/>
<g id="clust1" class="cluster">
<title>clusterpredictors (10)</title>
<path fill="none" stroke="black" d="M172.66,-129.95C172.66,-129.95 432.66,-129.95 432.66,-129.95 438.66,-129.95 444.66,-135.95 444.66,-141.95 444.66,-141.95 444.66,-331.88 444.66,-331.88 444.66,-337.88 438.66,-343.88 432.66,-343.88 432.66,-343.88 172.66,-343.88 172.66,-343.88 166.66,-343.88 160.66,-337.88 160.66,-331.88 160.66,-331.88 160.66,-141.95 160.66,-141.95 160.66,-135.95 166.66,-129.95 172.66,-129.95"/>
<text text-anchor="middle" x="383.16" y="-137.75" font-family="Times,serif" font-size="14.00">predictors (10)</text>
</g>
<g id="clust2" class="cluster">
<title>cluster101</title>
<path fill="none" stroke="black" d="M266.66,-8C266.66,-8 356.66,-8 356.66,-8 362.66,-8 368.66,-14 368.66,-20 368.66,-20 368.66,-109.95 368.66,-109.95 368.66,-115.95 362.66,-121.95 356.66,-121.95 356.66,-121.95 266.66,-121.95 266.66,-121.95 260.66,-121.95 254.66,-115.95 254.66,-109.95 254.66,-109.95 254.66,-20 254.66,-20 254.66,-14 260.66,-8 266.66,-8"/>
<text text-anchor="middle" x="346.66" y="-15.8" font-family="Times,serif" font-size="14.00">101</text>
</g>
<!-- tau -->
<g id="node1" class="node">
<title>tau</title>
<ellipse fill="none" stroke="black" cx="75.66" cy="-298.41" rx="75.82" ry="37.45"/>
<text text-anchor="middle" x="75.66" y="-309.71" font-family="Times,serif" font-size="14.00">tau</text>
<text text-anchor="middle" x="75.66" y="-294.71" font-family="Times,serif" font-size="14.00">~</text>
<text text-anchor="middle" x="75.66" y="-279.71" font-family="Times,serif" font-size="14.00">Halfstudentt</text>
</g>
<!-- beta -->
<g id="node7" class="node">
<title>beta</title>
<polygon fill="none" stroke="black" points="368.66,-213.95 254.66,-213.95 254.66,-160.95 368.66,-160.95 368.66,-213.95"/>
<text text-anchor="middle" x="311.66" y="-198.75" font-family="Times,serif" font-size="14.00">beta</text>
<text text-anchor="middle" x="311.66" y="-183.75" font-family="Times,serif" font-size="14.00">~</text>
<text text-anchor="middle" x="311.66" y="-168.75" font-family="Times,serif" font-size="14.00">Deterministic</text>
</g>
<!-- tau&#45;&gt;beta -->
<g id="edge5" class="edge">
<title>tau&#45;&gt;beta</title>
<path fill="none" stroke="black" d="M130.1,-272.27C164.99,-256.17 210.44,-235.18 247.14,-218.24"/>
<polygon fill="black" stroke="black" points="248.66,-221.4 256.27,-214.03 245.72,-215.04 248.66,-221.4"/>
</g>
<!-- c2 -->
<g id="node2" class="node">
<title>c2</title>
<ellipse fill="none" stroke="black" cx="520.66" cy="-298.41" rx="65.11" ry="37.45"/>
<text text-anchor="middle" x="520.66" y="-309.71" font-family="Times,serif" font-size="14.00">c2</text>
<text text-anchor="middle" x="520.66" y="-294.71" font-family="Times,serif" font-size="14.00">~</text>
<text text-anchor="middle" x="520.66" y="-279.71" font-family="Times,serif" font-size="14.00">Invgamma</text>
</g>
<!-- c2&#45;&gt;beta -->
<g id="edge3" class="edge">
<title>c2&#45;&gt;beta</title>
<path fill="none" stroke="black" d="M473.24,-272.68C442.52,-256.67 402.32,-235.71 369.7,-218.71"/>
<polygon fill="black" stroke="black" points="371.2,-215.54 360.71,-214.02 367.96,-221.75 371.2,-215.54"/>
</g>
<!-- beta0 -->
<g id="node3" class="node">
<title>beta0</title>
<ellipse fill="none" stroke="black" cx="103.66" cy="-187.45" rx="49.49" ry="37.45"/>
<text text-anchor="middle" x="103.66" y="-198.75" font-family="Times,serif" font-size="14.00">beta0</text>
<text text-anchor="middle" x="103.66" y="-183.75" font-family="Times,serif" font-size="14.00">~</text>
<text text-anchor="middle" x="103.66" y="-168.75" font-family="Times,serif" font-size="14.00">Normal</text>
</g>
<!-- scores -->
<g id="node8" class="node">
<title>scores</title>
<ellipse fill="lightgrey" stroke="black" cx="311.66" cy="-76.48" rx="49.49" ry="37.45"/>
<text text-anchor="middle" x="311.66" y="-87.78" font-family="Times,serif" font-size="14.00">scores</text>
<text text-anchor="middle" x="311.66" y="-72.78" font-family="Times,serif" font-size="14.00">~</text>
<text text-anchor="middle" x="311.66" y="-57.78" font-family="Times,serif" font-size="14.00">Normal</text>
</g>
<!-- beta0&#45;&gt;scores -->
<g id="edge6" class="edge">
<title>beta0&#45;&gt;scores</title>
<path fill="none" stroke="black" d="M128.24,-154.84C136.48,-145.83 146.26,-136.65 156.66,-129.95 186.17,-110.96 223.3,-98.08 253.81,-89.83"/>
<polygon fill="black" stroke="black" points="255.09,-93.11 263.89,-87.21 253.33,-86.34 255.09,-93.11"/>
</g>
<!-- sigma -->
<g id="node4" class="node">
<title>sigma</title>
<ellipse fill="none" stroke="black" cx="344.66" cy="-409.36" rx="68.68" ry="37.45"/>
<text text-anchor="middle" x="344.66" y="-420.66" font-family="Times,serif" font-size="14.00">sigma</text>
<text text-anchor="middle" x="344.66" y="-405.66" font-family="Times,serif" font-size="14.00">~</text>
<text text-anchor="middle" x="344.66" y="-390.66" font-family="Times,serif" font-size="14.00">Halfnormal</text>
</g>
<!-- sigma&#45;&gt;tau -->
<g id="edge1" class="edge">
<title>sigma&#45;&gt;tau</title>
<path fill="none" stroke="black" d="M284.81,-390.73C247.37,-378.99 198.48,-362.37 156.66,-343.88 148.77,-340.4 140.62,-336.41 132.67,-332.29"/>
<polygon fill="black" stroke="black" points="134.28,-329.18 123.8,-327.6 131.01,-335.37 134.28,-329.18"/>
</g>
<!-- sigma&#45;&gt;scores -->
<g id="edge7" class="edge">
<title>sigma&#45;&gt;scores</title>
<path fill="none" stroke="black" d="M411.42,-400.36C477.63,-390.89 572.35,-372.67 594.66,-343.88 617.24,-314.74 609.69,-294.6 594.66,-260.93 553.18,-167.99 437.55,-116.68 367.6,-93.32"/>
<polygon fill="black" stroke="black" points="368.63,-89.98 358.04,-90.21 366.47,-96.63 368.63,-89.98"/>
</g>
<!-- z -->
<g id="node5" class="node">
<title>z</title>
<ellipse fill="none" stroke="black" cx="387.66" cy="-298.41" rx="49.49" ry="37.45"/>
<text text-anchor="middle" x="387.66" y="-309.71" font-family="Times,serif" font-size="14.00">z</text>
<text text-anchor="middle" x="387.66" y="-294.71" font-family="Times,serif" font-size="14.00">~</text>
<text text-anchor="middle" x="387.66" y="-279.71" font-family="Times,serif" font-size="14.00">Normal</text>
</g>
<!-- z&#45;&gt;beta -->
<g id="edge2" class="edge">
<title>z&#45;&gt;beta</title>
<path fill="none" stroke="black" d="M365.06,-265.01C355.73,-251.63 344.91,-236.12 335.45,-222.56"/>
<polygon fill="black" stroke="black" points="338.06,-220.18 329.47,-213.98 332.32,-224.19 338.06,-220.18"/>
</g>
<!-- lam -->
<g id="node6" class="node">
<title>lam</title>
<ellipse fill="none" stroke="black" cx="244.66" cy="-298.41" rx="75.82" ry="37.45"/>
<text text-anchor="middle" x="244.66" y="-309.71" font-family="Times,serif" font-size="14.00">lam</text>
<text text-anchor="middle" x="244.66" y="-294.71" font-family="Times,serif" font-size="14.00">~</text>
<text text-anchor="middle" x="244.66" y="-279.71" font-family="Times,serif" font-size="14.00">Halfstudentt</text>
</g>
<!-- lam&#45;&gt;beta -->
<g id="edge4" class="edge">
<title>lam&#45;&gt;beta</title>
<path fill="none" stroke="black" d="M266.23,-262.33C273.99,-249.72 282.72,-235.51 290.45,-222.94"/>
<polygon fill="black" stroke="black" points="293.61,-224.48 295.87,-214.13 287.65,-220.82 293.61,-224.48"/>
</g>
<!-- beta&#45;&gt;scores -->
<g id="edge8" class="edge">
<title>beta&#45;&gt;scores</title>
<path fill="none" stroke="black" d="M311.66,-160.9C311.66,-149.99 311.66,-136.9 311.66,-124.36"/>
<polygon fill="black" stroke="black" points="315.16,-124.01 311.66,-114.01 308.16,-124.01 315.16,-124.01"/>
</g>
</g>
</svg>