<?xml version="1.0" encoding="UTF-8" standalone="no"?>
<!DOCTYPE svg PUBLIC "-//W3C//DTD SVG 1.1//EN"
 "http://www.w3.org/Graphics/SVG/1.1/DTD/svg11.dtd">
<!-- Generated by graphviz version 12.1.0 (20240811.2233)
 -->
<!-- Pages: 1 -->
<svg width="374pt" height="486pt"
 viewBox="0.00 0.00 374.25 486.27" xmlns="http://www.w3.org/2000/svg" xmlns:xlink="http://www.w3.org/1999/xlink">
<g id="graph0" class="graph" transform="scale(1 1) rotate(0) translate(4 482.27)">
<polygon fill="white" stroke="none" points="-4,4 -4,-482.27 370.25,-482.27 370.25,4 -4,4"/>
<g id="clust1" class="cluster">
<title>clusterfloor_dim (1)</title>
<path fill="none" stroke="black" d="M112.25,-247.13C112.25,-247.13 186.25,-247.13 186.25,-247.13 192.25,-247.13 198.25,-253.13 198.25,-259.13 198.25,-259.13 198.25,-356.95 198.25,-356.95 198.25,-362.95 192.25,-368.95 186.25,-368.95 186.25,-368.95 112.25,-368.95 112.25,-368.95 106.25,-368.95 100.25,-362.95 100.25,-356.95 100.25,-356.95 100.25,-259.13 100.25,-259.13 100.25,-253.13 106.25,-247.13 112.25,-247.13"/>
<text text-anchor="middle" x="153.13" y="-254.33" font-family="Times,serif" font-size="14.00">floor_dim (1)</text>
</g>
<g id="clust2" class="cluster">
<title>clustercounty__factor_dim (85)</title>
<path fill="none" stroke="black" d="M218.25,-247.13C218.25,-247.13 346.25,-247.13 346.25,-247.13 352.25,-247.13 358.25,-253.13 358.25,-259.13 358.25,-259.13 358.25,-356.95 358.25,-356.95 358.25,-362.95 352.25,-368.95 346.25,-368.95 346.25,-368.95 218.25,-368.95 218.25,-368.95 212.25,-368.95 206.25,-362.95 206.25,-356.95 206.25,-356.95 206.25,-259.13 206.25,-259.13 206.25,-253.13 212.25,-247.13 218.25,-247.13"/>
<text text-anchor="middle" x="282" y="-254.33" font-family="Times,serif" font-size="14.00">county__factor_dim (85)</text>
</g>
<g id="clust3" class="cluster">
<title>cluster__obs__ (919)</title>
<path fill="none" stroke="black" d="M103.25,-8C103.25,-8 195.25,-8 195.25,-8 201.25,-8 207.25,-14 207.25,-20 207.25,-20 207.25,-223.23 207.25,-223.23 207.25,-229.23 201.25,-235.23 195.25,-235.23 195.25,-235.23 103.25,-235.23 103.25,-235.23 97.25,-235.23 91.25,-229.23 91.25,-223.23 91.25,-223.23 91.25,-20 91.25,-20 91.25,-14 97.25,-8 103.25,-8"/>
<text text-anchor="middle" x="159.88" y="-15.2" font-family="Times,serif" font-size="14.00">__obs__ (919)</text>
</g>
<!-- Intercept -->
<g id="node1" class="node">
<title>Intercept</title>
<ellipse fill="none" stroke="black" cx="45.25" cy="-320.29" rx="45.25" ry="40.66"/>
<text text-anchor="middle" x="45.25" y="-331.74" font-family="Times,serif" font-size="14.00">Intercept</text>
<text text-anchor="middle" x="45.25" y="-315.24" font-family="Times,serif" font-size="14.00">~</text>
<text text-anchor="middle" x="45.25" y="-298.74" font-family="Times,serif" font-size="14.00">Normal</text>
</g>
<!-- mu -->
<g id="node6" class="node">
<title>mu</title>
<polygon fill="none" stroke="black" points="194.38,-227.23 104.13,-227.23 104.13,-169.73 194.38,-169.73 194.38,-227.23"/>
<text text-anchor="middle" x="149.25" y="-209.93" font-family="Times,serif" font-size="14.00">mu</text>
<text text-anchor="middle" x="149.25" y="-193.43" font-family="Times,serif" font-size="14.00">~</text>
<text text-anchor="middle" x="149.25" y="-176.93" font-family="Times,serif" font-size="14.00">Deterministic</text>
</g>
<!-- Intercept&#45;&gt;mu -->
<g id="edge3" class="edge">
<title>Intercept&#45;&gt;mu</title>
<path fill="none" stroke="black" d="M67.38,-284.7C75.85,-272.39 85.96,-258.71 96.25,-247.13 99.77,-243.18 103.59,-239.22 107.51,-235.36"/>
<polygon fill="black" stroke="black" points="109.72,-238.1 114.55,-228.67 104.89,-233.02 109.72,-238.1"/>
</g>
<!-- 1|county_sigma -->
<g id="node2" class="node">
<title>1|county_sigma</title>
<ellipse fill="none" stroke="black" cx="258.25" cy="-437.61" rx="72.3" ry="40.66"/>
<text text-anchor="middle" x="258.25" y="-449.06" font-family="Times,serif" font-size="14.00">1|county_sigma</text>
<text text-anchor="middle" x="258.25" y="-432.56" font-family="Times,serif" font-size="14.00">~</text>
<text text-anchor="middle" x="258.25" y="-416.06" font-family="Times,serif" font-size="14.00">Exponential</text>
</g>
<!-- 1|county -->
<g id="node5" class="node">
<title>1|county</title>
<ellipse fill="none" stroke="black" cx="258.25" cy="-320.29" rx="44.19" ry="40.66"/>
<text text-anchor="middle" x="258.25" y="-331.74" font-family="Times,serif" font-size="14.00">1|county</text>
<text text-anchor="middle" x="258.25" y="-315.24" font-family="Times,serif" font-size="14.00">~</text>
<text text-anchor="middle" x="258.25" y="-298.74" font-family="Times,serif" font-size="14.00">Normal</text>
</g>
<!-- 1|county_sigma&#45;&gt;1|county -->
<g id="edge1" class="edge">
<title>1|county_sigma&#45;&gt;1|county</title>
<path fill="none" stroke="black" d="M258.25,-396.6C258.25,-388.82 258.25,-380.56 258.25,-372.48"/>
<polygon fill="black" stroke="black" points="261.75,-372.74 258.25,-362.74 254.75,-372.74 261.75,-372.74"/>
</g>
<!-- sigma -->
<g id="node3" class="node">
<title>sigma</title>
<ellipse fill="none" stroke="black" cx="278.25" cy="-198.48" rx="63.29" ry="40.66"/>
<text text-anchor="middle" x="278.25" y="-209.93" font-family="Times,serif" font-size="14.00">sigma</text>
<text text-anchor="middle" x="278.25" y="-193.43" font-family="Times,serif" font-size="14.00">~</text>
<text text-anchor="middle" x="278.25" y="-176.93" font-family="Times,serif" font-size="14.00">HalfStudentT</text>
</g>
<!-- log_radon -->
<g id="node7" class="node">
<title>log_radon</title>
<ellipse fill="lightgrey" stroke="black" cx="149.25" cy="-81.16" rx="50.03" ry="40.66"/>
<text text-anchor="middle" x="149.25" y="-92.61" font-family="Times,serif" font-size="14.00">log_radon</text>
<text text-anchor="middle" x="149.25" y="-76.11" font-family="Times,serif" font-size="14.00">~</text>
<text text-anchor="middle" x="149.25" y="-59.61" font-family="Times,serif" font-size="14.00">Normal</text>
</g>
<!-- sigma&#45;&gt;log_radon -->
<g id="edge6" class="edge">
<title>sigma&#45;&gt;log_radon</title>
<path fill="none" stroke="black" d="M241.98,-165.05C226.11,-150.86 207.41,-134.15 190.97,-119.45"/>
<polygon fill="black" stroke="black" points="193.53,-117.04 183.74,-112.99 188.86,-122.26 193.53,-117.04"/>
</g>
<!-- floor -->
<g id="node4" class="node">
<title>floor</title>
<ellipse fill="none" stroke="black" cx="149.25" cy="-320.29" rx="41.01" ry="40.66"/>
<text text-anchor="middle" x="149.25" y="-331.74" font-family="Times,serif" font-size="14.00">floor</text>
<text text-anchor="middle" x="149.25" y="-315.24" font-family="Times,serif" font-size="14.00">~</text>
<text text-anchor="middle" x="149.25" y="-298.74" font-family="Times,serif" font-size="14.00">Normal</text>
</g>
<!-- floor&#45;&gt;mu -->
<g id="edge4" class="edge">
<title>floor&#45;&gt;mu</title>
<path fill="none" stroke="black" d="M149.25,-279.4C149.25,-266.37 149.25,-251.91 149.25,-238.91"/>
<polygon fill="black" stroke="black" points="152.75,-238.98 149.25,-228.98 145.75,-238.98 152.75,-238.98"/>
</g>
<!-- 1|county&#45;&gt;mu -->
<g id="edge2" class="edge">
<title>1|county&#45;&gt;mu</title>
<path fill="none" stroke="black" d="M234.35,-285.96C224.83,-273.38 213.49,-259.21 202.25,-247.13 198.6,-243.21 194.67,-239.24 190.65,-235.37"/>
<polygon fill="black" stroke="black" points="193.14,-232.91 183.46,-228.61 188.35,-238.01 193.14,-232.91"/>
</g>
<!-- mu&#45;&gt;log_radon -->
<g id="edge5" class="edge">
<title>mu&#45;&gt;log_radon</title>
<path fill="none" stroke="black" d="M149.25,-169.27C149.25,-158.44 149.25,-145.73 149.25,-133.41"/>
<polygon fill="black" stroke="black" points="152.75,-133.78 149.25,-123.78 145.75,-133.78 152.75,-133.78"/>
</g>
</g>
</svg>