<?xml version="1.0" encoding="UTF-8" standalone="no"?>
<!DOCTYPE svg PUBLIC "-//W3C//DTD SVG 1.1//EN"
 "http://www.w3.org/Graphics/SVG/1.1/DTD/svg11.dtd">
<!-- Generated by graphviz version 12.1.0 (20240811.2233)
 -->
<!-- Pages: 1 -->
<svg width="350pt" height="385pt"
 viewBox="0.00 0.00 349.60 384.95" xmlns="http://www.w3.org/2000/svg" xmlns:xlink="http://www.w3.org/1999/xlink">
<g id="graph0" class="graph" transform="scale(1 1) rotate(0) translate(4 380.95)">
<polygon fill="white" stroke="none" points="-4,4 -4,-380.95 345.6,-380.95 345.6,4 -4,4"/>
<g id="clust1" class="cluster">
<title>clustergroup_dim (2)</title>
<path fill="none" stroke="black" d="M99.6,-247.13C99.6,-247.13 173.6,-247.13 173.6,-247.13 179.6,-247.13 185.6,-253.13 185.6,-259.13 185.6,-259.13 185.6,-356.95 185.6,-356.95 185.6,-362.95 179.6,-368.95 173.6,-368.95 173.6,-368.95 99.6,-368.95 99.6,-368.95 93.6,-368.95 87.6,-362.95 87.6,-356.95 87.6,-356.95 87.6,-259.13 87.6,-259.13 87.6,-253.13 93.6,-247.13 99.6,-247.13"/>
<text text-anchor="middle" x="137.85" y="-254.33" font-family="Times,serif" font-size="14.00">group_dim (2)</text>
</g>
<g id="clust2" class="cluster">
<title>clustersigma_group_dim (2)</title>
<path fill="none" stroke="black" d="M205.6,-247.13C205.6,-247.13 321.6,-247.13 321.6,-247.13 327.6,-247.13 333.6,-253.13 333.6,-259.13 333.6,-259.13 333.6,-356.95 333.6,-356.95 333.6,-362.95 327.6,-368.95 321.6,-368.95 321.6,-368.95 205.6,-368.95 205.6,-368.95 199.6,-368.95 193.6,-362.95 193.6,-356.95 193.6,-356.95 193.6,-259.13 193.6,-259.13 193.6,-253.13 199.6,-247.13 205.6,-247.13"/>
<text text-anchor="middle" x="265.98" y="-254.33" font-family="Times,serif" font-size="14.00">sigma_group_dim (2)</text>
</g>
<g id="clust3" class="cluster">
<title>cluster__obs__ (89)</title>
<path fill="none" stroke="black" d="M107.6,-8C107.6,-8 297.6,-8 297.6,-8 303.6,-8 309.6,-14 309.6,-20 309.6,-20 309.6,-223.23 309.6,-223.23 309.6,-229.23 303.6,-235.23 297.6,-235.23 297.6,-235.23 107.6,-235.23 107.6,-235.23 101.6,-235.23 95.6,-229.23 95.6,-223.23 95.6,-223.23 95.6,-20 95.6,-20 95.6,-14 101.6,-8 107.6,-8"/>
<text text-anchor="middle" x="265.6" y="-15.2" font-family="Times,serif" font-size="14.00">__obs__ (89)</text>
</g>
<!-- nu -->
<g id="node1" class="node">
<title>nu</title>
<ellipse fill="none" stroke="black" cx="42.6" cy="-198.48" rx="42.6" ry="40.66"/>
<text text-anchor="middle" x="42.6" y="-209.93" font-family="Times,serif" font-size="14.00">nu</text>
<text text-anchor="middle" x="42.6" y="-193.43" font-family="Times,serif" font-size="14.00">~</text>
<text text-anchor="middle" x="42.6" y="-176.93" font-family="Times,serif" font-size="14.00">Gamma</text>
</g>
<!-- iq -->
<g id="node6" class="node">
<title>iq</title>
<ellipse fill="lightgrey" stroke="black" cx="149.6" cy="-81.16" rx="46.32" ry="40.66"/>
<text text-anchor="middle" x="149.6" y="-92.61" font-family="Times,serif" font-size="14.00">iq</text>
<text text-anchor="middle" x="149.6" y="-76.11" font-family="Times,serif" font-size="14.00">~</text>
<text text-anchor="middle" x="149.6" y="-59.61" font-family="Times,serif" font-size="14.00">StudentT</text>
</g>
<!-- nu&#45;&gt;iq -->
<g id="edge5" class="edge">
<title>nu&#45;&gt;iq</title>
<path fill="none" stroke="black" d="M70.44,-167.48C83.5,-153.4 99.23,-136.44 113.22,-121.36"/>
<polygon fill="black" stroke="black" points="115.52,-124.03 119.76,-114.32 110.39,-119.27 115.52,-124.03"/>
</g>
<!-- group -->
<g id="node2" class="node">
<title>group</title>
<ellipse fill="none" stroke="black" cx="136.6" cy="-320.29" rx="41.01" ry="40.66"/>
<text text-anchor="middle" x="136.6" y="-331.74" font-family="Times,serif" font-size="14.00">group</text>
<text text-anchor="middle" x="136.6" y="-315.24" font-family="Times,serif" font-size="14.00">~</text>
<text text-anchor="middle" x="136.6" y="-298.74" font-family="Times,serif" font-size="14.00">Normal</text>
</g>
<!-- mu -->
<g id="node5" class="node">
<title>mu</title>
<polygon fill="none" stroke="black" points="193.73,-227.23 103.48,-227.23 103.48,-169.73 193.73,-169.73 193.73,-227.23"/>
<text text-anchor="middle" x="148.6" y="-209.93" font-family="Times,serif" font-size="14.00">mu</text>
<text text-anchor="middle" x="148.6" y="-193.43" font-family="Times,serif" font-size="14.00">~</text>
<text text-anchor="middle" x="148.6" y="-176.93" font-family="Times,serif" font-size="14.00">Deterministic</text>
</g>
<!-- group&#45;&gt;mu -->
<g id="edge1" class="edge">
<title>group&#45;&gt;mu</title>
<path fill="none" stroke="black" d="M140.6,-279.4C141.9,-266.37 143.35,-251.91 144.65,-238.91"/>
<polygon fill="black" stroke="black" points="148.13,-239.28 145.65,-228.98 141.17,-238.58 148.13,-239.28"/>
</g>
<!-- sigma_group -->
<g id="node3" class="node">
<title>sigma_group</title>
<ellipse fill="none" stroke="black" cx="263.6" cy="-320.29" rx="61.7" ry="40.66"/>
<text text-anchor="middle" x="263.6" y="-331.74" font-family="Times,serif" font-size="14.00">sigma_group</text>
<text text-anchor="middle" x="263.6" y="-315.24" font-family="Times,serif" font-size="14.00">~</text>
<text text-anchor="middle" x="263.6" y="-298.74" font-family="Times,serif" font-size="14.00">Normal</text>
</g>
<!-- sigma -->
<g id="node4" class="node">
<title>sigma</title>
<polygon fill="none" stroke="black" points="301.73,-227.23 211.48,-227.23 211.48,-169.73 301.73,-169.73 301.73,-227.23"/>
<text text-anchor="middle" x="256.6" y="-209.93" font-family="Times,serif" font-size="14.00">sigma</text>
<text text-anchor="middle" x="256.6" y="-193.43" font-family="Times,serif" font-size="14.00">~</text>
<text text-anchor="middle" x="256.6" y="-176.93" font-family="Times,serif" font-size="14.00">Deterministic</text>
</g>
<!-- sigma_group&#45;&gt;sigma -->
<g id="edge2" class="edge">
<title>sigma_group&#45;&gt;sigma</title>
<path fill="none" stroke="black" d="M261.27,-279.4C260.51,-266.37 259.67,-251.91 258.91,-238.91"/>
<polygon fill="black" stroke="black" points="262.4,-238.76 258.33,-228.98 255.42,-239.17 262.4,-238.76"/>
</g>
<!-- sigma&#45;&gt;iq -->
<g id="edge3" class="edge">
<title>sigma&#45;&gt;iq</title>
<path fill="none" stroke="black" d="M230.43,-169.27C217.05,-154.84 200.55,-137.06 185.95,-121.33"/>
<polygon fill="black" stroke="black" points="188.92,-119.38 179.55,-114.43 183.78,-124.14 188.92,-119.38"/>
</g>
<!-- mu&#45;&gt;iq -->
<g id="edge4" class="edge">
<title>mu&#45;&gt;iq</title>
<path fill="none" stroke="black" d="M148.85,-169.27C148.94,-158.44 149.05,-145.73 149.16,-133.41"/>
<polygon fill="black" stroke="black" points="152.66,-133.81 149.24,-123.78 145.66,-133.75 152.66,-133.81"/>
</g>
</g>
</svg>