<?xml version="1.0" encoding="UTF-8" standalone="no"?>
<!DOCTYPE svg PUBLIC "-//W3C//DTD SVG 1.1//EN"
 "http://www.w3.org/Graphics/SVG/1.1/DTD/svg11.dtd">
<!-- Generated by graphviz version 2.43.0 (0)
 -->
<!-- Title: %3 Pages: 1 -->
<svg width="657pt" height="455pt"
 viewBox="0.00 0.00 657.18 454.84" xmlns="http://www.w3.org/2000/svg" xmlns:xlink="http://www.w3.org/1999/xlink">
<g id="graph0" class="graph" transform="scale(1 1) rotate(0) translate(4 450.84)">
<title>%3</title>
<polygon fill="white" stroke="transparent" points="-4,4 -4,-450.84 653.18,-450.84 653.18,4 -4,4"/>
<g id="clust1" class="cluster">
<title>clusterpredictors (10)</title>
<path fill="none" stroke="black" d="M154.47,-129.95C154.47,-129.95 422.47,-129.95 422.47,-129.95 428.47,-129.95 434.47,-135.95 434.47,-141.95 434.47,-141.95 434.47,-331.88 434.47,-331.88 434.47,-337.88 428.47,-343.88 422.47,-343.88 422.47,-343.88 154.47,-343.88 154.47,-343.88 148.47,-343.88 142.47,-337.88 142.47,-331.88 142.47,-331.88 142.47,-141.95 142.47,-141.95 142.47,-135.95 148.47,-129.95 154.47,-129.95"/>
<text text-anchor="middle" x="372.97" y="-137.75" font-family="Times,serif" font-size="14.00">predictors (10)</text>
</g>
<g id="clust2" class="cluster">
<title>cluster101</title>
<path fill="none" stroke="black" d="M479.47,-8C479.47,-8 569.47,-8 569.47,-8 575.47,-8 581.47,-14 581.47,-20 581.47,-20 581.47,-109.95 581.47,-109.95 581.47,-115.95 575.47,-121.95 569.47,-121.95 569.47,-121.95 479.47,-121.95 479.47,-121.95 473.47,-121.95 467.47,-115.95 467.47,-109.95 467.47,-109.95 467.47,-20 467.47,-20 467.47,-14 473.47,-8 479.47,-8"/>
<text text-anchor="middle" x="559.47" y="-15.8" font-family="Times,serif" font-size="14.00">101</text>
</g>
<!-- c2 -->
<g id="node1" class="node">
<title>c2</title>
<ellipse fill="none" stroke="black" cx="66.47" cy="-298.41" rx="66.44" ry="37.45"/>
<text text-anchor="middle" x="66.47" y="-309.71" font-family="Times,serif" font-size="14.00">c2</text>
<text text-anchor="middle" x="66.47" y="-294.71" font-family="Times,serif" font-size="14.00">~</text>
<text text-anchor="middle" x="66.47" y="-279.71" font-family="Times,serif" font-size="14.00">InvGamma</text>
</g>
<!-- beta -->
<g id="node7" class="node">
<title>beta</title>
<polygon fill="none" stroke="black" points="426.47,-213.95 312.47,-213.95 312.47,-160.95 426.47,-160.95 426.47,-213.95"/>
<text text-anchor="middle" x="369.47" y="-198.75" font-family="Times,serif" font-size="14.00">beta</text>
<text text-anchor="middle" x="369.47" y="-183.75" font-family="Times,serif" font-size="14.00">~</text>
<text text-anchor="middle" x="369.47" y="-168.75" font-family="Times,serif" font-size="14.00">Deterministic</text>
</g>
<!-- c2&#45;&gt;beta -->
<g id="edge2" class="edge">
<title>c2&#45;&gt;beta</title>
<path fill="none" stroke="black" d="M113.98,-271.95C122.05,-268.03 130.42,-264.2 138.47,-260.93 192.44,-238.97 255.7,-219.53 302.37,-206.34"/>
<polygon fill="black" stroke="black" points="303.38,-209.69 312.06,-203.61 301.49,-202.95 303.38,-209.69"/>
</g>
<!-- tau -->
<g id="node2" class="node">
<title>tau</title>
<ellipse fill="none" stroke="black" cx="524.47" cy="-298.41" rx="79.81" ry="37.45"/>
<text text-anchor="middle" x="524.47" y="-309.71" font-family="Times,serif" font-size="14.00">tau</text>
<text text-anchor="middle" x="524.47" y="-294.71" font-family="Times,serif" font-size="14.00">~</text>
<text text-anchor="middle" x="524.47" y="-279.71" font-family="Times,serif" font-size="14.00">HalfStudentT</text>
</g>
<!-- tau&#45;&gt;beta -->
<g id="edge5" class="edge">
<title>tau&#45;&gt;beta</title>
<path fill="none" stroke="black" d="M480.88,-266.77C460.1,-252.16 435.28,-234.71 414.34,-219.99"/>
<polygon fill="black" stroke="black" points="416.12,-216.97 405.92,-214.08 412.09,-222.69 416.12,-216.97"/>
</g>
<!-- beta0 -->
<g id="node3" class="node">
<title>beta0</title>
<ellipse fill="none" stroke="black" cx="524.47" cy="-187.45" rx="49.49" ry="37.45"/>
<text text-anchor="middle" x="524.47" y="-198.75" font-family="Times,serif" font-size="14.00">beta0</text>
<text text-anchor="middle" x="524.47" y="-183.75" font-family="Times,serif" font-size="14.00">~</text>
<text text-anchor="middle" x="524.47" y="-168.75" font-family="Times,serif" font-size="14.00">Normal</text>
</g>
<!-- scores -->
<g id="node8" class="node">
<title>scores</title>
<ellipse fill="lightgrey" stroke="black" cx="524.47" cy="-76.48" rx="49.49" ry="37.45"/>
<text text-anchor="middle" x="524.47" y="-87.78" font-family="Times,serif" font-size="14.00">scores</text>
<text text-anchor="middle" x="524.47" y="-72.78" font-family="Times,serif" font-size="14.00">~</text>
<text text-anchor="middle" x="524.47" y="-57.78" font-family="Times,serif" font-size="14.00">Normal</text>
</g>
<!-- beta0&#45;&gt;scores -->
<g id="edge6" class="edge">
<title>beta0&#45;&gt;scores</title>
<path fill="none" stroke="black" d="M524.47,-149.86C524.47,-141.69 524.47,-132.9 524.47,-124.38"/>
<polygon fill="black" stroke="black" points="527.97,-124.16 524.47,-114.16 520.97,-124.16 527.97,-124.16"/>
</g>
<!-- sigma -->
<g id="node4" class="node">
<title>sigma</title>
<ellipse fill="none" stroke="black" cx="578.47" cy="-409.36" rx="70.92" ry="37.45"/>
<text text-anchor="middle" x="578.47" y="-420.66" font-family="Times,serif" font-size="14.00">sigma</text>
<text text-anchor="middle" x="578.47" y="-405.66" font-family="Times,serif" font-size="14.00">~</text>
<text text-anchor="middle" x="578.47" y="-390.66" font-family="Times,serif" font-size="14.00">HalfNormal</text>
</g>
<!-- sigma&#45;&gt;tau -->
<g id="edge1" class="edge">
<title>sigma&#45;&gt;tau</title>
<path fill="none" stroke="black" d="M560.94,-372.99C556.36,-363.76 551.37,-353.69 546.59,-344.05"/>
<polygon fill="black" stroke="black" points="549.67,-342.38 542.1,-334.98 543.4,-345.49 549.67,-342.38"/>
</g>
<!-- sigma&#45;&gt;scores -->
<g id="edge8" class="edge">
<title>sigma&#45;&gt;scores</title>
<path fill="none" stroke="black" d="M601.25,-373.86C606.27,-364.51 610.87,-354.13 613.47,-343.88 622.54,-308.15 617.74,-297.55 613.47,-260.93 606.53,-201.51 612.91,-181.45 582.47,-129.95 578.34,-122.97 572.98,-116.38 567.18,-110.39"/>
<polygon fill="black" stroke="black" points="569.29,-107.57 559.67,-103.14 564.43,-112.6 569.29,-107.57"/>
</g>
<!-- z -->
<g id="node5" class="node">
<title>z</title>
<ellipse fill="none" stroke="black" cx="377.47" cy="-298.41" rx="49.49" ry="37.45"/>
<text text-anchor="middle" x="377.47" y="-309.71" font-family="Times,serif" font-size="14.00">z</text>
<text text-anchor="middle" x="377.47" y="-294.71" font-family="Times,serif" font-size="14.00">~</text>
<text text-anchor="middle" x="377.47" y="-279.71" font-family="Times,serif" font-size="14.00">Normal</text>
</g>
<!-- z&#45;&gt;beta -->
<g id="edge3" class="edge">
<title>z&#45;&gt;beta</title>
<path fill="none" stroke="black" d="M374.78,-260.82C373.92,-249.09 372.97,-236.1 372.11,-224.41"/>
<polygon fill="black" stroke="black" points="375.57,-223.82 371.35,-214.11 368.59,-224.34 375.57,-223.82"/>
</g>
<!-- lam -->
<g id="node6" class="node">
<title>lam</title>
<ellipse fill="none" stroke="black" cx="230.47" cy="-298.41" rx="79.81" ry="37.45"/>
<text text-anchor="middle" x="230.47" y="-309.71" font-family="Times,serif" font-size="14.00">lam</text>
<text text-anchor="middle" x="230.47" y="-294.71" font-family="Times,serif" font-size="14.00">~</text>
<text text-anchor="middle" x="230.47" y="-279.71" font-family="Times,serif" font-size="14.00">HalfStudentT</text>
</g>
<!-- lam&#45;&gt;beta -->
<g id="edge4" class="edge">
<title>lam&#45;&gt;beta</title>
<path fill="none" stroke="black" d="M270.67,-265.89C288.89,-251.61 310.39,-234.76 328.68,-220.42"/>
<polygon fill="black" stroke="black" points="331.12,-222.96 336.83,-214.03 326.8,-217.45 331.12,-222.96"/>
</g>
<!-- beta&#45;&gt;scores -->
<g id="edge7" class="edge">
<title>beta&#45;&gt;scores</title>
<path fill="none" stroke="black" d="M405.81,-160.9C428.04,-145.27 456.64,-125.16 480.2,-108.6"/>
<polygon fill="black" stroke="black" points="482.46,-111.29 488.62,-102.68 478.43,-105.57 482.46,-111.29"/>
</g>
</g>
</svg>