<?xml version="1.0" encoding="UTF-8" standalone="no"?>
<!DOCTYPE svg PUBLIC "-//W3C//DTD SVG 1.1//EN"
 "http://www.w3.org/Graphics/SVG/1.1/DTD/svg11.dtd">
<!-- Generated by graphviz version 12.1.0 (20240811.2233)
 -->
<!-- Pages: 1 -->
<svg width="595pt" height="515pt"
 viewBox="0.00 0.00 595.29 514.77" xmlns="http://www.w3.org/2000/svg" xmlns:xlink="http://www.w3.org/1999/xlink">
<g id="graph0" class="graph" transform="scale(1 1) rotate(0) translate(4 510.77)">
<polygon fill="white" stroke="none" points="-4,4 -4,-510.77 591.29,-510.77 591.29,4 -4,4"/>
<g id="clust1" class="cluster">
<title>clustercounty__factor_dim (85)</title>
<path fill="none" stroke="black" d="M151.29,-247.13C151.29,-247.13 279.29,-247.13 279.29,-247.13 285.29,-247.13 291.29,-253.13 291.29,-259.13 291.29,-259.13 291.29,-356.95 291.29,-356.95 291.29,-362.95 285.29,-368.95 279.29,-368.95 279.29,-368.95 151.29,-368.95 151.29,-368.95 145.29,-368.95 139.29,-362.95 139.29,-356.95 139.29,-356.95 139.29,-259.13 139.29,-259.13 139.29,-253.13 145.29,-247.13 151.29,-247.13"/>
<text text-anchor="middle" x="215.04" y="-254.33" font-family="Times,serif" font-size="14.00">county__factor_dim (85)</text>
</g>
<g id="clust2" class="cluster">
<title>clusterfloor__expr_dim (1)</title>
<path fill="none" stroke="black" d="M285.29,-376.95C285.29,-376.95 449.29,-376.95 449.29,-376.95 455.29,-376.95 461.29,-382.95 461.29,-388.95 461.29,-388.95 461.29,-486.77 461.29,-486.77 461.29,-492.77 455.29,-498.77 449.29,-498.77 449.29,-498.77 285.29,-498.77 285.29,-498.77 279.29,-498.77 273.29,-492.77 273.29,-486.77 273.29,-486.77 273.29,-388.95 273.29,-388.95 273.29,-382.95 279.29,-376.95 285.29,-376.95"/>
<text text-anchor="middle" x="397.41" y="-384.15" font-family="Times,serif" font-size="14.00">floor__expr_dim (1)</text>
</g>
<g id="clust3" class="cluster">
<title>clustercounty__factor_dim (85) x floor__expr_dim (1)</title>
<path fill="none" stroke="black" d="M313.29,-247.13C313.29,-247.13 567.29,-247.13 567.29,-247.13 573.29,-247.13 579.29,-253.13 579.29,-259.13 579.29,-259.13 579.29,-356.95 579.29,-356.95 579.29,-362.95 573.29,-368.95 567.29,-368.95 567.29,-368.95 313.29,-368.95 313.29,-368.95 307.29,-368.95 301.29,-362.95 301.29,-356.95 301.29,-356.95 301.29,-259.13 301.29,-259.13 301.29,-253.13 307.29,-247.13 313.29,-247.13"/>
<text text-anchor="middle" x="440.04" y="-254.33" font-family="Times,serif" font-size="14.00">county__factor_dim (85) x floor__expr_dim (1)</text>
</g>
<g id="clust4" class="cluster">
<title>cluster__obs__ (919)</title>
<path fill="none" stroke="black" d="M146.29,-8C146.29,-8 238.29,-8 238.29,-8 244.29,-8 250.29,-14 250.29,-20 250.29,-20 250.29,-223.23 250.29,-223.23 250.29,-229.23 244.29,-235.23 238.29,-235.23 238.29,-235.23 146.29,-235.23 146.29,-235.23 140.29,-235.23 134.29,-229.23 134.29,-223.23 134.29,-223.23 134.29,-20 134.29,-20 134.29,-14 140.29,-8 146.29,-8"/>
<text text-anchor="middle" x="202.91" y="-15.2" font-family="Times,serif" font-size="14.00">__obs__ (919)</text>
</g>
<!-- sigma -->
<g id="node1" class="node">
<title>sigma</title>
<ellipse fill="none" stroke="black" cx="63.29" cy="-198.48" rx="63.29" ry="40.66"/>
<text text-anchor="middle" x="63.29" y="-209.93" font-family="Times,serif" font-size="14.00">sigma</text>
<text text-anchor="middle" x="63.29" y="-193.43" font-family="Times,serif" font-size="14.00">~</text>
<text text-anchor="middle" x="63.29" y="-176.93" font-family="Times,serif" font-size="14.00">HalfStudentT</text>
</g>
<!-- log_radon -->
<g id="node7" class="node">
<title>log_radon</title>
<ellipse fill="lightgrey" stroke="black" cx="192.29" cy="-81.16" rx="50.03" ry="40.66"/>
<text text-anchor="middle" x="192.29" y="-92.61" font-family="Times,serif" font-size="14.00">log_radon</text>
<text text-anchor="middle" x="192.29" y="-76.11" font-family="Times,serif" font-size="14.00">~</text>
<text text-anchor="middle" x="192.29" y="-59.61" font-family="Times,serif" font-size="14.00">Normal</text>
</g>
<!-- sigma&#45;&gt;log_radon -->
<g id="edge6" class="edge">
<title>sigma&#45;&gt;log_radon</title>
<path fill="none" stroke="black" d="M99.56,-165.05C115.43,-150.86 134.13,-134.15 150.57,-119.45"/>
<polygon fill="black" stroke="black" points="152.68,-122.26 157.8,-112.99 148.01,-117.04 152.68,-122.26"/>
</g>
<!-- 1|county_sigma -->
<g id="node2" class="node">
<title>1|county_sigma</title>
<ellipse fill="none" stroke="black" cx="191.29" cy="-450.11" rx="72.3" ry="40.66"/>
<text text-anchor="middle" x="191.29" y="-461.56" font-family="Times,serif" font-size="14.00">1|county_sigma</text>
<text text-anchor="middle" x="191.29" y="-445.06" font-family="Times,serif" font-size="14.00">~</text>
<text text-anchor="middle" x="191.29" y="-428.56" font-family="Times,serif" font-size="14.00">Exponential</text>
</g>
<!-- 1|county -->
<g id="node4" class="node">
<title>1|county</title>
<ellipse fill="none" stroke="black" cx="192.29" cy="-320.29" rx="44.19" ry="40.66"/>
<text text-anchor="middle" x="192.29" y="-331.74" font-family="Times,serif" font-size="14.00">1|county</text>
<text text-anchor="middle" x="192.29" y="-315.24" font-family="Times,serif" font-size="14.00">~</text>
<text text-anchor="middle" x="192.29" y="-298.74" font-family="Times,serif" font-size="14.00">Normal</text>
</g>
<!-- 1|county_sigma&#45;&gt;1|county -->
<g id="edge1" class="edge">
<title>1|county_sigma&#45;&gt;1|county</title>
<path fill="none" stroke="black" d="M191.6,-409.02C191.69,-397.48 191.79,-384.73 191.88,-372.61"/>
<polygon fill="black" stroke="black" points="195.38,-372.78 191.96,-362.76 188.38,-372.73 195.38,-372.78"/>
</g>
<!-- Intercept -->
<g id="node3" class="node">
<title>Intercept</title>
<ellipse fill="none" stroke="black" cx="85.29" cy="-320.29" rx="45.25" ry="40.66"/>
<text text-anchor="middle" x="85.29" y="-331.74" font-family="Times,serif" font-size="14.00">Intercept</text>
<text text-anchor="middle" x="85.29" y="-315.24" font-family="Times,serif" font-size="14.00">~</text>
<text text-anchor="middle" x="85.29" y="-298.74" font-family="Times,serif" font-size="14.00">Normal</text>
</g>
<!-- mu -->
<g id="node8" class="node">
<title>mu</title>
<polygon fill="none" stroke="black" points="237.41,-227.23 147.16,-227.23 147.16,-169.73 237.41,-169.73 237.41,-227.23"/>
<text text-anchor="middle" x="192.29" y="-209.93" font-family="Times,serif" font-size="14.00">mu</text>
<text text-anchor="middle" x="192.29" y="-193.43" font-family="Times,serif" font-size="14.00">~</text>
<text text-anchor="middle" x="192.29" y="-176.93" font-family="Times,serif" font-size="14.00">Deterministic</text>
</g>
<!-- Intercept&#45;&gt;mu -->
<g id="edge4" class="edge">
<title>Intercept&#45;&gt;mu</title>
<path fill="none" stroke="black" d="M106.91,-284.1C115.13,-271.86 125.01,-258.39 135.29,-247.13 139.05,-243.01 143.17,-238.92 147.42,-234.97"/>
<polygon fill="black" stroke="black" points="149.44,-237.86 154.56,-228.59 144.77,-232.65 149.44,-237.86"/>
</g>
<!-- 1|county&#45;&gt;mu -->
<g id="edge3" class="edge">
<title>1|county&#45;&gt;mu</title>
<path fill="none" stroke="black" d="M192.29,-279.4C192.29,-266.37 192.29,-251.91 192.29,-238.91"/>
<polygon fill="black" stroke="black" points="195.79,-238.98 192.29,-228.98 188.79,-238.98 195.79,-238.98"/>
</g>
<!-- floor|county_sigma -->
<g id="node5" class="node">
<title>floor|county_sigma</title>
<ellipse fill="none" stroke="black" cx="367.29" cy="-450.11" rx="86.09" ry="40.66"/>
<text text-anchor="middle" x="367.29" y="-461.56" font-family="Times,serif" font-size="14.00">floor|county_sigma</text>
<text text-anchor="middle" x="367.29" y="-445.06" font-family="Times,serif" font-size="14.00">~</text>
<text text-anchor="middle" x="367.29" y="-428.56" font-family="Times,serif" font-size="14.00">Exponential</text>
</g>
<!-- floor|county -->
<g id="node6" class="node">
<title>floor|county</title>
<ellipse fill="none" stroke="black" cx="367.29" cy="-320.29" rx="57.98" ry="40.66"/>
<text text-anchor="middle" x="367.29" y="-331.74" font-family="Times,serif" font-size="14.00">floor|county</text>
<text text-anchor="middle" x="367.29" y="-315.24" font-family="Times,serif" font-size="14.00">~</text>
<text text-anchor="middle" x="367.29" y="-298.74" font-family="Times,serif" font-size="14.00">Normal</text>
</g>
<!-- floor|county_sigma&#45;&gt;floor|county -->
<g id="edge2" class="edge">
<title>floor|county_sigma&#45;&gt;floor|county</title>
<path fill="none" stroke="black" d="M367.29,-409.02C367.29,-397.48 367.29,-384.73 367.29,-372.61"/>
<polygon fill="black" stroke="black" points="370.79,-372.76 367.29,-362.76 363.79,-372.76 370.79,-372.76"/>
</g>
<!-- floor|county&#45;&gt;mu -->
<g id="edge5" class="edge">
<title>floor|county&#45;&gt;mu</title>
<path fill="none" stroke="black" d="M337.93,-285.07C325.65,-272.1 310.66,-257.88 295.29,-247.13 280.85,-237.04 263.93,-228.19 248.02,-220.93"/>
<polygon fill="black" stroke="black" points="249.7,-217.85 239.14,-217.01 246.88,-224.25 249.7,-217.85"/>
</g>
<!-- mu&#45;&gt;log_radon -->
<g id="edge7" class="edge">
<title>mu&#45;&gt;log_radon</title>
<path fill="none" stroke="black" d="M192.29,-169.27C192.29,-158.44 192.29,-145.73 192.29,-133.41"/>
<polygon fill="black" stroke="black" points="195.79,-133.78 192.29,-123.78 188.79,-133.78 195.79,-133.78"/>
</g>
</g>
</svg>