<?xml version="1.0" encoding="UTF-8" standalone="no"?>
<!DOCTYPE svg PUBLIC "-//W3C//DTD SVG 1.1//EN"
 "http://www.w3.org/Graphics/SVG/1.1/DTD/svg11.dtd">
<!-- Generated by graphviz version 12.1.0 (20240811.2233)
 -->
<!-- Pages: 1 -->
<svg width="312pt" height="385pt"
 viewBox="0.00 0.00 312.29 384.95" xmlns="http://www.w3.org/2000/svg" xmlns:xlink="http://www.w3.org/1999/xlink">
<g id="graph0" class="graph" transform="scale(1 1) rotate(0) translate(4 380.95)">
<polygon fill="white" stroke="none" points="-4,4 -4,-380.95 308.29,-380.95 308.29,4 -4,4"/>
<g id="clust1" class="cluster">
<title>clustercounty_dim (85)</title>
<path fill="none" stroke="black" d="M95.29,-247.13C95.29,-247.13 178.29,-247.13 178.29,-247.13 184.29,-247.13 190.29,-253.13 190.29,-259.13 190.29,-259.13 190.29,-356.95 190.29,-356.95 190.29,-362.95 184.29,-368.95 178.29,-368.95 178.29,-368.95 95.29,-368.95 95.29,-368.95 89.29,-368.95 83.29,-362.95 83.29,-356.95 83.29,-356.95 83.29,-259.13 83.29,-259.13 83.29,-253.13 89.29,-247.13 95.29,-247.13"/>
<text text-anchor="middle" x="136.54" y="-254.33" font-family="Times,serif" font-size="14.00">county_dim (85)</text>
</g>
<g id="clust2" class="cluster">
<title>clusterfloor_dim (1)</title>
<path fill="none" stroke="black" d="M210.29,-247.13C210.29,-247.13 284.29,-247.13 284.29,-247.13 290.29,-247.13 296.29,-253.13 296.29,-259.13 296.29,-259.13 296.29,-356.95 296.29,-356.95 296.29,-362.95 290.29,-368.95 284.29,-368.95 284.29,-368.95 210.29,-368.95 210.29,-368.95 204.29,-368.95 198.29,-362.95 198.29,-356.95 198.29,-356.95 198.29,-259.13 198.29,-259.13 198.29,-253.13 204.29,-247.13 210.29,-247.13"/>
<text text-anchor="middle" x="251.16" y="-254.33" font-family="Times,serif" font-size="14.00">floor_dim (1)</text>
</g>
<g id="clust3" class="cluster">
<title>cluster__obs__ (919)</title>
<path fill="none" stroke="black" d="M146.29,-8C146.29,-8 238.29,-8 238.29,-8 244.29,-8 250.29,-14 250.29,-20 250.29,-20 250.29,-223.23 250.29,-223.23 250.29,-229.23 244.29,-235.23 238.29,-235.23 238.29,-235.23 146.29,-235.23 146.29,-235.23 140.29,-235.23 134.29,-229.23 134.29,-223.23 134.29,-223.23 134.29,-20 134.29,-20 134.29,-14 140.29,-8 146.29,-8"/>
<text text-anchor="middle" x="202.91" y="-15.2" font-family="Times,serif" font-size="14.00">__obs__ (919)</text>
</g>
<!-- sigma -->
<g id="node1" class="node">
<title>sigma</title>
<ellipse fill="none" stroke="black" cx="63.29" cy="-198.48" rx="63.29" ry="40.66"/>
<text text-anchor="middle" x="63.29" y="-209.93" font-family="Times,serif" font-size="14.00">sigma</text>
<text text-anchor="middle" x="63.29" y="-193.43" font-family="Times,serif" font-size="14.00">~</text>
<text text-anchor="middle" x="63.29" y="-176.93" font-family="Times,serif" font-size="14.00">HalfStudentT</text>
</g>
<!-- log_radon -->
<g id="node5" class="node">
<title>log_radon</title>
<ellipse fill="lightgrey" stroke="black" cx="192.29" cy="-81.16" rx="50.03" ry="40.66"/>
<text text-anchor="middle" x="192.29" y="-92.61" font-family="Times,serif" font-size="14.00">log_radon</text>
<text text-anchor="middle" x="192.29" y="-76.11" font-family="Times,serif" font-size="14.00">~</text>
<text text-anchor="middle" x="192.29" y="-59.61" font-family="Times,serif" font-size="14.00">Normal</text>
</g>
<!-- sigma&#45;&gt;log_radon -->
<g id="edge4" class="edge">
<title>sigma&#45;&gt;log_radon</title>
<path fill="none" stroke="black" d="M99.56,-165.05C115.43,-150.86 134.13,-134.15 150.57,-119.45"/>
<polygon fill="black" stroke="black" points="152.68,-122.26 157.8,-112.99 148.01,-117.04 152.68,-122.26"/>
</g>
<!-- county -->
<g id="node2" class="node">
<title>county</title>
<ellipse fill="none" stroke="black" cx="141.29" cy="-320.29" rx="41.01" ry="40.66"/>
<text text-anchor="middle" x="141.29" y="-331.74" font-family="Times,serif" font-size="14.00">county</text>
<text text-anchor="middle" x="141.29" y="-315.24" font-family="Times,serif" font-size="14.00">~</text>
<text text-anchor="middle" x="141.29" y="-298.74" font-family="Times,serif" font-size="14.00">Normal</text>
</g>
<!-- mu -->
<g id="node4" class="node">
<title>mu</title>
<polygon fill="none" stroke="black" points="237.41,-227.23 147.16,-227.23 147.16,-169.73 237.41,-169.73 237.41,-227.23"/>
<text text-anchor="middle" x="192.29" y="-209.93" font-family="Times,serif" font-size="14.00">mu</text>
<text text-anchor="middle" x="192.29" y="-193.43" font-family="Times,serif" font-size="14.00">~</text>
<text text-anchor="middle" x="192.29" y="-176.93" font-family="Times,serif" font-size="14.00">Deterministic</text>
</g>
<!-- county&#45;&gt;mu -->
<g id="edge1" class="edge">
<title>county&#45;&gt;mu</title>
<path fill="none" stroke="black" d="M157,-282.37C162.97,-268.34 169.79,-252.33 175.83,-238.15"/>
<polygon fill="black" stroke="black" points="178.98,-239.68 179.67,-229.11 172.53,-236.94 178.98,-239.68"/>
</g>
<!-- floor -->
<g id="node3" class="node">
<title>floor</title>
<ellipse fill="none" stroke="black" cx="247.29" cy="-320.29" rx="41.01" ry="40.66"/>
<text text-anchor="middle" x="247.29" y="-331.74" font-family="Times,serif" font-size="14.00">floor</text>
<text text-anchor="middle" x="247.29" y="-315.24" font-family="Times,serif" font-size="14.00">~</text>
<text text-anchor="middle" x="247.29" y="-298.74" font-family="Times,serif" font-size="14.00">Normal</text>
</g>
<!-- floor&#45;&gt;mu -->
<g id="edge2" class="edge">
<title>floor&#45;&gt;mu</title>
<path fill="none" stroke="black" d="M230.49,-282.69C223.93,-268.41 216.41,-252.02 209.78,-237.59"/>
<polygon fill="black" stroke="black" points="213.13,-236.49 205.78,-228.86 206.77,-239.41 213.13,-236.49"/>
</g>
<!-- mu&#45;&gt;log_radon -->
<g id="edge3" class="edge">
<title>mu&#45;&gt;log_radon</title>
<path fill="none" stroke="black" d="M192.29,-169.27C192.29,-158.44 192.29,-145.73 192.29,-133.41"/>
<polygon fill="black" stroke="black" points="195.79,-133.78 192.29,-123.78 188.79,-133.78 195.79,-133.78"/>
</g>
</g>
</svg>