<?xml version="1.0" encoding="UTF-8" standalone="no"?>
<!DOCTYPE svg PUBLIC "-//W3C//DTD SVG 1.1//EN"
 "http://www.w3.org/Graphics/SVG/1.1/DTD/svg11.dtd">
<!-- Generated by graphviz version 2.43.0 (0)
 -->
<!-- Title: %3 Pages: 1 -->
<svg width="476pt" height="344pt"
 viewBox="0.00 0.00 475.99 343.86" xmlns="http://www.w3.org/2000/svg" xmlns:xlink="http://www.w3.org/1999/xlink">
<g id="graph0" class="graph" transform="scale(1 1) rotate(0) translate(4 339.86)">
<title>%3</title>
<polygon fill="white" stroke="transparent" points="-4,4 -4,-339.86 471.99,-339.86 471.99,4 -4,4"/>
<g id="clust1" class="cluster">
<title>cluster__obs__ (156)</title>
<path fill="none" stroke="black" d="M185.5,-8C185.5,-8 291.5,-8 291.5,-8 297.5,-8 303.5,-14 303.5,-20 303.5,-20 303.5,-209.93 303.5,-209.93 303.5,-215.93 297.5,-221.93 291.5,-221.93 291.5,-221.93 185.5,-221.93 185.5,-221.93 179.5,-221.93 173.5,-215.93 173.5,-209.93 173.5,-209.93 173.5,-20 173.5,-20 173.5,-14 179.5,-8 185.5,-8"/>
<text text-anchor="middle" x="248.5" y="-15.8" font-family="Times,serif" font-size="14.00">__obs__ (156)</text>
</g>
<!-- sigma -->
<g id="node1" class="node">
<title>sigma</title>
<ellipse fill="none" stroke="black" cx="87.5" cy="-187.43" rx="75.82" ry="37.45"/>
<text text-anchor="middle" x="87.5" y="-198.73" font-family="Times,serif" font-size="14.00">sigma</text>
<text text-anchor="middle" x="87.5" y="-183.73" font-family="Times,serif" font-size="14.00">~</text>
<text text-anchor="middle" x="87.5" y="-168.73" font-family="Times,serif" font-size="14.00">Halfstudentt</text>
</g>
<!-- score -->
<g id="node7" class="node">
<title>score</title>
<ellipse fill="lightgrey" stroke="black" cx="234.5" cy="-76.48" rx="49.49" ry="37.45"/>
<text text-anchor="middle" x="234.5" y="-87.78" font-family="Times,serif" font-size="14.00">score</text>
<text text-anchor="middle" x="234.5" y="-72.78" font-family="Times,serif" font-size="14.00">~</text>
<text text-anchor="middle" x="234.5" y="-57.78" font-family="Times,serif" font-size="14.00">Normal</text>
</g>
<!-- sigma&#45;&gt;score -->
<g id="edge5" class="edge">
<title>sigma&#45;&gt;score</title>
<path fill="none" stroke="black" d="M128.84,-155.79C148.3,-141.36 171.52,-124.15 191.23,-109.55"/>
<polygon fill="black" stroke="black" points="193.49,-112.23 199.44,-103.46 189.32,-106.61 193.49,-112.23"/>
</g>
<!-- alc -->
<g id="node2" class="node">
<title>alc</title>
<ellipse fill="none" stroke="black" cx="49.5" cy="-298.38" rx="49.49" ry="37.45"/>
<text text-anchor="middle" x="49.5" y="-309.68" font-family="Times,serif" font-size="14.00">alc</text>
<text text-anchor="middle" x="49.5" y="-294.68" font-family="Times,serif" font-size="14.00">~</text>
<text text-anchor="middle" x="49.5" y="-279.68" font-family="Times,serif" font-size="14.00">Normal</text>
</g>
<!-- mu -->
<g id="node6" class="node">
<title>mu</title>
<polygon fill="none" stroke="black" points="295.5,-213.93 181.5,-213.93 181.5,-160.93 295.5,-160.93 295.5,-213.93"/>
<text text-anchor="middle" x="238.5" y="-198.73" font-family="Times,serif" font-size="14.00">mu</text>
<text text-anchor="middle" x="238.5" y="-183.73" font-family="Times,serif" font-size="14.00">~</text>
<text text-anchor="middle" x="238.5" y="-168.73" font-family="Times,serif" font-size="14.00">Deterministic</text>
</g>
<!-- alc&#45;&gt;mu -->
<g id="edge3" class="edge">
<title>alc&#45;&gt;mu</title>
<path fill="none" stroke="black" d="M86.75,-273.53C93.61,-269.26 100.74,-264.9 107.5,-260.91 109.46,-259.75 148.52,-238.14 183.48,-218.82"/>
<polygon fill="black" stroke="black" points="185.2,-221.87 192.26,-213.97 181.81,-215.75 185.2,-221.87"/>
</g>
<!-- Intercept -->
<g id="node3" class="node">
<title>Intercept</title>
<ellipse fill="none" stroke="black" cx="175.5" cy="-298.38" rx="58.88" ry="37.45"/>
<text text-anchor="middle" x="175.5" y="-309.68" font-family="Times,serif" font-size="14.00">Intercept</text>
<text text-anchor="middle" x="175.5" y="-294.68" font-family="Times,serif" font-size="14.00">~</text>
<text text-anchor="middle" x="175.5" y="-279.68" font-family="Times,serif" font-size="14.00">Normal</text>
</g>
<!-- Intercept&#45;&gt;mu -->
<g id="edge1" class="edge">
<title>Intercept&#45;&gt;mu</title>
<path fill="none" stroke="black" d="M195.43,-262.91C202.8,-250.17 211.15,-235.73 218.52,-222.98"/>
<polygon fill="black" stroke="black" points="221.71,-224.45 223.69,-214.04 215.65,-220.95 221.71,-224.45"/>
</g>
<!-- weed -->
<g id="node4" class="node">
<title>weed</title>
<ellipse fill="none" stroke="black" cx="301.5" cy="-298.38" rx="49.49" ry="37.45"/>
<text text-anchor="middle" x="301.5" y="-309.68" font-family="Times,serif" font-size="14.00">weed</text>
<text text-anchor="middle" x="301.5" y="-294.68" font-family="Times,serif" font-size="14.00">~</text>
<text text-anchor="middle" x="301.5" y="-279.68" font-family="Times,serif" font-size="14.00">Normal</text>
</g>
<!-- weed&#45;&gt;mu -->
<g id="edge4" class="edge">
<title>weed&#45;&gt;mu</title>
<path fill="none" stroke="black" d="M282.08,-263.8C274.56,-250.8 265.96,-235.92 258.39,-222.84"/>
<polygon fill="black" stroke="black" points="261.38,-221.02 253.35,-214.11 255.32,-224.52 261.38,-221.02"/>
</g>
<!-- exrc -->
<g id="node5" class="node">
<title>exrc</title>
<ellipse fill="none" stroke="black" cx="418.5" cy="-298.38" rx="49.49" ry="37.45"/>
<text text-anchor="middle" x="418.5" y="-309.68" font-family="Times,serif" font-size="14.00">exrc</text>
<text text-anchor="middle" x="418.5" y="-294.68" font-family="Times,serif" font-size="14.00">~</text>
<text text-anchor="middle" x="418.5" y="-279.68" font-family="Times,serif" font-size="14.00">Normal</text>
</g>
<!-- exrc&#45;&gt;mu -->
<g id="edge2" class="edge">
<title>exrc&#45;&gt;mu</title>
<path fill="none" stroke="black" d="M380.78,-273.95C373.72,-269.6 366.39,-265.1 359.5,-260.91 336.79,-247.09 311.59,-231.96 290.09,-219.11"/>
<polygon fill="black" stroke="black" points="291.81,-216.06 281.43,-213.94 288.22,-222.07 291.81,-216.06"/>
</g>
<!-- mu&#45;&gt;score -->
<g id="edge6" class="edge">
<title>mu&#45;&gt;score</title>
<path fill="none" stroke="black" d="M237.56,-160.89C237.16,-149.98 236.68,-136.89 236.22,-124.35"/>
<polygon fill="black" stroke="black" points="239.7,-123.87 235.84,-114 232.71,-124.12 239.7,-123.87"/>
</g>
</g>
</svg>