<?xml version="1.0" encoding="UTF-8" standalone="no"?>
<!DOCTYPE svg PUBLIC "-//W3C//DTD SVG 1.1//EN"
 "http://www.w3.org/Graphics/SVG/1.1/DTD/svg11.dtd">
<!-- Generated by graphviz version 12.1.0 (20240811.2233)
 -->
<!-- Pages: 1 -->
<svg width="555pt" height="515pt"
 viewBox="0.00 0.00 555.25 514.77" xmlns="http://www.w3.org/2000/svg" xmlns:xlink="http://www.w3.org/1999/xlink">
<g id="graph0" class="graph" transform="scale(1 1) rotate(0) translate(4 510.77)">
<polygon fill="white" stroke="none" points="-4,4 -4,-510.77 551.25,-510.77 551.25,4 -4,4"/>
<g id="clust1" class="cluster">
<title>clustercounty__factor_dim (85)</title>
<path fill="none" stroke="black" d="M111.25,-247.13C111.25,-247.13 239.25,-247.13 239.25,-247.13 245.25,-247.13 251.25,-253.13 251.25,-259.13 251.25,-259.13 251.25,-356.95 251.25,-356.95 251.25,-362.95 245.25,-368.95 239.25,-368.95 239.25,-368.95 111.25,-368.95 111.25,-368.95 105.25,-368.95 99.25,-362.95 99.25,-356.95 99.25,-356.95 99.25,-259.13 99.25,-259.13 99.25,-253.13 105.25,-247.13 111.25,-247.13"/>
<text text-anchor="middle" x="175" y="-254.33" font-family="Times,serif" font-size="14.00">county__factor_dim (85)</text>
</g>
<g id="clust2" class="cluster">
<title>clusterfloor__expr_dim (1)</title>
<path fill="none" stroke="black" d="M245.25,-376.95C245.25,-376.95 409.25,-376.95 409.25,-376.95 415.25,-376.95 421.25,-382.95 421.25,-388.95 421.25,-388.95 421.25,-486.77 421.25,-486.77 421.25,-492.77 415.25,-498.77 409.25,-498.77 409.25,-498.77 245.25,-498.77 245.25,-498.77 239.25,-498.77 233.25,-492.77 233.25,-486.77 233.25,-486.77 233.25,-388.95 233.25,-388.95 233.25,-382.95 239.25,-376.95 245.25,-376.95"/>
<text text-anchor="middle" x="357.38" y="-384.15" font-family="Times,serif" font-size="14.00">floor__expr_dim (1)</text>
</g>
<g id="clust3" class="cluster">
<title>clustercounty__factor_dim (85) x floor__expr_dim (1)</title>
<path fill="none" stroke="black" d="M273.25,-247.13C273.25,-247.13 527.25,-247.13 527.25,-247.13 533.25,-247.13 539.25,-253.13 539.25,-259.13 539.25,-259.13 539.25,-356.95 539.25,-356.95 539.25,-362.95 533.25,-368.95 527.25,-368.95 527.25,-368.95 273.25,-368.95 273.25,-368.95 267.25,-368.95 261.25,-362.95 261.25,-356.95 261.25,-356.95 261.25,-259.13 261.25,-259.13 261.25,-253.13 267.25,-247.13 273.25,-247.13"/>
<text text-anchor="middle" x="400" y="-254.33" font-family="Times,serif" font-size="14.00">county__factor_dim (85) x floor__expr_dim (1)</text>
</g>
<g id="clust4" class="cluster">
<title>cluster__obs__ (919)</title>
<path fill="none" stroke="black" d="M106.25,-8C106.25,-8 198.25,-8 198.25,-8 204.25,-8 210.25,-14 210.25,-20 210.25,-20 210.25,-223.23 210.25,-223.23 210.25,-229.23 204.25,-235.23 198.25,-235.23 198.25,-235.23 106.25,-235.23 106.25,-235.23 100.25,-235.23 94.25,-229.23 94.25,-223.23 94.25,-223.23 94.25,-20 94.25,-20 94.25,-14 100.25,-8 106.25,-8"/>
<text text-anchor="middle" x="162.88" y="-15.2" font-family="Times,serif" font-size="14.00">__obs__ (919)</text>
</g>
<!-- Intercept -->
<g id="node1" class="node">
<title>Intercept</title>
<ellipse fill="none" stroke="black" cx="45.25" cy="-320.29" rx="45.25" ry="40.66"/>
<text text-anchor="middle" x="45.25" y="-331.74" font-family="Times,serif" font-size="14.00">Intercept</text>
<text text-anchor="middle" x="45.25" y="-315.24" font-family="Times,serif" font-size="14.00">~</text>
<text text-anchor="middle" x="45.25" y="-298.74" font-family="Times,serif" font-size="14.00">Normal</text>
</g>
<!-- mu -->
<g id="node7" class="node">
<title>mu</title>
<polygon fill="none" stroke="black" points="197.38,-227.23 107.13,-227.23 107.13,-169.73 197.38,-169.73 197.38,-227.23"/>
<text text-anchor="middle" x="152.25" y="-209.93" font-family="Times,serif" font-size="14.00">mu</text>
<text text-anchor="middle" x="152.25" y="-193.43" font-family="Times,serif" font-size="14.00">~</text>
<text text-anchor="middle" x="152.25" y="-176.93" font-family="Times,serif" font-size="14.00">Deterministic</text>
</g>
<!-- Intercept&#45;&gt;mu -->
<g id="edge4" class="edge">
<title>Intercept&#45;&gt;mu</title>
<path fill="none" stroke="black" d="M66.88,-284.1C75.1,-271.86 84.98,-258.39 95.25,-247.13 99.02,-243.01 103.14,-238.92 107.39,-234.97"/>
<polygon fill="black" stroke="black" points="109.41,-237.86 114.53,-228.59 104.74,-232.65 109.41,-237.86"/>
</g>
<!-- 1|county_sigma -->
<g id="node2" class="node">
<title>1|county_sigma</title>
<ellipse fill="none" stroke="black" cx="151.25" cy="-450.11" rx="72.3" ry="40.66"/>
<text text-anchor="middle" x="151.25" y="-461.56" font-family="Times,serif" font-size="14.00">1|county_sigma</text>
<text text-anchor="middle" x="151.25" y="-445.06" font-family="Times,serif" font-size="14.00">~</text>
<text text-anchor="middle" x="151.25" y="-428.56" font-family="Times,serif" font-size="14.00">Exponential</text>
</g>
<!-- 1|county -->
<g id="node4" class="node">
<title>1|county</title>
<ellipse fill="none" stroke="black" cx="152.25" cy="-320.29" rx="44.19" ry="40.66"/>
<text text-anchor="middle" x="152.25" y="-331.74" font-family="Times,serif" font-size="14.00">1|county</text>
<text text-anchor="middle" x="152.25" y="-315.24" font-family="Times,serif" font-size="14.00">~</text>
<text text-anchor="middle" x="152.25" y="-298.74" font-family="Times,serif" font-size="14.00">Normal</text>
</g>
<!-- 1|county_sigma&#45;&gt;1|county -->
<g id="edge1" class="edge">
<title>1|county_sigma&#45;&gt;1|county</title>
<path fill="none" stroke="black" d="M151.57,-409.02C151.66,-397.48 151.76,-384.73 151.85,-372.61"/>
<polygon fill="black" stroke="black" points="155.35,-372.78 151.93,-362.76 148.35,-372.73 155.35,-372.78"/>
</g>
<!-- sigma -->
<g id="node3" class="node">
<title>sigma</title>
<ellipse fill="none" stroke="black" cx="281.25" cy="-198.48" rx="63.29" ry="40.66"/>
<text text-anchor="middle" x="281.25" y="-209.93" font-family="Times,serif" font-size="14.00">sigma</text>
<text text-anchor="middle" x="281.25" y="-193.43" font-family="Times,serif" font-size="14.00">~</text>
<text text-anchor="middle" x="281.25" y="-176.93" font-family="Times,serif" font-size="14.00">HalfStudentT</text>
</g>
<!-- log_radon -->
<g id="node8" class="node">
<title>log_radon</title>
<ellipse fill="lightgrey" stroke="black" cx="152.25" cy="-81.16" rx="50.03" ry="40.66"/>
<text text-anchor="middle" x="152.25" y="-92.61" font-family="Times,serif" font-size="14.00">log_radon</text>
<text text-anchor="middle" x="152.25" y="-76.11" font-family="Times,serif" font-size="14.00">~</text>
<text text-anchor="middle" x="152.25" y="-59.61" font-family="Times,serif" font-size="14.00">Normal</text>
</g>
<!-- sigma&#45;&gt;log_radon -->
<g id="edge7" class="edge">
<title>sigma&#45;&gt;log_radon</title>
<path fill="none" stroke="black" d="M244.98,-165.05C229.11,-150.86 210.41,-134.15 193.97,-119.45"/>
<polygon fill="black" stroke="black" points="196.53,-117.04 186.74,-112.99 191.86,-122.26 196.53,-117.04"/>
</g>
<!-- 1|county&#45;&gt;mu -->
<g id="edge3" class="edge">
<title>1|county&#45;&gt;mu</title>
<path fill="none" stroke="black" d="M152.25,-279.4C152.25,-266.37 152.25,-251.91 152.25,-238.91"/>
<polygon fill="black" stroke="black" points="155.75,-238.98 152.25,-228.98 148.75,-238.98 155.75,-238.98"/>
</g>
<!-- floor|county_sigma -->
<g id="node5" class="node">
<title>floor|county_sigma</title>
<ellipse fill="none" stroke="black" cx="327.25" cy="-450.11" rx="86.09" ry="40.66"/>
<text text-anchor="middle" x="327.25" y="-461.56" font-family="Times,serif" font-size="14.00">floor|county_sigma</text>
<text text-anchor="middle" x="327.25" y="-445.06" font-family="Times,serif" font-size="14.00">~</text>
<text text-anchor="middle" x="327.25" y="-428.56" font-family="Times,serif" font-size="14.00">Exponential</text>
</g>
<!-- floor|county -->
<g id="node6" class="node">
<title>floor|county</title>
<ellipse fill="none" stroke="black" cx="327.25" cy="-320.29" rx="57.98" ry="40.66"/>
<text text-anchor="middle" x="327.25" y="-331.74" font-family="Times,serif" font-size="14.00">floor|county</text>
<text text-anchor="middle" x="327.25" y="-315.24" font-family="Times,serif" font-size="14.00">~</text>
<text text-anchor="middle" x="327.25" y="-298.74" font-family="Times,serif" font-size="14.00">Normal</text>
</g>
<!-- floor|county_sigma&#45;&gt;floor|county -->
<g id="edge2" class="edge">
<title>floor|county_sigma&#45;&gt;floor|county</title>
<path fill="none" stroke="black" d="M327.25,-409.02C327.25,-397.48 327.25,-384.73 327.25,-372.61"/>
<polygon fill="black" stroke="black" points="330.75,-372.76 327.25,-362.76 323.75,-372.76 330.75,-372.76"/>
</g>
<!-- floor|county&#45;&gt;mu -->
<g id="edge5" class="edge">
<title>floor|county&#45;&gt;mu</title>
<path fill="none" stroke="black" d="M300.23,-284.04C287.96,-270.43 272.37,-256.03 255.25,-247.13 236.84,-237.56 228.45,-247.02 209.25,-239.13 205.23,-237.48 201.21,-235.5 197.27,-233.33"/>
<polygon fill="black" stroke="black" points="199.36,-230.5 188.98,-228.36 195.76,-236.51 199.36,-230.5"/>
</g>
<!-- mu&#45;&gt;log_radon -->
<g id="edge6" class="edge">
<title>mu&#45;&gt;log_radon</title>
<path fill="none" stroke="black" d="M152.25,-169.27C152.25,-158.44 152.25,-145.73 152.25,-133.41"/>
<polygon fill="black" stroke="black" points="155.75,-133.78 152.25,-123.78 148.75,-133.78 155.75,-133.78"/>
</g>
</g>
</svg>