<?xml version="1.0" encoding="UTF-8" standalone="no"?>
<!DOCTYPE svg PUBLIC "-//W3C//DTD SVG 1.1//EN"
 "http://www.w3.org/Graphics/SVG/1.1/DTD/svg11.dtd">
<!-- Generated by graphviz version 2.43.0 (0)
 -->
<!-- Title: %3 Pages: 1 -->
<svg width="497pt" height="458pt"
 viewBox="0.00 0.00 496.66 457.81" xmlns="http://www.w3.org/2000/svg" xmlns:xlink="http://www.w3.org/1999/xlink">
<g id="graph0" class="graph" transform="scale(1 1) rotate(0) translate(4 453.81)">
<title>%3</title>
<polygon fill="white" stroke="transparent" points="-4,4 -4,-453.81 492.66,-453.81 492.66,4 -4,4"/>
<g id="clust1" class="cluster">
<title>clusterfloor_dim (1)</title>
<path fill="none" stroke="black" d="M183.66,-232.91C183.66,-232.91 273.66,-232.91 273.66,-232.91 279.66,-232.91 285.66,-238.91 285.66,-244.91 285.66,-244.91 285.66,-334.86 285.66,-334.86 285.66,-340.86 279.66,-346.86 273.66,-346.86 273.66,-346.86 183.66,-346.86 183.66,-346.86 177.66,-346.86 171.66,-340.86 171.66,-334.86 171.66,-334.86 171.66,-244.91 171.66,-244.91 171.66,-238.91 177.66,-232.91 183.66,-232.91"/>
<text text-anchor="middle" x="232.16" y="-240.71" font-family="Times,serif" font-size="14.00">floor_dim (1)</text>
</g>
<g id="clust2" class="cluster">
<title>clustercounty__factor_dim (85)</title>
<path fill="none" stroke="black" d="M305.66,-232.91C305.66,-232.91 468.66,-232.91 468.66,-232.91 474.66,-232.91 480.66,-238.91 480.66,-244.91 480.66,-244.91 480.66,-334.86 480.66,-334.86 480.66,-340.86 474.66,-346.86 468.66,-346.86 468.66,-346.86 305.66,-346.86 305.66,-346.86 299.66,-346.86 293.66,-340.86 293.66,-334.86 293.66,-334.86 293.66,-244.91 293.66,-244.91 293.66,-238.91 299.66,-232.91 305.66,-232.91"/>
<text text-anchor="middle" x="387.16" y="-240.71" font-family="Times,serif" font-size="14.00">county__factor_dim (85)</text>
</g>
<g id="clust3" class="cluster">
<title>cluster__obs__ (919)</title>
<path fill="none" stroke="black" d="M171.66,-8C171.66,-8 285.66,-8 285.66,-8 291.66,-8 297.66,-14 297.66,-20 297.66,-20 297.66,-209.93 297.66,-209.93 297.66,-215.93 291.66,-221.93 285.66,-221.93 285.66,-221.93 171.66,-221.93 171.66,-221.93 165.66,-221.93 159.66,-215.93 159.66,-209.93 159.66,-209.93 159.66,-20 159.66,-20 159.66,-14 165.66,-8 171.66,-8"/>
<text text-anchor="middle" x="242.66" y="-15.8" font-family="Times,serif" font-size="14.00">__obs__ (919)</text>
</g>
<!-- sigma -->
<g id="node1" class="node">
<title>sigma</title>
<ellipse fill="none" stroke="black" cx="75.66" cy="-187.43" rx="75.82" ry="37.45"/>
<text text-anchor="middle" x="75.66" y="-198.73" font-family="Times,serif" font-size="14.00">sigma</text>
<text text-anchor="middle" x="75.66" y="-183.73" font-family="Times,serif" font-size="14.00">~</text>
<text text-anchor="middle" x="75.66" y="-168.73" font-family="Times,serif" font-size="14.00">Halfstudentt</text>
</g>
<!-- log_radon -->
<g id="node7" class="node">
<title>log_radon</title>
<ellipse fill="lightgrey" stroke="black" cx="228.66" cy="-76.48" rx="60.62" ry="37.45"/>
<text text-anchor="middle" x="228.66" y="-87.78" font-family="Times,serif" font-size="14.00">log_radon</text>
<text text-anchor="middle" x="228.66" y="-72.78" font-family="Times,serif" font-size="14.00">~</text>
<text text-anchor="middle" x="228.66" y="-57.78" font-family="Times,serif" font-size="14.00">Normal</text>
</g>
<!-- sigma&#45;&gt;log_radon -->
<g id="edge6" class="edge">
<title>sigma&#45;&gt;log_radon</title>
<path fill="none" stroke="black" d="M118.28,-156.08C137.85,-142.14 161.14,-125.56 181.26,-111.23"/>
<polygon fill="black" stroke="black" points="183.56,-113.89 189.67,-105.24 179.5,-108.19 183.56,-113.89"/>
</g>
<!-- Intercept -->
<g id="node2" class="node">
<title>Intercept</title>
<ellipse fill="none" stroke="black" cx="102.66" cy="-301.38" rx="58.88" ry="37.45"/>
<text text-anchor="middle" x="102.66" y="-312.68" font-family="Times,serif" font-size="14.00">Intercept</text>
<text text-anchor="middle" x="102.66" y="-297.68" font-family="Times,serif" font-size="14.00">~</text>
<text text-anchor="middle" x="102.66" y="-282.68" font-family="Times,serif" font-size="14.00">Normal</text>
</g>
<!-- mu -->
<g id="node6" class="node">
<title>mu</title>
<polygon fill="none" stroke="black" points="285.66,-213.93 171.66,-213.93 171.66,-160.93 285.66,-160.93 285.66,-213.93"/>
<text text-anchor="middle" x="228.66" y="-198.73" font-family="Times,serif" font-size="14.00">mu</text>
<text text-anchor="middle" x="228.66" y="-183.73" font-family="Times,serif" font-size="14.00">~</text>
<text text-anchor="middle" x="228.66" y="-168.73" font-family="Times,serif" font-size="14.00">Deterministic</text>
</g>
<!-- Intercept&#45;&gt;mu -->
<g id="edge3" class="edge">
<title>Intercept&#45;&gt;mu</title>
<path fill="none" stroke="black" d="M131.35,-268.34C142.3,-256.74 155.15,-243.81 167.66,-232.91 172.52,-228.67 177.77,-224.41 183.07,-220.31"/>
<polygon fill="black" stroke="black" points="185.55,-222.83 191.41,-214 181.32,-217.24 185.55,-222.83"/>
</g>
<!-- 1|county_sigma -->
<g id="node3" class="node">
<title>1|county_sigma</title>
<ellipse fill="none" stroke="black" cx="356.66" cy="-412.34" rx="90.52" ry="37.45"/>
<text text-anchor="middle" x="356.66" y="-423.64" font-family="Times,serif" font-size="14.00">1|county_sigma</text>
<text text-anchor="middle" x="356.66" y="-408.64" font-family="Times,serif" font-size="14.00">~</text>
<text text-anchor="middle" x="356.66" y="-393.64" font-family="Times,serif" font-size="14.00">Exponential</text>
</g>
<!-- 1|county -->
<g id="node5" class="node">
<title>1|county</title>
<ellipse fill="none" stroke="black" cx="356.66" cy="-301.38" rx="55.31" ry="37.45"/>
<text text-anchor="middle" x="356.66" y="-312.68" font-family="Times,serif" font-size="14.00">1|county</text>
<text text-anchor="middle" x="356.66" y="-297.68" font-family="Times,serif" font-size="14.00">~</text>
<text text-anchor="middle" x="356.66" y="-282.68" font-family="Times,serif" font-size="14.00">Normal</text>
</g>
<!-- 1|county_sigma&#45;&gt;1|county -->
<g id="edge1" class="edge">
<title>1|county_sigma&#45;&gt;1|county</title>
<path fill="none" stroke="black" d="M356.66,-374.75C356.66,-366.58 356.66,-357.8 356.66,-349.27"/>
<polygon fill="black" stroke="black" points="360.16,-349.06 356.66,-339.06 353.16,-349.06 360.16,-349.06"/>
</g>
<!-- floor -->
<g id="node4" class="node">
<title>floor</title>
<ellipse fill="none" stroke="black" cx="228.66" cy="-301.38" rx="49.49" ry="37.45"/>
<text text-anchor="middle" x="228.66" y="-312.68" font-family="Times,serif" font-size="14.00">floor</text>
<text text-anchor="middle" x="228.66" y="-297.68" font-family="Times,serif" font-size="14.00">~</text>
<text text-anchor="middle" x="228.66" y="-282.68" font-family="Times,serif" font-size="14.00">Normal</text>
</g>
<!-- floor&#45;&gt;mu -->
<g id="edge4" class="edge">
<title>floor&#45;&gt;mu</title>
<path fill="none" stroke="black" d="M228.66,-263.73C228.66,-251.07 228.66,-236.92 228.66,-224.32"/>
<polygon fill="black" stroke="black" points="232.16,-224.18 228.66,-214.18 225.16,-224.18 232.16,-224.18"/>
</g>
<!-- 1|county&#45;&gt;mu -->
<g id="edge2" class="edge">
<title>1|county&#45;&gt;mu</title>
<path fill="none" stroke="black" d="M327.63,-269.1C316.19,-257.32 302.69,-244.09 289.66,-232.91 284.77,-228.7 279.5,-224.47 274.18,-220.38"/>
<polygon fill="black" stroke="black" points="275.93,-217.31 265.84,-214.09 271.71,-222.9 275.93,-217.31"/>
</g>
<!-- mu&#45;&gt;log_radon -->
<g id="edge5" class="edge">
<title>mu&#45;&gt;log_radon</title>
<path fill="none" stroke="black" d="M228.66,-160.89C228.66,-149.98 228.66,-136.89 228.66,-124.35"/>
<polygon fill="black" stroke="black" points="232.16,-124 228.66,-114 225.16,-124 232.16,-124"/>
</g>
</g>
</svg>