<?xml version="1.0" encoding="UTF-8" standalone="no"?>
<!DOCTYPE svg PUBLIC "-//W3C//DTD SVG 1.1//EN"
 "http://www.w3.org/Graphics/SVG/1.1/DTD/svg11.dtd">
<!-- Generated by graphviz version 12.1.0 (20240811.2233)
 -->
<!-- Pages: 1 -->
<svg width="340pt" height="276pt"
 viewBox="0.00 0.00 340.01 275.63" xmlns="http://www.w3.org/2000/svg" xmlns:xlink="http://www.w3.org/1999/xlink">
<g id="graph0" class="graph" transform="scale(1 1) rotate(0) translate(4 271.63)">
<polygon fill="white" stroke="none" points="-4,4 -4,-271.63 336.01,-271.63 336.01,4 -4,4"/>
<g id="clust1" class="cluster">
<title>cluster2</title>
<path fill="none" stroke="black" d="M238.01,-137.82C238.01,-137.82 312.01,-137.82 312.01,-137.82 318.01,-137.82 324.01,-143.82 324.01,-149.82 324.01,-149.82 324.01,-247.63 324.01,-247.63 324.01,-253.63 318.01,-259.63 312.01,-259.63 312.01,-259.63 238.01,-259.63 238.01,-259.63 232.01,-259.63 226.01,-253.63 226.01,-247.63 226.01,-247.63 226.01,-149.82 226.01,-149.82 226.01,-143.82 232.01,-137.82 238.01,-137.82"/>
<text text-anchor="middle" x="312.64" y="-145.02" font-family="Times,serif" font-size="14.00">2</text>
</g>
<g id="clust2" class="cluster">
<title>cluster100</title>
<path fill="none" stroke="black" d="M121.01,-8C121.01,-8 195.01,-8 195.01,-8 201.01,-8 207.01,-14 207.01,-20 207.01,-20 207.01,-117.82 207.01,-117.82 207.01,-123.82 201.01,-129.82 195.01,-129.82 195.01,-129.82 121.01,-129.82 121.01,-129.82 115.01,-129.82 109.01,-123.82 109.01,-117.82 109.01,-117.82 109.01,-20 109.01,-20 109.01,-14 115.01,-8 121.01,-8"/>
<text text-anchor="middle" x="188.89" y="-15.2" font-family="Times,serif" font-size="14.00">100</text>
</g>
<!-- beta0 -->
<g id="node1" class="node">
<title>beta0</title>
<ellipse fill="none" stroke="black" cx="41.01" cy="-210.98" rx="41.01" ry="40.66"/>
<text text-anchor="middle" x="41.01" y="-222.43" font-family="Times,serif" font-size="14.00">beta0</text>
<text text-anchor="middle" x="41.01" y="-205.93" font-family="Times,serif" font-size="14.00">~</text>
<text text-anchor="middle" x="41.01" y="-189.43" font-family="Times,serif" font-size="14.00">Normal</text>
</g>
<!-- Y_obs -->
<g id="node4" class="node">
<title>Y_obs</title>
<ellipse fill="lightgrey" stroke="black" cx="158.01" cy="-81.16" rx="41.01" ry="40.66"/>
<text text-anchor="middle" x="158.01" y="-92.61" font-family="Times,serif" font-size="14.00">Y_obs</text>
<text text-anchor="middle" x="158.01" y="-76.11" font-family="Times,serif" font-size="14.00">~</text>
<text text-anchor="middle" x="158.01" y="-59.61" font-family="Times,serif" font-size="14.00">Normal</text>
</g>
<!-- beta0&#45;&gt;Y_obs -->
<g id="edge1" class="edge">
<title>beta0&#45;&gt;Y_obs</title>
<path fill="none" stroke="black" d="M61.88,-175.86C70.24,-163.33 80.41,-149.39 91.01,-137.82 98.75,-129.37 107.78,-121.05 116.65,-113.52"/>
<polygon fill="black" stroke="black" points="118.77,-116.31 124.25,-107.24 114.31,-110.91 118.77,-116.31"/>
</g>
<!-- sigma -->
<g id="node2" class="node">
<title>sigma</title>
<ellipse fill="none" stroke="black" cx="158.01" cy="-210.98" rx="57.98" ry="40.66"/>
<text text-anchor="middle" x="158.01" y="-222.43" font-family="Times,serif" font-size="14.00">sigma</text>
<text text-anchor="middle" x="158.01" y="-205.93" font-family="Times,serif" font-size="14.00">~</text>
<text text-anchor="middle" x="158.01" y="-189.43" font-family="Times,serif" font-size="14.00">HalfNormal</text>
</g>
<!-- sigma&#45;&gt;Y_obs -->
<g id="edge2" class="edge">
<title>sigma&#45;&gt;Y_obs</title>
<path fill="none" stroke="black" d="M158.01,-169.88C158.01,-158.34 158.01,-145.6 158.01,-133.48"/>
<polygon fill="black" stroke="black" points="161.51,-133.62 158.01,-123.62 154.51,-133.62 161.51,-133.62"/>
</g>
<!-- betas -->
<g id="node3" class="node">
<title>betas</title>
<ellipse fill="none" stroke="black" cx="275.01" cy="-210.98" rx="41.01" ry="40.66"/>
<text text-anchor="middle" x="275.01" y="-222.43" font-family="Times,serif" font-size="14.00">betas</text>
<text text-anchor="middle" x="275.01" y="-205.93" font-family="Times,serif" font-size="14.00">~</text>
<text text-anchor="middle" x="275.01" y="-189.43" font-family="Times,serif" font-size="14.00">Normal</text>
</g>
<!-- betas&#45;&gt;Y_obs -->
<g id="edge3" class="edge">
<title>betas&#45;&gt;Y_obs</title>
<path fill="none" stroke="black" d="M254.15,-175.86C245.78,-163.33 235.62,-149.39 225.01,-137.82 217.27,-129.37 208.25,-121.05 199.38,-113.52"/>
<polygon fill="black" stroke="black" points="201.71,-110.91 191.77,-107.24 197.25,-116.31 201.71,-110.91"/>
</g>
</g>
</svg>