<?xml version="1.0" encoding="UTF-8" standalone="no"?>
<!DOCTYPE svg PUBLIC "-//W3C//DTD SVG 1.1//EN"
 "http://www.w3.org/Graphics/SVG/1.1/DTD/svg11.dtd">
<!-- Generated by graphviz version 2.43.0 (0)
 -->
<!-- Title: %3 Pages: 1 -->
<svg width="748pt" height="455pt"
 viewBox="0.00 0.00 748.16 454.84" xmlns="http://www.w3.org/2000/svg" xmlns:xlink="http://www.w3.org/1999/xlink">
<g id="graph0" class="graph" transform="scale(1 1) rotate(0) translate(4 450.84)">
<title>%3</title>
<polygon fill="white" stroke="transparent" points="-4,4 -4,-450.84 744.16,-450.84 744.16,4 -4,4"/>
<g id="clust1" class="cluster">
<title>clusterpredictors (10)</title>
<path fill="none" stroke="black" d="M173.66,-129.95C173.66,-129.95 433.66,-129.95 433.66,-129.95 439.66,-129.95 445.66,-135.95 445.66,-141.95 445.66,-141.95 445.66,-331.88 445.66,-331.88 445.66,-337.88 439.66,-343.88 433.66,-343.88 433.66,-343.88 173.66,-343.88 173.66,-343.88 167.66,-343.88 161.66,-337.88 161.66,-331.88 161.66,-331.88 161.66,-141.95 161.66,-141.95 161.66,-135.95 167.66,-129.95 173.66,-129.95"/>
<text text-anchor="middle" x="384.16" y="-137.75" font-family="Times,serif" font-size="14.00">predictors (10)</text>
</g>
<g id="clust2" class="cluster">
<title>cluster101</title>
<path fill="none" stroke="black" d="M568.66,-8C568.66,-8 658.66,-8 658.66,-8 664.66,-8 670.66,-14 670.66,-20 670.66,-20 670.66,-109.95 670.66,-109.95 670.66,-115.95 664.66,-121.95 658.66,-121.95 658.66,-121.95 568.66,-121.95 568.66,-121.95 562.66,-121.95 556.66,-115.95 556.66,-109.95 556.66,-109.95 556.66,-20 556.66,-20 556.66,-14 562.66,-8 568.66,-8"/>
<text text-anchor="middle" x="648.66" y="-15.8" font-family="Times,serif" font-size="14.00">101</text>
</g>
<!-- sigma -->
<g id="node1" class="node">
<title>sigma</title>
<ellipse fill="none" stroke="black" cx="344.66" cy="-409.36" rx="68.68" ry="37.45"/>
<text text-anchor="middle" x="344.66" y="-420.66" font-family="Times,serif" font-size="14.00">sigma</text>
<text text-anchor="middle" x="344.66" y="-405.66" font-family="Times,serif" font-size="14.00">~</text>
<text text-anchor="middle" x="344.66" y="-390.66" font-family="Times,serif" font-size="14.00">Halfnormal</text>
</g>
<!-- tau -->
<g id="node4" class="node">
<title>tau</title>
<ellipse fill="none" stroke="black" cx="75.66" cy="-298.41" rx="75.82" ry="37.45"/>
<text text-anchor="middle" x="75.66" y="-309.71" font-family="Times,serif" font-size="14.00">tau</text>
<text text-anchor="middle" x="75.66" y="-294.71" font-family="Times,serif" font-size="14.00">~</text>
<text text-anchor="middle" x="75.66" y="-279.71" font-family="Times,serif" font-size="14.00">Halfstudentt</text>
</g>
<!-- sigma&#45;&gt;tau -->
<g id="edge1" class="edge">
<title>sigma&#45;&gt;tau</title>
<path fill="none" stroke="black" d="M285.17,-390.62C247.94,-378.84 199.31,-362.21 157.66,-343.88 149.58,-340.33 141.23,-336.27 133.08,-332.09"/>
<polygon fill="black" stroke="black" points="134.48,-328.87 124,-327.33 131.23,-335.07 134.48,-328.87"/>
</g>
<!-- scores -->
<g id="node8" class="node">
<title>scores</title>
<ellipse fill="lightgrey" stroke="black" cx="613.66" cy="-76.48" rx="49.49" ry="37.45"/>
<text text-anchor="middle" x="613.66" y="-87.78" font-family="Times,serif" font-size="14.00">scores</text>
<text text-anchor="middle" x="613.66" y="-72.78" font-family="Times,serif" font-size="14.00">~</text>
<text text-anchor="middle" x="613.66" y="-57.78" font-family="Times,serif" font-size="14.00">Normal</text>
</g>
<!-- sigma&#45;&gt;scores -->
<g id="edge6" class="edge">
<title>sigma&#45;&gt;scores</title>
<path fill="none" stroke="black" d="M411.32,-399.99C477.19,-390.24 571.38,-371.82 594.66,-343.88 621.54,-311.64 619.9,-191.74 616.64,-124.3"/>
<polygon fill="black" stroke="black" points="620.11,-123.76 616.1,-113.95 613.12,-124.12 620.11,-123.76"/>
</g>
<!-- c2 -->
<g id="node2" class="node">
<title>c2</title>
<ellipse fill="none" stroke="black" cx="520.66" cy="-298.41" rx="65.11" ry="37.45"/>
<text text-anchor="middle" x="520.66" y="-309.71" font-family="Times,serif" font-size="14.00">c2</text>
<text text-anchor="middle" x="520.66" y="-294.71" font-family="Times,serif" font-size="14.00">~</text>
<text text-anchor="middle" x="520.66" y="-279.71" font-family="Times,serif" font-size="14.00">Invgamma</text>
</g>
<!-- beta -->
<g id="node5" class="node">
<title>beta</title>
<polygon fill="none" stroke="black" points="418.66,-213.95 304.66,-213.95 304.66,-160.95 418.66,-160.95 418.66,-213.95"/>
<text text-anchor="middle" x="361.66" y="-198.75" font-family="Times,serif" font-size="14.00">beta</text>
<text text-anchor="middle" x="361.66" y="-183.75" font-family="Times,serif" font-size="14.00">~</text>
<text text-anchor="middle" x="361.66" y="-168.75" font-family="Times,serif" font-size="14.00">Deterministic</text>
</g>
<!-- c2&#45;&gt;beta -->
<g id="edge3" class="edge">
<title>c2&#45;&gt;beta</title>
<path fill="none" stroke="black" d="M479.3,-269.06C457.27,-253.97 430.12,-235.37 407.46,-219.83"/>
<polygon fill="black" stroke="black" points="409.24,-216.81 399.01,-214.05 405.28,-222.59 409.24,-216.81"/>
</g>
<!-- beta0 -->
<g id="node3" class="node">
<title>beta0</title>
<ellipse fill="none" stroke="black" cx="690.66" cy="-187.45" rx="49.49" ry="37.45"/>
<text text-anchor="middle" x="690.66" y="-198.75" font-family="Times,serif" font-size="14.00">beta0</text>
<text text-anchor="middle" x="690.66" y="-183.75" font-family="Times,serif" font-size="14.00">~</text>
<text text-anchor="middle" x="690.66" y="-168.75" font-family="Times,serif" font-size="14.00">Normal</text>
</g>
<!-- beta0&#45;&gt;scores -->
<g id="edge7" class="edge">
<title>beta0&#45;&gt;scores</title>
<path fill="none" stroke="black" d="M667.77,-154.05C659.85,-142.84 650.87,-130.13 642.53,-118.34"/>
<polygon fill="black" stroke="black" points="645.23,-116.09 636.6,-109.94 639.51,-120.13 645.23,-116.09"/>
</g>
<!-- tau&#45;&gt;beta -->
<g id="edge2" class="edge">
<title>tau&#45;&gt;beta</title>
<path fill="none" stroke="black" d="M130.55,-272.29C139.56,-268.37 148.83,-264.46 157.66,-260.93 202.97,-242.84 254.77,-224.46 294.84,-210.74"/>
<polygon fill="black" stroke="black" points="296.17,-213.98 304.5,-207.44 293.91,-207.36 296.17,-213.98"/>
</g>
<!-- beta&#45;&gt;scores -->
<g id="edge8" class="edge">
<title>beta&#45;&gt;scores</title>
<path fill="none" stroke="black" d="M418.84,-161.72C461.82,-143.14 520.2,-117.89 561.82,-99.89"/>
<polygon fill="black" stroke="black" points="563.44,-103.01 571.23,-95.83 560.66,-96.58 563.44,-103.01"/>
</g>
<!-- lam -->
<g id="node6" class="node">
<title>lam</title>
<ellipse fill="none" stroke="black" cx="361.66" cy="-298.41" rx="75.82" ry="37.45"/>
<text text-anchor="middle" x="361.66" y="-309.71" font-family="Times,serif" font-size="14.00">lam</text>
<text text-anchor="middle" x="361.66" y="-294.71" font-family="Times,serif" font-size="14.00">~</text>
<text text-anchor="middle" x="361.66" y="-279.71" font-family="Times,serif" font-size="14.00">Halfstudentt</text>
</g>
<!-- lam&#45;&gt;beta -->
<g id="edge4" class="edge">
<title>lam&#45;&gt;beta</title>
<path fill="none" stroke="black" d="M361.66,-260.82C361.66,-249.09 361.66,-236.1 361.66,-224.41"/>
<polygon fill="black" stroke="black" points="365.16,-224.11 361.66,-214.11 358.16,-224.11 365.16,-224.11"/>
</g>
<!-- z -->
<g id="node7" class="node">
<title>z</title>
<ellipse fill="none" stroke="black" cx="218.66" cy="-298.41" rx="49.49" ry="37.45"/>
<text text-anchor="middle" x="218.66" y="-309.71" font-family="Times,serif" font-size="14.00">z</text>
<text text-anchor="middle" x="218.66" y="-294.71" font-family="Times,serif" font-size="14.00">~</text>
<text text-anchor="middle" x="218.66" y="-279.71" font-family="Times,serif" font-size="14.00">Normal</text>
</g>
<!-- z&#45;&gt;beta -->
<g id="edge5" class="edge">
<title>z&#45;&gt;beta</title>
<path fill="none" stroke="black" d="M252.91,-271.31C273.05,-255.97 298.64,-236.47 319.95,-220.23"/>
<polygon fill="black" stroke="black" points="322.35,-222.81 328.18,-213.96 318.11,-217.24 322.35,-222.81"/>
</g>
</g>
</svg>