<?xml version="1.0" encoding="UTF-8" standalone="no"?>
<!DOCTYPE svg PUBLIC "-//W3C//DTD SVG 1.1//EN"
 "http://www.w3.org/Graphics/SVG/1.1/DTD/svg11.dtd">
<!-- Generated by graphviz version 2.43.0 (0)
 -->
<!-- Title: %3 Pages: 1 -->
<svg width="242pt" height="322pt"
 viewBox="0.00 0.00 242.19 321.91" xmlns="http://www.w3.org/2000/svg" xmlns:xlink="http://www.w3.org/1999/xlink">
<g id="graph0" class="graph" transform="scale(1 1) rotate(0) translate(4 317.91)">
<title>%3</title>
<polygon fill="white" stroke="transparent" points="-4,4 -4,-317.91 238.19,-317.91 238.19,4 -4,4"/>
<g id="clust1" class="cluster">
<title>cluster__obs__ (100)</title>
<path fill="none" stroke="black" d="M58.5,-8C58.5,-8 166.5,-8 166.5,-8 172.5,-8 178.5,-14 178.5,-20 178.5,-20 178.5,-198.95 178.5,-198.95 178.5,-204.95 172.5,-210.95 166.5,-210.95 166.5,-210.95 58.5,-210.95 58.5,-210.95 52.5,-210.95 46.5,-204.95 46.5,-198.95 46.5,-198.95 46.5,-20 46.5,-20 46.5,-14 52.5,-8 58.5,-8"/>
<text text-anchor="middle" x="123.5" y="-15.8" font-family="Times,serif" font-size="14.00">__obs__ (100)</text>
</g>
<!-- work -->
<g id="node1" class="node">
<title>work</title>
<ellipse fill="none" stroke="black" cx="49.5" cy="-276.43" rx="49.49" ry="37.45"/>
<text text-anchor="middle" x="49.5" y="-287.73" font-family="Times,serif" font-size="14.00">work</text>
<text text-anchor="middle" x="49.5" y="-272.73" font-family="Times,serif" font-size="14.00">~</text>
<text text-anchor="middle" x="49.5" y="-257.73" font-family="Times,serif" font-size="14.00">Normal</text>
</g>
<!-- p -->
<g id="node4" class="node">
<title>p</title>
<polygon fill="none" stroke="black" points="169.5,-202.95 55.5,-202.95 55.5,-149.95 169.5,-149.95 169.5,-202.95"/>
<text text-anchor="middle" x="112.5" y="-187.75" font-family="Times,serif" font-size="14.00">p</text>
<text text-anchor="middle" x="112.5" y="-172.75" font-family="Times,serif" font-size="14.00">~</text>
<text text-anchor="middle" x="112.5" y="-157.75" font-family="Times,serif" font-size="14.00">Deterministic</text>
</g>
<!-- work&#45;&gt;p -->
<g id="edge1" class="edge">
<title>work&#45;&gt;p</title>
<path fill="none" stroke="black" d="M70.65,-242.53C77.07,-232.56 84.12,-221.58 90.59,-211.53"/>
<polygon fill="black" stroke="black" points="93.62,-213.29 96.08,-202.98 87.73,-209.5 93.62,-213.29"/>
</g>
<!-- Intercept -->
<g id="node2" class="node">
<title>Intercept</title>
<ellipse fill="none" stroke="black" cx="175.5" cy="-276.43" rx="58.88" ry="37.45"/>
<text text-anchor="middle" x="175.5" y="-287.73" font-family="Times,serif" font-size="14.00">Intercept</text>
<text text-anchor="middle" x="175.5" y="-272.73" font-family="Times,serif" font-size="14.00">~</text>
<text text-anchor="middle" x="175.5" y="-257.73" font-family="Times,serif" font-size="14.00">Normal</text>
</g>
<!-- Intercept&#45;&gt;p -->
<g id="edge2" class="edge">
<title>Intercept&#45;&gt;p</title>
<path fill="none" stroke="black" d="M153.64,-241.44C147.44,-231.79 140.68,-221.28 134.47,-211.62"/>
<polygon fill="black" stroke="black" points="137.3,-209.56 128.95,-203.04 131.42,-213.35 137.3,-209.56"/>
</g>
<!-- hired -->
<g id="node3" class="node">
<title>hired</title>
<ellipse fill="lightgrey" stroke="black" cx="112.5" cy="-76.48" rx="57.97" ry="37.45"/>
<text text-anchor="middle" x="112.5" y="-87.78" font-family="Times,serif" font-size="14.00">hired</text>
<text text-anchor="middle" x="112.5" y="-72.78" font-family="Times,serif" font-size="14.00">~</text>
<text text-anchor="middle" x="112.5" y="-57.78" font-family="Times,serif" font-size="14.00">Bernoulli</text>
</g>
<!-- p&#45;&gt;hired -->
<g id="edge3" class="edge">
<title>p&#45;&gt;hired</title>
<path fill="none" stroke="black" d="M112.5,-149.71C112.5,-141.89 112.5,-133.03 112.5,-124.27"/>
<polygon fill="black" stroke="black" points="116,-124.1 112.5,-114.1 109,-124.1 116,-124.1"/>
</g>
</g>
</svg>