<?xml version="1.0" encoding="UTF-8" standalone="no"?>
<!DOCTYPE svg PUBLIC "-//W3C//DTD SVG 1.1//EN"
 "http://www.w3.org/Graphics/SVG/1.1/DTD/svg11.dtd">
<!-- Generated by graphviz version 2.43.0 (0)
 -->
<!-- Title: %3 Pages: 1 -->
<svg width="412pt" height="363pt"
 viewBox="0.00 0.00 412.20 362.86" xmlns="http://www.w3.org/2000/svg" xmlns:xlink="http://www.w3.org/1999/xlink">
<g id="graph0" class="graph" transform="scale(1 1) rotate(0) translate(4 358.86)">
<title>%3</title>
<polygon fill="white" stroke="transparent" points="-4,4 -4,-358.86 408.2,-358.86 408.2,4 -4,4"/>
<g id="clust1" class="cluster">
<title>clustergroup_dim (2)</title>
<path fill="none" stroke="black" d="M116.2,-232.91C116.2,-232.91 208.2,-232.91 208.2,-232.91 214.2,-232.91 220.2,-238.91 220.2,-244.91 220.2,-244.91 220.2,-334.86 220.2,-334.86 220.2,-340.86 214.2,-346.86 208.2,-346.86 208.2,-346.86 116.2,-346.86 116.2,-346.86 110.2,-346.86 104.2,-340.86 104.2,-334.86 104.2,-334.86 104.2,-244.91 104.2,-244.91 104.2,-238.91 110.2,-232.91 116.2,-232.91"/>
<text text-anchor="middle" x="162.2" y="-240.71" font-family="Times,serif" font-size="14.00">group_dim (2)</text>
</g>
<g id="clust2" class="cluster">
<title>clustersigma_group_dim (2)</title>
<path fill="none" stroke="black" d="M240.2,-232.91C240.2,-232.91 384.2,-232.91 384.2,-232.91 390.2,-232.91 396.2,-238.91 396.2,-244.91 396.2,-244.91 396.2,-334.86 396.2,-334.86 396.2,-340.86 390.2,-346.86 384.2,-346.86 384.2,-346.86 240.2,-346.86 240.2,-346.86 234.2,-346.86 228.2,-340.86 228.2,-334.86 228.2,-334.86 228.2,-244.91 228.2,-244.91 228.2,-238.91 234.2,-232.91 240.2,-232.91"/>
<text text-anchor="middle" x="313.2" y="-240.71" font-family="Times,serif" font-size="14.00">sigma_group_dim (2)</text>
</g>
<g id="clust3" class="cluster">
<title>cluster__obs__ (89)</title>
<path fill="none" stroke="black" d="M122.2,-8C122.2,-8 360.2,-8 360.2,-8 366.2,-8 372.2,-14 372.2,-20 372.2,-20 372.2,-209.93 372.2,-209.93 372.2,-215.93 366.2,-221.93 360.2,-221.93 360.2,-221.93 122.2,-221.93 122.2,-221.93 116.2,-221.93 110.2,-215.93 110.2,-209.93 110.2,-209.93 110.2,-20 110.2,-20 110.2,-14 116.2,-8 122.2,-8"/>
<text text-anchor="middle" x="321.7" y="-15.8" font-family="Times,serif" font-size="14.00">__obs__ (89)</text>
</g>
<!-- nu -->
<g id="node1" class="node">
<title>nu</title>
<ellipse fill="none" stroke="black" cx="50.2" cy="-187.43" rx="50.41" ry="37.45"/>
<text text-anchor="middle" x="50.2" y="-198.73" font-family="Times,serif" font-size="14.00">nu</text>
<text text-anchor="middle" x="50.2" y="-183.73" font-family="Times,serif" font-size="14.00">~</text>
<text text-anchor="middle" x="50.2" y="-168.73" font-family="Times,serif" font-size="14.00">Gamma</text>
</g>
<!-- iq -->
<g id="node5" class="node">
<title>iq</title>
<ellipse fill="lightgrey" stroke="black" cx="177.2" cy="-76.48" rx="58.88" ry="37.45"/>
<text text-anchor="middle" x="177.2" y="-87.78" font-family="Times,serif" font-size="14.00">iq</text>
<text text-anchor="middle" x="177.2" y="-72.78" font-family="Times,serif" font-size="14.00">~</text>
<text text-anchor="middle" x="177.2" y="-57.78" font-family="Times,serif" font-size="14.00">StudentT</text>
</g>
<!-- nu&#45;&gt;iq -->
<g id="edge4" class="edge">
<title>nu&#45;&gt;iq</title>
<path fill="none" stroke="black" d="M82.58,-158.65C98.51,-144.99 117.92,-128.34 135,-113.68"/>
<polygon fill="black" stroke="black" points="137.35,-116.28 142.66,-107.11 132.79,-110.97 137.35,-116.28"/>
</g>
<!-- group -->
<g id="node2" class="node">
<title>group</title>
<ellipse fill="none" stroke="black" cx="163.2" cy="-301.38" rx="49.49" ry="37.45"/>
<text text-anchor="middle" x="163.2" y="-312.68" font-family="Times,serif" font-size="14.00">group</text>
<text text-anchor="middle" x="163.2" y="-297.68" font-family="Times,serif" font-size="14.00">~</text>
<text text-anchor="middle" x="163.2" y="-282.68" font-family="Times,serif" font-size="14.00">Normal</text>
</g>
<!-- mu -->
<g id="node4" class="node">
<title>mu</title>
<polygon fill="none" stroke="black" points="232.2,-213.93 118.2,-213.93 118.2,-160.93 232.2,-160.93 232.2,-213.93"/>
<text text-anchor="middle" x="175.2" y="-198.73" font-family="Times,serif" font-size="14.00">mu</text>
<text text-anchor="middle" x="175.2" y="-183.73" font-family="Times,serif" font-size="14.00">~</text>
<text text-anchor="middle" x="175.2" y="-168.73" font-family="Times,serif" font-size="14.00">Deterministic</text>
</g>
<!-- group&#45;&gt;mu -->
<g id="edge1" class="edge">
<title>group&#45;&gt;mu</title>
<path fill="none" stroke="black" d="M167.13,-263.73C168.49,-251.07 170.01,-236.92 171.36,-224.32"/>
<polygon fill="black" stroke="black" points="174.86,-224.5 172.44,-214.18 167.9,-223.75 174.86,-224.5"/>
</g>
<!-- sigma_group -->
<g id="node3" class="node">
<title>sigma_group</title>
<ellipse fill="none" stroke="black" cx="312.2" cy="-301.38" rx="76.24" ry="37.45"/>
<text text-anchor="middle" x="312.2" y="-312.68" font-family="Times,serif" font-size="14.00">sigma_group</text>
<text text-anchor="middle" x="312.2" y="-297.68" font-family="Times,serif" font-size="14.00">~</text>
<text text-anchor="middle" x="312.2" y="-282.68" font-family="Times,serif" font-size="14.00">Normal</text>
</g>
<!-- sigma -->
<g id="node6" class="node">
<title>sigma</title>
<polygon fill="none" stroke="black" points="364.2,-213.93 250.2,-213.93 250.2,-160.93 364.2,-160.93 364.2,-213.93"/>
<text text-anchor="middle" x="307.2" y="-198.73" font-family="Times,serif" font-size="14.00">sigma</text>
<text text-anchor="middle" x="307.2" y="-183.73" font-family="Times,serif" font-size="14.00">~</text>
<text text-anchor="middle" x="307.2" y="-168.73" font-family="Times,serif" font-size="14.00">Deterministic</text>
</g>
<!-- sigma_group&#45;&gt;sigma -->
<g id="edge2" class="edge">
<title>sigma_group&#45;&gt;sigma</title>
<path fill="none" stroke="black" d="M310.57,-263.73C310,-251.07 309.37,-236.92 308.81,-224.32"/>
<polygon fill="black" stroke="black" points="312.3,-224.01 308.35,-214.18 305.3,-224.33 312.3,-224.01"/>
</g>
<!-- mu&#45;&gt;iq -->
<g id="edge3" class="edge">
<title>mu&#45;&gt;iq</title>
<path fill="none" stroke="black" d="M175.67,-160.89C175.87,-149.98 176.11,-136.89 176.34,-124.35"/>
<polygon fill="black" stroke="black" points="179.85,-124.06 176.53,-114 172.85,-123.94 179.85,-124.06"/>
</g>
<!-- sigma&#45;&gt;iq -->
<g id="edge5" class="edge">
<title>sigma&#45;&gt;iq</title>
<path fill="none" stroke="black" d="M276.73,-160.89C259.78,-146.69 238.43,-128.79 219.86,-113.22"/>
<polygon fill="black" stroke="black" points="222,-110.45 212.09,-106.71 217.5,-115.82 222,-110.45"/>
</g>
</g>
</svg>