<?xml version="1.0" encoding="UTF-8" standalone="no"?>
<!DOCTYPE svg PUBLIC "-//W3C//DTD SVG 1.1//EN"
 "http://www.w3.org/Graphics/SVG/1.1/DTD/svg11.dtd">
<!-- Generated by graphviz version 2.43.0 (0)
 -->
<!-- Title: %3 Pages: 1 -->
<svg width="399pt" height="260pt"
 viewBox="0.00 0.00 398.71 259.91" xmlns="http://www.w3.org/2000/svg" xmlns:xlink="http://www.w3.org/1999/xlink">
<g id="graph0" class="graph" transform="scale(1 1) rotate(0) translate(4 255.91)">
<title>%3</title>
<polygon fill="white" stroke="transparent" points="-4,4 -4,-255.91 394.71,-255.91 394.71,4 -4,4"/>
<g id="clust1" class="cluster">
<title>cluster2</title>
<path fill="none" stroke="black" d="M280.71,-129.95C280.71,-129.95 370.71,-129.95 370.71,-129.95 376.71,-129.95 382.71,-135.95 382.71,-141.95 382.71,-141.95 382.71,-231.91 382.71,-231.91 382.71,-237.91 376.71,-243.91 370.71,-243.91 370.71,-243.91 280.71,-243.91 280.71,-243.91 274.71,-243.91 268.71,-237.91 268.71,-231.91 268.71,-231.91 268.71,-141.95 268.71,-141.95 268.71,-135.95 274.71,-129.95 280.71,-129.95"/>
<text text-anchor="middle" x="369.71" y="-137.75" font-family="Times,serif" font-size="14.00">2</text>
</g>
<g id="clust2" class="cluster">
<title>cluster100</title>
<path fill="none" stroke="black" d="M163.71,-8C163.71,-8 253.71,-8 253.71,-8 259.71,-8 265.71,-14 265.71,-20 265.71,-20 265.71,-109.95 265.71,-109.95 265.71,-115.95 259.71,-121.95 253.71,-121.95 253.71,-121.95 163.71,-121.95 163.71,-121.95 157.71,-121.95 151.71,-115.95 151.71,-109.95 151.71,-109.95 151.71,-20 151.71,-20 151.71,-14 157.71,-8 163.71,-8"/>
<text text-anchor="middle" x="243.71" y="-15.8" font-family="Times,serif" font-size="14.00">100</text>
</g>
<!-- sigma -->
<g id="node1" class="node">
<title>sigma</title>
<ellipse fill="none" stroke="black" cx="70.71" cy="-198.43" rx="70.92" ry="37.45"/>
<text text-anchor="middle" x="70.71" y="-209.73" font-family="Times,serif" font-size="14.00">sigma</text>
<text text-anchor="middle" x="70.71" y="-194.73" font-family="Times,serif" font-size="14.00">~</text>
<text text-anchor="middle" x="70.71" y="-179.73" font-family="Times,serif" font-size="14.00">HalfNormal</text>
</g>
<!-- Y_obs -->
<g id="node4" class="node">
<title>Y_obs</title>
<ellipse fill="lightgrey" stroke="black" cx="208.71" cy="-76.48" rx="49.49" ry="37.45"/>
<text text-anchor="middle" x="208.71" y="-87.78" font-family="Times,serif" font-size="14.00">Y_obs</text>
<text text-anchor="middle" x="208.71" y="-72.78" font-family="Times,serif" font-size="14.00">~</text>
<text text-anchor="middle" x="208.71" y="-57.78" font-family="Times,serif" font-size="14.00">Normal</text>
</g>
<!-- sigma&#45;&gt;Y_obs -->
<g id="edge1" class="edge">
<title>sigma&#45;&gt;Y_obs</title>
<path fill="none" stroke="black" d="M106.97,-165.91C126,-149.37 149.37,-129.06 168.9,-112.08"/>
<polygon fill="black" stroke="black" points="171.21,-114.71 176.46,-105.51 166.62,-109.43 171.21,-114.71"/>
</g>
<!-- beta0 -->
<g id="node2" class="node">
<title>beta0</title>
<ellipse fill="none" stroke="black" cx="208.71" cy="-198.43" rx="49.49" ry="37.45"/>
<text text-anchor="middle" x="208.71" y="-209.73" font-family="Times,serif" font-size="14.00">beta0</text>
<text text-anchor="middle" x="208.71" y="-194.73" font-family="Times,serif" font-size="14.00">~</text>
<text text-anchor="middle" x="208.71" y="-179.73" font-family="Times,serif" font-size="14.00">Normal</text>
</g>
<!-- beta0&#45;&gt;Y_obs -->
<g id="edge2" class="edge">
<title>beta0&#45;&gt;Y_obs</title>
<path fill="none" stroke="black" d="M208.71,-160.79C208.71,-149.38 208.71,-136.65 208.71,-124.63"/>
<polygon fill="black" stroke="black" points="212.21,-124.31 208.71,-114.31 205.21,-124.31 212.21,-124.31"/>
</g>
<!-- betas -->
<g id="node3" class="node">
<title>betas</title>
<ellipse fill="none" stroke="black" cx="325.71" cy="-198.43" rx="49.49" ry="37.45"/>
<text text-anchor="middle" x="325.71" y="-209.73" font-family="Times,serif" font-size="14.00">betas</text>
<text text-anchor="middle" x="325.71" y="-194.73" font-family="Times,serif" font-size="14.00">~</text>
<text text-anchor="middle" x="325.71" y="-179.73" font-family="Times,serif" font-size="14.00">Normal</text>
</g>
<!-- betas&#45;&gt;Y_obs -->
<g id="edge3" class="edge">
<title>betas&#45;&gt;Y_obs</title>
<path fill="none" stroke="black" d="M299.72,-166.18C289.69,-154.54 277.95,-141.38 266.71,-129.95 260.83,-123.97 254.4,-117.81 248.04,-111.92"/>
<polygon fill="black" stroke="black" points="250.38,-109.32 240.64,-105.15 245.66,-114.48 250.38,-109.32"/>
</g>
</g>
</svg>